<?xml version="1.0" encoding="UTF-8" standalone="no"?>
<!DOCTYPE svg PUBLIC "-//W3C//DTD SVG 1.1//EN"
 "http://www.w3.org/Graphics/SVG/1.1/DTD/svg11.dtd">
<!-- Generated by graphviz version 2.38.0 (20140413.2041)
 -->
<!-- Title: foo Pages: 1 -->
<svg width="1572pt" height="694pt"
 viewBox="0.00 0.00 1572.00 694.00" xmlns="http://www.w3.org/2000/svg" xmlns:xlink="http://www.w3.org/1999/xlink">
<g id="graph0" class="graph" transform="scale(1 1) rotate(0) translate(4 690)">
<title>foo</title>
<polygon fill="white" stroke="none" points="-4,4 -4,-690 1568,-690 1568,4 -4,4"/>
<!-- _bs -->
<g id="node1" class="node"><title>_bs</title>
<ellipse fill="none" stroke="grey" cx="254" cy="-83" rx="27" ry="18"/>
<text text-anchor="middle" x="254" y="-79.3" font-family="Times,serif" font-size="14.00">.bs</text>
</g>
<!-- _usr_local_bin_fastrandom -->
<g id="node2" class="node"><title>_usr_local_bin_fastrandom</title>
<ellipse fill="none" stroke="grey" cx="1181" cy="-278" rx="99.3824" ry="18"/>
<text text-anchor="middle" x="1181" y="-274.3" font-family="Times,serif" font-size="14.00">/usr/local/bin/fastrandom</text>
</g>
<!-- _slim_vncserver -->
<g id="node3" class="node"><title>_slim_vncserver</title>
<ellipse fill="none" stroke="blue" cx="380" cy="-538" rx="67.6881" ry="18"/>
<text text-anchor="middle" x="380" y="-534.3" font-family="Times,serif" font-size="14.00">_slim&#45;vncserver</text>
</g>
<!-- chj_bin -->
<g id="node5" class="node"><title>chj_bin</title>
<ellipse fill="none" stroke="blue" cx="361" cy="-278" rx="35.9954" ry="18"/>
<text text-anchor="middle" x="361" y="-274.3" font-family="Times,serif" font-size="14.00">chj&#45;bin</text>
</g>
<!-- _slim_vncserver&#45;&gt;chj_bin -->
<g id="edge3" class="edge"><title>_slim_vncserver&#45;&gt;chj_bin</title>
<path fill="none" stroke="black" d="M318.034,-530.65C288.678,-524.699 255.075,-513.198 232,-491 209.916,-469.755 214.186,-456.202 209,-426 200.884,-378.731 210.711,-356.359 247,-325 267.559,-307.234 295.864,-295.762 319.126,-288.718"/>
<polygon fill="black" stroke="black" points="320.098,-292.08 328.749,-285.964 318.172,-285.35 320.098,-292.08"/>
</g>
<!-- perhaps_aptupdate -->
<g id="node35" class="node"><title>perhaps_aptupdate</title>
<ellipse fill="none" stroke="blue" cx="690" cy="-148" rx="76.8869" ry="18"/>
<text text-anchor="middle" x="690" y="-144.3" font-family="Times,serif" font-size="14.00">perhaps_aptupdate</text>
</g>
<!-- _slim_vncserver&#45;&gt;perhaps_aptupdate -->
<g id="edge1" class="edge"><title>_slim_vncserver&#45;&gt;perhaps_aptupdate</title>
<path fill="none" stroke="black" d="M386.393,-519.778C396.308,-489.775 411.286,-427.542 381,-390 342.74,-342.574 285.26,-408.426 247,-361 236.954,-348.547 240.657,-339.689 247,-325 263.702,-286.321 279.481,-281.008 316,-260 369.475,-229.238 536.231,-186.048 627.966,-163.696"/>
<polygon fill="black" stroke="black" points="629.064,-167.031 637.957,-161.271 627.413,-160.228 629.064,-167.031"/>
</g>
<!-- slim_desktop -->
<g id="node42" class="node"><title>slim_desktop</title>
<ellipse fill="none" stroke="blue" cx="497" cy="-473" rx="56.59" ry="18"/>
<text text-anchor="middle" x="497" y="-469.3" font-family="Times,serif" font-size="14.00">slim&#45;desktop</text>
</g>
<!-- _slim_vncserver&#45;&gt;slim_desktop -->
<g id="edge2" class="edge"><title>_slim_vncserver&#45;&gt;slim_desktop</title>
<path fill="none" stroke="black" d="M408.621,-521.588C424.262,-513.167 443.797,-502.648 460.521,-493.643"/>
<polygon fill="black" stroke="black" points="462.334,-496.641 469.48,-488.819 459.016,-490.478 462.334,-496.641"/>
</g>
<!-- chj -->
<g id="node4" class="node"><title>chj</title>
<ellipse fill="none" stroke="blue" cx="932" cy="-408" rx="27" ry="18"/>
<text text-anchor="middle" x="932" y="-404.3" font-family="Times,serif" font-size="14.00">chj</text>
</g>
<!-- chj&#45;&gt;chj_bin -->
<g id="edge6" class="edge"><title>chj&#45;&gt;chj_bin</title>
<path fill="none" stroke="black" d="M907.332,-400.448C895.196,-397.251 880.344,-393.375 867,-390 749.015,-360.158 719.911,-350.907 601,-325 532.451,-310.065 452.318,-295.231 404.17,-286.599"/>
<polygon fill="black" stroke="black" points="404.565,-283.114 394.105,-284.801 403.334,-290.005 404.565,-283.114"/>
</g>
<!-- chj_emacs -->
<g id="node6" class="node"><title>chj_emacs</title>
<ellipse fill="none" stroke="blue" cx="1363" cy="-343" rx="46.5926" ry="18"/>
<text text-anchor="middle" x="1363" y="-339.3" font-family="Times,serif" font-size="14.00">chj&#45;emacs</text>
</g>
<!-- chj&#45;&gt;chj_emacs -->
<g id="edge7" class="edge"><title>chj&#45;&gt;chj_emacs</title>
<path fill="none" stroke="black" d="M953.288,-396.732C959.511,-394.129 966.414,-391.615 973,-390 1115.56,-355.038 1157.58,-387.259 1302,-361 1307.14,-360.065 1312.48,-358.892 1317.76,-357.6"/>
<polygon fill="black" stroke="black" points="1318.97,-360.9 1327.77,-355.002 1317.22,-354.124 1318.97,-360.9"/>
</g>
<!-- cj_git_patchtool -->
<g id="node11" class="node"><title>cj_git_patchtool</title>
<ellipse fill="none" stroke="blue" cx="941" cy="-343" rx="64.9885" ry="18"/>
<text text-anchor="middle" x="941" y="-339.3" font-family="Times,serif" font-size="14.00">cj&#45;git&#45;patchtool</text>
</g>
<!-- chj&#45;&gt;cj_git_patchtool -->
<g id="edge9" class="edge"><title>chj&#45;&gt;cj_git_patchtool</title>
<path fill="none" stroke="black" d="M934.459,-389.785C935.273,-384.09 936.199,-377.605 937.094,-371.343"/>
<polygon fill="black" stroke="black" points="940.594,-371.589 938.544,-361.194 933.665,-370.599 940.594,-371.589"/>
</g>
<!-- debianpackages -->
<g id="node15" class="node"><title>debianpackages</title>
<ellipse fill="none" stroke="blue" cx="815" cy="-278" rx="66.0889" ry="18"/>
<text text-anchor="middle" x="815" y="-274.3" font-family="Times,serif" font-size="14.00">debianpackages</text>
</g>
<!-- chj&#45;&gt;debianpackages -->
<g id="edge5" class="edge"><title>chj&#45;&gt;debianpackages</title>
<path fill="none" stroke="black" d="M911.975,-395.685C898.264,-387.293 880.239,-374.928 867,-361 851.125,-344.299 837.378,-322.055 828.012,-304.949"/>
<polygon fill="black" stroke="black" points="831.061,-303.227 823.274,-296.042 824.881,-306.514 831.061,-303.227"/>
</g>
<!-- fastrandom -->
<g id="node19" class="node"><title>fastrandom</title>
<ellipse fill="none" stroke="blue" cx="1185" cy="-343" rx="50.8918" ry="18"/>
<text text-anchor="middle" x="1185" y="-339.3" font-family="Times,serif" font-size="14.00">fastrandom</text>
</g>
<!-- chj&#45;&gt;fastrandom -->
<g id="edge8" class="edge"><title>chj&#45;&gt;fastrandom</title>
<path fill="none" stroke="black" d="M953.837,-397.006C959.949,-394.468 966.657,-391.92 973,-390 1036.74,-370.708 1055.09,-375.876 1120,-361 1125.26,-359.795 1130.74,-358.47 1136.19,-357.109"/>
<polygon fill="black" stroke="black" points="1137.08,-360.493 1145.91,-354.636 1135.36,-353.709 1137.08,-360.493"/>
</g>
<!-- git_sign -->
<g id="node26" class="node"><title>git_sign</title>
<ellipse fill="none" stroke="blue" cx="947" cy="-83" rx="37.8943" ry="18"/>
<text text-anchor="middle" x="947" y="-79.3" font-family="Times,serif" font-size="14.00">git&#45;sign</text>
</g>
<!-- chj&#45;&gt;git_sign -->
<g id="edge4" class="edge"><title>chj&#45;&gt;git_sign</title>
<path fill="none" stroke="black" d="M958.591,-404.331C1029.76,-397.014 1220.84,-376.173 1245,-361 1274.54,-342.445 1278.77,-329.353 1289,-296 1330.23,-161.532 1095.07,-107.445 992.763,-90.4774"/>
<polygon fill="black" stroke="black" points="993.137,-86.9927 982.708,-88.8588 992.025,-93.9038 993.137,-86.9927"/>
</g>
<!-- chj_bin&#45;&gt;_bs -->
<g id="edge10" class="edge"><title>chj_bin&#45;&gt;_bs</title>
<path fill="none" stroke="black" d="M325.717,-274.892C259.786,-270.36 121.03,-257.85 82,-231 54.4304,-212.034 52.7487,-198.3 44,-166 39.8169,-150.556 33.9695,-142.466 44,-130 65.2775,-103.557 162.317,-91.469 216.729,-86.6856"/>
<polygon fill="black" stroke="black" points="217.335,-90.1472 227.007,-85.8243 216.75,-83.1717 217.335,-90.1472"/>
</g>
<!-- chj_perllib -->
<g id="node9" class="node"><title>chj_perllib</title>
<ellipse fill="none" stroke="blue" cx="138" cy="-213" rx="47.3916" ry="18"/>
<text text-anchor="middle" x="138" y="-209.3" font-family="Times,serif" font-size="14.00">chj&#45;perllib</text>
</g>
<!-- chj_bin&#45;&gt;chj_perllib -->
<g id="edge12" class="edge"><title>chj_bin&#45;&gt;chj_perllib</title>
<path fill="none" stroke="black" d="M330.46,-268.372C292.834,-257.742 228.521,-239.573 184.685,-227.189"/>
<polygon fill="black" stroke="black" points="185.411,-223.757 174.836,-224.406 183.507,-230.493 185.411,-223.757"/>
</g>
<!-- chj_bin&#45;&gt;git_sign -->
<g id="edge11" class="edge"><title>chj_bin&#45;&gt;git_sign</title>
<path fill="none" stroke="black" d="M396.787,-275.94C484.674,-272.878 708.845,-262.156 776,-231 797.104,-221.209 796.616,-210.461 814,-195 850.252,-162.758 893.626,-127.075 920.753,-105.09"/>
<polygon fill="black" stroke="black" points="923.048,-107.735 928.624,-98.726 918.647,-102.292 923.048,-107.735"/>
</g>
<!-- chj_emacs_checkout -->
<g id="node7" class="node"><title>chj_emacs_checkout</title>
<ellipse fill="none" stroke="blue" cx="1417" cy="-278" rx="81.4863" ry="18"/>
<text text-anchor="middle" x="1417" y="-274.3" font-family="Times,serif" font-size="14.00">chj&#45;emacs&#45;checkout</text>
</g>
<!-- chj_emacs&#45;&gt;chj_emacs_checkout -->
<g id="edge13" class="edge"><title>chj_emacs&#45;&gt;chj_emacs_checkout</title>
<path fill="none" stroke="black" d="M1376.91,-325.776C1382.69,-319.029 1389.53,-311.048 1395.91,-303.607"/>
<polygon fill="black" stroke="black" points="1398.73,-305.699 1402.58,-295.829 1393.41,-301.143 1398.73,-305.699"/>
</g>
<!-- chj_emacs_checkout&#45;&gt;git_sign -->
<g id="edge14" class="edge"><title>chj_emacs_checkout&#45;&gt;git_sign</title>
<path fill="none" stroke="black" d="M1426.36,-259.925C1441.58,-229.589 1466.85,-166.102 1434,-130 1404.8,-97.9141 1111.95,-87.7427 994.936,-84.944"/>
<polygon fill="black" stroke="black" points="994.911,-81.4426 984.833,-84.7103 994.75,-88.4407 994.911,-81.4426"/>
</g>
<!-- chj_fastrandom -->
<g id="node8" class="node"><title>chj_fastrandom</title>
<ellipse fill="none" stroke="green" cx="1361" cy="-148" rx="64.189" ry="18"/>
<text text-anchor="middle" x="1361" y="-144.3" font-family="Times,serif" font-size="14.00">chj&#45;fastrandom</text>
</g>
<!-- chj_fastrandom&#45;&gt;git_sign -->
<g id="edge15" class="edge"><title>chj_fastrandom&#45;&gt;git_sign</title>
<path fill="none" stroke="black" d="M1312.85,-135.887C1303,-133.788 1292.69,-131.716 1283,-130 1180.3,-111.808 1058.85,-96.7674 993.774,-89.2272"/>
<polygon fill="black" stroke="black" points="993.777,-85.7045 983.442,-88.0384 992.977,-92.6586 993.777,-85.7045"/>
</g>
<!-- chj_perllib_checkout -->
<g id="node10" class="node"><title>chj_perllib_checkout</title>
<ellipse fill="none" stroke="blue" cx="355" cy="-148" rx="81.7856" ry="18"/>
<text text-anchor="middle" x="355" y="-144.3" font-family="Times,serif" font-size="14.00">chj&#45;perllib&#45;checkout</text>
</g>
<!-- chj_perllib&#45;&gt;chj_perllib_checkout -->
<g id="edge16" class="edge"><title>chj_perllib&#45;&gt;chj_perllib_checkout</title>
<path fill="none" stroke="black" d="M174.811,-201.313C208.587,-191.507 259.141,-176.83 298.112,-165.516"/>
<polygon fill="black" stroke="black" points="299.126,-168.866 307.753,-162.717 297.174,-162.144 299.126,-168.866"/>
</g>
<!-- chj_perllib_checkout&#45;&gt;_bs -->
<g id="edge17" class="edge"><title>chj_perllib_checkout&#45;&gt;_bs</title>
<path fill="none" stroke="black" d="M328.99,-130.776C314.566,-121.779 296.625,-110.588 281.908,-101.408"/>
<polygon fill="black" stroke="black" points="283.559,-98.3128 273.222,-95.99 279.854,-104.252 283.559,-98.3128"/>
</g>
<!-- chj_perllib_checkout&#45;&gt;git_sign -->
<g id="edge18" class="edge"><title>chj_perllib_checkout&#45;&gt;git_sign</title>
<path fill="none" stroke="black" d="M413.123,-135.308C424.018,-133.354 435.334,-131.483 446,-130 612.02,-106.922 810.662,-92.5947 899.727,-86.8669"/>
<polygon fill="black" stroke="black" points="900.025,-90.3552 909.782,-86.227 899.58,-83.3693 900.025,-90.3552"/>
</g>
<!-- cj_git_patchtool&#45;&gt;chj_bin -->
<g id="edge20" class="edge"><title>cj_git_patchtool&#45;&gt;chj_bin</title>
<path fill="none" stroke="black" d="M881.656,-335.554C765.259,-322.911 509.351,-295.114 405.806,-283.867"/>
<polygon fill="black" stroke="black" points="406.008,-280.368 395.688,-282.768 405.252,-287.327 406.008,-280.368"/>
</g>
<!-- cj_git_patchtool&#45;&gt;debianpackages -->
<g id="edge19" class="edge"><title>cj_git_patchtool&#45;&gt;debianpackages</title>
<path fill="none" stroke="black" d="M910.82,-326.91C893.956,-318.478 872.74,-307.87 854.561,-298.781"/>
<polygon fill="black" stroke="black" points="855.88,-295.527 845.371,-294.185 852.75,-301.788 855.88,-295.527"/>
</g>
<!-- cj_git_patchtool&#45;&gt;git_sign -->
<g id="edge21" class="edge"><title>cj_git_patchtool&#45;&gt;git_sign</title>
<path fill="none" stroke="black" d="M937.249,-324.618C935.586,-316.047 933.822,-305.53 933,-296 926.656,-222.495 922.141,-202.974 933,-130 933.945,-123.653 935.584,-116.969 937.416,-110.724"/>
<polygon fill="black" stroke="black" points="940.889,-111.355 940.593,-100.764 934.22,-109.228 940.889,-111.355"/>
</g>
<!-- cplusplus -->
<g id="node12" class="node"><title>cplusplus</title>
<ellipse fill="none" stroke="blue" cx="1019" cy="-278" rx="44.393" ry="18"/>
<text text-anchor="middle" x="1019" y="-274.3" font-family="Times,serif" font-size="14.00">cplusplus</text>
</g>
<!-- cplusplus&#45;&gt;perhaps_aptupdate -->
<g id="edge22" class="edge"><title>cplusplus&#45;&gt;perhaps_aptupdate</title>
<path fill="none" stroke="black" d="M999.625,-261.674C975.358,-243.215 931.865,-212.51 890,-195 849.87,-178.215 802.527,-166.978 763.98,-159.814"/>
<polygon fill="black" stroke="black" points="764.33,-156.321 753.868,-157.99 763.088,-163.209 764.33,-156.321"/>
</g>
<!-- debian_emacs -->
<g id="node13" class="node"><title>debian_emacs</title>
<ellipse fill="none" stroke="blue" cx="1244" cy="-538" rx="59.5901" ry="18"/>
<text text-anchor="middle" x="1244" y="-534.3" font-family="Times,serif" font-size="14.00">debian&#45;emacs</text>
</g>
<!-- debian_upgrade -->
<g id="node14" class="node"><title>debian_upgrade</title>
<ellipse fill="none" stroke="blue" cx="601" cy="-408" rx="66.8882" ry="18"/>
<text text-anchor="middle" x="601" y="-404.3" font-family="Times,serif" font-size="14.00">debian_upgrade</text>
</g>
<!-- debian_upgrade&#45;&gt;perhaps_aptupdate -->
<g id="edge23" class="edge"><title>debian_upgrade&#45;&gt;perhaps_aptupdate</title>
<path fill="none" stroke="black" d="M603.272,-389.774C604.957,-372.996 606.168,-346.891 601,-325 586.884,-265.206 518.186,-244.92 554,-195 562.948,-182.528 594.768,-171.408 625.38,-163.228"/>
<polygon fill="black" stroke="black" points="626.44,-166.569 635.246,-160.677 624.688,-159.791 626.44,-166.569"/>
</g>
<!-- urxvt -->
<g id="node47" class="node"><title>urxvt</title>
<ellipse fill="none" stroke="blue" cx="852" cy="-213" rx="29.4969" ry="18"/>
<text text-anchor="middle" x="852" y="-209.3" font-family="Times,serif" font-size="14.00">urxvt</text>
</g>
<!-- debianpackages&#45;&gt;urxvt -->
<g id="edge24" class="edge"><title>debianpackages&#45;&gt;urxvt</title>
<path fill="none" stroke="black" d="M824.915,-260.117C828.768,-253.557 833.26,-245.909 837.465,-238.75"/>
<polygon fill="black" stroke="black" points="840.521,-240.456 842.568,-230.061 834.485,-236.911 840.521,-240.456"/>
</g>
<!-- dnsresolver -->
<g id="node16" class="node"><title>dnsresolver</title>
<ellipse fill="none" stroke="green" cx="890" cy="-668" rx="51.1914" ry="18"/>
<text text-anchor="middle" x="890" y="-664.3" font-family="Times,serif" font-size="14.00">dnsresolver</text>
</g>
<!-- dotconfig_xfce4_checkout -->
<g id="node17" class="node"><title>dotconfig_xfce4_checkout</title>
<ellipse fill="none" stroke="blue" cx="154" cy="-148" rx="101.282" ry="18"/>
<text text-anchor="middle" x="154" y="-144.3" font-family="Times,serif" font-size="14.00">dotconfig&#45;xfce4&#45;checkout</text>
</g>
<!-- dotconfig_xfce4_checkout&#45;&gt;_bs -->
<g id="edge25" class="edge"><title>dotconfig_xfce4_checkout&#45;&gt;_bs</title>
<path fill="none" stroke="black" d="M180.274,-130.447C194.459,-121.511 211.96,-110.485 226.351,-101.419"/>
<polygon fill="black" stroke="black" points="228.257,-104.355 234.852,-96.0632 224.526,-98.4323 228.257,-104.355"/>
</g>
<!-- dotconfig_xfce4_checkout&#45;&gt;git_sign -->
<g id="edge26" class="edge"><title>dotconfig_xfce4_checkout&#45;&gt;git_sign</title>
<path fill="none" stroke="black" d="M224.888,-135.127C237.872,-133.214 251.324,-131.404 264,-130 501.732,-103.674 787.802,-90.3105 899.275,-85.7992"/>
<polygon fill="black" stroke="black" points="899.659,-89.2868 909.511,-85.3902 899.379,-82.2924 899.659,-89.2868"/>
</g>
<!-- emacs -->
<g id="node18" class="node"><title>emacs</title>
<ellipse fill="none" stroke="blue" cx="1244" cy="-603" rx="33.2948" ry="18"/>
<text text-anchor="middle" x="1244" y="-599.3" font-family="Times,serif" font-size="14.00">emacs</text>
</g>
<!-- emacs&#45;&gt;chj_emacs -->
<g id="edge28" class="edge"><title>emacs&#45;&gt;chj_emacs</title>
<path fill="none" stroke="black" d="M1269.25,-591.063C1284.15,-583.349 1302.16,-571.607 1313,-556 1352.7,-498.862 1361.16,-414.352 1362.78,-371.327"/>
<polygon fill="black" stroke="black" points="1366.29,-371.172 1363.06,-361.079 1359.29,-370.978 1366.29,-371.172"/>
</g>
<!-- emacs&#45;&gt;debian_emacs -->
<g id="edge27" class="edge"><title>emacs&#45;&gt;debian_emacs</title>
<path fill="none" stroke="black" d="M1244,-584.785C1244,-579.09 1244,-572.605 1244,-566.343"/>
<polygon fill="black" stroke="black" points="1247.5,-566.194 1244,-556.194 1240.5,-566.194 1247.5,-566.194"/>
</g>
<!-- fastrandom&#45;&gt;_usr_local_bin_fastrandom -->
<g id="edge29" class="edge"><title>fastrandom&#45;&gt;_usr_local_bin_fastrandom</title>
<path fill="none" stroke="black" d="M1183.91,-324.785C1183.55,-319.09 1183.13,-312.605 1182.74,-306.343"/>
<polygon fill="black" stroke="black" points="1186.22,-305.952 1182.09,-296.194 1179.23,-306.396 1186.22,-305.952"/>
</g>
<!-- fperl -->
<g id="node20" class="node"><title>fperl</title>
<ellipse fill="none" stroke="green" cx="1051" cy="-343" rx="27.0966" ry="18"/>
<text text-anchor="middle" x="1051" y="-339.3" font-family="Times,serif" font-size="14.00">fperl</text>
</g>
<!-- fperl&#45;&gt;chj_bin -->
<g id="edge32" class="edge"><title>fperl&#45;&gt;chj_bin</title>
<path fill="none" stroke="black" d="M1030.55,-330.751C1025.6,-328.474 1020.22,-326.364 1015,-325 956.575,-309.726 545.574,-288.164 406.711,-281.236"/>
<polygon fill="black" stroke="black" points="406.584,-277.725 396.423,-280.724 406.237,-284.717 406.584,-277.725"/>
</g>
<!-- fperl&#45;&gt;debianpackages -->
<g id="edge31" class="edge"><title>fperl&#45;&gt;debianpackages</title>
<path fill="none" stroke="black" d="M1030,-331.157C1025.15,-328.917 1019.96,-326.72 1015,-325 970.87,-309.705 919.493,-298.013 879.861,-290.244"/>
<polygon fill="black" stroke="black" points="880.273,-286.759 869.792,-288.304 878.949,-293.632 880.273,-286.759"/>
</g>
<!-- fperl&#45;&gt;git_sign -->
<g id="edge30" class="edge"><title>fperl&#45;&gt;git_sign</title>
<path fill="none" stroke="black" d="M1029.57,-331.725C1005.69,-320.072 969.897,-301.922 966,-296 928.544,-239.087 935.185,-154.187 941.834,-111.134"/>
<polygon fill="black" stroke="black" points="945.309,-111.572 943.497,-101.133 938.404,-110.423 945.309,-111.572"/>
</g>
<!-- full_desktop -->
<g id="node21" class="node"><title>full_desktop</title>
<ellipse fill="none" stroke="blue" cx="519" cy="-538" rx="53.0913" ry="18"/>
<text text-anchor="middle" x="519" y="-534.3" font-family="Times,serif" font-size="14.00">full&#45;desktop</text>
</g>
<!-- full_desktop&#45;&gt;slim_desktop -->
<g id="edge33" class="edge"><title>full_desktop&#45;&gt;slim_desktop</title>
<path fill="none" stroke="black" d="M512.988,-519.785C510.951,-513.951 508.625,-507.288 506.389,-500.885"/>
<polygon fill="black" stroke="black" points="509.606,-499.481 503.004,-491.194 502.997,-501.789 509.606,-499.481"/>
</g>
<!-- full_desktop_autoremove -->
<g id="node22" class="node"><title>full_desktop_autoremove</title>
<ellipse fill="none" stroke="green" cx="519" cy="-603" rx="99.3824" ry="18"/>
<text text-anchor="middle" x="519" y="-599.3" font-family="Times,serif" font-size="14.00">full&#45;desktop_autoremove</text>
</g>
<!-- full_desktop_autoremove&#45;&gt;full_desktop -->
<g id="edge34" class="edge"><title>full_desktop_autoremove&#45;&gt;full_desktop</title>
<path fill="none" stroke="black" d="M519,-584.785C519,-579.09 519,-572.605 519,-566.343"/>
<polygon fill="black" stroke="black" points="522.5,-566.194 519,-556.194 515.5,-566.194 522.5,-566.194"/>
</g>
<!-- full_vncserver -->
<g id="node23" class="node"><title>full_vncserver</title>
<ellipse fill="none" stroke="blue" cx="734" cy="-603" rx="59.5901" ry="18"/>
<text text-anchor="middle" x="734" y="-599.3" font-family="Times,serif" font-size="14.00">full&#45;vncserver</text>
</g>
<!-- full_vncserver&#45;&gt;_slim_vncserver -->
<g id="edge35" class="edge"><title>full_vncserver&#45;&gt;_slim_vncserver</title>
<path fill="none" stroke="black" d="M682.383,-593.762C614.578,-582.883 499.179,-564.153 457,-556 451.317,-554.902 445.411,-553.702 439.51,-552.465"/>
<polygon fill="black" stroke="black" points="440.135,-549.02 429.625,-550.359 438.676,-555.866 440.135,-549.02"/>
</g>
<!-- full_vncserver&#45;&gt;debianpackages -->
<g id="edge36" class="edge"><title>full_vncserver&#45;&gt;debianpackages</title>
<path fill="none" stroke="black" d="M734,-584.609C734,-559.987 734,-513.556 734,-474 734,-474 734,-474 734,-407 734,-365.473 764.819,-326.474 788.437,-302.685"/>
<polygon fill="black" stroke="black" points="791.081,-304.996 795.804,-295.512 786.198,-299.981 791.081,-304.996"/>
</g>
<!-- system -->
<g id="node45" class="node"><title>system</title>
<ellipse fill="none" stroke="blue" cx="629" cy="-538" rx="35.9954" ry="18"/>
<text text-anchor="middle" x="629" y="-534.3" font-family="Times,serif" font-size="14.00">system</text>
</g>
<!-- full_vncserver&#45;&gt;system -->
<g id="edge38" class="edge"><title>full_vncserver&#45;&gt;system</title>
<path fill="none" stroke="black" d="M708.314,-586.588C693.697,-577.818 675.29,-566.774 659.889,-557.533"/>
<polygon fill="black" stroke="black" points="661.595,-554.476 651.22,-552.332 657.994,-560.478 661.595,-554.476"/>
</g>
<!-- full_vncserver&#45;&gt;urxvt -->
<g id="edge37" class="edge"><title>full_vncserver&#45;&gt;urxvt</title>
<path fill="none" stroke="black" d="M725.567,-585.084C714.371,-561.027 696,-515.262 696,-474 696,-474 696,-474 696,-342 696,-300.64 709.291,-287.705 740,-260 741.582,-258.572 786.131,-240.483 818.558,-227.422"/>
<polygon fill="black" stroke="black" points="820.201,-230.534 828.172,-223.554 817.588,-224.04 820.201,-230.534"/>
</g>
<!-- gambit -->
<g id="node24" class="node"><title>gambit</title>
<ellipse fill="none" stroke="blue" cx="822" cy="-408" rx="35.9954" ry="18"/>
<text text-anchor="middle" x="822" y="-404.3" font-family="Times,serif" font-size="14.00">gambit</text>
</g>
<!-- gambit&#45;&gt;chj_bin -->
<g id="edge42" class="edge"><title>gambit&#45;&gt;chj_bin</title>
<path fill="none" stroke="black" d="M787.356,-402.94C693.108,-391.885 438.951,-362.001 437,-361 417.687,-351.095 418.745,-340.928 404,-325 397.128,-317.577 389.607,-309.51 382.802,-302.235"/>
<polygon fill="black" stroke="black" points="385.155,-299.627 375.765,-294.719 380.045,-304.411 385.155,-299.627"/>
</g>
<!-- gambit&#45;&gt;chj_emacs -->
<g id="edge43" class="edge"><title>gambit&#45;&gt;chj_emacs</title>
<path fill="none" stroke="black" d="M853.134,-398.806C866.28,-395.619 881.803,-392.209 896,-390 1049.8,-366.07 1090.35,-378.55 1245,-361 1266.46,-358.564 1290.04,-355.289 1310.44,-352.264"/>
<polygon fill="black" stroke="black" points="1311.11,-355.702 1320.48,-350.757 1310.07,-348.78 1311.11,-355.702"/>
</g>
<!-- gambit&#45;&gt;cplusplus -->
<g id="edge40" class="edge"><title>gambit&#45;&gt;cplusplus</title>
<path fill="none" stroke="black" d="M853.579,-399.195C866.66,-396.106 882.015,-392.664 896,-390 938.172,-381.966 1059.01,-393.556 1087,-361 1097.43,-348.867 1094.5,-339.132 1087,-325 1080.61,-312.962 1069.51,-303.498 1058.1,-296.366"/>
<polygon fill="black" stroke="black" points="1059.81,-293.311 1049.39,-291.363 1056.32,-299.38 1059.81,-293.311"/>
</g>
<!-- gambit&#45;&gt;debianpackages -->
<g id="edge41" class="edge"><title>gambit&#45;&gt;debianpackages</title>
<path fill="none" stroke="black" d="M821.07,-390.003C819.899,-368.581 817.871,-331.502 816.484,-306.14"/>
<polygon fill="black" stroke="black" points="819.974,-305.862 815.933,-296.068 812.985,-306.244 819.974,-305.862"/>
</g>
<!-- gambit_checkout -->
<g id="node25" class="node"><title>gambit_checkout</title>
<ellipse fill="none" stroke="blue" cx="525" cy="-148" rx="70.3881" ry="18"/>
<text text-anchor="middle" x="525" y="-144.3" font-family="Times,serif" font-size="14.00">gambit&#45;checkout</text>
</g>
<!-- gambit&#45;&gt;gambit_checkout -->
<g id="edge39" class="edge"><title>gambit&#45;&gt;gambit_checkout</title>
<path fill="none" stroke="black" d="M794.595,-396.161C740.793,-373.535 620.792,-316.209 554,-231 541.503,-215.057 534.139,-193.304 529.962,-176.209"/>
<polygon fill="black" stroke="black" points="533.337,-175.266 527.754,-166.261 526.504,-176.782 533.337,-175.266"/>
</g>
<!-- virtualmem_3GB -->
<g id="node48" class="node"><title>virtualmem_3GB</title>
<ellipse fill="none" stroke="blue" cx="519" cy="-343" rx="73.387" ry="18"/>
<text text-anchor="middle" x="519" y="-339.3" font-family="Times,serif" font-size="14.00">virtualmem_3GB</text>
</g>
<!-- gambit&#45;&gt;virtualmem_3GB -->
<g id="edge44" class="edge"><title>gambit&#45;&gt;virtualmem_3GB</title>
<path fill="none" stroke="black" d="M789.574,-400.258C740.448,-390.044 646.196,-370.447 582.946,-357.296"/>
<polygon fill="black" stroke="black" points="583.575,-353.852 573.072,-355.243 582.15,-360.705 583.575,-353.852"/>
</g>
<!-- gambit_checkout&#45;&gt;_bs -->
<g id="edge45" class="edge"><title>gambit_checkout&#45;&gt;_bs</title>
<path fill="none" stroke="black" d="M474.979,-135.371C420.978,-122.818 336.362,-103.147 289.041,-92.146"/>
<polygon fill="black" stroke="black" points="289.786,-88.726 279.253,-89.8706 288.201,-95.5442 289.786,-88.726"/>
</g>
<!-- gambit_checkout&#45;&gt;git_sign -->
<g id="edge46" class="edge"><title>gambit_checkout&#45;&gt;git_sign</title>
<path fill="none" stroke="black" d="M575.881,-135.436C585.209,-133.491 594.878,-131.591 604,-130 709.484,-111.607 834.33,-96.5294 900.46,-89.0653"/>
<polygon fill="black" stroke="black" points="901.009,-92.5257 910.557,-87.9334 900.229,-85.5693 901.009,-92.5257"/>
</g>
<!-- key -->
<g id="node28" class="node"><title>key</title>
<ellipse fill="none" stroke="blue" cx="1255" cy="-18" rx="27" ry="18"/>
<text text-anchor="middle" x="1255" y="-14.3" font-family="Times,serif" font-size="14.00">key</text>
</g>
<!-- git_sign&#45;&gt;key -->
<g id="edge47" class="edge"><title>git_sign&#45;&gt;key</title>
<path fill="none" stroke="black" d="M981.138,-75.0172C1039.94,-62.9888 1159.77,-38.4783 1219.5,-26.2606"/>
<polygon fill="black" stroke="black" points="1220.49,-29.6313 1229.59,-24.1982 1219.09,-22.7733 1220.49,-29.6313"/>
</g>
<!-- graph_deps -->
<g id="node27" class="node"><title>graph_deps</title>
<ellipse fill="none" stroke="green" cx="613" cy="-213" rx="50.0912" ry="18"/>
<text text-anchor="middle" x="613" y="-209.3" font-family="Times,serif" font-size="14.00">graph&#45;deps</text>
</g>
<!-- graph_deps&#45;&gt;perhaps_aptupdate -->
<g id="edge48" class="edge"><title>graph_deps&#45;&gt;perhaps_aptupdate</title>
<path fill="none" stroke="black" d="M632.43,-196.102C641.341,-188.812 652.074,-180.03 661.847,-172.034"/>
<polygon fill="black" stroke="black" points="664.246,-174.594 669.769,-165.553 659.813,-169.176 664.246,-174.594"/>
</g>
<!-- load_profile -->
<g id="node29" class="node"><title>load_profile</title>
<ellipse fill="none" stroke="green" cx="295" cy="-473" rx="53.8905" ry="18"/>
<text text-anchor="middle" x="295" y="-469.3" font-family="Times,serif" font-size="14.00">load_profile</text>
</g>
<!-- xfce4_load_profile -->
<g id="node51" class="node"><title>xfce4_load_profile</title>
<ellipse fill="none" stroke="blue" cx="295" cy="-408" rx="77.1866" ry="18"/>
<text text-anchor="middle" x="295" y="-404.3" font-family="Times,serif" font-size="14.00">xfce4_load_profile</text>
</g>
<!-- load_profile&#45;&gt;xfce4_load_profile -->
<g id="edge49" class="edge"><title>load_profile&#45;&gt;xfce4_load_profile</title>
<path fill="none" stroke="black" d="M295,-454.785C295,-449.09 295,-442.605 295,-436.343"/>
<polygon fill="black" stroke="black" points="298.5,-436.194 295,-426.194 291.5,-436.194 298.5,-436.194"/>
</g>
<!-- locales -->
<g id="node30" class="node"><title>locales</title>
<ellipse fill="none" stroke="blue" cx="472" cy="-408" rx="35.194" ry="18"/>
<text text-anchor="middle" x="472" y="-404.3" font-family="Times,serif" font-size="14.00">locales</text>
</g>
<!-- locales&#45;&gt;chj_bin -->
<g id="edge50" class="edge"><title>locales&#45;&gt;chj_bin</title>
<path fill="none" stroke="black" d="M448.096,-394.765C433.959,-386.639 416.445,-374.92 404,-361 389.402,-344.671 378.162,-322.494 370.841,-305.32"/>
<polygon fill="black" stroke="black" points="374.004,-303.808 366.987,-295.869 367.522,-306.45 374.004,-303.808"/>
</g>
<!-- mercurial -->
<g id="node31" class="node"><title>mercurial</title>
<ellipse fill="none" stroke="green" cx="117" cy="-343" rx="44.6926" ry="18"/>
<text text-anchor="middle" x="117" y="-339.3" font-family="Times,serif" font-size="14.00">mercurial</text>
</g>
<!-- mercurial&#45;&gt;chj_bin -->
<g id="edge51" class="edge"><title>mercurial&#45;&gt;chj_bin</title>
<path fill="none" stroke="black" d="M152.195,-331.629C160.017,-329.389 168.278,-327.072 176,-325 224.941,-311.869 281.514,-297.991 319.084,-288.956"/>
<polygon fill="black" stroke="black" points="320.247,-292.277 329.155,-286.541 318.614,-285.47 320.247,-292.277"/>
</g>
<!-- moduser -->
<g id="node32" class="node"><title>moduser</title>
<ellipse fill="none" stroke="blue" cx="1075" cy="-473" rx="41.6928" ry="18"/>
<text text-anchor="middle" x="1075" y="-469.3" font-family="Times,serif" font-size="14.00">moduser</text>
</g>
<!-- moduser&#45;&gt;chj -->
<g id="edge52" class="edge"><title>moduser&#45;&gt;chj</title>
<path fill="none" stroke="black" d="M1046.75,-459.553C1022.75,-448.98 988.334,-433.818 963.46,-422.86"/>
<polygon fill="black" stroke="black" points="964.668,-419.568 954.106,-418.739 961.846,-425.974 964.668,-419.568"/>
</g>
<!-- moduser&#45;&gt;key -->
<g id="edge53" class="edge"><title>moduser&#45;&gt;key</title>
<path fill="none" stroke="black" d="M1116.27,-470.036C1234.16,-463.311 1564,-436.254 1564,-344 1564,-344 1564,-344 1564,-147 1564,-30.5983 1374.53,-18.0082 1292.32,-18.0238"/>
<polygon fill="black" stroke="black" points="1292.13,-14.5249 1282.15,-18.0909 1292.17,-21.5247 1292.13,-14.5249"/>
</g>
<!-- nosudo -->
<g id="node33" class="node"><title>nosudo</title>
<ellipse fill="none" stroke="green" cx="996" cy="-668" rx="36.2938" ry="18"/>
<text text-anchor="middle" x="996" y="-664.3" font-family="Times,serif" font-size="14.00">nosudo</text>
</g>
<!-- nosudo_auto -->
<g id="node34" class="node"><title>nosudo_auto</title>
<ellipse fill="none" stroke="blue" cx="77" cy="-603" rx="53.8905" ry="18"/>
<text text-anchor="middle" x="77" y="-599.3" font-family="Times,serif" font-size="14.00">nosudo&#45;auto</text>
</g>
<!-- qemu -->
<g id="node36" class="node"><title>qemu</title>
<ellipse fill="none" stroke="green" cx="925" cy="-473" rx="30.5947" ry="18"/>
<text text-anchor="middle" x="925" y="-469.3" font-family="Times,serif" font-size="14.00">qemu</text>
</g>
<!-- qemu&#45;&gt;gambit -->
<g id="edge55" class="edge"><title>qemu&#45;&gt;gambit</title>
<path fill="none" stroke="black" d="M904.651,-459.553C889.909,-450.537 869.714,-438.184 852.976,-427.947"/>
<polygon fill="black" stroke="black" points="854.447,-424.744 844.09,-422.511 850.795,-430.715 854.447,-424.744"/>
</g>
<!-- qemu&#45;&gt;git_sign -->
<g id="edge54" class="edge"><title>qemu&#45;&gt;git_sign</title>
<path fill="none" stroke="black" d="M953.987,-466.61C1074.04,-444.19 1526,-358.802 1526,-344 1526,-344 1526,-344 1526,-212 1526,-163.793 1497.9,-151.993 1455,-130 1375.51,-89.2478 1105.82,-84.1581 995.074,-83.8313"/>
<polygon fill="black" stroke="black" points="994.87,-80.331 984.864,-83.8135 994.858,-87.331 994.87,-80.331"/>
</g>
<!-- remove_xserver -->
<g id="node37" class="node"><title>remove_xserver</title>
<ellipse fill="none" stroke="green" cx="1117" cy="-668" rx="66.0889" ry="18"/>
<text text-anchor="middle" x="1117" y="-664.3" font-family="Times,serif" font-size="14.00">remove&#45;xserver</text>
</g>
<!-- schemen -->
<g id="node38" class="node"><title>schemen</title>
<ellipse fill="none" stroke="green" cx="778" cy="-668" rx="42.4939" ry="18"/>
<text text-anchor="middle" x="778" y="-664.3" font-family="Times,serif" font-size="14.00">schemen</text>
</g>
<!-- schemen&#45;&gt;emacs -->
<g id="edge60" class="edge"><title>schemen&#45;&gt;emacs</title>
<path fill="none" stroke="black" d="M809.061,-655.696C815.888,-653.536 823.131,-651.488 830,-650 839.033,-648.043 1097.76,-619.865 1201.54,-608.602"/>
<polygon fill="black" stroke="black" points="1202.1,-612.061 1211.67,-607.503 1201.35,-605.102 1202.1,-612.061"/>
</g>
<!-- schemen&#45;&gt;full_vncserver -->
<g id="edge57" class="edge"><title>schemen&#45;&gt;full_vncserver</title>
<path fill="none" stroke="black" d="M766.44,-650.447C761.928,-643.988 756.654,-636.436 751.686,-629.323"/>
<polygon fill="black" stroke="black" points="754.231,-626.855 745.636,-620.661 748.493,-630.863 754.231,-626.855"/>
</g>
<!-- schemen&#45;&gt;gambit -->
<g id="edge59" class="edge"><title>schemen&#45;&gt;gambit</title>
<path fill="none" stroke="black" d="M789.256,-650.26C794.342,-641.842 799.896,-631.266 803,-621 822.389,-556.871 823.845,-477.247 823.043,-436.238"/>
<polygon fill="black" stroke="black" points="826.542,-436.115 822.786,-426.208 819.544,-436.295 826.542,-436.115"/>
</g>
<!-- schemen&#45;&gt;nosudo_auto -->
<g id="edge58" class="edge"><title>schemen&#45;&gt;nosudo_auto</title>
<path fill="none" stroke="black" d="M735.486,-666.737C632.54,-665.495 361.995,-658.598 140,-621 135.291,-620.203 130.425,-619.207 125.581,-618.099"/>
<polygon fill="black" stroke="black" points="126.27,-614.665 115.726,-615.698 124.613,-621.466 126.27,-614.665"/>
</g>
<!-- schemen_lili -->
<g id="node40" class="node"><title>schemen_lili</title>
<ellipse fill="none" stroke="blue" cx="946" cy="-603" rx="54.6905" ry="18"/>
<text text-anchor="middle" x="946" y="-599.3" font-family="Times,serif" font-size="14.00">schemen&#45;lili</text>
</g>
<!-- schemen&#45;&gt;schemen_lili -->
<g id="edge62" class="edge"><title>schemen&#45;&gt;schemen_lili</title>
<path fill="none" stroke="black" d="M808.814,-655.445C834.856,-645.679 872.485,-631.568 901.749,-620.594"/>
<polygon fill="black" stroke="black" points="903.19,-623.792 911.324,-617.003 900.732,-617.238 903.19,-623.792"/>
</g>
<!-- schemen_user -->
<g id="node41" class="node"><title>schemen_user</title>
<ellipse fill="none" stroke="blue" cx="1075" cy="-538" rx="59.5901" ry="18"/>
<text text-anchor="middle" x="1075" y="-534.3" font-family="Times,serif" font-size="14.00">schemen&#45;user</text>
</g>
<!-- schemen&#45;&gt;schemen_user -->
<g id="edge61" class="edge"><title>schemen&#45;&gt;schemen_user</title>
<path fill="none" stroke="black" d="M809.397,-655.863C816.138,-653.718 823.262,-651.634 830,-650 908.75,-630.907 940.091,-661.974 1010,-621 1032.52,-607.798 1050.24,-583.575 1061.46,-564.867"/>
<polygon fill="black" stroke="black" points="1064.64,-566.353 1066.57,-555.936 1058.56,-562.873 1064.64,-566.353"/>
</g>
<!-- schemen&#45;&gt;system -->
<g id="edge56" class="edge"><title>schemen&#45;&gt;system</title>
<path fill="none" stroke="black" d="M740.664,-659.47C716.47,-652.904 685.719,-641.165 665,-621 649.632,-606.043 640.374,-583.399 635.103,-565.694"/>
<polygon fill="black" stroke="black" points="638.45,-564.663 632.444,-555.935 631.696,-566.504 638.45,-564.663"/>
</g>
<!-- tmp_passwd -->
<g id="node46" class="node"><title>tmp_passwd</title>
<ellipse fill="none" stroke="grey" cx="348" cy="-603" rx="53.0913" ry="18"/>
<text text-anchor="middle" x="348" y="-599.3" font-family="Times,serif" font-size="14.00">tmp/passwd</text>
</g>
<!-- schemen&#45;&gt;tmp_passwd -->
<g id="edge63" class="edge"><title>schemen&#45;&gt;tmp_passwd</title>
<path fill="none" stroke="black" d="M736.699,-663.707C668.449,-657.846 528.037,-644.01 411,-621 406.314,-620.079 401.463,-619 396.628,-617.84"/>
<polygon fill="black" stroke="black" points="397.336,-614.41 386.785,-615.371 395.633,-621.199 397.336,-614.41"/>
</g>
<!-- schemen_finish -->
<g id="node39" class="node"><title>schemen_finish</title>
<ellipse fill="none" stroke="green" cx="1266" cy="-668" rx="64.9885" ry="18"/>
<text text-anchor="middle" x="1266" y="-664.3" font-family="Times,serif" font-size="14.00">schemen&#45;finish</text>
</g>
<!-- schemen_lili&#45;&gt;chj_emacs -->
<g id="edge66" class="edge"><title>schemen_lili&#45;&gt;chj_emacs</title>
<path fill="none" stroke="black" d="M950.506,-584.775C959.381,-554.201 982.005,-490.35 1024,-455 1046.95,-435.679 1229.4,-382.007 1316.73,-357.059"/>
<polygon fill="black" stroke="black" points="1317.73,-360.413 1326.39,-354.306 1315.81,-353.681 1317.73,-360.413"/>
</g>
<!-- schemen_lili&#45;&gt;gambit -->
<g id="edge65" class="edge"><title>schemen_lili&#45;&gt;gambit</title>
<path fill="none" stroke="black" d="M935.213,-585.21C913.347,-551.177 863.704,-473.91 838.036,-433.959"/>
<polygon fill="black" stroke="black" points="840.849,-431.862 832.499,-425.341 834.959,-435.646 840.849,-431.862"/>
</g>
<!-- schemen_lili&#45;&gt;schemen_user -->
<g id="edge64" class="edge"><title>schemen_lili&#45;&gt;schemen_user</title>
<path fill="none" stroke="black" d="M975.272,-587.704C993.159,-578.969 1016.26,-567.687 1035.72,-558.181"/>
<polygon fill="black" stroke="black" points="1037.5,-561.21 1044.95,-553.676 1034.43,-554.92 1037.5,-561.21"/>
</g>
<!-- schemen_user&#45;&gt;moduser -->
<g id="edge67" class="edge"><title>schemen_user&#45;&gt;moduser</title>
<path fill="none" stroke="black" d="M1075,-519.785C1075,-514.09 1075,-507.605 1075,-501.343"/>
<polygon fill="black" stroke="black" points="1078.5,-501.194 1075,-491.194 1071.5,-501.194 1078.5,-501.194"/>
</g>
<!-- slim_desktop&#45;&gt;chj -->
<g id="edge68" class="edge"><title>slim_desktop&#45;&gt;chj</title>
<path fill="none" stroke="black" d="M550.963,-467.543C623.324,-461.055 755.596,-447.396 867,-426 877.117,-424.057 887.99,-421.431 897.893,-418.825"/>
<polygon fill="black" stroke="black" points="899.052,-422.137 907.79,-416.146 897.222,-415.381 899.052,-422.137"/>
</g>
<!-- slim_desktop&#45;&gt;xfce4_load_profile -->
<g id="edge69" class="edge"><title>slim_desktop&#45;&gt;xfce4_load_profile</title>
<path fill="none" stroke="black" d="M458.052,-459.853C427.166,-450.22 383.639,-436.645 349.326,-425.943"/>
<polygon fill="black" stroke="black" points="350.043,-422.501 339.455,-422.865 347.959,-429.183 350.043,-422.501"/>
</g>
<!-- slim_vncserver -->
<g id="node43" class="node"><title>slim_vncserver</title>
<ellipse fill="none" stroke="green" cx="213" cy="-603" rx="63.8893" ry="18"/>
<text text-anchor="middle" x="213" y="-599.3" font-family="Times,serif" font-size="14.00">slim&#45;vncserver</text>
</g>
<!-- slim_vncserver&#45;&gt;_slim_vncserver -->
<g id="edge70" class="edge"><title>slim_vncserver&#45;&gt;_slim_vncserver</title>
<path fill="none" stroke="black" d="M249.649,-588.174C274.191,-578.916 306.717,-566.646 333.138,-556.678"/>
<polygon fill="black" stroke="black" points="334.449,-559.925 342.57,-553.12 331.978,-553.375 334.449,-559.925"/>
</g>
<!-- swap -->
<g id="node44" class="node"><title>swap</title>
<ellipse fill="none" stroke="green" cx="285" cy="-343" rx="28.6953" ry="18"/>
<text text-anchor="middle" x="285" y="-339.3" font-family="Times,serif" font-size="14.00">swap</text>
</g>
<!-- swap&#45;&gt;chj_bin -->
<g id="edge71" class="edge"><title>swap&#45;&gt;chj_bin</title>
<path fill="none" stroke="black" d="M301.867,-328.018C311.72,-319.851 324.353,-309.379 335.41,-300.213"/>
<polygon fill="black" stroke="black" points="337.656,-302.897 343.121,-293.82 333.189,-297.508 337.656,-302.897"/>
</g>
<!-- system&#45;&gt;debian_upgrade -->
<g id="edge72" class="edge"><title>system&#45;&gt;debian_upgrade</title>
<path fill="none" stroke="black" d="M625.282,-520.003C620.596,-498.581 612.485,-461.502 606.937,-436.14"/>
<polygon fill="black" stroke="black" points="610.29,-435.089 604.734,-426.068 603.451,-436.585 610.29,-435.089"/>
</g>
<!-- system&#45;&gt;locales -->
<g id="edge73" class="edge"><title>system&#45;&gt;locales</title>
<path fill="none" stroke="black" d="M618.794,-520.474C607.079,-502.553 586.436,-473.973 563,-455 546.864,-441.936 526.413,-431.188 508.988,-423.375"/>
<polygon fill="black" stroke="black" points="510.233,-420.1 499.665,-419.34 507.453,-426.524 510.233,-420.1"/>
</g>
<!-- urxvt&#45;&gt;perhaps_aptupdate -->
<g id="edge74" class="edge"><title>urxvt&#45;&gt;perhaps_aptupdate</title>
<path fill="none" stroke="black" d="M827.747,-202.568C803.933,-193.307 766.967,-178.931 737.322,-167.403"/>
<polygon fill="black" stroke="black" points="738.57,-164.133 727.981,-163.77 736.032,-170.657 738.57,-164.133"/>
</g>
<!-- virtualmem_3GB&#45;&gt;chj_bin -->
<g id="edge75" class="edge"><title>virtualmem_3GB&#45;&gt;chj_bin</title>
<path fill="none" stroke="black" d="M482.354,-327.388C456.811,-317.203 422.879,-303.673 397.391,-293.51"/>
<polygon fill="black" stroke="black" points="398.657,-290.247 388.071,-289.794 396.064,-296.749 398.657,-290.247"/>
</g>
<!-- vncclient -->
<g id="node49" class="node"><title>vncclient</title>
<ellipse fill="none" stroke="green" cx="724" cy="-213" rx="42.7926" ry="18"/>
<text text-anchor="middle" x="724" y="-209.3" font-family="Times,serif" font-size="14.00">vncclient</text>
</g>
<!-- vncclient&#45;&gt;perhaps_aptupdate -->
<g id="edge76" class="edge"><title>vncclient&#45;&gt;perhaps_aptupdate</title>
<path fill="none" stroke="black" d="M714.889,-195.117C711.535,-188.903 707.655,-181.713 703.971,-174.887"/>
<polygon fill="black" stroke="black" points="706.966,-173.067 699.137,-165.929 700.806,-176.392 706.966,-173.067"/>
</g>
<!-- xfce -->
<g id="node50" class="node"><title>xfce</title>
<ellipse fill="none" stroke="blue" cx="27" cy="-343" rx="27" ry="18"/>
<text text-anchor="middle" x="27" y="-339.3" font-family="Times,serif" font-size="14.00">xfce</text>
</g>
<!-- xfce&#45;&gt;chj_bin -->
<g id="edge78" class="edge"><title>xfce&#45;&gt;chj_bin</title>
<path fill="none" stroke="black" d="M47.5338,-331.062C52.4894,-328.773 57.8451,-326.579 63,-325 86.7834,-317.717 239.508,-295.893 316.606,-285.134"/>
<polygon fill="black" stroke="black" points="317.54,-288.538 326.962,-283.692 316.575,-281.605 317.54,-288.538"/>
</g>
<!-- xfce&#45;&gt;dotconfig_xfce4_checkout -->
<g id="edge79" class="edge"><title>xfce&#45;&gt;dotconfig_xfce4_checkout</title>
<path fill="none" stroke="black" d="M29.7608,-324.825C35.2227,-295.437 49.7826,-234.828 82,-195 89.7983,-185.359 100.181,-177.11 110.628,-170.371"/>
<polygon fill="black" stroke="black" points="112.632,-173.249 119.364,-165.069 109,-167.266 112.632,-173.249"/>
</g>
<!-- xfce&#45;&gt;perhaps_aptupdate -->
<g id="edge77" class="edge"><title>xfce&#45;&gt;perhaps_aptupdate</title>
<path fill="none" stroke="black" d="M46.2509,-330.178C77.8244,-310.575 142.272,-269.66 194,-231 213.965,-216.079 213.928,-204.428 237,-195 312.731,-164.053 522.957,-177.173 604,-166 611.048,-165.028 618.391,-163.844 625.684,-162.559"/>
<polygon fill="black" stroke="black" points="626.36,-165.993 635.567,-160.752 625.101,-159.107 626.36,-165.993"/>
</g>
<!-- xfce4_load_profile&#45;&gt;chj_bin -->
<g id="edge80" class="edge"><title>xfce4_load_profile&#45;&gt;chj_bin</title>
<path fill="none" stroke="black" d="M306.108,-389.794C311.45,-381.266 317.804,-370.732 323,-361 332.73,-342.775 342.504,-321.604 349.702,-305.34"/>
<polygon fill="black" stroke="black" points="353.023,-306.482 353.828,-295.918 346.611,-303.674 353.023,-306.482"/>
</g>
<!-- xfce4_load_profile&#45;&gt;xfce -->
<g id="edge81" class="edge"><title>xfce4_load_profile&#45;&gt;xfce</title>
<path fill="none" stroke="black" d="M229.397,-398.389C182.322,-391.155 117.791,-379.064 63,-361 61.0799,-360.367 59.1287,-359.657 57.1784,-358.895"/>
<polygon fill="black" stroke="black" points="58.1542,-355.505 47.5843,-354.779 55.3942,-361.938 58.1542,-355.505"/>
</g>
</g>
</svg>
