<?xml version="1.0" encoding="UTF-8" standalone="no"?>
<!DOCTYPE svg PUBLIC "-//W3C//DTD SVG 1.1//EN"
 "http://www.w3.org/Graphics/SVG/1.1/DTD/svg11.dtd">
<!-- Generated by graphviz version 2.38.0 (20140413.2041)
 -->
<!-- Title: foo Pages: 1 -->
<svg width="1446pt" height="629pt"
 viewBox="0.00 0.00 1446.38 629.00" xmlns="http://www.w3.org/2000/svg" xmlns:xlink="http://www.w3.org/1999/xlink">
<g id="graph0" class="graph" transform="scale(1 1) rotate(0) translate(4 625)">
<title>foo</title>
<polygon fill="white" stroke="none" points="-4,4 -4,-625 1442.38,-625 1442.38,4 -4,4"/>
<!-- _bs -->
<g id="node1" class="node"><title>_bs</title>
<ellipse fill="none" stroke="grey" cx="1239.55" cy="-83" rx="27" ry="18"/>
<text text-anchor="middle" x="1239.55" y="-79.3" font-family="Times,serif" font-size="14.00">.bs</text>
</g>
<!-- _usr_local_bin_fastrandom -->
<g id="node2" class="node"><title>_usr_local_bin_fastrandom</title>
<ellipse fill="none" stroke="grey" cx="816.547" cy="-278" rx="99.3824" ry="18"/>
<text text-anchor="middle" x="816.547" y="-274.3" font-family="Times,serif" font-size="14.00">/usr/local/bin/fastrandom</text>
</g>
<!-- _vncserver -->
<g id="node3" class="node"><title>_vncserver</title>
<ellipse fill="none" stroke="blue" cx="1227.55" cy="-538" rx="49.2915" ry="18"/>
<text text-anchor="middle" x="1227.55" y="-534.3" font-family="Times,serif" font-size="14.00">_vncserver</text>
</g>
<!-- chj_bin -->
<g id="node5" class="node"><title>chj_bin</title>
<ellipse fill="none" stroke="blue" cx="1121.55" cy="-278" rx="35.9954" ry="18"/>
<text text-anchor="middle" x="1121.55" y="-274.3" font-family="Times,serif" font-size="14.00">chj&#45;bin</text>
</g>
<!-- _vncserver&#45;&gt;chj_bin -->
<g id="edge3" class="edge"><title>_vncserver&#45;&gt;chj_bin</title>
<path fill="none" stroke="black" d="M1241.22,-520.679C1277.01,-477.031 1368.89,-358.649 1341.55,-325 1319.96,-298.431 1224.61,-286.673 1166.76,-281.905"/>
<polygon fill="black" stroke="black" points="1167.01,-278.414 1156.77,-281.12 1166.46,-285.392 1167.01,-278.414"/>
</g>
<!-- desktop -->
<g id="node17" class="node"><title>desktop</title>
<ellipse fill="none" stroke="blue" cx="1082.55" cy="-473" rx="38.1938" ry="18"/>
<text text-anchor="middle" x="1082.55" y="-469.3" font-family="Times,serif" font-size="14.00">desktop</text>
</g>
<!-- _vncserver&#45;&gt;desktop -->
<g id="edge2" class="edge"><title>_vncserver&#45;&gt;desktop</title>
<path fill="none" stroke="black" d="M1197.15,-523.793C1174.42,-513.919 1143.25,-500.374 1119.15,-489.904"/>
<polygon fill="black" stroke="black" points="1120.53,-486.688 1109.97,-485.913 1117.74,-493.108 1120.53,-486.688"/>
</g>
<!-- perhaps_aptupdate -->
<g id="node32" class="node"><title>perhaps_aptupdate</title>
<ellipse fill="none" stroke="blue" cx="939.547" cy="-148" rx="76.8869" ry="18"/>
<text text-anchor="middle" x="939.547" y="-144.3" font-family="Times,serif" font-size="14.00">perhaps_aptupdate</text>
</g>
<!-- _vncserver&#45;&gt;perhaps_aptupdate -->
<g id="edge1" class="edge"><title>_vncserver&#45;&gt;perhaps_aptupdate</title>
<path fill="none" stroke="black" d="M1273.69,-531.426C1323.28,-524.497 1397.67,-511.077 1417.55,-491 1443.87,-464.417 1436.55,-446.41 1436.55,-409 1436.55,-409 1436.55,-409 1436.55,-342 1436.55,-253.895 1381.67,-235.727 1303.55,-195 1278.97,-182.19 1119.61,-165.539 1020.06,-156.189"/>
<polygon fill="black" stroke="black" points="1020.3,-152.697 1010.02,-155.252 1019.65,-159.667 1020.3,-152.697"/>
</g>
<!-- chj -->
<g id="node4" class="node"><title>chj</title>
<ellipse fill="none" stroke="blue" cx="756.547" cy="-408" rx="27" ry="18"/>
<text text-anchor="middle" x="756.547" y="-404.3" font-family="Times,serif" font-size="14.00">chj</text>
</g>
<!-- chj&#45;&gt;chj_bin -->
<g id="edge6" class="edge"><title>chj&#45;&gt;chj_bin</title>
<path fill="none" stroke="black" d="M780.211,-399.18C805.912,-390.514 848.049,-375.797 883.547,-361 918.046,-346.62 924.345,-337.558 959.547,-325 1010.01,-306.999 1025.4,-311.939 1076.55,-296 1079.15,-295.189 1081.82,-294.309 1084.5,-293.391"/>
<polygon fill="black" stroke="black" points="1085.88,-296.612 1094.12,-289.95 1083.53,-290.02 1085.88,-296.612"/>
</g>
<!-- chj_emacs -->
<g id="node6" class="node"><title>chj_emacs</title>
<ellipse fill="none" stroke="blue" cx="302.547" cy="-278" rx="46.5926" ry="18"/>
<text text-anchor="middle" x="302.547" y="-274.3" font-family="Times,serif" font-size="14.00">chj&#45;emacs</text>
</g>
<!-- chj&#45;&gt;chj_emacs -->
<g id="edge7" class="edge"><title>chj&#45;&gt;chj_emacs</title>
<path fill="none" stroke="black" d="M729.494,-407.233C648.104,-407.44 407.252,-404.297 344.547,-361 325.89,-348.117 315.017,-324.36 309.028,-305.721"/>
<polygon fill="black" stroke="black" points="312.35,-304.611 306.185,-295.994 305.632,-306.575 312.35,-304.611"/>
</g>
<!-- cj_git_patchtool -->
<g id="node12" class="node"><title>cj_git_patchtool</title>
<ellipse fill="none" stroke="blue" cx="689.547" cy="-343" rx="64.9885" ry="18"/>
<text text-anchor="middle" x="689.547" y="-339.3" font-family="Times,serif" font-size="14.00">cj&#45;git&#45;patchtool</text>
</g>
<!-- chj&#45;&gt;cj_git_patchtool -->
<g id="edge9" class="edge"><title>chj&#45;&gt;cj_git_patchtool</title>
<path fill="none" stroke="black" d="M741.344,-392.704C733.381,-385.217 723.428,-375.858 714.381,-367.351"/>
<polygon fill="black" stroke="black" points="716.741,-364.766 707.058,-360.465 711.945,-369.865 716.741,-364.766"/>
</g>
<!-- debianpackages -->
<g id="node16" class="node"><title>debianpackages</title>
<ellipse fill="none" stroke="blue" cx="547.547" cy="-278" rx="66.0889" ry="18"/>
<text text-anchor="middle" x="547.547" y="-274.3" font-family="Times,serif" font-size="14.00">debianpackages</text>
</g>
<!-- chj&#45;&gt;debianpackages -->
<g id="edge5" class="edge"><title>chj&#45;&gt;debianpackages</title>
<path fill="none" stroke="black" d="M729.576,-405.268C677.602,-401.309 566.654,-389.63 543.547,-361 531.275,-345.795 533.294,-323.359 537.817,-305.797"/>
<polygon fill="black" stroke="black" points="541.202,-306.694 540.681,-296.112 534.489,-304.709 541.202,-306.694"/>
</g>
<!-- fastrandom -->
<g id="node21" class="node"><title>fastrandom</title>
<ellipse fill="none" stroke="blue" cx="823.547" cy="-343" rx="50.8918" ry="18"/>
<text text-anchor="middle" x="823.547" y="-339.3" font-family="Times,serif" font-size="14.00">fastrandom</text>
</g>
<!-- chj&#45;&gt;fastrandom -->
<g id="edge8" class="edge"><title>chj&#45;&gt;fastrandom</title>
<path fill="none" stroke="black" d="M771.751,-392.704C779.834,-385.103 789.969,-375.574 799.124,-366.965"/>
<polygon fill="black" stroke="black" points="801.631,-369.412 806.519,-360.012 796.836,-364.313 801.631,-369.412"/>
</g>
<!-- git_sign -->
<g id="node25" class="node"><title>git_sign</title>
<ellipse fill="none" stroke="blue" cx="677.547" cy="-83" rx="37.8943" ry="18"/>
<text text-anchor="middle" x="677.547" y="-79.3" font-family="Times,serif" font-size="14.00">git&#45;sign</text>
</g>
<!-- chj&#45;&gt;git_sign -->
<g id="edge4" class="edge"><title>chj&#45;&gt;git_sign</title>
<path fill="none" stroke="black" d="M729.751,-405.764C647.204,-401.686 400.925,-387.387 377.547,-361 348.474,-328.185 351.995,-220.871 463.547,-130 488.735,-109.482 575.739,-95.8518 630.75,-89.0616"/>
<polygon fill="black" stroke="black" points="631.451,-92.5026 640.962,-87.834 630.616,-85.5526 631.451,-92.5026"/>
</g>
<!-- chj_bin&#45;&gt;_bs -->
<g id="edge10" class="edge"><title>chj_bin&#45;&gt;_bs</title>
<path fill="none" stroke="black" d="M1157.31,-277.085C1197.46,-275.31 1262.35,-266.573 1303.55,-231 1338.71,-200.63 1354.89,-169.579 1330.55,-130 1318.41,-110.264 1294.9,-98.6843 1274.81,-92.08"/>
<polygon fill="black" stroke="black" points="1275.58,-88.6568 1265,-89.1433 1273.57,-95.363 1275.58,-88.6568"/>
</g>
<!-- chj_perllib -->
<g id="node9" class="node"><title>chj_perllib</title>
<ellipse fill="none" stroke="blue" cx="1247.55" cy="-213" rx="47.3916" ry="18"/>
<text text-anchor="middle" x="1247.55" y="-209.3" font-family="Times,serif" font-size="14.00">chj&#45;perllib</text>
</g>
<!-- chj_bin&#45;&gt;chj_perllib -->
<g id="edge12" class="edge"><title>chj_bin&#45;&gt;chj_perllib</title>
<path fill="none" stroke="black" d="M1146.14,-264.703C1164.52,-255.512 1189.96,-242.792 1210.76,-232.393"/>
<polygon fill="black" stroke="black" points="1212.57,-235.402 1219.95,-227.799 1209.44,-229.141 1212.57,-235.402"/>
</g>
<!-- chj_bin&#45;&gt;git_sign -->
<g id="edge11" class="edge"><title>chj_bin&#45;&gt;git_sign</title>
<path fill="none" stroke="black" d="M1120.71,-259.797C1119.17,-242.331 1114.82,-215.074 1102.55,-195 1079.19,-156.789 1066.51,-148.108 1025.55,-130 972.696,-106.635 807.181,-92.6441 724.922,-86.9605"/>
<polygon fill="black" stroke="black" points="725.054,-83.4614 714.84,-86.2767 724.58,-90.4454 725.054,-83.4614"/>
</g>
<!-- chj_emacs_checkout -->
<g id="node7" class="node"><title>chj_emacs_checkout</title>
<ellipse fill="none" stroke="blue" cx="268.547" cy="-148" rx="81.4863" ry="18"/>
<text text-anchor="middle" x="268.547" y="-144.3" font-family="Times,serif" font-size="14.00">chj&#45;emacs&#45;checkout</text>
</g>
<!-- chj_emacs&#45;&gt;chj_emacs_checkout -->
<g id="edge13" class="edge"><title>chj_emacs&#45;&gt;chj_emacs_checkout</title>
<path fill="none" stroke="black" d="M298.032,-260.003C292.317,-238.485 282.405,-201.171 275.666,-175.801"/>
<polygon fill="black" stroke="black" points="279.031,-174.834 273.081,-166.068 272.266,-176.631 279.031,-174.834"/>
</g>
<!-- chj_emacs_checkout&#45;&gt;git_sign -->
<g id="edge14" class="edge"><title>chj_emacs_checkout&#45;&gt;git_sign</title>
<path fill="none" stroke="black" d="M328.805,-135.921C340.327,-133.886 352.302,-131.829 363.547,-130 458.65,-114.529 570.352,-98.7283 631.593,-90.2686"/>
<polygon fill="black" stroke="black" points="632.273,-93.708 641.702,-88.8756 631.317,-86.7735 632.273,-93.708"/>
</g>
<!-- chj_fastrandom -->
<g id="node8" class="node"><title>chj_fastrandom</title>
<ellipse fill="none" stroke="green" cx="536.547" cy="-148" rx="64.189" ry="18"/>
<text text-anchor="middle" x="536.547" y="-144.3" font-family="Times,serif" font-size="14.00">chj&#45;fastrandom</text>
</g>
<!-- chj_fastrandom&#45;&gt;git_sign -->
<g id="edge15" class="edge"><title>chj_fastrandom&#45;&gt;git_sign</title>
<path fill="none" stroke="black" d="M569.25,-132.388C590.89,-122.719 619.275,-110.036 641.557,-100.081"/>
<polygon fill="black" stroke="black" points="642.992,-103.273 650.694,-95.9981 640.136,-96.882 642.992,-103.273"/>
</g>
<!-- chj_perllib_checkout -->
<g id="node10" class="node"><title>chj_perllib_checkout</title>
<ellipse fill="none" stroke="blue" cx="1239.55" cy="-148" rx="81.7856" ry="18"/>
<text text-anchor="middle" x="1239.55" y="-144.3" font-family="Times,serif" font-size="14.00">chj&#45;perllib&#45;checkout</text>
</g>
<!-- chj_perllib&#45;&gt;chj_perllib_checkout -->
<g id="edge16" class="edge"><title>chj_perllib&#45;&gt;chj_perllib_checkout</title>
<path fill="none" stroke="black" d="M1245.36,-194.785C1244.64,-189.09 1243.81,-182.605 1243.02,-176.343"/>
<polygon fill="black" stroke="black" points="1246.46,-175.674 1241.73,-166.194 1239.52,-176.555 1246.46,-175.674"/>
</g>
<!-- chj_perllib_checkout&#45;&gt;_bs -->
<g id="edge17" class="edge"><title>chj_perllib_checkout&#45;&gt;_bs</title>
<path fill="none" stroke="black" d="M1239.55,-129.785C1239.55,-124.09 1239.55,-117.605 1239.55,-111.343"/>
<polygon fill="black" stroke="black" points="1243.05,-111.194 1239.55,-101.194 1236.05,-111.194 1243.05,-111.194"/>
</g>
<!-- chj_perllib_checkout&#45;&gt;git_sign -->
<g id="edge18" class="edge"><title>chj_perllib_checkout&#45;&gt;git_sign</title>
<path fill="none" stroke="black" d="M1177.5,-136.212C1163.71,-133.995 1149.15,-131.793 1135.55,-130 985.869,-110.269 807.681,-94.6084 724.576,-87.7558"/>
<polygon fill="black" stroke="black" points="724.697,-84.2541 714.444,-86.9253 724.125,-91.2307 724.697,-84.2541"/>
</g>
<!-- chjvncserver -->
<g id="node11" class="node"><title>chjvncserver</title>
<ellipse fill="none" stroke="green" cx="784.547" cy="-603" rx="55.7903" ry="18"/>
<text text-anchor="middle" x="784.547" y="-599.3" font-family="Times,serif" font-size="14.00">chjvncserver</text>
</g>
<!-- chjvncserver&#45;&gt;_vncserver -->
<g id="edge22" class="edge"><title>chjvncserver&#45;&gt;_vncserver</title>
<path fill="none" stroke="black" d="M834.504,-594.896C918.086,-583.009 1085.64,-559.181 1172.5,-546.829"/>
<polygon fill="black" stroke="black" points="1173.02,-550.29 1182.43,-545.417 1172.03,-543.36 1173.02,-550.29"/>
</g>
<!-- chjvncserver&#45;&gt;debianpackages -->
<g id="edge19" class="edge"><title>chjvncserver&#45;&gt;debianpackages</title>
<path fill="none" stroke="black" d="M728.496,-601.962C642.172,-598.626 486.547,-578.168 486.547,-474 486.547,-474 486.547,-474 486.547,-407 486.547,-368.244 509.618,-328.746 527.383,-304.076"/>
<polygon fill="black" stroke="black" points="530.236,-306.106 533.399,-295.995 524.621,-301.926 530.236,-306.106"/>
</g>
<!-- chjvncserver&#45;&gt;desktop -->
<g id="edge21" class="edge"><title>chjvncserver&#45;&gt;desktop</title>
<path fill="none" stroke="black" d="M839.718,-600.004C911.639,-596.241 1031.99,-585.592 1063.55,-556 1078.27,-542.194 1082.64,-519.417 1083.54,-501.367"/>
<polygon fill="black" stroke="black" points="1087.04,-501.185 1083.71,-491.126 1080.04,-501.064 1087.04,-501.185"/>
</g>
<!-- urxvt -->
<g id="node36" class="node"><title>urxvt</title>
<ellipse fill="none" stroke="blue" cx="547.547" cy="-213" rx="29.4969" ry="18"/>
<text text-anchor="middle" x="547.547" y="-209.3" font-family="Times,serif" font-size="14.00">urxvt</text>
</g>
<!-- chjvncserver&#45;&gt;urxvt -->
<g id="edge20" class="edge"><title>chjvncserver&#45;&gt;urxvt</title>
<path fill="none" stroke="black" d="M730.878,-597.791C567.86,-584.293 89.5473,-539.14 89.5473,-474 89.5473,-474 89.5473,-474 89.5473,-342 89.5473,-304.59 80.5151,-284.773 108.547,-260 138.218,-233.779 406.136,-219.913 508.255,-215.544"/>
<polygon fill="black" stroke="black" points="508.612,-219.032 518.456,-215.116 508.318,-212.039 508.612,-219.032"/>
</g>
<!-- cj_git_patchtool&#45;&gt;chj_bin -->
<g id="edge24" class="edge"><title>cj_git_patchtool&#45;&gt;chj_bin</title>
<path fill="none" stroke="black" d="M735.942,-330.346C745.051,-328.34 754.567,-326.441 763.547,-325 901.49,-302.866 940.418,-327.414 1076.55,-296 1079.54,-295.309 1082.61,-294.465 1085.66,-293.526"/>
<polygon fill="black" stroke="black" points="1086.91,-296.797 1095.26,-290.278 1084.67,-290.166 1086.91,-296.797"/>
</g>
<!-- cj_git_patchtool&#45;&gt;debianpackages -->
<g id="edge23" class="edge"><title>cj_git_patchtool&#45;&gt;debianpackages</title>
<path fill="none" stroke="black" d="M656.613,-327.388C636.772,-318.586 611.301,-307.285 589.964,-297.819"/>
<polygon fill="black" stroke="black" points="591.355,-294.607 580.795,-293.751 588.517,-301.006 591.355,-294.607"/>
</g>
<!-- cj_git_patchtool&#45;&gt;git_sign -->
<g id="edge25" class="edge"><title>cj_git_patchtool&#45;&gt;git_sign</title>
<path fill="none" stroke="black" d="M689.218,-324.989C689.755,-306.913 693.251,-278.449 708.547,-260 728.997,-235.335 751.543,-253.302 774.547,-231 808.261,-198.316 832.558,-168.409 805.547,-130 787.401,-104.196 753.336,-92.7961 724.908,-87.7945"/>
<polygon fill="black" stroke="black" points="725.146,-84.29 714.73,-86.2264 724.08,-91.2083 725.146,-84.29"/>
</g>
<!-- cplusplus -->
<g id="node13" class="node"><title>cplusplus</title>
<ellipse fill="none" stroke="blue" cx="721.547" cy="-213" rx="44.393" ry="18"/>
<text text-anchor="middle" x="721.547" y="-209.3" font-family="Times,serif" font-size="14.00">cplusplus</text>
</g>
<!-- cplusplus&#45;&gt;perhaps_aptupdate -->
<g id="edge26" class="edge"><title>cplusplus&#45;&gt;perhaps_aptupdate</title>
<path fill="none" stroke="black" d="M756.573,-201.878C790.819,-191.981 843.513,-176.753 883.573,-165.176"/>
<polygon fill="black" stroke="black" points="884.572,-168.531 893.207,-162.392 882.628,-161.806 884.572,-168.531"/>
</g>
<!-- debian_emacs -->
<g id="node14" class="node"><title>debian_emacs</title>
<ellipse fill="none" stroke="blue" cx="177.547" cy="-278" rx="59.5901" ry="18"/>
<text text-anchor="middle" x="177.547" y="-274.3" font-family="Times,serif" font-size="14.00">debian&#45;emacs</text>
</g>
<!-- debian_upgrade -->
<g id="node15" class="node"><title>debian_upgrade</title>
<ellipse fill="none" stroke="blue" cx="1000.55" cy="-278" rx="66.8882" ry="18"/>
<text text-anchor="middle" x="1000.55" y="-274.3" font-family="Times,serif" font-size="14.00">debian_upgrade</text>
</g>
<!-- debian_upgrade&#45;&gt;perhaps_aptupdate -->
<g id="edge27" class="edge"><title>debian_upgrade&#45;&gt;perhaps_aptupdate</title>
<path fill="none" stroke="black" d="M953.768,-264.964C923.956,-256.241 889.333,-243.777 880.547,-231 871.482,-217.816 873.526,-209.377 880.547,-195 885.212,-185.448 892.925,-177.302 901.259,-170.639"/>
<polygon fill="black" stroke="black" points="903.36,-173.439 909.362,-164.708 899.225,-167.791 903.36,-173.439"/>
</g>
<!-- debianpackages&#45;&gt;urxvt -->
<g id="edge28" class="edge"><title>debianpackages&#45;&gt;urxvt</title>
<path fill="none" stroke="black" d="M547.547,-259.785C547.547,-254.09 547.547,-247.605 547.547,-241.343"/>
<polygon fill="black" stroke="black" points="551.047,-241.194 547.547,-231.194 544.047,-241.194 551.047,-241.194"/>
</g>
<!-- desktop&#45;&gt;chj -->
<g id="edge29" class="edge"><title>desktop&#45;&gt;chj</title>
<path fill="none" stroke="black" d="M1047.66,-465.258C985.266,-453.2 855.219,-428.068 792.245,-415.899"/>
<polygon fill="black" stroke="black" points="792.857,-412.452 782.375,-413.991 791.529,-419.325 792.857,-412.452"/>
</g>
<!-- xfce4_load_profile -->
<g id="node40" class="node"><title>xfce4_load_profile</title>
<ellipse fill="none" stroke="blue" cx="1171.55" cy="-408" rx="77.1866" ry="18"/>
<text text-anchor="middle" x="1171.55" y="-404.3" font-family="Times,serif" font-size="14.00">xfce4_load_profile</text>
</g>
<!-- desktop&#45;&gt;xfce4_load_profile -->
<g id="edge30" class="edge"><title>desktop&#45;&gt;xfce4_load_profile</title>
<path fill="none" stroke="black" d="M1103.19,-457.388C1114.2,-449.591 1127.99,-439.834 1140.29,-431.128"/>
<polygon fill="black" stroke="black" points="1142.37,-433.94 1148.51,-425.306 1138.33,-428.227 1142.37,-433.94"/>
</g>
<!-- desktop_autoremove -->
<g id="node18" class="node"><title>desktop_autoremove</title>
<ellipse fill="none" stroke="green" cx="970.547" cy="-538" rx="84.485" ry="18"/>
<text text-anchor="middle" x="970.547" y="-534.3" font-family="Times,serif" font-size="14.00">desktop_autoremove</text>
</g>
<!-- desktop_autoremove&#45;&gt;desktop -->
<g id="edge31" class="edge"><title>desktop_autoremove&#45;&gt;desktop</title>
<path fill="none" stroke="black" d="M999.099,-520.939C1014.59,-512.224 1033.81,-501.413 1049.9,-492.364"/>
<polygon fill="black" stroke="black" points="1051.96,-495.222 1058.96,-487.269 1048.53,-489.121 1051.96,-495.222"/>
</g>
<!-- dnsresolver -->
<g id="node19" class="node"><title>dnsresolver</title>
<ellipse fill="none" stroke="green" cx="1341.55" cy="-603" rx="51.1914" ry="18"/>
<text text-anchor="middle" x="1341.55" y="-599.3" font-family="Times,serif" font-size="14.00">dnsresolver</text>
</g>
<!-- emacs -->
<g id="node20" class="node"><title>emacs</title>
<ellipse fill="none" stroke="green" cx="219.547" cy="-343" rx="33.2948" ry="18"/>
<text text-anchor="middle" x="219.547" y="-339.3" font-family="Times,serif" font-size="14.00">emacs</text>
</g>
<!-- emacs&#45;&gt;chj_emacs -->
<g id="edge33" class="edge"><title>emacs&#45;&gt;chj_emacs</title>
<path fill="none" stroke="black" d="M237.968,-328.018C248.678,-319.889 262.394,-309.477 274.43,-300.342"/>
<polygon fill="black" stroke="black" points="276.586,-303.099 282.435,-294.266 272.354,-297.524 276.586,-303.099"/>
</g>
<!-- emacs&#45;&gt;debian_emacs -->
<g id="edge32" class="edge"><title>emacs&#45;&gt;debian_emacs</title>
<path fill="none" stroke="black" d="M208.731,-325.776C204.425,-319.316 199.364,-311.725 194.587,-304.56"/>
<polygon fill="black" stroke="black" points="197.226,-302.208 188.766,-295.829 191.401,-306.091 197.226,-302.208"/>
</g>
<!-- fastrandom&#45;&gt;_usr_local_bin_fastrandom -->
<g id="edge34" class="edge"><title>fastrandom&#45;&gt;_usr_local_bin_fastrandom</title>
<path fill="none" stroke="black" d="M821.635,-324.785C821.002,-319.09 820.281,-312.605 819.585,-306.343"/>
<polygon fill="black" stroke="black" points="823.041,-305.747 818.458,-296.194 816.084,-306.52 823.041,-305.747"/>
</g>
<!-- fperl -->
<g id="node22" class="node"><title>fperl</title>
<ellipse fill="none" stroke="green" cx="579.547" cy="-343" rx="27.0966" ry="18"/>
<text text-anchor="middle" x="579.547" y="-339.3" font-family="Times,serif" font-size="14.00">fperl</text>
</g>
<!-- fperl&#45;&gt;chj_bin -->
<g id="edge37" class="edge"><title>fperl&#45;&gt;chj_bin</title>
<path fill="none" stroke="black" d="M599.985,-330.723C604.945,-328.448 610.326,-326.344 615.547,-325 814.357,-273.811 875.85,-339.2 1076.55,-296 1079.55,-295.353 1082.62,-294.541 1085.68,-293.624"/>
<polygon fill="black" stroke="black" points="1086.92,-296.901 1095.29,-290.414 1084.7,-290.262 1086.92,-296.901"/>
</g>
<!-- fperl&#45;&gt;debianpackages -->
<g id="edge36" class="edge"><title>fperl&#45;&gt;debianpackages</title>
<path fill="none" stroke="black" d="M571.306,-325.776C568.149,-319.56 564.46,-312.297 560.943,-305.373"/>
<polygon fill="black" stroke="black" points="563.97,-303.603 556.321,-296.272 557.729,-306.773 563.97,-303.603"/>
</g>
<!-- fperl&#45;&gt;git_sign -->
<g id="edge35" class="edge"><title>fperl&#45;&gt;git_sign</title>
<path fill="none" stroke="black" d="M596.477,-328.447C605.703,-320.096 616.453,-308.596 622.547,-296 655.04,-228.837 621.007,-199.73 647.547,-130 650.345,-122.649 654.456,-115.258 658.742,-108.617"/>
<polygon fill="black" stroke="black" points="661.815,-110.325 664.589,-100.1 656.044,-106.363 661.815,-110.325"/>
</g>
<!-- gambit -->
<g id="node23" class="node"><title>gambit</title>
<ellipse fill="none" stroke="blue" cx="422.547" cy="-343" rx="35.9954" ry="18"/>
<text text-anchor="middle" x="422.547" y="-339.3" font-family="Times,serif" font-size="14.00">gambit</text>
</g>
<!-- gambit&#45;&gt;chj_bin -->
<g id="edge41" class="edge"><title>gambit&#45;&gt;chj_bin</title>
<path fill="none" stroke="black" d="M456.098,-336.503C480.333,-332.724 513.883,-327.886 543.547,-325 779.672,-302.031 844.411,-344.94 1076.55,-296 1079.56,-295.366 1082.63,-294.562 1085.69,-293.652"/>
<polygon fill="black" stroke="black" points="1086.92,-296.931 1095.3,-290.453 1084.71,-290.289 1086.92,-296.931"/>
</g>
<!-- gambit&#45;&gt;chj_emacs -->
<g id="edge42" class="edge"><title>gambit&#45;&gt;chj_emacs</title>
<path fill="none" stroke="black" d="M398.552,-329.402C381.193,-320.289 357.452,-307.825 337.923,-297.572"/>
<polygon fill="black" stroke="black" points="339.485,-294.439 329.004,-292.89 336.231,-300.637 339.485,-294.439"/>
</g>
<!-- gambit&#45;&gt;cplusplus -->
<g id="edge39" class="edge"><title>gambit&#45;&gt;cplusplus</title>
<path fill="none" stroke="black" d="M428.159,-324.884C435.323,-305.875 449.612,-275.791 472.547,-260 488.627,-248.929 602.275,-231.075 670.35,-221.181"/>
<polygon fill="black" stroke="black" points="671.057,-224.615 680.455,-219.722 670.057,-217.687 671.057,-224.615"/>
</g>
<!-- gambit&#45;&gt;debianpackages -->
<g id="edge40" class="edge"><title>gambit&#45;&gt;debianpackages</title>
<path fill="none" stroke="black" d="M446.945,-329.703C464.443,-320.884 488.385,-308.818 508.522,-298.669"/>
<polygon fill="black" stroke="black" points="510.115,-301.785 517.47,-294.159 506.965,-295.534 510.115,-301.785"/>
</g>
<!-- gambit_checkout -->
<g id="node24" class="node"><title>gambit_checkout</title>
<ellipse fill="none" stroke="blue" cx="726.547" cy="-148" rx="70.3881" ry="18"/>
<text text-anchor="middle" x="726.547" y="-144.3" font-family="Times,serif" font-size="14.00">gambit&#45;checkout</text>
</g>
<!-- gambit&#45;&gt;gambit_checkout -->
<g id="edge38" class="edge"><title>gambit&#45;&gt;gambit_checkout</title>
<path fill="none" stroke="black" d="M422.803,-324.919C423.741,-307.55 427.125,-280.368 438.547,-260 459.473,-222.685 471.503,-214.57 509.547,-195 535.003,-181.905 604.077,-168.506 657.523,-159.572"/>
<polygon fill="black" stroke="black" points="658.349,-162.983 667.646,-157.902 657.209,-156.077 658.349,-162.983"/>
</g>
<!-- gambit_checkout&#45;&gt;_bs -->
<g id="edge43" class="edge"><title>gambit_checkout&#45;&gt;_bs</title>
<path fill="none" stroke="black" d="M786.926,-138.736C807.997,-135.901 831.809,-132.75 853.547,-130 981.609,-113.799 1133.78,-96.1289 1202.55,-88.2285"/>
<polygon fill="black" stroke="black" points="1203.32,-91.6634 1212.86,-87.0462 1202.52,-84.709 1203.32,-91.6634"/>
</g>
<!-- gambit_checkout&#45;&gt;git_sign -->
<g id="edge44" class="edge"><title>gambit_checkout&#45;&gt;git_sign</title>
<path fill="none" stroke="black" d="M713.416,-130.117C708.2,-123.411 702.101,-115.568 696.426,-108.273"/>
<polygon fill="black" stroke="black" points="698.941,-105.805 690.039,-100.061 693.416,-110.103 698.941,-105.805"/>
</g>
<!-- key -->
<g id="node27" class="node"><title>key</title>
<ellipse fill="none" stroke="blue" cx="1062.55" cy="-18" rx="27" ry="18"/>
<text text-anchor="middle" x="1062.55" y="-14.3" font-family="Times,serif" font-size="14.00">key</text>
</g>
<!-- git_sign&#45;&gt;key -->
<g id="edge45" class="edge"><title>git_sign&#45;&gt;key</title>
<path fill="none" stroke="black" d="M712.734,-76.2422C785.628,-64.3141 952.481,-37.0108 1026.29,-24.9335"/>
<polygon fill="black" stroke="black" points="1027.18,-28.3347 1036.48,-23.2657 1026.05,-21.4266 1027.18,-28.3347"/>
</g>
<!-- graph_deps -->
<g id="node26" class="node"><title>graph_deps</title>
<ellipse fill="none" stroke="green" cx="939.547" cy="-213" rx="50.0912" ry="18"/>
<text text-anchor="middle" x="939.547" y="-209.3" font-family="Times,serif" font-size="14.00">graph&#45;deps</text>
</g>
<!-- graph_deps&#45;&gt;perhaps_aptupdate -->
<g id="edge46" class="edge"><title>graph_deps&#45;&gt;perhaps_aptupdate</title>
<path fill="none" stroke="black" d="M939.547,-194.785C939.547,-189.09 939.547,-182.605 939.547,-176.343"/>
<polygon fill="black" stroke="black" points="943.047,-176.194 939.547,-166.194 936.047,-176.194 943.047,-176.194"/>
</g>
<!-- load_profile -->
<g id="node28" class="node"><title>load_profile</title>
<ellipse fill="none" stroke="green" cx="1192.55" cy="-473" rx="53.8905" ry="18"/>
<text text-anchor="middle" x="1192.55" y="-469.3" font-family="Times,serif" font-size="14.00">load_profile</text>
</g>
<!-- load_profile&#45;&gt;xfce4_load_profile -->
<g id="edge47" class="edge"><title>load_profile&#45;&gt;xfce4_load_profile</title>
<path fill="none" stroke="black" d="M1186.81,-454.785C1184.86,-448.951 1182.64,-442.288 1180.51,-435.885"/>
<polygon fill="black" stroke="black" points="1183.76,-434.574 1177.28,-426.194 1177.12,-436.788 1183.76,-434.574"/>
</g>
<!-- locales -->
<g id="node29" class="node"><title>locales</title>
<ellipse fill="none" stroke="blue" cx="1003.55" cy="-343" rx="35.194" ry="18"/>
<text text-anchor="middle" x="1003.55" y="-339.3" font-family="Times,serif" font-size="14.00">locales</text>
</g>
<!-- locales&#45;&gt;chj_bin -->
<g id="edge48" class="edge"><title>locales&#45;&gt;chj_bin</title>
<path fill="none" stroke="black" d="M1027.14,-329.402C1044.91,-319.917 1069.47,-306.802 1089.09,-296.328"/>
<polygon fill="black" stroke="black" points="1090.82,-299.373 1097.99,-291.576 1087.52,-293.198 1090.82,-299.373"/>
</g>
<!-- mercurial -->
<g id="node30" class="node"><title>mercurial</title>
<ellipse fill="none" stroke="green" cx="1215.55" cy="-343" rx="44.6926" ry="18"/>
<text text-anchor="middle" x="1215.55" y="-339.3" font-family="Times,serif" font-size="14.00">mercurial</text>
</g>
<!-- mercurial&#45;&gt;chj_bin -->
<g id="edge49" class="edge"><title>mercurial&#45;&gt;chj_bin</title>
<path fill="none" stroke="black" d="M1193.27,-327.07C1180.53,-318.533 1164.41,-307.727 1150.68,-298.523"/>
<polygon fill="black" stroke="black" points="1152.31,-295.407 1142.06,-292.747 1148.42,-301.221 1152.31,-295.407"/>
</g>
<!-- moduser -->
<g id="node31" class="node"><title>moduser</title>
<ellipse fill="none" stroke="green" cx="1366.55" cy="-473" rx="41.6928" ry="18"/>
<text text-anchor="middle" x="1366.55" y="-469.3" font-family="Times,serif" font-size="14.00">moduser</text>
</g>
<!-- moduser&#45;&gt;chj -->
<g id="edge50" class="edge"><title>moduser&#45;&gt;chj</title>
<path fill="none" stroke="black" d="M1328.62,-465.53C1307.21,-462.044 1279.94,-457.881 1255.55,-455 1101.42,-436.797 1062.01,-441.128 907.547,-426 868.443,-422.17 823.729,-417.042 793.168,-413.423"/>
<polygon fill="black" stroke="black" points="793.325,-409.917 782.982,-412.211 792.498,-416.868 793.325,-409.917"/>
</g>
<!-- moduser&#45;&gt;key -->
<g id="edge51" class="edge"><title>moduser&#45;&gt;key</title>
<path fill="none" stroke="black" d="M1373.65,-454.948C1383.08,-430.729 1398.55,-384.773 1398.55,-344 1398.55,-344 1398.55,-344 1398.55,-147 1398.55,-81.2988 1336.05,-90.6064 1275.55,-65 1216.65,-40.0728 1142.65,-28.0076 1099.18,-22.6877"/>
<polygon fill="black" stroke="black" points="1099.42,-19.1915 1089.08,-21.506 1098.6,-26.1441 1099.42,-19.1915"/>
</g>
<!-- qemu -->
<g id="node33" class="node"><title>qemu</title>
<ellipse fill="none" stroke="green" cx="30.5473" cy="-408" rx="30.5947" ry="18"/>
<text text-anchor="middle" x="30.5473" y="-404.3" font-family="Times,serif" font-size="14.00">qemu</text>
</g>
<!-- qemu&#45;&gt;gambit -->
<g id="edge53" class="edge"><title>qemu&#45;&gt;gambit</title>
<path fill="none" stroke="black" d="M59.6907,-402.316C127.87,-391.359 298.085,-364.003 378.783,-351.034"/>
<polygon fill="black" stroke="black" points="379.776,-354.419 389.094,-349.376 378.665,-347.508 379.776,-354.419"/>
</g>
<!-- qemu&#45;&gt;git_sign -->
<g id="edge52" class="edge"><title>qemu&#45;&gt;git_sign</title>
<path fill="none" stroke="black" d="M32.9885,-389.65C36.2292,-365.076 41.5473,-318.701 41.5473,-279 41.5473,-279 41.5473,-279 41.5473,-212 41.5473,-92.1099 481.383,-83.1016 629.516,-83.4675"/>
<polygon fill="black" stroke="black" points="629.653,-86.968 639.667,-83.5086 629.682,-79.968 629.653,-86.968"/>
</g>
<!-- swap -->
<g id="node34" class="node"><title>swap</title>
<ellipse fill="none" stroke="green" cx="1085.55" cy="-343" rx="28.6953" ry="18"/>
<text text-anchor="middle" x="1085.55" y="-339.3" font-family="Times,serif" font-size="14.00">swap</text>
</g>
<!-- swap&#45;&gt;chj_bin -->
<g id="edge54" class="edge"><title>swap&#45;&gt;chj_bin</title>
<path fill="none" stroke="black" d="M1094.82,-325.776C1098.57,-319.214 1102.99,-311.484 1107.14,-304.219"/>
<polygon fill="black" stroke="black" points="1110.26,-305.807 1112.18,-295.388 1104.18,-302.334 1110.26,-305.807"/>
</g>
<!-- system -->
<g id="node35" class="node"><title>system</title>
<ellipse fill="none" stroke="green" cx="952.547" cy="-408" rx="35.9954" ry="18"/>
<text text-anchor="middle" x="952.547" y="-404.3" font-family="Times,serif" font-size="14.00">system</text>
</g>
<!-- system&#45;&gt;debian_upgrade -->
<g id="edge55" class="edge"><title>system&#45;&gt;debian_upgrade</title>
<path fill="none" stroke="black" d="M950.948,-389.913C950.032,-372.779 950.507,-345.997 959.547,-325 963.014,-316.949 968.461,-309.339 974.267,-302.713"/>
<polygon fill="black" stroke="black" points="976.832,-305.095 981.149,-295.419 971.741,-300.291 976.832,-305.095"/>
</g>
<!-- system&#45;&gt;locales -->
<g id="edge56" class="edge"><title>system&#45;&gt;locales</title>
<path fill="none" stroke="black" d="M965.417,-391.102C971.051,-384.142 977.786,-375.823 984.017,-368.126"/>
<polygon fill="black" stroke="black" points="986.933,-370.086 990.505,-360.112 981.492,-365.682 986.933,-370.086"/>
</g>
<!-- urxvt&#45;&gt;perhaps_aptupdate -->
<g id="edge57" class="edge"><title>urxvt&#45;&gt;perhaps_aptupdate</title>
<path fill="none" stroke="black" d="M575.425,-207.52C635.889,-197.802 780.686,-174.531 868.38,-160.438"/>
<polygon fill="black" stroke="black" points="868.938,-163.893 878.256,-158.85 867.827,-156.982 868.938,-163.893"/>
</g>
<!-- vncclient -->
<g id="node37" class="node"><title>vncclient</title>
<ellipse fill="none" stroke="green" cx="1050.55" cy="-213" rx="42.7926" ry="18"/>
<text text-anchor="middle" x="1050.55" y="-209.3" font-family="Times,serif" font-size="14.00">vncclient</text>
</g>
<!-- vncclient&#45;&gt;perhaps_aptupdate -->
<g id="edge58" class="edge"><title>vncclient&#45;&gt;perhaps_aptupdate</title>
<path fill="none" stroke="black" d="M1026.19,-198.174C1011.54,-189.862 992.618,-179.121 976.194,-169.799"/>
<polygon fill="black" stroke="black" points="977.794,-166.683 967.369,-164.791 974.339,-172.771 977.794,-166.683"/>
</g>
<!-- vncserver -->
<g id="node38" class="node"><title>vncserver</title>
<ellipse fill="none" stroke="green" cx="1227.55" cy="-603" rx="44.6926" ry="18"/>
<text text-anchor="middle" x="1227.55" y="-599.3" font-family="Times,serif" font-size="14.00">vncserver</text>
</g>
<!-- vncserver&#45;&gt;_vncserver -->
<g id="edge59" class="edge"><title>vncserver&#45;&gt;_vncserver</title>
<path fill="none" stroke="black" d="M1227.55,-584.785C1227.55,-579.09 1227.55,-572.605 1227.55,-566.343"/>
<polygon fill="black" stroke="black" points="1231.05,-566.194 1227.55,-556.194 1224.05,-566.194 1231.05,-566.194"/>
</g>
<!-- xfce -->
<g id="node39" class="node"><title>xfce</title>
<ellipse fill="none" stroke="blue" cx="1305.55" cy="-343" rx="27" ry="18"/>
<text text-anchor="middle" x="1305.55" y="-339.3" font-family="Times,serif" font-size="14.00">xfce</text>
</g>
<!-- xfce&#45;&gt;chj_bin -->
<g id="edge62" class="edge"><title>xfce&#45;&gt;chj_bin</title>
<path fill="none" stroke="black" d="M1284.46,-331.382C1279.62,-329.131 1274.46,-326.872 1269.55,-325 1227.11,-308.81 1214.84,-309.758 1171.55,-296 1167.72,-294.785 1163.75,-293.489 1159.78,-292.175"/>
<polygon fill="black" stroke="black" points="1160.63,-288.768 1150.04,-288.907 1158.41,-295.405 1160.63,-288.768"/>
</g>
<!-- xfce&#45;&gt;desktop -->
<g id="edge61" class="edge"><title>xfce&#45;&gt;desktop</title>
<path fill="none" stroke="black" d="M1300.24,-360.941C1293.43,-379.789 1279.77,-409.726 1257.55,-426 1210.48,-460.46 1185.53,-438.604 1129.55,-455 1126.64,-455.851 1123.66,-456.785 1120.67,-457.764"/>
<polygon fill="black" stroke="black" points="1119.53,-454.456 1111.19,-460.999 1121.79,-461.08 1119.53,-454.456"/>
</g>
<!-- xfce&#45;&gt;perhaps_aptupdate -->
<g id="edge60" class="edge"><title>xfce&#45;&gt;perhaps_aptupdate</title>
<path fill="none" stroke="black" d="M1289.97,-327.685C1257.52,-298.59 1179.31,-232.165 1102.55,-195 1072.59,-180.495 1037.25,-169.823 1007.15,-162.431"/>
<polygon fill="black" stroke="black" points="1007.7,-158.963 997.16,-160.049 1006.08,-165.773 1007.7,-158.963"/>
</g>
<!-- xfce4_load_profile&#45;&gt;chj_bin -->
<g id="edge63" class="edge"><title>xfce4_load_profile&#45;&gt;chj_bin</title>
<path fill="none" stroke="black" d="M1164.91,-390.003C1156.47,-368.39 1141.8,-330.839 1131.88,-305.463"/>
<polygon fill="black" stroke="black" points="1135.11,-304.109 1128.21,-296.068 1128.59,-306.656 1135.11,-304.109"/>
</g>
<!-- xfce4_load_profile&#45;&gt;xfce -->
<g id="edge64" class="edge"><title>xfce4_load_profile&#45;&gt;xfce</title>
<path fill="none" stroke="black" d="M1204.67,-391.476C1223.66,-382.568 1247.95,-371.167 1269.55,-361 1271.33,-360.161 1273.16,-359.298 1275.01,-358.427"/>
<polygon fill="black" stroke="black" points="1276.68,-361.508 1284.23,-354.076 1273.69,-355.178 1276.68,-361.508"/>
</g>
</g>
</svg>
