<?xml version="1.0" encoding="UTF-8" standalone="no"?>
<!DOCTYPE svg PUBLIC "-//W3C//DTD SVG 1.1//EN"
 "http://www.w3.org/Graphics/SVG/1.1/DTD/svg11.dtd">
<!-- Generated by graphviz version 2.38.0 (20140413.2041)
 -->
<!-- Title: foo Pages: 1 -->
<svg width="1867pt" height="694pt"
 viewBox="0.00 0.00 1866.95 694.00" xmlns="http://www.w3.org/2000/svg" xmlns:xlink="http://www.w3.org/1999/xlink">
<g id="graph0" class="graph" transform="scale(1 1) rotate(0) translate(4 690)">
<title>foo</title>
<polygon fill="white" stroke="none" points="-4,4 -4,-690 1862.95,-690 1862.95,4 -4,4"/>
<!-- _bs -->
<g id="node1" class="node"><title>_bs</title>
<ellipse fill="none" stroke="grey" cx="743.945" cy="-83" rx="27" ry="18"/>
<text text-anchor="middle" x="743.945" y="-79.3" font-family="Times,serif" font-size="14.00">.bs</text>
</g>
<!-- _usr_local_bin_fastrandom -->
<g id="node2" class="node"><title>_usr_local_bin_fastrandom</title>
<ellipse fill="none" stroke="grey" cx="1269.95" cy="-278" rx="99.3824" ry="18"/>
<text text-anchor="middle" x="1269.95" y="-274.3" font-family="Times,serif" font-size="14.00">/usr/local/bin/fastrandom</text>
</g>
<!-- chj -->
<g id="node3" class="node"><title>chj</title>
<ellipse fill="none" stroke="blue" cx="1208.95" cy="-408" rx="27" ry="18"/>
<text text-anchor="middle" x="1208.95" y="-404.3" font-family="Times,serif" font-size="14.00">chj</text>
</g>
<!-- chj_bin -->
<g id="node4" class="node"><title>chj_bin</title>
<ellipse fill="none" stroke="blue" cx="790.945" cy="-278" rx="35.9954" ry="18"/>
<text text-anchor="middle" x="790.945" y="-274.3" font-family="Times,serif" font-size="14.00">chj&#45;bin</text>
</g>
<!-- chj&#45;&gt;chj_bin -->
<g id="edge3" class="edge"><title>chj&#45;&gt;chj_bin</title>
<path fill="none" stroke="black" d="M1181.84,-406.434C1085.97,-404.154 766.992,-394.118 736.945,-361 726.194,-349.15 730.237,-339.526 736.945,-325 741.847,-314.385 750.54,-305.317 759.538,-298.108"/>
<polygon fill="black" stroke="black" points="761.819,-300.774 767.787,-292.02 757.662,-295.142 761.819,-300.774"/>
</g>
<!-- chj_emacs -->
<g id="node5" class="node"><title>chj_emacs</title>
<ellipse fill="none" stroke="blue" cx="1429.95" cy="-343" rx="46.5926" ry="18"/>
<text text-anchor="middle" x="1429.95" y="-339.3" font-family="Times,serif" font-size="14.00">chj&#45;emacs</text>
</g>
<!-- chj&#45;&gt;chj_emacs -->
<g id="edge4" class="edge"><title>chj&#45;&gt;chj_emacs</title>
<path fill="none" stroke="black" d="M1233.44,-400.017C1269.56,-389.72 1337.77,-370.275 1383.55,-357.226"/>
<polygon fill="black" stroke="black" points="1384.58,-360.571 1393.24,-354.463 1382.66,-353.839 1384.58,-360.571"/>
</g>
<!-- cj_git_patchtool -->
<g id="node10" class="node"><title>cj_git_patchtool</title>
<ellipse fill="none" stroke="blue" cx="1141.95" cy="-343" rx="64.9885" ry="18"/>
<text text-anchor="middle" x="1141.95" y="-339.3" font-family="Times,serif" font-size="14.00">cj&#45;git&#45;patchtool</text>
</g>
<!-- chj&#45;&gt;cj_git_patchtool -->
<g id="edge6" class="edge"><title>chj&#45;&gt;cj_git_patchtool</title>
<path fill="none" stroke="black" d="M1193.74,-392.704C1185.78,-385.217 1175.83,-375.858 1166.78,-367.351"/>
<polygon fill="black" stroke="black" points="1169.14,-364.766 1159.46,-360.465 1164.34,-369.865 1169.14,-364.766"/>
</g>
<!-- debianpackages -->
<g id="node14" class="node"><title>debianpackages</title>
<ellipse fill="none" stroke="blue" cx="1048.95" cy="-278" rx="66.0889" ry="18"/>
<text text-anchor="middle" x="1048.95" y="-274.3" font-family="Times,serif" font-size="14.00">debianpackages</text>
</g>
<!-- chj&#45;&gt;debianpackages -->
<g id="edge2" class="edge"><title>chj&#45;&gt;debianpackages</title>
<path fill="none" stroke="black" d="M1181.91,-405.842C1149.99,-402.972 1097.51,-393.279 1067.95,-361 1054.54,-346.365 1050.01,-324.179 1048.71,-306.574"/>
<polygon fill="black" stroke="black" points="1052.2,-306.152 1048.27,-296.312 1045.2,-306.453 1052.2,-306.152"/>
</g>
<!-- fastrandom -->
<g id="node18" class="node"><title>fastrandom</title>
<ellipse fill="none" stroke="blue" cx="1275.95" cy="-343" rx="50.8918" ry="18"/>
<text text-anchor="middle" x="1275.95" y="-339.3" font-family="Times,serif" font-size="14.00">fastrandom</text>
</g>
<!-- chj&#45;&gt;fastrandom -->
<g id="edge5" class="edge"><title>chj&#45;&gt;fastrandom</title>
<path fill="none" stroke="black" d="M1224.15,-392.704C1232.23,-385.103 1242.37,-375.574 1251.52,-366.965"/>
<polygon fill="black" stroke="black" points="1254.03,-369.412 1258.92,-360.012 1249.23,-364.313 1254.03,-369.412"/>
</g>
<!-- git_sign -->
<g id="node26" class="node"><title>git_sign</title>
<ellipse fill="none" stroke="blue" cx="1142.95" cy="-83" rx="37.8943" ry="18"/>
<text text-anchor="middle" x="1142.95" y="-79.3" font-family="Times,serif" font-size="14.00">git&#45;sign</text>
</g>
<!-- chj&#45;&gt;git_sign -->
<g id="edge1" class="edge"><title>chj&#45;&gt;git_sign</title>
<path fill="none" stroke="black" d="M1234.96,-402.676C1262.46,-397.02 1305.95,-384.879 1335.95,-361 1373.98,-330.722 1399.7,-303.476 1377.95,-260 1336.63,-177.437 1236.14,-123.601 1180.89,-99.1722"/>
<polygon fill="black" stroke="black" points="1182.02,-95.8468 1171.45,-95.0901 1179.24,-102.272 1182.02,-95.8468"/>
</g>
<!-- chj_bin&#45;&gt;_bs -->
<g id="edge7" class="edge"><title>chj_bin&#45;&gt;_bs</title>
<path fill="none" stroke="black" d="M771.407,-262.844C760.825,-254.462 748.085,-243.129 738.945,-231 719.683,-205.439 715.008,-197.217 707.945,-166 704.414,-150.394 702.73,-145.126 707.945,-130 710.939,-121.318 716.32,-113.021 722.024,-105.925"/>
<polygon fill="black" stroke="black" points="724.826,-108.037 728.745,-98.1938 719.543,-103.444 724.826,-108.037"/>
</g>
<!-- chj_perllib -->
<g id="node8" class="node"><title>chj_perllib</title>
<ellipse fill="none" stroke="blue" cx="794.945" cy="-213" rx="47.3916" ry="18"/>
<text text-anchor="middle" x="794.945" y="-209.3" font-family="Times,serif" font-size="14.00">chj&#45;perllib</text>
</g>
<!-- chj_bin&#45;&gt;chj_perllib -->
<g id="edge9" class="edge"><title>chj_bin&#45;&gt;chj_perllib</title>
<path fill="none" stroke="black" d="M792.038,-259.785C792.4,-254.09 792.812,-247.605 793.209,-241.343"/>
<polygon fill="black" stroke="black" points="796.713,-241.396 793.854,-231.194 789.727,-240.952 796.713,-241.396"/>
</g>
<!-- chj_bin&#45;&gt;git_sign -->
<g id="edge8" class="edge"><title>chj_bin&#45;&gt;git_sign</title>
<path fill="none" stroke="black" d="M820.504,-267.543C869.845,-251.05 971.143,-214.14 1047.95,-166 1051.81,-163.578 1091.27,-129.233 1118.11,-105.768"/>
<polygon fill="black" stroke="black" points="1120.42,-108.398 1125.64,-99.1789 1115.81,-103.13 1120.42,-108.398"/>
</g>
<!-- chj_emacs_checkout -->
<g id="node6" class="node"><title>chj_emacs_checkout</title>
<ellipse fill="none" stroke="blue" cx="1611.95" cy="-278" rx="81.4863" ry="18"/>
<text text-anchor="middle" x="1611.95" y="-274.3" font-family="Times,serif" font-size="14.00">chj&#45;emacs&#45;checkout</text>
</g>
<!-- chj_emacs&#45;&gt;chj_emacs_checkout -->
<g id="edge10" class="edge"><title>chj_emacs&#45;&gt;chj_emacs_checkout</title>
<path fill="none" stroke="black" d="M1463.75,-330.298C1490.84,-320.922 1529.29,-307.611 1560.24,-296.898"/>
<polygon fill="black" stroke="black" points="1561.7,-300.098 1570,-293.519 1559.41,-293.483 1561.7,-300.098"/>
</g>
<!-- chj_emacs_checkout&#45;&gt;git_sign -->
<g id="edge11" class="edge"><title>chj_emacs_checkout&#45;&gt;git_sign</title>
<path fill="none" stroke="black" d="M1587.4,-260.699C1555.93,-239.591 1499.95,-201.315 1453.95,-166 1434.17,-150.822 1433.56,-140.47 1410.95,-130 1339.1,-96.7467 1246.39,-87.3204 1190.97,-84.774"/>
<polygon fill="black" stroke="black" points="1190.87,-81.2672 1180.73,-84.3629 1190.58,-88.2615 1190.87,-81.2672"/>
</g>
<!-- chj_fastrandom -->
<g id="node7" class="node"><title>chj_fastrandom</title>
<ellipse fill="none" stroke="green" cx="1526.95" cy="-148" rx="64.189" ry="18"/>
<text text-anchor="middle" x="1526.95" y="-144.3" font-family="Times,serif" font-size="14.00">chj&#45;fastrandom</text>
</g>
<!-- chj_fastrandom&#45;&gt;git_sign -->
<g id="edge12" class="edge"><title>chj_fastrandom&#45;&gt;git_sign</title>
<path fill="none" stroke="black" d="M1478.78,-135.986C1468.93,-133.88 1458.62,-131.78 1448.95,-130 1357.23,-113.131 1249.21,-97.9899 1189.16,-89.9887"/>
<polygon fill="black" stroke="black" points="1189.25,-86.47 1178.87,-88.6259 1188.33,-93.4093 1189.25,-86.47"/>
</g>
<!-- chj_perllib_checkout -->
<g id="node9" class="node"><title>chj_perllib_checkout</title>
<ellipse fill="none" stroke="blue" cx="798.945" cy="-148" rx="81.7856" ry="18"/>
<text text-anchor="middle" x="798.945" y="-144.3" font-family="Times,serif" font-size="14.00">chj&#45;perllib&#45;checkout</text>
</g>
<!-- chj_perllib&#45;&gt;chj_perllib_checkout -->
<g id="edge13" class="edge"><title>chj_perllib&#45;&gt;chj_perllib_checkout</title>
<path fill="none" stroke="black" d="M796.038,-194.785C796.4,-189.09 796.812,-182.605 797.209,-176.343"/>
<polygon fill="black" stroke="black" points="800.713,-176.396 797.854,-166.194 793.727,-175.952 800.713,-176.396"/>
</g>
<!-- chj_perllib_checkout&#45;&gt;_bs -->
<g id="edge14" class="edge"><title>chj_perllib_checkout&#45;&gt;_bs</title>
<path fill="none" stroke="black" d="M784.206,-130.117C778.037,-123.051 770.767,-114.723 764.115,-107.103"/>
<polygon fill="black" stroke="black" points="766.433,-104.437 757.22,-99.2054 761.16,-109.04 766.433,-104.437"/>
</g>
<!-- chj_perllib_checkout&#45;&gt;git_sign -->
<g id="edge15" class="edge"><title>chj_perllib_checkout&#45;&gt;git_sign</title>
<path fill="none" stroke="black" d="M859.145,-135.711C869.42,-133.797 879.988,-131.835 889.945,-130 962.852,-116.562 1047.63,-101.202 1098.2,-92.0681"/>
<polygon fill="black" stroke="black" points="1098.93,-95.4928 1108.15,-90.2715 1097.69,-88.6042 1098.93,-95.4928"/>
</g>
<!-- cj_git_patchtool&#45;&gt;chj_bin -->
<g id="edge17" class="edge"><title>cj_git_patchtool&#45;&gt;chj_bin</title>
<path fill="none" stroke="black" d="M1089.02,-332.5C1019.54,-320.029 898.857,-298.369 834.426,-286.804"/>
<polygon fill="black" stroke="black" points="834.668,-283.292 824.207,-284.97 833.431,-290.182 834.668,-283.292"/>
</g>
<!-- cj_git_patchtool&#45;&gt;debianpackages -->
<g id="edge16" class="edge"><title>cj_git_patchtool&#45;&gt;debianpackages</title>
<path fill="none" stroke="black" d="M1118.48,-326.102C1107.13,-318.417 1093.34,-309.075 1081.04,-300.743"/>
<polygon fill="black" stroke="black" points="1082.65,-297.603 1072.41,-294.892 1078.72,-303.399 1082.65,-297.603"/>
</g>
<!-- cj_git_patchtool&#45;&gt;git_sign -->
<g id="edge18" class="edge"><title>cj_git_patchtool&#45;&gt;git_sign</title>
<path fill="none" stroke="black" d="M1142.01,-324.671C1142.18,-280.7 1142.63,-164.517 1142.84,-111.309"/>
<polygon fill="black" stroke="black" points="1146.34,-111.267 1142.88,-101.253 1139.34,-111.24 1146.34,-111.267"/>
</g>
<!-- cplusplus -->
<g id="node11" class="node"><title>cplusplus</title>
<ellipse fill="none" stroke="blue" cx="1468.95" cy="-278" rx="44.393" ry="18"/>
<text text-anchor="middle" x="1468.95" y="-274.3" font-family="Times,serif" font-size="14.00">cplusplus</text>
</g>
<!-- perhaps_aptupdate -->
<g id="node35" class="node"><title>perhaps_aptupdate</title>
<ellipse fill="none" stroke="blue" cx="285.945" cy="-148" rx="76.8869" ry="18"/>
<text text-anchor="middle" x="285.945" y="-144.3" font-family="Times,serif" font-size="14.00">perhaps_aptupdate</text>
</g>
<!-- cplusplus&#45;&gt;perhaps_aptupdate -->
<g id="edge19" class="edge"><title>cplusplus&#45;&gt;perhaps_aptupdate</title>
<path fill="none" stroke="black" d="M1431.05,-268.699C1414.78,-265.453 1395.51,-262.029 1377.95,-260 1095.53,-227.373 1020.81,-268.057 738.945,-231 664.958,-221.273 648.269,-208.871 574.945,-195 502.037,-181.208 418.254,-168.18 359.735,-159.535"/>
<polygon fill="black" stroke="black" points="360.243,-156.072 349.84,-158.079 359.224,-162.997 360.243,-156.072"/>
</g>
<!-- debian_emacs -->
<g id="node12" class="node"><title>debian_emacs</title>
<ellipse fill="none" stroke="blue" cx="1216.95" cy="-538" rx="59.5901" ry="18"/>
<text text-anchor="middle" x="1216.95" y="-534.3" font-family="Times,serif" font-size="14.00">debian&#45;emacs</text>
</g>
<!-- debian_upgrade -->
<g id="node13" class="node"><title>debian_upgrade</title>
<ellipse fill="none" stroke="blue" cx="436.945" cy="-408" rx="66.8882" ry="18"/>
<text text-anchor="middle" x="436.945" y="-404.3" font-family="Times,serif" font-size="14.00">debian_upgrade</text>
</g>
<!-- debian_upgrade&#45;&gt;perhaps_aptupdate -->
<g id="edge20" class="edge"><title>debian_upgrade&#45;&gt;perhaps_aptupdate</title>
<path fill="none" stroke="black" d="M375.866,-400.377C349.998,-394.323 321.961,-382.815 304.945,-361 262.743,-306.895 271.767,-219.74 279.907,-175.947"/>
<polygon fill="black" stroke="black" points="283.359,-176.532 281.874,-166.042 276.493,-175.169 283.359,-176.532"/>
</g>
<!-- urxvt -->
<g id="node49" class="node"><title>urxvt</title>
<ellipse fill="none" stroke="blue" cx="536.945" cy="-213" rx="29.4969" ry="18"/>
<text text-anchor="middle" x="536.945" y="-209.3" font-family="Times,serif" font-size="14.00">urxvt</text>
</g>
<!-- debianpackages&#45;&gt;urxvt -->
<g id="edge21" class="edge"><title>debianpackages&#45;&gt;urxvt</title>
<path fill="none" stroke="black" d="M986.957,-271.506C883.513,-262.171 680.031,-243.057 608.945,-231 597.311,-229.027 584.754,-226.28 573.435,-223.57"/>
<polygon fill="black" stroke="black" points="573.997,-220.103 563.45,-221.114 572.325,-226.901 573.997,-220.103"/>
</g>
<!-- dnsresolver -->
<g id="node15" class="node"><title>dnsresolver</title>
<ellipse fill="none" stroke="green" cx="862.945" cy="-668" rx="51.1914" ry="18"/>
<text text-anchor="middle" x="862.945" y="-664.3" font-family="Times,serif" font-size="14.00">dnsresolver</text>
</g>
<!-- dotconfig_xfce4_checkout -->
<g id="node16" class="node"><title>dotconfig_xfce4_checkout</title>
<ellipse fill="none" stroke="blue" cx="559.945" cy="-148" rx="101.282" ry="18"/>
<text text-anchor="middle" x="559.945" y="-144.3" font-family="Times,serif" font-size="14.00">dotconfig&#45;xfce4&#45;checkout</text>
</g>
<!-- dotconfig_xfce4_checkout&#45;&gt;_bs -->
<g id="edge22" class="edge"><title>dotconfig_xfce4_checkout&#45;&gt;_bs</title>
<path fill="none" stroke="black" d="M604.486,-131.749C637.262,-120.527 681.104,-105.516 710.818,-95.3424"/>
<polygon fill="black" stroke="black" points="711.99,-98.6408 720.317,-92.0901 709.722,-92.0182 711.99,-98.6408"/>
</g>
<!-- dotconfig_xfce4_checkout&#45;&gt;git_sign -->
<g id="edge23" class="edge"><title>dotconfig_xfce4_checkout&#45;&gt;git_sign</title>
<path fill="none" stroke="black" d="M642.128,-137.427C663.549,-134.968 686.608,-132.354 707.945,-130 849.356,-114.402 1016.75,-96.999 1096.37,-88.7859"/>
<polygon fill="black" stroke="black" points="1096.97,-92.2432 1106.56,-87.7362 1096.25,-85.2801 1096.97,-92.2432"/>
</g>
<!-- emacs -->
<g id="node17" class="node"><title>emacs</title>
<ellipse fill="none" stroke="blue" cx="1216.95" cy="-603" rx="33.2948" ry="18"/>
<text text-anchor="middle" x="1216.95" y="-599.3" font-family="Times,serif" font-size="14.00">emacs</text>
</g>
<!-- emacs&#45;&gt;chj_emacs -->
<g id="edge25" class="edge"><title>emacs&#45;&gt;chj_emacs</title>
<path fill="none" stroke="black" d="M1239.69,-589.87C1253.98,-581.549 1272.24,-569.582 1285.95,-556 1344.72,-497.732 1394.11,-412.213 1416.72,-369.808"/>
<polygon fill="black" stroke="black" points="1419.94,-371.195 1421.51,-360.716 1413.75,-367.933 1419.94,-371.195"/>
</g>
<!-- emacs&#45;&gt;debian_emacs -->
<g id="edge24" class="edge"><title>emacs&#45;&gt;debian_emacs</title>
<path fill="none" stroke="black" d="M1216.95,-584.785C1216.95,-579.09 1216.95,-572.605 1216.95,-566.343"/>
<polygon fill="black" stroke="black" points="1220.45,-566.194 1216.95,-556.194 1213.45,-566.194 1220.45,-566.194"/>
</g>
<!-- fastrandom&#45;&gt;_usr_local_bin_fastrandom -->
<g id="edge26" class="edge"><title>fastrandom&#45;&gt;_usr_local_bin_fastrandom</title>
<path fill="none" stroke="black" d="M1274.31,-324.785C1273.76,-319.09 1273.15,-312.605 1272.55,-306.343"/>
<polygon fill="black" stroke="black" points="1276.02,-305.817 1271.58,-296.194 1269.05,-306.481 1276.02,-305.817"/>
</g>
<!-- firefox -->
<g id="node19" class="node"><title>firefox</title>
<ellipse fill="none" stroke="blue" cx="197.945" cy="-408" rx="34.394" ry="18"/>
<text text-anchor="middle" x="197.945" y="-404.3" font-family="Times,serif" font-size="14.00">firefox</text>
</g>
<!-- firefox&#45;&gt;perhaps_aptupdate -->
<g id="edge27" class="edge"><title>firefox&#45;&gt;perhaps_aptupdate</title>
<path fill="none" stroke="black" d="M197.136,-389.807C196.117,-352.019 197.848,-259.932 233.945,-195 238.762,-186.335 245.852,-178.49 253.256,-171.832"/>
<polygon fill="black" stroke="black" points="255.893,-174.189 261.322,-165.09 251.404,-168.818 255.893,-174.189"/>
</g>
<!-- fperl -->
<g id="node20" class="node"><title>fperl</title>
<ellipse fill="none" stroke="green" cx="955.945" cy="-343" rx="27.0966" ry="18"/>
<text text-anchor="middle" x="955.945" y="-339.3" font-family="Times,serif" font-size="14.00">fperl</text>
</g>
<!-- fperl&#45;&gt;chj_bin -->
<g id="edge30" class="edge"><title>fperl&#45;&gt;chj_bin</title>
<path fill="none" stroke="black" d="M934.78,-331.581C929.945,-329.319 924.8,-327.006 919.945,-325 890.167,-312.695 855.768,-300.528 829.984,-291.8"/>
<polygon fill="black" stroke="black" points="830.797,-288.381 820.203,-288.514 828.568,-295.017 830.797,-288.381"/>
</g>
<!-- fperl&#45;&gt;debianpackages -->
<g id="edge29" class="edge"><title>fperl&#45;&gt;debianpackages</title>
<path fill="none" stroke="black" d="M974.319,-329.553C986.418,-321.357 1002.59,-310.404 1016.78,-300.789"/>
<polygon fill="black" stroke="black" points="1018.99,-303.518 1025.31,-295.012 1015.07,-297.723 1018.99,-303.518"/>
</g>
<!-- fperl&#45;&gt;git_sign -->
<g id="edge28" class="edge"><title>fperl&#45;&gt;git_sign</title>
<path fill="none" stroke="black" d="M956.596,-324.842C957.941,-307.412 961.975,-280.183 973.945,-260 1006.41,-205.268 1038.7,-212.687 1081.95,-166 1098.43,-148.207 1114.7,-126.037 1126.28,-109.237"/>
<polygon fill="black" stroke="black" points="1129.48,-110.756 1132.21,-100.518 1123.7,-106.821 1129.48,-110.756"/>
</g>
<!-- full_desktop -->
<g id="node21" class="node"><title>full_desktop</title>
<ellipse fill="none" stroke="blue" cx="799.945" cy="-538" rx="53.0913" ry="18"/>
<text text-anchor="middle" x="799.945" y="-534.3" font-family="Times,serif" font-size="14.00">full&#45;desktop</text>
</g>
<!-- slim_desktop -->
<g id="node43" class="node"><title>slim_desktop</title>
<ellipse fill="none" stroke="blue" cx="675.945" cy="-473" rx="56.59" ry="18"/>
<text text-anchor="middle" x="675.945" y="-469.3" font-family="Times,serif" font-size="14.00">slim&#45;desktop</text>
</g>
<!-- full_desktop&#45;&gt;slim_desktop -->
<g id="edge31" class="edge"><title>full_desktop&#45;&gt;slim_desktop</title>
<path fill="none" stroke="black" d="M771.808,-522.704C754.692,-514.008 732.609,-502.789 713.954,-493.311"/>
<polygon fill="black" stroke="black" points="715.333,-490.086 704.832,-488.676 712.162,-496.326 715.333,-490.086"/>
</g>
<!-- full_desktop_autoremove -->
<g id="node22" class="node"><title>full_desktop_autoremove</title>
<ellipse fill="none" stroke="green" cx="918.945" cy="-603" rx="99.3824" ry="18"/>
<text text-anchor="middle" x="918.945" y="-599.3" font-family="Times,serif" font-size="14.00">full&#45;desktop_autoremove</text>
</g>
<!-- full_desktop_autoremove&#45;&gt;full_desktop -->
<g id="edge32" class="edge"><title>full_desktop_autoremove&#45;&gt;full_desktop</title>
<path fill="none" stroke="black" d="M888.3,-585.776C872.495,-577.409 853.107,-567.144 836.523,-558.365"/>
<polygon fill="black" stroke="black" points="838.115,-555.247 827.639,-553.661 834.839,-561.434 838.115,-555.247"/>
</g>
<!-- full_vncserver -->
<g id="node23" class="node"><title>full_vncserver</title>
<ellipse fill="none" stroke="blue" cx="579.945" cy="-603" rx="59.5901" ry="18"/>
<text text-anchor="middle" x="579.945" y="-599.3" font-family="Times,serif" font-size="14.00">full&#45;vncserver</text>
</g>
<!-- full_vncserver&#45;&gt;debianpackages -->
<g id="edge34" class="edge"><title>full_vncserver&#45;&gt;debianpackages</title>
<path fill="none" stroke="black" d="M623.593,-590.504C631.973,-588.508 640.704,-586.572 648.945,-585 814.249,-553.476 1010.95,-642.283 1010.95,-474 1010.95,-474 1010.95,-474 1010.95,-407 1010.95,-370.574 1025.26,-330.638 1036.32,-305.226"/>
<polygon fill="black" stroke="black" points="1039.6,-306.471 1040.51,-295.916 1033.22,-303.598 1039.6,-306.471"/>
</g>
<!-- slim_vncserver -->
<g id="node44" class="node"><title>slim_vncserver</title>
<ellipse fill="none" stroke="blue" cx="497.945" cy="-538" rx="63.8893" ry="18"/>
<text text-anchor="middle" x="497.945" y="-534.3" font-family="Times,serif" font-size="14.00">slim&#45;vncserver</text>
</g>
<!-- full_vncserver&#45;&gt;slim_vncserver -->
<g id="edge33" class="edge"><title>full_vncserver&#45;&gt;slim_vncserver</title>
<path fill="none" stroke="black" d="M559.253,-586.102C549.52,-578.624 537.743,-569.576 527.123,-561.417"/>
<polygon fill="black" stroke="black" points="528.978,-558.429 518.916,-555.112 524.713,-563.98 528.978,-558.429"/>
</g>
<!-- system -->
<g id="node46" class="node"><title>system</title>
<ellipse fill="none" stroke="blue" cx="661.945" cy="-538" rx="35.9954" ry="18"/>
<text text-anchor="middle" x="661.945" y="-534.3" font-family="Times,serif" font-size="14.00">system</text>
</g>
<!-- full_vncserver&#45;&gt;system -->
<g id="edge35" class="edge"><title>full_vncserver&#45;&gt;system</title>
<path fill="none" stroke="black" d="M600.637,-586.102C611.072,-578.085 623.855,-568.264 635.043,-559.669"/>
<polygon fill="black" stroke="black" points="637.425,-562.252 643.223,-553.384 633.16,-556.701 637.425,-562.252"/>
</g>
<!-- gambit -->
<g id="node24" class="node"><title>gambit</title>
<ellipse fill="none" stroke="blue" cx="1674.95" cy="-408" rx="35.9954" ry="18"/>
<text text-anchor="middle" x="1674.95" y="-404.3" font-family="Times,serif" font-size="14.00">gambit</text>
</g>
<!-- gambit&#45;&gt;chj_bin -->
<g id="edge39" class="edge"><title>gambit&#45;&gt;chj_bin</title>
<path fill="none" stroke="black" d="M1675.11,-389.676C1674.25,-370.476 1669.6,-340.217 1649.95,-325 1620.22,-301.986 1011.45,-298.545 973.945,-296 926.66,-292.791 872.639,-287.583 835.617,-283.776"/>
<polygon fill="black" stroke="black" points="835.953,-280.292 825.646,-282.742 835.231,-287.255 835.953,-280.292"/>
</g>
<!-- gambit&#45;&gt;chj_emacs -->
<g id="edge40" class="edge"><title>gambit&#45;&gt;chj_emacs</title>
<path fill="none" stroke="black" d="M1644.42,-398.35C1634.42,-395.59 1623.23,-392.583 1612.95,-390 1556.79,-375.897 1541.9,-375.863 1485.95,-361 1482.35,-360.044 1478.63,-359.013 1474.9,-357.949"/>
<polygon fill="black" stroke="black" points="1475.67,-354.526 1465.09,-355.08 1473.7,-361.245 1475.67,-354.526"/>
</g>
<!-- gambit&#45;&gt;cplusplus -->
<g id="edge37" class="edge"><title>gambit&#45;&gt;cplusplus</title>
<path fill="none" stroke="black" d="M1695.23,-392.847C1704.98,-384.774 1715.67,-373.73 1720.95,-361 1727.07,-346.218 1731.41,-337.102 1720.95,-325 1691.71,-291.198 1565.48,-306.081 1521.95,-296 1518.5,-295.202 1514.95,-294.284 1511.41,-293.298"/>
<polygon fill="black" stroke="black" points="1512.09,-289.849 1501.5,-290.378 1510.11,-296.563 1512.09,-289.849"/>
</g>
<!-- gambit&#45;&gt;debianpackages -->
<g id="edge38" class="edge"><title>gambit&#45;&gt;debianpackages</title>
<path fill="none" stroke="black" d="M1683.13,-390.451C1690.95,-371.962 1699.36,-342.354 1682.95,-325 1643.1,-282.879 1219.62,-301.93 1161.95,-296 1146.32,-294.394 1129.56,-292.155 1113.85,-289.829"/>
<polygon fill="black" stroke="black" points="1114.11,-286.33 1103.7,-288.294 1113.07,-293.251 1114.11,-286.33"/>
</g>
<!-- gambit_checkout -->
<g id="node25" class="node"><title>gambit_checkout</title>
<ellipse fill="none" stroke="blue" cx="968.945" cy="-148" rx="70.3881" ry="18"/>
<text text-anchor="middle" x="968.945" y="-144.3" font-family="Times,serif" font-size="14.00">gambit&#45;checkout</text>
</g>
<!-- gambit&#45;&gt;gambit_checkout -->
<g id="edge36" class="edge"><title>gambit&#45;&gt;gambit_checkout</title>
<path fill="none" stroke="black" d="M1700.88,-395.411C1714.59,-387.775 1730.15,-376.334 1737.95,-361 1759.53,-318.513 1741.07,-287.208 1701.95,-260 1597.15,-187.123 1214.72,-160.541 1047.78,-152.265"/>
<polygon fill="black" stroke="black" points="1047.74,-148.759 1037.59,-151.769 1047.4,-155.751 1047.74,-148.759"/>
</g>
<!-- virtualmem_3GB -->
<g id="node50" class="node"><title>virtualmem_3GB</title>
<ellipse fill="none" stroke="blue" cx="1567.95" cy="-343" rx="73.387" ry="18"/>
<text text-anchor="middle" x="1567.95" y="-339.3" font-family="Times,serif" font-size="14.00">virtualmem_3GB</text>
</g>
<!-- gambit&#45;&gt;virtualmem_3GB -->
<g id="edge41" class="edge"><title>gambit&#45;&gt;virtualmem_3GB</title>
<path fill="none" stroke="black" d="M1652.51,-393.793C1638.35,-385.452 1619.73,-374.491 1603.57,-364.977"/>
<polygon fill="black" stroke="black" points="1605.29,-361.924 1594.89,-359.866 1601.73,-367.956 1605.29,-361.924"/>
</g>
<!-- gambit_checkout&#45;&gt;_bs -->
<g id="edge42" class="edge"><title>gambit_checkout&#45;&gt;_bs</title>
<path fill="none" stroke="black" d="M923.413,-134.251C880.506,-122.237 817.166,-104.502 778.337,-93.6296"/>
<polygon fill="black" stroke="black" points="779.12,-90.2144 768.547,-90.8884 777.232,-96.9551 779.12,-90.2144"/>
</g>
<!-- gambit_checkout&#45;&gt;git_sign -->
<g id="edge43" class="edge"><title>gambit_checkout&#45;&gt;git_sign</title>
<path fill="none" stroke="black" d="M1007.99,-132.862C1036.68,-122.477 1075.47,-108.431 1104.1,-98.0641"/>
<polygon fill="black" stroke="black" points="1105.56,-101.258 1113.77,-94.5625 1103.18,-94.6761 1105.56,-101.258"/>
</g>
<!-- key -->
<g id="node28" class="node"><title>key</title>
<ellipse fill="none" stroke="blue" cx="1500.95" cy="-18" rx="27" ry="18"/>
<text text-anchor="middle" x="1500.95" y="-14.3" font-family="Times,serif" font-size="14.00">key</text>
</g>
<!-- git_sign&#45;&gt;key -->
<g id="edge44" class="edge"><title>git_sign&#45;&gt;key</title>
<path fill="none" stroke="black" d="M1177.6,-75.9021C1245.7,-63.9182 1396.33,-37.4102 1465.26,-25.2805"/>
<polygon fill="black" stroke="black" points="1465.96,-28.7103 1475.2,-23.53 1464.75,-21.8162 1465.96,-28.7103"/>
</g>
<!-- graph_deps -->
<g id="node27" class="node"><title>graph_deps</title>
<ellipse fill="none" stroke="green" cx="401.945" cy="-213" rx="50.0912" ry="18"/>
<text text-anchor="middle" x="401.945" y="-209.3" font-family="Times,serif" font-size="14.00">graph&#45;deps</text>
</g>
<!-- graph_deps&#45;&gt;perhaps_aptupdate -->
<g id="edge45" class="edge"><title>graph_deps&#45;&gt;perhaps_aptupdate</title>
<path fill="none" stroke="black" d="M375.332,-197.547C360.094,-189.271 340.72,-178.748 323.907,-169.617"/>
<polygon fill="black" stroke="black" points="325.33,-166.407 314.872,-164.71 321.989,-172.559 325.33,-166.407"/>
</g>
<!-- load_profile -->
<g id="node29" class="node"><title>load_profile</title>
<ellipse fill="none" stroke="green" cx="547.945" cy="-473" rx="53.8905" ry="18"/>
<text text-anchor="middle" x="547.945" y="-469.3" font-family="Times,serif" font-size="14.00">load_profile</text>
</g>
<!-- xfce4_load_profile -->
<g id="node53" class="node"><title>xfce4_load_profile</title>
<ellipse fill="none" stroke="blue" cx="598.945" cy="-408" rx="77.1866" ry="18"/>
<text text-anchor="middle" x="598.945" y="-404.3" font-family="Times,serif" font-size="14.00">xfce4_load_profile</text>
</g>
<!-- load_profile&#45;&gt;xfce4_load_profile -->
<g id="edge46" class="edge"><title>load_profile&#45;&gt;xfce4_load_profile</title>
<path fill="none" stroke="black" d="M561.345,-455.447C566.605,-448.949 572.761,-441.346 578.55,-434.195"/>
<polygon fill="black" stroke="black" points="581.53,-436.075 585.102,-426.101 576.089,-431.671 581.53,-436.075"/>
</g>
<!-- locales -->
<g id="node30" class="node"><title>locales</title>
<ellipse fill="none" stroke="blue" cx="785.945" cy="-473" rx="35.194" ry="18"/>
<text text-anchor="middle" x="785.945" y="-469.3" font-family="Times,serif" font-size="14.00">locales</text>
</g>
<!-- locales&#45;&gt;chj_bin -->
<g id="edge47" class="edge"><title>locales&#45;&gt;chj_bin</title>
<path fill="none" stroke="black" d="M770.848,-456.572C746.118,-429.344 702.005,-371.271 725.945,-325 732.425,-312.476 744.06,-302.629 755.714,-295.315"/>
<polygon fill="black" stroke="black" points="757.637,-298.246 764.544,-290.213 754.134,-292.185 757.637,-298.246"/>
</g>
<!-- mercurial -->
<g id="node31" class="node"><title>mercurial</title>
<ellipse fill="none" stroke="green" cx="790.945" cy="-343" rx="44.6926" ry="18"/>
<text text-anchor="middle" x="790.945" y="-339.3" font-family="Times,serif" font-size="14.00">mercurial</text>
</g>
<!-- mercurial&#45;&gt;chj_bin -->
<g id="edge48" class="edge"><title>mercurial&#45;&gt;chj_bin</title>
<path fill="none" stroke="black" d="M790.945,-324.785C790.945,-319.09 790.945,-312.605 790.945,-306.343"/>
<polygon fill="black" stroke="black" points="794.445,-306.194 790.945,-296.194 787.445,-306.194 794.445,-306.194"/>
</g>
<!-- moduser -->
<g id="node32" class="node"><title>moduser</title>
<ellipse fill="none" stroke="blue" cx="1481.95" cy="-473" rx="41.6928" ry="18"/>
<text text-anchor="middle" x="1481.95" y="-469.3" font-family="Times,serif" font-size="14.00">moduser</text>
</g>
<!-- moduser&#45;&gt;chj -->
<g id="edge49" class="edge"><title>moduser&#45;&gt;chj</title>
<path fill="none" stroke="black" d="M1445.97,-463.699C1393.31,-451.545 1295.84,-429.052 1243.81,-417.045"/>
<polygon fill="black" stroke="black" points="1244.57,-413.628 1234.03,-414.79 1242.99,-420.449 1244.57,-413.628"/>
</g>
<!-- moduser&#45;&gt;key -->
<g id="edge50" class="edge"><title>moduser&#45;&gt;key</title>
<path fill="none" stroke="black" d="M1505.82,-458.242C1534.9,-441.613 1585.62,-413 1629.95,-390 1730.34,-337.907 1858.95,-392.104 1858.95,-279 1858.95,-279 1858.95,-279 1858.95,-147 1858.95,-79.2222 1628.55,-37.8144 1537.42,-24.0865"/>
<polygon fill="black" stroke="black" points="1537.67,-20.5866 1527.27,-22.5861 1536.65,-27.5113 1537.67,-20.5866"/>
</g>
<!-- nosudo -->
<g id="node33" class="node"><title>nosudo</title>
<ellipse fill="none" stroke="green" cx="968.945" cy="-668" rx="36.2938" ry="18"/>
<text text-anchor="middle" x="968.945" y="-664.3" font-family="Times,serif" font-size="14.00">nosudo</text>
</g>
<!-- nosudo_auto -->
<g id="node34" class="node"><title>nosudo_auto</title>
<ellipse fill="none" stroke="blue" cx="53.9452" cy="-603" rx="53.8905" ry="18"/>
<text text-anchor="middle" x="53.9452" y="-599.3" font-family="Times,serif" font-size="14.00">nosudo&#45;auto</text>
</g>
<!-- qemu -->
<g id="node36" class="node"><title>qemu</title>
<ellipse fill="none" stroke="green" cx="1776.95" cy="-473" rx="30.5947" ry="18"/>
<text text-anchor="middle" x="1776.95" y="-469.3" font-family="Times,serif" font-size="14.00">qemu</text>
</g>
<!-- qemu&#45;&gt;gambit -->
<g id="edge52" class="edge"><title>qemu&#45;&gt;gambit</title>
<path fill="none" stroke="black" d="M1756.3,-459.251C1741.67,-450.211 1721.79,-437.931 1705.34,-427.773"/>
<polygon fill="black" stroke="black" points="1706.96,-424.66 1696.61,-422.382 1703.28,-430.615 1706.96,-424.66"/>
</g>
<!-- qemu&#45;&gt;git_sign -->
<g id="edge51" class="edge"><title>qemu&#45;&gt;git_sign</title>
<path fill="none" stroke="black" d="M1786.49,-455.642C1799.43,-431.883 1820.95,-386.062 1820.95,-344 1820.95,-344 1820.95,-344 1820.95,-212 1820.95,-107.235 1702,-153.66 1599.95,-130 1453.56,-96.064 1275.06,-87.1638 1191.05,-84.8297"/>
<polygon fill="black" stroke="black" points="1190.88,-81.3243 1180.79,-84.5648 1190.7,-88.322 1190.88,-81.3243"/>
</g>
<!-- remove_xserver -->
<g id="node37" class="node"><title>remove_xserver</title>
<ellipse fill="none" stroke="green" cx="1089.95" cy="-668" rx="66.0889" ry="18"/>
<text text-anchor="middle" x="1089.95" y="-664.3" font-family="Times,serif" font-size="14.00">remove&#45;xserver</text>
</g>
<!-- schemen -->
<g id="node38" class="node"><title>schemen</title>
<ellipse fill="none" stroke="green" cx="750.945" cy="-668" rx="42.4939" ry="18"/>
<text text-anchor="middle" x="750.945" y="-664.3" font-family="Times,serif" font-size="14.00">schemen</text>
</g>
<!-- schemen&#45;&gt;emacs -->
<g id="edge57" class="edge"><title>schemen&#45;&gt;emacs</title>
<path fill="none" stroke="black" d="M782.006,-655.696C788.833,-653.536 796.076,-651.488 802.945,-650 873.056,-634.813 1083.14,-615.538 1174.14,-607.632"/>
<polygon fill="black" stroke="black" points="1174.71,-611.096 1184.37,-606.748 1174.11,-604.122 1174.71,-611.096"/>
</g>
<!-- schemen&#45;&gt;firefox -->
<g id="edge61" class="edge"><title>schemen&#45;&gt;firefox</title>
<path fill="none" stroke="black" d="M710.618,-662.605C662.246,-656.578 579.143,-643.806 510.945,-621 386.531,-579.394 342.054,-580.291 245.945,-491 229.121,-475.369 216.399,-452.488 208.295,-434.865"/>
<polygon fill="black" stroke="black" points="211.494,-433.445 204.27,-425.695 205.084,-436.259 211.494,-433.445"/>
</g>
<!-- schemen&#45;&gt;full_vncserver -->
<g id="edge54" class="edge"><title>schemen&#45;&gt;full_vncserver</title>
<path fill="none" stroke="black" d="M719.978,-655.591C693.778,-645.938 655.852,-631.966 626.075,-620.995"/>
<polygon fill="black" stroke="black" points="626.912,-617.574 616.319,-617.401 624.492,-624.142 626.912,-617.574"/>
</g>
<!-- schemen&#45;&gt;gambit -->
<g id="edge56" class="edge"><title>schemen&#45;&gt;gambit</title>
<path fill="none" stroke="black" d="M781.378,-655.485C788.369,-653.281 795.839,-651.267 802.945,-650 888.652,-634.714 1508.38,-660.526 1585.95,-621 1653.89,-586.376 1669.99,-485.357 1673.79,-436.328"/>
<polygon fill="black" stroke="black" points="1677.29,-436.354 1674.45,-426.147 1670.31,-435.896 1677.29,-436.354"/>
</g>
<!-- schemen&#45;&gt;nosudo_auto -->
<g id="edge55" class="edge"><title>schemen&#45;&gt;nosudo_auto</title>
<path fill="none" stroke="black" d="M708.698,-666.412C607.019,-664.455 340.872,-656.104 121.945,-621 116.095,-620.062 110.011,-618.866 103.993,-617.544"/>
<polygon fill="black" stroke="black" points="104.512,-614.072 93.9804,-615.223 102.932,-620.891 104.512,-614.072"/>
</g>
<!-- schemen_lili -->
<g id="node40" class="node"><title>schemen_lili</title>
<ellipse fill="none" stroke="blue" cx="1521.95" cy="-603" rx="54.6905" ry="18"/>
<text text-anchor="middle" x="1521.95" y="-599.3" font-family="Times,serif" font-size="14.00">schemen&#45;lili</text>
</g>
<!-- schemen&#45;&gt;schemen_lili -->
<g id="edge59" class="edge"><title>schemen&#45;&gt;schemen_lili</title>
<path fill="none" stroke="black" d="M781.667,-655.471C788.578,-653.296 795.941,-651.299 802.945,-650 1052.35,-603.738 1120.14,-641.832 1372.95,-621 1402.28,-618.583 1434.77,-614.985 1461.9,-611.721"/>
<polygon fill="black" stroke="black" points="1462.51,-615.172 1472.02,-610.489 1461.67,-608.223 1462.51,-615.172"/>
</g>
<!-- schemen_user -->
<g id="node41" class="node"><title>schemen_user</title>
<ellipse fill="none" stroke="blue" cx="1481.95" cy="-538" rx="59.5901" ry="18"/>
<text text-anchor="middle" x="1481.95" y="-534.3" font-family="Times,serif" font-size="14.00">schemen&#45;user</text>
</g>
<!-- schemen&#45;&gt;schemen_user -->
<g id="edge58" class="edge"><title>schemen&#45;&gt;schemen_user</title>
<path fill="none" stroke="black" d="M781.68,-655.537C788.59,-653.359 795.95,-651.344 802.945,-650 1002.38,-611.699 1060.24,-662.924 1258.95,-621 1325.12,-607.037 1398.01,-577.321 1441.87,-557.759"/>
<polygon fill="black" stroke="black" points="1443.36,-560.927 1451.04,-553.628 1440.48,-554.545 1443.36,-560.927"/>
</g>
<!-- schemen&#45;&gt;system -->
<g id="edge53" class="edge"><title>schemen&#45;&gt;system</title>
<path fill="none" stroke="black" d="M762.63,-650.629C773.568,-633.1 786.373,-605.1 772.945,-585 758.142,-562.841 730.471,-551.343 706.462,-545.383"/>
<polygon fill="black" stroke="black" points="706.966,-541.91 696.445,-543.153 705.445,-548.743 706.966,-541.91"/>
</g>
<!-- tmp_passwd -->
<g id="node47" class="node"><title>tmp_passwd</title>
<ellipse fill="none" stroke="grey" cx="710.945" cy="-603" rx="53.0913" ry="18"/>
<text text-anchor="middle" x="710.945" y="-599.3" font-family="Times,serif" font-size="14.00">tmp/passwd</text>
</g>
<!-- schemen&#45;&gt;tmp_passwd -->
<g id="edge60" class="edge"><title>schemen&#45;&gt;tmp_passwd</title>
<path fill="none" stroke="black" d="M740.436,-650.447C736.334,-643.988 731.54,-636.436 727.023,-629.323"/>
<polygon fill="black" stroke="black" points="729.838,-627.227 721.523,-620.661 723.929,-630.979 729.838,-627.227"/>
</g>
<!-- unison -->
<g id="node48" class="node"><title>unison</title>
<ellipse fill="none" stroke="blue" cx="43.9452" cy="-213" rx="34.394" ry="18"/>
<text text-anchor="middle" x="43.9452" y="-209.3" font-family="Times,serif" font-size="14.00">unison</text>
</g>
<!-- schemen&#45;&gt;unison -->
<g id="edge62" class="edge"><title>schemen&#45;&gt;unison</title>
<path fill="none" stroke="black" d="M708.674,-667.224C569.728,-666.836 135.945,-656.238 135.945,-539 135.945,-539 135.945,-539 135.945,-342 135.945,-297.358 98.5902,-257.636 71.4859,-234.69"/>
<polygon fill="black" stroke="black" points="73.4121,-231.744 63.456,-228.121 68.9796,-237.162 73.4121,-231.744"/>
</g>
<!-- schemen_finish -->
<g id="node39" class="node"><title>schemen_finish</title>
<ellipse fill="none" stroke="green" cx="1238.95" cy="-668" rx="64.9885" ry="18"/>
<text text-anchor="middle" x="1238.95" y="-664.3" font-family="Times,serif" font-size="14.00">schemen&#45;finish</text>
</g>
<!-- schemen_lili&#45;&gt;chj_emacs -->
<g id="edge65" class="edge"><title>schemen_lili&#45;&gt;chj_emacs</title>
<path fill="none" stroke="black" d="M1535.75,-585.215C1541.67,-576.952 1547.91,-566.521 1550.95,-556 1563.6,-512.195 1555.17,-494.814 1532.95,-455 1513.35,-419.886 1480.39,-387.104 1457.04,-366.405"/>
<polygon fill="black" stroke="black" points="1459.07,-363.524 1449.22,-359.603 1454.47,-368.806 1459.07,-363.524"/>
</g>
<!-- schemen_lili&#45;&gt;gambit -->
<g id="edge64" class="edge"><title>schemen_lili&#45;&gt;gambit</title>
<path fill="none" stroke="black" d="M1559.89,-589.81C1577.9,-582.423 1598.57,-571.4 1612.95,-556 1629.92,-537.816 1653.59,-472.785 1666.21,-435.596"/>
<polygon fill="black" stroke="black" points="1669.6,-436.501 1669.46,-425.907 1662.96,-434.275 1669.6,-436.501"/>
</g>
<!-- schemen_lili&#45;&gt;schemen_user -->
<g id="edge63" class="edge"><title>schemen_lili&#45;&gt;schemen_user</title>
<path fill="none" stroke="black" d="M1511.23,-585.117C1507.19,-578.762 1502.51,-571.386 1498.09,-564.422"/>
<polygon fill="black" stroke="black" points="1501.01,-562.496 1492.69,-555.929 1495.1,-566.248 1501.01,-562.496"/>
</g>
<!-- schemen_user&#45;&gt;moduser -->
<g id="edge66" class="edge"><title>schemen_user&#45;&gt;moduser</title>
<path fill="none" stroke="black" d="M1481.95,-519.785C1481.95,-514.09 1481.95,-507.605 1481.95,-501.343"/>
<polygon fill="black" stroke="black" points="1485.45,-501.194 1481.95,-491.194 1478.45,-501.194 1485.45,-501.194"/>
</g>
<!-- set_x_terminal_emulator -->
<g id="node42" class="node"><title>set_x_terminal_emulator</title>
<ellipse fill="none" stroke="blue" cx="518.945" cy="-343" rx="94.7833" ry="18"/>
<text text-anchor="middle" x="518.945" y="-339.3" font-family="Times,serif" font-size="14.00">set&#45;x&#45;terminal&#45;emulator</text>
</g>
<!-- set_x_terminal_emulator&#45;&gt;chj_bin -->
<g id="edge68" class="edge"><title>set_x_terminal_emulator&#45;&gt;chj_bin</title>
<path fill="none" stroke="black" d="M576.629,-328.639C628.387,-316.651 703.1,-299.346 749.259,-288.655"/>
<polygon fill="black" stroke="black" points="750.267,-292.015 759.219,-286.348 748.687,-285.195 750.267,-292.015"/>
</g>
<!-- set_x_terminal_emulator&#45;&gt;urxvt -->
<g id="edge67" class="edge"><title>set_x_terminal_emulator&#45;&gt;urxvt</title>
<path fill="none" stroke="black" d="M521.335,-325.003C524.348,-303.581 529.562,-266.502 533.129,-241.14"/>
<polygon fill="black" stroke="black" points="536.618,-241.458 534.545,-231.068 529.687,-240.483 536.618,-241.458"/>
</g>
<!-- slim_desktop&#45;&gt;chj -->
<g id="edge69" class="edge"><title>slim_desktop&#45;&gt;chj</title>
<path fill="none" stroke="black" d="M716.923,-460.404C725.159,-458.368 733.789,-456.443 741.945,-455 900.486,-426.946 1092.56,-414.792 1171.91,-410.708"/>
<polygon fill="black" stroke="black" points="1172.09,-414.204 1181.9,-410.206 1171.73,-407.213 1172.09,-414.204"/>
</g>
<!-- slim_desktop&#45;&gt;set_x_terminal_emulator -->
<g id="edge70" class="edge"><title>slim_desktop&#45;&gt;set_x_terminal_emulator</title>
<path fill="none" stroke="black" d="M684.106,-455.084C691.471,-437.09 699.164,-408.695 684.945,-390 674.065,-375.694 636.806,-364.682 600.338,-357.023"/>
<polygon fill="black" stroke="black" points="600.591,-353.504 590.096,-354.952 599.204,-360.365 600.591,-353.504"/>
</g>
<!-- slim_desktop&#45;&gt;xfce4_load_profile -->
<g id="edge71" class="edge"><title>slim_desktop&#45;&gt;xfce4_load_profile</title>
<path fill="none" stroke="black" d="M656.116,-455.776C647.204,-448.484 636.531,-439.752 626.832,-431.817"/>
<polygon fill="black" stroke="black" points="628.931,-429.012 618.975,-425.388 624.498,-434.429 628.931,-429.012"/>
</g>
<!-- slim_vncserver&#45;&gt;chj_bin -->
<g id="edge74" class="edge"><title>slim_vncserver&#45;&gt;chj_bin</title>
<path fill="none" stroke="black" d="M466.56,-522.177C433.313,-504.525 382.684,-471.592 360.945,-426 354.059,-411.558 355.51,-405.048 360.945,-390 367.325,-372.338 398.462,-333.997 414.945,-325 470.9,-294.457 657.744,-283.793 745.141,-280.416"/>
<polygon fill="black" stroke="black" points="745.427,-283.908 755.291,-280.04 745.168,-276.913 745.427,-283.908"/>
</g>
<!-- slim_vncserver&#45;&gt;perhaps_aptupdate -->
<g id="edge72" class="edge"><title>slim_vncserver&#45;&gt;perhaps_aptupdate</title>
<path fill="none" stroke="black" d="M450.953,-525.753C427.414,-518.517 399.431,-507.347 377.945,-491 320.784,-447.511 310.53,-426.891 281.945,-361 252.506,-293.14 257.623,-267.937 269.945,-195 271.01,-188.698 272.841,-182.106 274.893,-175.946"/>
<polygon fill="black" stroke="black" points="278.34,-176.708 278.459,-166.113 271.759,-174.321 278.34,-176.708"/>
</g>
<!-- slim_vncserver&#45;&gt;slim_desktop -->
<g id="edge73" class="edge"><title>slim_vncserver&#45;&gt;slim_desktop</title>
<path fill="none" stroke="black" d="M536.131,-523.485C563.664,-513.74 600.955,-500.541 630.1,-490.226"/>
<polygon fill="black" stroke="black" points="631.387,-493.484 639.646,-486.847 629.051,-486.885 631.387,-493.484"/>
</g>
<!-- swap -->
<g id="node45" class="node"><title>swap</title>
<ellipse fill="none" stroke="green" cx="881.945" cy="-343" rx="28.6953" ry="18"/>
<text text-anchor="middle" x="881.945" y="-339.3" font-family="Times,serif" font-size="14.00">swap</text>
</g>
<!-- swap&#45;&gt;chj_bin -->
<g id="edge75" class="edge"><title>swap&#45;&gt;chj_bin</title>
<path fill="none" stroke="black" d="M863.09,-328.946C850.501,-320.231 833.711,-308.607 819.496,-298.766"/>
<polygon fill="black" stroke="black" points="821.253,-295.725 811.039,-292.911 817.268,-301.481 821.253,-295.725"/>
</g>
<!-- system&#45;&gt;debian_upgrade -->
<g id="edge76" class="edge"><title>system&#45;&gt;debian_upgrade</title>
<path fill="none" stroke="black" d="M629.801,-530.05C581.999,-519.505 496.529,-499.764 484.945,-491 466.521,-477.059 453.889,-453.827 446.226,-435.644"/>
<polygon fill="black" stroke="black" points="449.405,-434.166 442.475,-426.152 442.895,-436.739 449.405,-434.166"/>
</g>
<!-- system&#45;&gt;locales -->
<g id="edge77" class="edge"><title>system&#45;&gt;locales</title>
<path fill="none" stroke="black" d="M686.148,-524.703C705.095,-515.077 731.658,-501.581 752.616,-490.933"/>
<polygon fill="black" stroke="black" points="754.473,-493.916 761.803,-486.266 751.303,-487.675 754.473,-493.916"/>
</g>
<!-- unison&#45;&gt;perhaps_aptupdate -->
<g id="edge78" class="edge"><title>unison&#45;&gt;perhaps_aptupdate</title>
<path fill="none" stroke="black" d="M70.1017,-200.941C75.611,-198.815 81.4267,-196.718 86.9452,-195 129.99,-181.598 179.362,-170.162 218.161,-162.045"/>
<polygon fill="black" stroke="black" points="219.212,-165.402 228.296,-159.95 217.795,-158.547 219.212,-165.402"/>
</g>
<!-- urxvt&#45;&gt;perhaps_aptupdate -->
<g id="edge79" class="edge"><title>urxvt&#45;&gt;perhaps_aptupdate</title>
<path fill="none" stroke="black" d="M510.084,-205.258C471.233,-195.506 398.313,-177.204 346.193,-164.122"/>
<polygon fill="black" stroke="black" points="346.941,-160.701 336.39,-161.661 345.237,-167.491 346.941,-160.701"/>
</g>
<!-- virtualmem_3GB&#45;&gt;chj_bin -->
<g id="edge80" class="edge"><title>virtualmem_3GB&#45;&gt;chj_bin</title>
<path fill="none" stroke="black" d="M1516.53,-330.129C1506.43,-328.142 1495.89,-326.305 1485.95,-325 1259.96,-295.341 1201.23,-312.988 973.945,-296 926.683,-292.467 872.658,-287.311 835.629,-283.605"/>
<polygon fill="black" stroke="black" points="835.956,-280.12 825.656,-282.6 835.255,-287.085 835.956,-280.12"/>
</g>
<!-- vncclient -->
<g id="node51" class="node"><title>vncclient</title>
<ellipse fill="none" stroke="green" cx="138.945" cy="-213" rx="42.7926" ry="18"/>
<text text-anchor="middle" x="138.945" y="-209.3" font-family="Times,serif" font-size="14.00">vncclient</text>
</g>
<!-- vncclient&#45;&gt;perhaps_aptupdate -->
<g id="edge81" class="edge"><title>vncclient&#45;&gt;perhaps_aptupdate</title>
<path fill="none" stroke="black" d="M167.988,-199.553C188.966,-190.563 217.684,-178.255 241.531,-168.035"/>
<polygon fill="black" stroke="black" points="242.928,-171.244 250.741,-164.088 240.171,-164.81 242.928,-171.244"/>
</g>
<!-- xfce -->
<g id="node52" class="node"><title>xfce</title>
<ellipse fill="none" stroke="blue" cx="340.945" cy="-343" rx="27" ry="18"/>
<text text-anchor="middle" x="340.945" y="-339.3" font-family="Times,serif" font-size="14.00">xfce</text>
</g>
<!-- xfce&#45;&gt;chj_bin -->
<g id="edge83" class="edge"><title>xfce&#45;&gt;chj_bin</title>
<path fill="none" stroke="black" d="M362.259,-331.834C368.483,-329.232 375.379,-326.694 381.945,-325 510.802,-291.75 668.638,-282.533 745.09,-279.979"/>
<polygon fill="black" stroke="black" points="745.44,-283.47 755.326,-279.661 745.223,-276.473 745.44,-283.47"/>
</g>
<!-- xfce&#45;&gt;dotconfig_xfce4_checkout -->
<g id="edge84" class="edge"><title>xfce&#45;&gt;dotconfig_xfce4_checkout</title>
<path fill="none" stroke="black" d="M356.153,-328.04C378.986,-307.057 423.445,-266.104 460.945,-231 477.929,-215.101 481.185,-210.027 498.945,-195 508.265,-187.114 518.768,-178.953 528.399,-171.733"/>
<polygon fill="black" stroke="black" points="530.639,-174.43 536.586,-165.662 526.469,-168.807 530.639,-174.43"/>
</g>
<!-- xfce&#45;&gt;perhaps_aptupdate -->
<g id="edge82" class="edge"><title>xfce&#45;&gt;perhaps_aptupdate</title>
<path fill="none" stroke="black" d="M336.4,-325.209C328.968,-297.869 313.666,-242.056 299.945,-195 298.149,-188.839 296.169,-182.23 294.278,-175.998"/>
<polygon fill="black" stroke="black" points="297.495,-174.552 291.226,-166.011 290.801,-176.597 297.495,-174.552"/>
</g>
<!-- xfce4_load_profile&#45;&gt;chj_bin -->
<g id="edge85" class="edge"><title>xfce4_load_profile&#45;&gt;chj_bin</title>
<path fill="none" stroke="black" d="M608.96,-389.956C620.55,-371.58 641.243,-342.604 665.945,-325 690.799,-307.288 723.25,-295.612 748.859,-288.457"/>
<polygon fill="black" stroke="black" points="749.901,-291.801 758.661,-285.842 748.097,-285.037 749.901,-291.801"/>
</g>
<!-- xfce4_load_profile&#45;&gt;xfce -->
<g id="edge86" class="edge"><title>xfce4_load_profile&#45;&gt;xfce</title>
<path fill="none" stroke="black" d="M547.664,-394.478C496.782,-382.053 420.182,-363.349 375.917,-352.54"/>
<polygon fill="black" stroke="black" points="376.469,-349.072 365.924,-350.1 374.808,-355.872 376.469,-349.072"/>
</g>
</g>
</svg>
