<?xml version="1.0" encoding="UTF-8" standalone="no"?>
<!DOCTYPE svg PUBLIC "-//W3C//DTD SVG 1.1//EN"
 "http://www.w3.org/Graphics/SVG/1.1/DTD/svg11.dtd">
<!-- Generated by graphviz version 2.38.0 (20140413.2041)
 -->
<!-- Title: Dependency graph Pages: 1 -->
<svg width="2398pt" height="824pt"
 viewBox="0.00 0.00 2397.94 824.00" xmlns="http://www.w3.org/2000/svg" xmlns:xlink="http://www.w3.org/1999/xlink">
<g id="graph0" class="graph" transform="scale(1 1) rotate(0) translate(4 820)">
<title>Dependency graph</title>
<polygon fill="white" stroke="none" points="-4,4 -4,-820 2393.94,-820 2393.94,4 -4,4"/>
<!-- _bs -->
<g id="node1" class="node"><title>_bs</title>
<ellipse fill="none" stroke="grey" cx="808.046" cy="-148" rx="27" ry="18"/>
<text text-anchor="middle" x="808.046" y="-144.3" font-family="Times,serif" font-size="14.00">.bs</text>
</g>
<!-- _usr_local_bin_fastrandom -->
<g id="node2" class="node"><title>_usr_local_bin_fastrandom</title>
<ellipse fill="none" stroke="grey" cx="1358.05" cy="-343" rx="99.3824" ry="18"/>
<text text-anchor="middle" x="1358.05" y="-339.3" font-family="Times,serif" font-size="14.00">/usr/local/bin/fastrandom</text>
</g>
<!-- bullseye -->
<g id="node3" class="node"><title>bullseye</title>
<ellipse fill="none" stroke="blue" cx="336.046" cy="-473" rx="40.0939" ry="18"/>
<text text-anchor="middle" x="336.046" y="-469.3" font-family="Times,serif" font-size="14.00">bullseye</text>
</g>
<!-- sources_bullseye -->
<g id="node49" class="node"><title>sources_bullseye</title>
<ellipse fill="none" stroke="blue" cx="336.046" cy="-408" rx="69.5877" ry="18"/>
<text text-anchor="middle" x="336.046" y="-404.3" font-family="Times,serif" font-size="14.00">sources&#45;bullseye</text>
</g>
<!-- bullseye&#45;&gt;sources_bullseye -->
<g id="edge1" class="edge"><title>bullseye&#45;&gt;sources_bullseye</title>
<path fill="none" stroke="black" d="M336.046,-454.785C336.046,-449.09 336.046,-442.605 336.046,-436.343"/>
<polygon fill="black" stroke="black" points="339.546,-436.194 336.046,-426.194 332.546,-436.194 339.546,-436.194"/>
</g>
<!-- chj -->
<g id="node4" class="node"><title>chj</title>
<ellipse fill="none" stroke="blue" cx="1339.05" cy="-473" rx="27" ry="18"/>
<text text-anchor="middle" x="1339.05" y="-469.3" font-family="Times,serif" font-size="14.00">chj</text>
</g>
<!-- chj_bin -->
<g id="node5" class="node"><title>chj_bin</title>
<ellipse fill="none" stroke="blue" cx="657.046" cy="-343" rx="35.9954" ry="18"/>
<text text-anchor="middle" x="657.046" y="-339.3" font-family="Times,serif" font-size="14.00">chj&#45;bin</text>
</g>
<!-- chj&#45;&gt;chj_bin -->
<g id="edge4" class="edge"><title>chj&#45;&gt;chj_bin</title>
<path fill="none" stroke="black" d="M1312.06,-470.882C1250.98,-467.858 1097.84,-457.501 974.046,-426 931.494,-415.172 924.153,-402.443 882.046,-390 820.193,-371.722 746.668,-358.176 700.92,-350.68"/>
<polygon fill="black" stroke="black" points="701.464,-347.223 691.034,-349.084 700.348,-354.133 701.464,-347.223"/>
</g>
<!-- chj_emacs -->
<g id="node6" class="node"><title>chj_emacs</title>
<ellipse fill="none" stroke="blue" cx="1780.05" cy="-408" rx="46.5926" ry="18"/>
<text text-anchor="middle" x="1780.05" y="-404.3" font-family="Times,serif" font-size="14.00">chj&#45;emacs</text>
</g>
<!-- chj&#45;&gt;chj_emacs -->
<g id="edge5" class="edge"><title>chj&#45;&gt;chj_emacs</title>
<path fill="none" stroke="black" d="M1365.66,-468.905C1423.88,-462.041 1566.87,-444.665 1686.05,-426 1700.02,-423.811 1715.12,-421.194 1729.04,-418.676"/>
<polygon fill="black" stroke="black" points="1729.73,-422.109 1738.94,-416.868 1728.47,-415.223 1729.73,-422.109"/>
</g>
<!-- cj_git_patchtool -->
<g id="node11" class="node"><title>cj_git_patchtool</title>
<ellipse fill="none" stroke="blue" cx="1272.05" cy="-408" rx="64.9885" ry="18"/>
<text text-anchor="middle" x="1272.05" y="-404.3" font-family="Times,serif" font-size="14.00">cj&#45;git&#45;patchtool</text>
</g>
<!-- chj&#45;&gt;cj_git_patchtool -->
<g id="edge7" class="edge"><title>chj&#45;&gt;cj_git_patchtool</title>
<path fill="none" stroke="black" d="M1323.84,-457.704C1315.88,-450.217 1305.93,-440.858 1296.88,-432.351"/>
<polygon fill="black" stroke="black" points="1299.24,-429.766 1289.56,-425.465 1294.44,-434.865 1299.24,-429.766"/>
</g>
<!-- debianpackages -->
<g id="node18" class="node"><title>debianpackages</title>
<ellipse fill="none" stroke="blue" cx="977.046" cy="-343" rx="66.0889" ry="18"/>
<text text-anchor="middle" x="977.046" y="-339.3" font-family="Times,serif" font-size="14.00">debianpackages</text>
</g>
<!-- chj&#45;&gt;debianpackages -->
<g id="edge3" class="edge"><title>chj&#45;&gt;debianpackages</title>
<path fill="none" stroke="black" d="M1312,-472.19C1239.34,-472.126 1042.21,-468 996.046,-426 981.046,-412.353 976.725,-389.408 975.913,-371.254"/>
<polygon fill="black" stroke="black" points="979.413,-371.18 975.786,-361.226 972.413,-371.269 979.413,-371.18"/>
</g>
<!-- fastrandom -->
<g id="node22" class="node"><title>fastrandom</title>
<ellipse fill="none" stroke="blue" cx="1406.05" cy="-408" rx="50.8918" ry="18"/>
<text text-anchor="middle" x="1406.05" y="-404.3" font-family="Times,serif" font-size="14.00">fastrandom</text>
</g>
<!-- chj&#45;&gt;fastrandom -->
<g id="edge6" class="edge"><title>chj&#45;&gt;fastrandom</title>
<path fill="none" stroke="black" d="M1354.25,-457.704C1362.33,-450.103 1372.47,-440.574 1381.62,-431.965"/>
<polygon fill="black" stroke="black" points="1384.13,-434.412 1389.02,-425.012 1379.33,-429.313 1384.13,-434.412"/>
</g>
<!-- git_sign -->
<g id="node32" class="node"><title>git_sign</title>
<ellipse fill="none" stroke="blue" cx="1429.05" cy="-83" rx="37.8943" ry="18"/>
<text text-anchor="middle" x="1429.05" y="-79.3" font-family="Times,serif" font-size="14.00">git&#45;sign</text>
</g>
<!-- chj&#45;&gt;git_sign -->
<g id="edge2" class="edge"><title>chj&#45;&gt;git_sign</title>
<path fill="none" stroke="black" d="M1366,-470.838C1396.08,-467.927 1443.49,-458.158 1466.05,-426 1483.98,-400.427 1447.89,-188.242 1434.1,-111.534"/>
<polygon fill="black" stroke="black" points="1437.46,-110.455 1432.24,-101.238 1430.57,-111.702 1437.46,-110.455"/>
</g>
<!-- chj_bin&#45;&gt;_bs -->
<g id="edge8" class="edge"><title>chj_bin&#45;&gt;_bs</title>
<path fill="none" stroke="black" d="M675.169,-327.207C685.136,-318.626 697.399,-307.306 707.046,-296 742.01,-255.022 743.137,-239.118 774.046,-195 779.094,-187.794 784.72,-180.067 789.919,-173.042"/>
<polygon fill="black" stroke="black" points="793.033,-174.721 796.201,-164.611 787.42,-170.538 793.033,-174.721"/>
</g>
<!-- chj_perllib -->
<g id="node9" class="node"><title>chj_perllib</title>
<ellipse fill="none" stroke="blue" cx="865.046" cy="-278" rx="47.3916" ry="18"/>
<text text-anchor="middle" x="865.046" y="-274.3" font-family="Times,serif" font-size="14.00">chj&#45;perllib</text>
</g>
<!-- chj_bin&#45;&gt;chj_perllib -->
<g id="edge10" class="edge"><title>chj_bin&#45;&gt;chj_perllib</title>
<path fill="none" stroke="black" d="M686.847,-332.974C721.508,-322.475 779.112,-305.028 819.417,-292.82"/>
<polygon fill="black" stroke="black" points="820.455,-296.163 829.011,-289.914 818.426,-289.463 820.455,-296.163"/>
</g>
<!-- chj_bin&#45;&gt;git_sign -->
<g id="edge9" class="edge"><title>chj_bin&#45;&gt;git_sign</title>
<path fill="none" stroke="black" d="M663.663,-325.252C682.14,-279.393 735.339,-153.623 772.046,-130 822.875,-97.288 1238,-87.2314 1380.92,-84.7222"/>
<polygon fill="black" stroke="black" points="1381.18,-88.2182 1391.12,-84.5478 1381.06,-81.2192 1381.18,-88.2182"/>
</g>
<!-- chj_emacs_checkout -->
<g id="node7" class="node"><title>chj_emacs_checkout</title>
<ellipse fill="none" stroke="blue" cx="1760.05" cy="-278" rx="81.4863" ry="18"/>
<text text-anchor="middle" x="1760.05" y="-274.3" font-family="Times,serif" font-size="14.00">chj&#45;emacs&#45;checkout</text>
</g>
<!-- chj_emacs&#45;&gt;chj_emacs_checkout -->
<g id="edge11" class="edge"><title>chj_emacs&#45;&gt;chj_emacs_checkout</title>
<path fill="none" stroke="black" d="M1777.39,-390.003C1774.04,-368.581 1768.25,-331.502 1764.29,-306.14"/>
<polygon fill="black" stroke="black" points="1767.71,-305.407 1762.71,-296.068 1760.8,-306.488 1767.71,-305.407"/>
</g>
<!-- chj_emacs_checkout&#45;&gt;git_sign -->
<g id="edge12" class="edge"><title>chj_emacs_checkout&#45;&gt;git_sign</title>
<path fill="none" stroke="black" d="M1754.08,-259.671C1742.34,-228.343 1713.12,-162.52 1665.05,-130 1634.79,-109.535 1535.63,-95.5541 1475.9,-88.7554"/>
<polygon fill="black" stroke="black" points="1475.91,-85.2357 1465.59,-87.6086 1475.14,-92.1928 1475.91,-85.2357"/>
</g>
<!-- chj_fastrandom -->
<g id="node8" class="node"><title>chj_fastrandom</title>
<ellipse fill="none" stroke="green" cx="1521.05" cy="-148" rx="64.189" ry="18"/>
<text text-anchor="middle" x="1521.05" y="-144.3" font-family="Times,serif" font-size="14.00">chj&#45;fastrandom</text>
</g>
<!-- chj_fastrandom&#45;&gt;git_sign -->
<g id="edge13" class="edge"><title>chj_fastrandom&#45;&gt;git_sign</title>
<path fill="none" stroke="black" d="M1497.83,-131.102C1485.81,-122.869 1471,-112.733 1458.22,-103.975"/>
<polygon fill="black" stroke="black" points="1459.97,-100.935 1449.74,-98.1728 1456.02,-106.711 1459.97,-100.935"/>
</g>
<!-- chj_perllib_checkout -->
<g id="node10" class="node"><title>chj_perllib_checkout</title>
<ellipse fill="none" stroke="blue" cx="865.046" cy="-213" rx="81.7856" ry="18"/>
<text text-anchor="middle" x="865.046" y="-209.3" font-family="Times,serif" font-size="14.00">chj&#45;perllib&#45;checkout</text>
</g>
<!-- chj_perllib&#45;&gt;chj_perllib_checkout -->
<g id="edge14" class="edge"><title>chj_perllib&#45;&gt;chj_perllib_checkout</title>
<path fill="none" stroke="black" d="M865.046,-259.785C865.046,-254.09 865.046,-247.605 865.046,-241.343"/>
<polygon fill="black" stroke="black" points="868.546,-241.194 865.046,-231.194 861.546,-241.194 868.546,-241.194"/>
</g>
<!-- fperl -->
<g id="node24" class="node"><title>fperl</title>
<ellipse fill="none" stroke="blue" cx="1044.05" cy="-213" rx="27.0966" ry="18"/>
<text text-anchor="middle" x="1044.05" y="-209.3" font-family="Times,serif" font-size="14.00">fperl</text>
</g>
<!-- chj_perllib&#45;&gt;fperl -->
<g id="edge15" class="edge"><title>chj_perllib&#45;&gt;fperl</title>
<path fill="none" stroke="black" d="M898.714,-265.15C930.79,-253.861 978.795,-236.965 1010.75,-225.72"/>
<polygon fill="black" stroke="black" points="1012.25,-228.903 1020.52,-222.281 1009.92,-222.3 1012.25,-228.903"/>
</g>
<!-- chj_perllib_checkout&#45;&gt;_bs -->
<g id="edge16" class="edge"><title>chj_perllib_checkout&#45;&gt;_bs</title>
<path fill="none" stroke="black" d="M849.771,-195.117C843.142,-187.791 835.288,-179.11 828.191,-171.266"/>
<polygon fill="black" stroke="black" points="830.725,-168.85 821.421,-163.783 825.535,-173.547 830.725,-168.85"/>
</g>
<!-- chj_perllib_checkout&#45;&gt;git_sign -->
<g id="edge17" class="edge"><title>chj_perllib_checkout&#45;&gt;git_sign</title>
<path fill="none" stroke="black" d="M889.958,-195.834C920.797,-176.682 975.563,-145.433 1027.05,-130 1150.92,-92.8658 1304.52,-85.3512 1381.03,-84.0596"/>
<polygon fill="black" stroke="black" points="1381.35,-87.5555 1391.3,-83.9162 1381.26,-80.5562 1381.35,-87.5555"/>
</g>
<!-- cj_git_patchtool&#45;&gt;chj_bin -->
<g id="edge19" class="edge"><title>cj_git_patchtool&#45;&gt;chj_bin</title>
<path fill="none" stroke="black" d="M1224.18,-395.686C1213.95,-393.553 1203.17,-391.518 1193.05,-390 1098.76,-375.867 813.949,-355.019 702.476,-347.156"/>
<polygon fill="black" stroke="black" points="702.463,-343.646 692.242,-346.436 701.972,-350.629 702.463,-343.646"/>
</g>
<!-- cj_git_patchtool&#45;&gt;debianpackages -->
<g id="edge18" class="edge"><title>cj_git_patchtool&#45;&gt;debianpackages</title>
<path fill="none" stroke="black" d="M1222.32,-396.283C1212.61,-394.195 1202.51,-392.026 1193.05,-390 1140.52,-378.757 1080.8,-366.044 1037.49,-356.836"/>
<polygon fill="black" stroke="black" points="1038.19,-353.407 1027.68,-354.751 1036.73,-360.254 1038.19,-353.407"/>
</g>
<!-- cj_git_patchtool&#45;&gt;git_sign -->
<g id="edge20" class="edge"><title>cj_git_patchtool&#45;&gt;git_sign</title>
<path fill="none" stroke="black" d="M1262.95,-390.16C1250.87,-366.193 1231.05,-320.535 1231.05,-279 1231.05,-279 1231.05,-279 1231.05,-212 1231.05,-139.599 1325.57,-106.14 1384,-92.3748"/>
<polygon fill="black" stroke="black" points="1385.11,-95.7113 1394.1,-90.1041 1383.58,-88.8816 1385.11,-95.7113"/>
</g>
<!-- coworking -->
<g id="node12" class="node"><title>coworking</title>
<ellipse fill="none" stroke="blue" cx="1172.05" cy="-733" rx="48.1917" ry="18"/>
<text text-anchor="middle" x="1172.05" y="-729.3" font-family="Times,serif" font-size="14.00">coworking</text>
</g>
<!-- coworking_user -->
<g id="node13" class="node"><title>coworking_user</title>
<ellipse fill="none" stroke="blue" cx="1403.05" cy="-603" rx="65.7887" ry="18"/>
<text text-anchor="middle" x="1403.05" y="-599.3" font-family="Times,serif" font-size="14.00">coworking&#45;user</text>
</g>
<!-- coworking&#45;&gt;coworking_user -->
<g id="edge24" class="edge"><title>coworking&#45;&gt;coworking_user</title>
<path fill="none" stroke="black" d="M1175.36,-714.835C1179.89,-696.071 1189.88,-666.487 1210.05,-650 1242.85,-623.18 1288.69,-611.513 1327.46,-606.63"/>
<polygon fill="black" stroke="black" points="1328.13,-610.077 1337.67,-605.477 1327.34,-603.121 1328.13,-610.077"/>
</g>
<!-- emacs -->
<g id="node21" class="node"><title>emacs</title>
<ellipse fill="none" stroke="blue" cx="1698.05" cy="-668" rx="33.2948" ry="18"/>
<text text-anchor="middle" x="1698.05" y="-664.3" font-family="Times,serif" font-size="14.00">emacs</text>
</g>
<!-- coworking&#45;&gt;emacs -->
<g id="edge26" class="edge"><title>coworking&#45;&gt;emacs</title>
<path fill="none" stroke="black" d="M1219.26,-729.197C1301.93,-723.847 1478.06,-710.475 1625.05,-686 1636.04,-684.17 1647.84,-681.662 1658.69,-679.134"/>
<polygon fill="black" stroke="black" points="1659.83,-682.461 1668.74,-676.726 1658.2,-675.654 1659.83,-682.461"/>
</g>
<!-- firefox -->
<g id="node23" class="node"><title>firefox</title>
<ellipse fill="none" stroke="blue" cx="1091.05" cy="-668" rx="34.394" ry="18"/>
<text text-anchor="middle" x="1091.05" y="-664.3" font-family="Times,serif" font-size="14.00">firefox</text>
</g>
<!-- coworking&#45;&gt;firefox -->
<g id="edge27" class="edge"><title>coworking&#45;&gt;firefox</title>
<path fill="none" stroke="black" d="M1152.02,-716.427C1141.64,-708.355 1128.83,-698.389 1117.63,-689.68"/>
<polygon fill="black" stroke="black" points="1119.49,-686.693 1109.45,-683.317 1115.2,-692.219 1119.49,-686.693"/>
</g>
<!-- full_vncserver -->
<g id="node28" class="node"><title>full_vncserver</title>
<ellipse fill="none" stroke="blue" cx="979.046" cy="-668" rx="59.5901" ry="18"/>
<text text-anchor="middle" x="979.046" y="-664.3" font-family="Times,serif" font-size="14.00">full&#45;vncserver</text>
</g>
<!-- coworking&#45;&gt;full_vncserver -->
<g id="edge23" class="edge"><title>coworking&#45;&gt;full_vncserver</title>
<path fill="none" stroke="black" d="M1137.09,-720.591C1106.54,-710.619 1061.87,-696.036 1027.8,-684.916"/>
<polygon fill="black" stroke="black" points="1028.64,-681.508 1018.05,-681.732 1026.47,-688.163 1028.64,-681.508"/>
</g>
<!-- gimp -->
<g id="node31" class="node"><title>gimp</title>
<ellipse fill="none" stroke="blue" cx="1248.05" cy="-668" rx="29.4969" ry="18"/>
<text text-anchor="middle" x="1248.05" y="-664.3" font-family="Times,serif" font-size="14.00">gimp</text>
</g>
<!-- coworking&#45;&gt;gimp -->
<g id="edge29" class="edge"><title>coworking&#45;&gt;gimp</title>
<path fill="none" stroke="black" d="M1190.83,-716.427C1200.71,-708.239 1212.94,-698.102 1223.55,-689.305"/>
<polygon fill="black" stroke="black" points="1225.82,-691.969 1231.29,-682.893 1221.35,-686.58 1225.82,-691.969"/>
</g>
<!-- nosudo_auto -->
<g id="node41" class="node"><title>nosudo_auto</title>
<ellipse fill="none" stroke="blue" cx="1349.05" cy="-668" rx="53.8905" ry="18"/>
<text text-anchor="middle" x="1349.05" y="-664.3" font-family="Times,serif" font-size="14.00">nosudo&#45;auto</text>
</g>
<!-- coworking&#45;&gt;nosudo_auto -->
<g id="edge25" class="edge"><title>coworking&#45;&gt;nosudo_auto</title>
<path fill="none" stroke="black" d="M1205.75,-720.002C1233.63,-710.08 1273.46,-695.902 1304.06,-685.012"/>
<polygon fill="black" stroke="black" points="1305.4,-688.252 1313.64,-681.601 1303.05,-681.657 1305.4,-688.252"/>
</g>
<!-- system -->
<g id="node51" class="node"><title>system</title>
<ellipse fill="none" stroke="blue" cx="1019.05" cy="-603" rx="35.9954" ry="18"/>
<text text-anchor="middle" x="1019.05" y="-599.3" font-family="Times,serif" font-size="14.00">system</text>
</g>
<!-- coworking&#45;&gt;system -->
<g id="edge22" class="edge"><title>coworking&#45;&gt;system</title>
<path fill="none" stroke="black" d="M1168.18,-715.034C1163.19,-696.727 1152.83,-667.811 1134.05,-650 1114.11,-631.101 1085.43,-619.609 1061.7,-612.838"/>
<polygon fill="black" stroke="black" points="1062.44,-609.412 1051.88,-610.217 1060.64,-616.176 1062.44,-609.412"/>
</g>
<!-- tmp_passwd -->
<g id="node52" class="node"><title>tmp_passwd</title>
<ellipse fill="none" stroke="grey" cx="544.046" cy="-668" rx="53.0913" ry="18"/>
<text text-anchor="middle" x="544.046" y="-664.3" font-family="Times,serif" font-size="14.00">tmp/passwd</text>
</g>
<!-- coworking&#45;&gt;tmp_passwd -->
<g id="edge21" class="edge"><title>coworking&#45;&gt;tmp_passwd</title>
<path fill="none" stroke="black" d="M1124.05,-731.037C1026.14,-728.427 796.594,-719.006 607.046,-686 602.274,-685.169 597.34,-684.142 592.429,-683.007"/>
<polygon fill="black" stroke="black" points="592.991,-679.541 582.445,-680.554 591.321,-686.338 592.991,-679.541"/>
</g>
<!-- unison -->
<g id="node53" class="node"><title>unison</title>
<ellipse fill="none" stroke="blue" cx="650.046" cy="-668" rx="34.394" ry="18"/>
<text text-anchor="middle" x="650.046" y="-664.3" font-family="Times,serif" font-size="14.00">unison</text>
</g>
<!-- coworking&#45;&gt;unison -->
<g id="edge28" class="edge"><title>coworking&#45;&gt;unison</title>
<path fill="none" stroke="black" d="M1123.85,-731.676C1036.83,-730.143 848.192,-722.469 694.046,-686 691.207,-685.328 688.306,-684.514 685.415,-683.611"/>
<polygon fill="black" stroke="black" points="686.326,-680.223 675.731,-680.269 684.043,-686.84 686.326,-680.223"/>
</g>
<!-- moduser -->
<g id="node39" class="node"><title>moduser</title>
<ellipse fill="none" stroke="blue" cx="1403.05" cy="-538" rx="41.6928" ry="18"/>
<text text-anchor="middle" x="1403.05" y="-534.3" font-family="Times,serif" font-size="14.00">moduser</text>
</g>
<!-- coworking_user&#45;&gt;moduser -->
<g id="edge30" class="edge"><title>coworking_user&#45;&gt;moduser</title>
<path fill="none" stroke="black" d="M1403.05,-584.785C1403.05,-579.09 1403.05,-572.605 1403.05,-566.343"/>
<polygon fill="black" stroke="black" points="1406.55,-566.194 1403.05,-556.194 1399.55,-566.194 1406.55,-566.194"/>
</g>
<!-- cplusplus -->
<g id="node14" class="node"><title>cplusplus</title>
<ellipse fill="none" stroke="blue" cx="1633.05" cy="-408" rx="44.393" ry="18"/>
<text text-anchor="middle" x="1633.05" y="-404.3" font-family="Times,serif" font-size="14.00">cplusplus</text>
</g>
<!-- debconf_noninteractive -->
<g id="node15" class="node"><title>debconf_noninteractive</title>
<ellipse fill="none" stroke="green" cx="1714.05" cy="-798" rx="92.0841" ry="18"/>
<text text-anchor="middle" x="1714.05" y="-794.3" font-family="Times,serif" font-size="14.00">debconf&#45;noninteractive</text>
</g>
<!-- debian_emacs -->
<g id="node16" class="node"><title>debian_emacs</title>
<ellipse fill="none" stroke="blue" cx="1730.05" cy="-603" rx="59.5901" ry="18"/>
<text text-anchor="middle" x="1730.05" y="-599.3" font-family="Times,serif" font-size="14.00">debian&#45;emacs</text>
</g>
<!-- debian_upgrade -->
<g id="node17" class="node"><title>debian_upgrade</title>
<ellipse fill="none" stroke="blue" cx="1034.05" cy="-538" rx="66.8882" ry="18"/>
<text text-anchor="middle" x="1034.05" y="-534.3" font-family="Times,serif" font-size="14.00">debian_upgrade</text>
</g>
<!-- urxvt -->
<g id="node54" class="node"><title>urxvt</title>
<ellipse fill="none" stroke="blue" cx="970.046" cy="-278" rx="29.4969" ry="18"/>
<text text-anchor="middle" x="970.046" y="-274.3" font-family="Times,serif" font-size="14.00">urxvt</text>
</g>
<!-- debianpackages&#45;&gt;urxvt -->
<g id="edge31" class="edge"><title>debianpackages&#45;&gt;urxvt</title>
<path fill="none" stroke="black" d="M975.133,-324.785C974.5,-319.09 973.779,-312.605 973.084,-306.343"/>
<polygon fill="black" stroke="black" points="976.539,-305.747 971.956,-296.194 969.582,-306.52 976.539,-305.747"/>
</g>
<!-- dnsresolver -->
<g id="node19" class="node"><title>dnsresolver</title>
<ellipse fill="none" stroke="green" cx="1876.05" cy="-798" rx="51.1914" ry="18"/>
<text text-anchor="middle" x="1876.05" y="-794.3" font-family="Times,serif" font-size="14.00">dnsresolver</text>
</g>
<!-- dotconfig_xfce4_checkout -->
<g id="node20" class="node"><title>dotconfig_xfce4_checkout</title>
<ellipse fill="none" stroke="blue" cx="562.046" cy="-278" rx="101.282" ry="18"/>
<text text-anchor="middle" x="562.046" y="-274.3" font-family="Times,serif" font-size="14.00">dotconfig&#45;xfce4&#45;checkout</text>
</g>
<!-- dotconfig_xfce4_checkout&#45;&gt;_bs -->
<g id="edge32" class="edge"><title>dotconfig_xfce4_checkout&#45;&gt;_bs</title>
<path fill="none" stroke="black" d="M593.202,-260.789C640.858,-235.992 731.25,-188.959 778.143,-164.559"/>
<polygon fill="black" stroke="black" points="779.932,-167.574 787.188,-159.853 776.701,-161.364 779.932,-167.574"/>
</g>
<!-- dotconfig_xfce4_checkout&#45;&gt;git_sign -->
<g id="edge33" class="edge"><title>dotconfig_xfce4_checkout&#45;&gt;git_sign</title>
<path fill="none" stroke="black" d="M569.67,-259.954C585.061,-227.856 623.205,-159.065 679.046,-130 741.048,-97.7284 1224.92,-87.2507 1380.82,-84.6945"/>
<polygon fill="black" stroke="black" points="1381.09,-88.1907 1391.04,-84.5307 1380.98,-81.1916 1381.09,-88.1907"/>
</g>
<!-- emacs&#45;&gt;chj_emacs -->
<g id="edge35" class="edge"><title>emacs&#45;&gt;chj_emacs</title>
<path fill="none" stroke="black" d="M1729.53,-661.923C1753.11,-656.292 1783.82,-644.657 1799.05,-621 1836.16,-563.316 1809.46,-477.827 1791.98,-435.181"/>
<polygon fill="black" stroke="black" points="1795.12,-433.623 1787.99,-425.786 1788.68,-436.359 1795.12,-433.623"/>
</g>
<!-- emacs&#45;&gt;debian_emacs -->
<g id="edge34" class="edge"><title>emacs&#45;&gt;debian_emacs</title>
<path fill="none" stroke="black" d="M1706.45,-650.447C1709.61,-644.232 1713.28,-637.005 1716.77,-630.13"/>
<polygon fill="black" stroke="black" points="1719.95,-631.601 1721.36,-621.101 1713.71,-628.431 1719.95,-631.601"/>
</g>
<!-- fastrandom&#45;&gt;_usr_local_bin_fastrandom -->
<g id="edge36" class="edge"><title>fastrandom&#45;&gt;_usr_local_bin_fastrandom</title>
<path fill="none" stroke="black" d="M1393.43,-390.447C1388.48,-383.949 1382.69,-376.346 1377.24,-369.195"/>
<polygon fill="black" stroke="black" points="1379.92,-366.934 1371.07,-361.101 1374.35,-371.176 1379.92,-366.934"/>
</g>
<!-- fperl_noinstall -->
<g id="node25" class="node"><title>fperl_noinstall</title>
<ellipse fill="none" stroke="blue" cx="1096.05" cy="-148" rx="60.3893" ry="18"/>
<text text-anchor="middle" x="1096.05" y="-144.3" font-family="Times,serif" font-size="14.00">fperl&#45;noinstall</text>
</g>
<!-- fperl&#45;&gt;fperl_noinstall -->
<g id="edge37" class="edge"><title>fperl&#45;&gt;fperl_noinstall</title>
<path fill="none" stroke="black" d="M1056.63,-196.749C1062.28,-189.903 1069.1,-181.647 1075.46,-173.939"/>
<polygon fill="black" stroke="black" points="1078.44,-175.823 1082.11,-165.883 1073.05,-171.367 1078.44,-175.823"/>
</g>
<!-- fperl_noinstall&#45;&gt;git_sign -->
<g id="edge38" class="edge"><title>fperl_noinstall&#45;&gt;git_sign</title>
<path fill="none" stroke="black" d="M1145.54,-137.636C1210.24,-125.395 1322.61,-104.136 1384.67,-92.3945"/>
<polygon fill="black" stroke="black" points="1385.38,-95.8232 1394.56,-90.5252 1384.08,-88.9452 1385.38,-95.8232"/>
</g>
<!-- full_desktop -->
<g id="node26" class="node"><title>full_desktop</title>
<ellipse fill="none" stroke="blue" cx="712.046" cy="-603" rx="53.0913" ry="18"/>
<text text-anchor="middle" x="712.046" y="-599.3" font-family="Times,serif" font-size="14.00">full&#45;desktop</text>
</g>
<!-- slim_desktop -->
<g id="node47" class="node"><title>slim_desktop</title>
<ellipse fill="none" stroke="blue" cx="778.046" cy="-538" rx="56.59" ry="18"/>
<text text-anchor="middle" x="778.046" y="-534.3" font-family="Times,serif" font-size="14.00">slim&#45;desktop</text>
</g>
<!-- full_desktop&#45;&gt;slim_desktop -->
<g id="edge39" class="edge"><title>full_desktop&#45;&gt;slim_desktop</title>
<path fill="none" stroke="black" d="M729.042,-585.776C736.528,-578.63 745.464,-570.101 753.642,-562.294"/>
<polygon fill="black" stroke="black" points="756.06,-564.825 760.877,-555.388 751.227,-559.761 756.06,-564.825"/>
</g>
<!-- full_desktop_autoremove -->
<g id="node27" class="node"><title>full_desktop_autoremove</title>
<ellipse fill="none" stroke="green" cx="802.046" cy="-668" rx="99.3824" ry="18"/>
<text text-anchor="middle" x="802.046" y="-664.3" font-family="Times,serif" font-size="14.00">full&#45;desktop_autoremove</text>
</g>
<!-- full_desktop_autoremove&#45;&gt;full_desktop -->
<g id="edge40" class="edge"><title>full_desktop_autoremove&#45;&gt;full_desktop</title>
<path fill="none" stroke="black" d="M778.399,-650.447C767.419,-642.761 754.231,-633.53 742.515,-625.328"/>
<polygon fill="black" stroke="black" points="744.496,-622.443 734.296,-619.576 740.482,-628.178 744.496,-622.443"/>
</g>
<!-- full_vncserver&#45;&gt;debianpackages -->
<g id="edge42" class="edge"><title>full_vncserver&#45;&gt;debianpackages</title>
<path fill="none" stroke="black" d="M970.168,-650.134C958.384,-626.137 939.046,-580.442 939.046,-539 939.046,-539 939.046,-539 939.046,-472 939.046,-435.574 953.364,-395.638 964.422,-370.226"/>
<polygon fill="black" stroke="black" points="967.699,-371.471 968.612,-360.916 961.316,-368.598 967.699,-371.471"/>
</g>
<!-- slim_vncserver -->
<g id="node48" class="node"><title>slim_vncserver</title>
<ellipse fill="none" stroke="blue" cx="847.046" cy="-603" rx="63.8893" ry="18"/>
<text text-anchor="middle" x="847.046" y="-599.3" font-family="Times,serif" font-size="14.00">slim&#45;vncserver</text>
</g>
<!-- full_vncserver&#45;&gt;slim_vncserver -->
<g id="edge41" class="edge"><title>full_vncserver&#45;&gt;slim_vncserver</title>
<path fill="none" stroke="black" d="M948.43,-652.388C930.152,-643.665 906.734,-632.488 887.01,-623.074"/>
<polygon fill="black" stroke="black" points="888.484,-619.899 877.952,-618.751 885.469,-626.217 888.484,-619.899"/>
</g>
<!-- full_vncserver&#45;&gt;system -->
<g id="edge43" class="edge"><title>full_vncserver&#45;&gt;system</title>
<path fill="none" stroke="black" d="M989.765,-650.117C993.865,-643.659 998.634,-636.148 1003.12,-629.085"/>
<polygon fill="black" stroke="black" points="1006.17,-630.812 1008.57,-620.493 1000.26,-627.059 1006.17,-630.812"/>
</g>
<!-- gambit -->
<g id="node29" class="node"><title>gambit</title>
<ellipse fill="none" stroke="blue" cx="1561.05" cy="-473" rx="35.9954" ry="18"/>
<text text-anchor="middle" x="1561.05" y="-469.3" font-family="Times,serif" font-size="14.00">gambit</text>
</g>
<!-- gambit&#45;&gt;chj_bin -->
<g id="edge47" class="edge"><title>gambit&#45;&gt;chj_bin</title>
<path fill="none" stroke="black" d="M1526.14,-468.822C1440.97,-460.894 1227.36,-439.881 1198.05,-426 1177.02,-416.044 1181.24,-399.588 1160.05,-390 1139.35,-380.638 822.509,-356.287 702.577,-347.351"/>
<polygon fill="black" stroke="black" points="702.501,-343.836 692.269,-346.585 701.982,-350.817 702.501,-343.836"/>
</g>
<!-- gambit&#45;&gt;chj_emacs -->
<g id="edge48" class="edge"><title>gambit&#45;&gt;chj_emacs</title>
<path fill="none" stroke="black" d="M1591.5,-463.24C1628.46,-452.607 1691.16,-434.571 1734.02,-422.239"/>
<polygon fill="black" stroke="black" points="1735.02,-425.596 1743.66,-419.467 1733.08,-418.868 1735.02,-425.596"/>
</g>
<!-- gambit&#45;&gt;cplusplus -->
<g id="edge45" class="edge"><title>gambit&#45;&gt;cplusplus</title>
<path fill="none" stroke="black" d="M1578.11,-457.07C1586.9,-449.375 1597.8,-439.837 1607.57,-431.29"/>
<polygon fill="black" stroke="black" points="1609.88,-433.921 1615.1,-424.702 1605.27,-428.653 1609.88,-433.921"/>
</g>
<!-- gambit&#45;&gt;debianpackages -->
<g id="edge46" class="edge"><title>gambit&#45;&gt;debianpackages</title>
<path fill="none" stroke="black" d="M1548.21,-456.054C1531.55,-436.659 1500.52,-404.695 1466.05,-390 1428.86,-374.15 1178.49,-356.543 1051.14,-348.478"/>
<polygon fill="black" stroke="black" points="1051.27,-344.979 1041.07,-347.844 1050.83,-351.966 1051.27,-344.979"/>
</g>
<!-- gambit_checkout -->
<g id="node30" class="node"><title>gambit_checkout</title>
<ellipse fill="none" stroke="blue" cx="1553.05" cy="-213" rx="70.3881" ry="18"/>
<text text-anchor="middle" x="1553.05" y="-209.3" font-family="Times,serif" font-size="14.00">gambit&#45;checkout</text>
</g>
<!-- gambit&#45;&gt;gambit_checkout -->
<g id="edge44" class="edge"><title>gambit&#45;&gt;gambit_checkout</title>
<path fill="none" stroke="black" d="M1560.51,-454.671C1559.14,-410.7 1555.54,-294.517 1553.89,-241.309"/>
<polygon fill="black" stroke="black" points="1557.39,-241.14 1553.58,-231.253 1550.39,-241.357 1557.39,-241.14"/>
</g>
<!-- virtualmem_3GB -->
<g id="node55" class="node"><title>virtualmem_3GB</title>
<ellipse fill="none" stroke="blue" cx="1078.05" cy="-408" rx="73.387" ry="18"/>
<text text-anchor="middle" x="1078.05" y="-404.3" font-family="Times,serif" font-size="14.00">virtualmem_3GB</text>
</g>
<!-- gambit&#45;&gt;virtualmem_3GB -->
<g id="edge49" class="edge"><title>gambit&#45;&gt;virtualmem_3GB</title>
<path fill="none" stroke="black" d="M1526.23,-468.869C1457.14,-462.454 1297.89,-446.664 1165.05,-426 1157.64,-424.849 1149.91,-423.521 1142.24,-422.125"/>
<polygon fill="black" stroke="black" points="1142.7,-418.65 1132.23,-420.26 1141.42,-425.532 1142.7,-418.65"/>
</g>
<!-- gambit_checkout&#45;&gt;_bs -->
<g id="edge50" class="edge"><title>gambit_checkout&#45;&gt;_bs</title>
<path fill="none" stroke="black" d="M1487.58,-206.464C1335.76,-193.626 963.57,-162.152 844.981,-152.123"/>
<polygon fill="black" stroke="black" points="845.21,-148.63 834.95,-151.275 844.62,-155.605 845.21,-148.63"/>
</g>
<!-- gambit_checkout&#45;&gt;git_sign -->
<g id="edge51" class="edge"><title>gambit_checkout&#45;&gt;git_sign</title>
<path fill="none" stroke="black" d="M1571.56,-195.578C1588.82,-178.256 1609.74,-150.662 1594.05,-130 1579.64,-111.034 1518.68,-97.7944 1475.05,-90.5396"/>
<polygon fill="black" stroke="black" points="1475.36,-87.0435 1464.93,-88.9103 1474.24,-93.9546 1475.36,-87.0435"/>
</g>
<!-- key -->
<g id="node35" class="node"><title>key</title>
<ellipse fill="none" stroke="blue" cx="1649.05" cy="-18" rx="27" ry="18"/>
<text text-anchor="middle" x="1649.05" y="-14.3" font-family="Times,serif" font-size="14.00">key</text>
</g>
<!-- git_sign&#45;&gt;key -->
<g id="edge52" class="edge"><title>git_sign&#45;&gt;key</title>
<path fill="none" stroke="black" d="M1460.57,-72.9736C1501.51,-61.2495 1572.71,-40.8587 1614.9,-28.7775"/>
<polygon fill="black" stroke="black" points="1616.06,-32.086 1624.71,-25.9681 1614.14,-25.3564 1616.06,-32.086"/>
</g>
<!-- graph_deps -->
<g id="node33" class="node"><title>graph_deps</title>
<ellipse fill="none" stroke="green" cx="1995.05" cy="-798" rx="50.0912" ry="18"/>
<text text-anchor="middle" x="1995.05" y="-794.3" font-family="Times,serif" font-size="14.00">graph&#45;deps</text>
</g>
<!-- guix -->
<g id="node34" class="node"><title>guix</title>
<ellipse fill="none" stroke="green" cx="336.046" cy="-538" rx="27" ry="18"/>
<text text-anchor="middle" x="336.046" y="-534.3" font-family="Times,serif" font-size="14.00">guix</text>
</g>
<!-- guix&#45;&gt;bullseye -->
<g id="edge53" class="edge"><title>guix&#45;&gt;bullseye</title>
<path fill="none" stroke="black" d="M336.046,-519.785C336.046,-514.09 336.046,-507.605 336.046,-501.343"/>
<polygon fill="black" stroke="black" points="339.546,-501.194 336.046,-491.194 332.546,-501.194 339.546,-501.194"/>
</g>
<!-- load_profile -->
<g id="node36" class="node"><title>load_profile</title>
<ellipse fill="none" stroke="green" cx="541.046" cy="-538" rx="53.8905" ry="18"/>
<text text-anchor="middle" x="541.046" y="-534.3" font-family="Times,serif" font-size="14.00">load_profile</text>
</g>
<!-- xfce4_load_profile -->
<g id="node59" class="node"><title>xfce4_load_profile</title>
<ellipse fill="none" stroke="blue" cx="541.046" cy="-473" rx="77.1866" ry="18"/>
<text text-anchor="middle" x="541.046" y="-469.3" font-family="Times,serif" font-size="14.00">xfce4_load_profile</text>
</g>
<!-- load_profile&#45;&gt;xfce4_load_profile -->
<g id="edge54" class="edge"><title>load_profile&#45;&gt;xfce4_load_profile</title>
<path fill="none" stroke="black" d="M541.046,-519.785C541.046,-514.09 541.046,-507.605 541.046,-501.343"/>
<polygon fill="black" stroke="black" points="544.546,-501.194 541.046,-491.194 537.546,-501.194 544.546,-501.194"/>
</g>
<!-- locales -->
<g id="node37" class="node"><title>locales</title>
<ellipse fill="none" stroke="blue" cx="693.046" cy="-473" rx="35.194" ry="18"/>
<text text-anchor="middle" x="693.046" y="-469.3" font-family="Times,serif" font-size="14.00">locales</text>
</g>
<!-- locales&#45;&gt;chj_bin -->
<g id="edge55" class="edge"><title>locales&#45;&gt;chj_bin</title>
<path fill="none" stroke="black" d="M685.234,-455.238C681.456,-446.638 677.09,-435.911 674.046,-426 668.512,-407.987 664.224,-387.195 661.339,-371.055"/>
<polygon fill="black" stroke="black" points="664.788,-370.46 659.646,-361.196 657.889,-371.644 664.788,-370.46"/>
</g>
<!-- mercurial -->
<g id="node38" class="node"><title>mercurial</title>
<ellipse fill="none" stroke="green" cx="468.046" cy="-408" rx="44.6926" ry="18"/>
<text text-anchor="middle" x="468.046" y="-404.3" font-family="Times,serif" font-size="14.00">mercurial</text>
</g>
<!-- mercurial&#45;&gt;chj_bin -->
<g id="edge56" class="edge"><title>mercurial&#45;&gt;chj_bin</title>
<path fill="none" stroke="black" d="M501.4,-395.882C534.097,-384.983 583.91,-368.379 618.335,-356.904"/>
<polygon fill="black" stroke="black" points="619.669,-360.148 628.049,-353.666 617.455,-353.508 619.669,-360.148"/>
</g>
<!-- moduser&#45;&gt;chj -->
<g id="edge57" class="edge"><title>moduser&#45;&gt;chj</title>
<path fill="none" stroke="black" d="M1386.9,-521.102C1378.99,-513.321 1369.36,-503.841 1360.82,-495.43"/>
<polygon fill="black" stroke="black" points="1363.24,-492.905 1353.66,-488.384 1358.33,-497.894 1363.24,-492.905"/>
</g>
<!-- moduser&#45;&gt;key -->
<g id="edge58" class="edge"><title>moduser&#45;&gt;key</title>
<path fill="none" stroke="black" d="M1442.89,-532.455C1539.76,-520.558 1783.56,-485.254 1836.05,-426 1899.27,-354.619 1869.05,-309.357 1869.05,-214 1869.05,-214 1869.05,-214 1869.05,-147 1869.05,-63.2468 1748.45,-33.3474 1685.83,-23.4674"/>
<polygon fill="black" stroke="black" points="1685.99,-19.9521 1675.58,-21.9472 1684.96,-26.8764 1685.99,-19.9521"/>
</g>
<!-- nosudo -->
<g id="node40" class="node"><title>nosudo</title>
<ellipse fill="none" stroke="green" cx="2099.05" cy="-798" rx="36.2938" ry="18"/>
<text text-anchor="middle" x="2099.05" y="-794.3" font-family="Times,serif" font-size="14.00">nosudo</text>
</g>
<!-- qemu -->
<g id="node42" class="node"><title>qemu</title>
<ellipse fill="none" stroke="green" cx="1652.05" cy="-538" rx="30.5947" ry="18"/>
<text text-anchor="middle" x="1652.05" y="-534.3" font-family="Times,serif" font-size="14.00">qemu</text>
</g>
<!-- qemu&#45;&gt;gambit -->
<g id="edge60" class="edge"><title>qemu&#45;&gt;gambit</title>
<path fill="none" stroke="black" d="M1632.75,-523.639C1620.22,-514.965 1603.67,-503.507 1589.62,-493.785"/>
<polygon fill="black" stroke="black" points="1591.48,-490.811 1581.26,-487.996 1587.49,-496.566 1591.48,-490.811"/>
</g>
<!-- qemu&#45;&gt;git_sign -->
<g id="edge59" class="edge"><title>qemu&#45;&gt;git_sign</title>
<path fill="none" stroke="black" d="M1658.82,-520.436C1667.17,-499.052 1680.88,-460.483 1686.05,-426 1688.41,-410.176 1688.2,-405.854 1686.05,-390 1673.94,-300.891 1658.47,-280.958 1632.05,-195 1623.08,-165.848 1632.43,-150.714 1610.05,-130 1574.03,-96.6762 1517.35,-86.6757 1477.02,-84.0689"/>
<polygon fill="black" stroke="black" points="1477.05,-80.5659 1466.88,-83.5457 1476.69,-87.5566 1477.05,-80.5659"/>
</g>
<!-- remove_xserver -->
<g id="node43" class="node"><title>remove_xserver</title>
<ellipse fill="none" stroke="green" cx="2220.05" cy="-798" rx="66.0889" ry="18"/>
<text text-anchor="middle" x="2220.05" y="-794.3" font-family="Times,serif" font-size="14.00">remove&#45;xserver</text>
</g>
<!-- schemen -->
<g id="node44" class="node"><title>schemen</title>
<ellipse fill="none" stroke="green" cx="1561.05" cy="-798" rx="42.4939" ry="18"/>
<text text-anchor="middle" x="1561.05" y="-794.3" font-family="Times,serif" font-size="14.00">schemen</text>
</g>
<!-- schemen&#45;&gt;coworking -->
<g id="edge61" class="edge"><title>schemen&#45;&gt;coworking</title>
<path fill="none" stroke="black" d="M1522.32,-790.729C1452.44,-779.41 1305.11,-755.55 1225.61,-742.675"/>
<polygon fill="black" stroke="black" points="1225.76,-739.153 1215.33,-741.009 1224.64,-746.063 1225.76,-739.153"/>
</g>
<!-- schemen&#45;&gt;emacs -->
<g id="edge62" class="edge"><title>schemen&#45;&gt;emacs</title>
<path fill="none" stroke="black" d="M1577.84,-781.305C1602.04,-758.702 1646.8,-716.882 1674.34,-691.146"/>
<polygon fill="black" stroke="black" points="1677.04,-693.413 1681.96,-684.028 1672.26,-688.298 1677.04,-693.413"/>
</g>
<!-- schemen_lili -->
<g id="node45" class="node"><title>schemen_lili</title>
<ellipse fill="none" stroke="blue" cx="1561.05" cy="-668" rx="54.6905" ry="18"/>
<text text-anchor="middle" x="1561.05" y="-664.3" font-family="Times,serif" font-size="14.00">schemen&#45;lili</text>
</g>
<!-- schemen&#45;&gt;schemen_lili -->
<g id="edge63" class="edge"><title>schemen&#45;&gt;schemen_lili</title>
<path fill="none" stroke="black" d="M1561.05,-779.737C1561.05,-758.361 1561.05,-721.691 1561.05,-696.442"/>
<polygon fill="black" stroke="black" points="1564.55,-696.398 1561.05,-686.398 1557.55,-696.398 1564.55,-696.398"/>
</g>
<!-- schemen_lili&#45;&gt;chj_emacs -->
<g id="edge66" class="edge"><title>schemen_lili&#45;&gt;chj_emacs</title>
<path fill="none" stroke="black" d="M1580.58,-651.045C1614.8,-623.005 1682.86,-566.825 1692.05,-556 1724.52,-517.73 1752.42,-466.045 1767.66,-435.256"/>
<polygon fill="black" stroke="black" points="1770.92,-436.56 1772.16,-426.037 1764.63,-433.492 1770.92,-436.56"/>
</g>
<!-- schemen_lili&#45;&gt;coworking_user -->
<g id="edge64" class="edge"><title>schemen_lili&#45;&gt;coworking_user</title>
<path fill="none" stroke="black" d="M1527.54,-653.639C1504.4,-644.415 1473.38,-632.044 1448.08,-621.959"/>
<polygon fill="black" stroke="black" points="1449.29,-618.67 1438.7,-618.217 1446.69,-625.172 1449.29,-618.67"/>
</g>
<!-- schemen_lili&#45;&gt;gambit -->
<g id="edge65" class="edge"><title>schemen_lili&#45;&gt;gambit</title>
<path fill="none" stroke="black" d="M1561.05,-649.873C1561.05,-616.323 1561.05,-541.707 1561.05,-501.287"/>
<polygon fill="black" stroke="black" points="1564.55,-501.089 1561.05,-491.089 1557.55,-501.089 1564.55,-501.089"/>
</g>
<!-- set_x_terminal_emulator -->
<g id="node46" class="node"><title>set_x_terminal_emulator</title>
<ellipse fill="none" stroke="blue" cx="778.046" cy="-408" rx="94.7833" ry="18"/>
<text text-anchor="middle" x="778.046" y="-404.3" font-family="Times,serif" font-size="14.00">set&#45;x&#45;terminal&#45;emulator</text>
</g>
<!-- set_x_terminal_emulator&#45;&gt;chj_bin -->
<g id="edge68" class="edge"><title>set_x_terminal_emulator&#45;&gt;chj_bin</title>
<path fill="none" stroke="black" d="M747.199,-390.939C729.669,-381.812 707.727,-370.388 689.879,-361.095"/>
<polygon fill="black" stroke="black" points="691.45,-357.967 680.964,-356.453 688.217,-364.176 691.45,-357.967"/>
</g>
<!-- set_x_terminal_emulator&#45;&gt;urxvt -->
<g id="edge67" class="edge"><title>set_x_terminal_emulator&#45;&gt;urxvt</title>
<path fill="none" stroke="black" d="M802.753,-390.528C838.665,-366.587 905.069,-322.317 942.509,-297.357"/>
<polygon fill="black" stroke="black" points="944.546,-300.206 950.925,-291.747 940.663,-294.382 944.546,-300.206"/>
</g>
<!-- slim_desktop&#45;&gt;chj -->
<g id="edge69" class="edge"><title>slim_desktop&#45;&gt;chj</title>
<path fill="none" stroke="black" d="M830.319,-531.13C942.795,-518.499 1205.41,-489.007 1302.29,-478.127"/>
<polygon fill="black" stroke="black" points="1302.93,-481.578 1312.47,-476.984 1302.14,-474.622 1302.93,-481.578"/>
</g>
<!-- slim_desktop&#45;&gt;set_x_terminal_emulator -->
<g id="edge70" class="edge"><title>slim_desktop&#45;&gt;set_x_terminal_emulator</title>
<path fill="none" stroke="black" d="M778.046,-519.737C778.046,-498.361 778.046,-461.691 778.046,-436.442"/>
<polygon fill="black" stroke="black" points="781.546,-436.398 778.046,-426.398 774.546,-436.398 781.546,-436.398"/>
</g>
<!-- slim_desktop&#45;&gt;xfce4_load_profile -->
<g id="edge71" class="edge"><title>slim_desktop&#45;&gt;xfce4_load_profile</title>
<path fill="none" stroke="black" d="M736.22,-525.882C698.452,-515.842 642.473,-500.962 600.139,-489.708"/>
<polygon fill="black" stroke="black" points="600.8,-486.263 590.236,-487.076 599.002,-493.028 600.8,-486.263"/>
</g>
<!-- slim_vncserver&#45;&gt;chj_bin -->
<g id="edge73" class="edge"><title>slim_vncserver&#45;&gt;chj_bin</title>
<path fill="none" stroke="black" d="M801.709,-590.202C792.601,-588.183 783.059,-586.316 774.046,-585 721.834,-577.378 341.851,-588.194 300.046,-556 251.829,-518.869 266.724,-486.082 257.046,-426 254.501,-410.204 246.398,-401.943 257.046,-390 280.296,-363.922 511.189,-350.521 611.224,-345.901"/>
<polygon fill="black" stroke="black" points="611.506,-349.392 621.338,-345.443 611.19,-342.399 611.506,-349.392"/>
</g>
<!-- slim_vncserver&#45;&gt;slim_desktop -->
<g id="edge72" class="edge"><title>slim_vncserver&#45;&gt;slim_desktop</title>
<path fill="none" stroke="black" d="M828.917,-585.447C821.091,-578.302 811.801,-569.821 803.316,-562.073"/>
<polygon fill="black" stroke="black" points="805.56,-559.382 795.815,-555.224 800.84,-564.551 805.56,-559.382"/>
</g>
<!-- sources_bullseye&#45;&gt;chj_bin -->
<g id="edge74" class="edge"><title>sources_bullseye&#45;&gt;chj_bin</title>
<path fill="none" stroke="black" d="M386.758,-395.667C395.833,-393.719 405.21,-391.758 414.046,-390 485.355,-375.812 503.665,-374.825 575.046,-361 587.998,-358.491 602.071,-355.625 614.842,-352.97"/>
<polygon fill="black" stroke="black" points="615.687,-356.369 624.76,-350.897 614.255,-349.517 615.687,-356.369"/>
</g>
<!-- swap -->
<g id="node50" class="node"><title>swap</title>
<ellipse fill="none" stroke="green" cx="598.046" cy="-408" rx="28.6953" ry="18"/>
<text text-anchor="middle" x="598.046" y="-404.3" font-family="Times,serif" font-size="14.00">swap</text>
</g>
<!-- swap&#45;&gt;chj_bin -->
<g id="edge75" class="edge"><title>swap&#45;&gt;chj_bin</title>
<path fill="none" stroke="black" d="M612.028,-392.07C619.02,-384.604 627.638,-375.402 635.455,-367.054"/>
<polygon fill="black" stroke="black" points="638.059,-369.394 642.34,-359.702 632.95,-364.609 638.059,-369.394"/>
</g>
<!-- system&#45;&gt;debian_upgrade -->
<g id="edge76" class="edge"><title>system&#45;&gt;debian_upgrade</title>
<path fill="none" stroke="black" d="M1023.14,-584.785C1024.5,-579.09 1026.04,-572.605 1027.54,-566.343"/>
<polygon fill="black" stroke="black" points="1031.04,-566.733 1029.95,-556.194 1024.23,-565.112 1031.04,-566.733"/>
</g>
<!-- system&#45;&gt;locales -->
<g id="edge77" class="edge"><title>system&#45;&gt;locales</title>
<path fill="none" stroke="black" d="M995.172,-589.48C961.916,-572.349 899.479,-541.306 844.046,-520 807.274,-505.867 764.187,-493.101 733.471,-484.624"/>
<polygon fill="black" stroke="black" points="734.125,-481.175 723.556,-481.918 732.282,-487.928 734.125,-481.175"/>
</g>
<!-- virtualmem_3GB&#45;&gt;chj_bin -->
<g id="edge78" class="edge"><title>virtualmem_3GB&#45;&gt;chj_bin</title>
<path fill="none" stroke="black" d="M1016.83,-397.839C930.903,-384.981 776.604,-361.891 701.096,-350.592"/>
<polygon fill="black" stroke="black" points="701.387,-347.097 690.979,-349.078 700.351,-354.019 701.387,-347.097"/>
</g>
<!-- vncclient -->
<g id="node56" class="node"><title>vncclient</title>
<ellipse fill="none" stroke="green" cx="2347.05" cy="-798" rx="42.7926" ry="18"/>
<text text-anchor="middle" x="2347.05" y="-794.3" font-family="Times,serif" font-size="14.00">vncclient</text>
</g>
<!-- xfce_local -->
<g id="node57" class="node"><title>xfce_local</title>
<ellipse fill="none" stroke="green" cx="164.046" cy="-408" rx="46.2923" ry="18"/>
<text text-anchor="middle" x="164.046" y="-404.3" font-family="Times,serif" font-size="14.00">xfce&#45;local</text>
</g>
<!-- xfce_local&#45;&gt;chj_bin -->
<g id="edge79" class="edge"><title>xfce_local&#45;&gt;chj_bin</title>
<path fill="none" stroke="black" d="M198.678,-395.957C206.92,-393.672 215.736,-391.506 224.046,-390 378.069,-362.089 420.121,-383.374 575.046,-361 588.216,-359.098 602.452,-356.383 615.306,-353.679"/>
<polygon fill="black" stroke="black" points="616.236,-357.059 625.273,-351.529 614.76,-350.217 616.236,-357.059"/>
</g>
<!-- xfce_local&#45;&gt;dotconfig_xfce4_checkout -->
<g id="edge80" class="edge"><title>xfce_local&#45;&gt;dotconfig_xfce4_checkout</title>
<path fill="none" stroke="black" d="M198.669,-395.865C267.526,-373.72 422.202,-323.975 505.826,-297.081"/>
<polygon fill="black" stroke="black" points="506.966,-300.391 515.415,-293.997 504.823,-293.727 506.966,-300.391"/>
</g>
<!-- xfce_server -->
<g id="node58" class="node"><title>xfce_server</title>
<ellipse fill="none" stroke="blue" cx="50.0456" cy="-408" rx="50.0912" ry="18"/>
<text text-anchor="middle" x="50.0456" y="-404.3" font-family="Times,serif" font-size="14.00">xfce&#45;server</text>
</g>
<!-- xfce_server&#45;&gt;chj_bin -->
<g id="edge81" class="edge"><title>xfce_server&#45;&gt;chj_bin</title>
<path fill="none" stroke="black" d="M85.9717,-395.432C93.5282,-393.343 101.497,-391.39 109.046,-390 292.99,-356.121 516.324,-347.156 611.04,-344.814"/>
<polygon fill="black" stroke="black" points="611.225,-348.31 621.141,-344.577 611.062,-341.312 611.225,-348.31"/>
</g>
<!-- xfce_server&#45;&gt;dotconfig_xfce4_checkout -->
<g id="edge82" class="edge"><title>xfce_server&#45;&gt;dotconfig_xfce4_checkout</title>
<path fill="none" stroke="black" d="M84.4188,-394.771C134.133,-377.421 229.23,-345.498 312.046,-325 366.751,-311.459 429.088,-299.981 477.83,-291.877"/>
<polygon fill="black" stroke="black" points="478.405,-295.33 487.703,-290.251 477.267,-288.423 478.405,-295.33"/>
</g>
<!-- xfce4_load_profile&#45;&gt;chj_bin -->
<g id="edge83" class="edge"><title>xfce4_load_profile&#45;&gt;chj_bin</title>
<path fill="none" stroke="black" d="M540.832,-454.743C541.49,-436.724 545.108,-408.554 560.046,-390 573.944,-372.737 595.859,-361.586 615.345,-354.594"/>
<polygon fill="black" stroke="black" points="616.577,-357.873 624.963,-351.397 614.369,-351.23 616.577,-357.873"/>
</g>
<!-- xfce4_load_profile&#45;&gt;xfce_server -->
<g id="edge84" class="edge"><title>xfce4_load_profile&#45;&gt;xfce_server</title>
<path fill="none" stroke="black" d="M472.709,-464.495C445.441,-461.516 413.76,-458.073 385.046,-455 262.404,-441.875 230.107,-449.611 109.046,-426 104.867,-425.185 100.556,-424.211 96.2564,-423.146"/>
<polygon fill="black" stroke="black" points="96.8711,-419.689 86.3099,-420.533 95.092,-426.459 96.8711,-419.689"/>
</g>
</g>
</svg>
