<?xml version="1.0" encoding="UTF-8" standalone="no"?>
<!DOCTYPE svg PUBLIC "-//W3C//DTD SVG 1.1//EN"
 "http://www.w3.org/Graphics/SVG/1.1/DTD/svg11.dtd">
<!-- Generated by graphviz version 2.38.0 (20140413.2041)
 -->
<!-- Title: foo Pages: 1 -->
<svg width="1703pt" height="694pt"
 viewBox="0.00 0.00 1702.94 694.00" xmlns="http://www.w3.org/2000/svg" xmlns:xlink="http://www.w3.org/1999/xlink">
<g id="graph0" class="graph" transform="scale(1 1) rotate(0) translate(4 690)">
<title>foo</title>
<polygon fill="white" stroke="none" points="-4,4 -4,-690 1698.94,-690 1698.94,4 -4,4"/>
<!-- _bs -->
<g id="node1" class="node"><title>_bs</title>
<ellipse fill="none" stroke="grey" cx="301.944" cy="-83" rx="27" ry="18"/>
<text text-anchor="middle" x="301.944" y="-79.3" font-family="Times,serif" font-size="14.00">.bs</text>
</g>
<!-- _usr_local_bin_fastrandom -->
<g id="node2" class="node"><title>_usr_local_bin_fastrandom</title>
<ellipse fill="none" stroke="grey" cx="1529.94" cy="-278" rx="99.3824" ry="18"/>
<text text-anchor="middle" x="1529.94" y="-274.3" font-family="Times,serif" font-size="14.00">/usr/local/bin/fastrandom</text>
</g>
<!-- _slim_vncserver -->
<g id="node3" class="node"><title>_slim_vncserver</title>
<ellipse fill="none" stroke="blue" cx="830.944" cy="-538" rx="67.6881" ry="18"/>
<text text-anchor="middle" x="830.944" y="-534.3" font-family="Times,serif" font-size="14.00">_slim&#45;vncserver</text>
</g>
<!-- chj_bin -->
<g id="node5" class="node"><title>chj_bin</title>
<ellipse fill="none" stroke="blue" cx="348.944" cy="-278" rx="35.9954" ry="18"/>
<text text-anchor="middle" x="348.944" y="-274.3" font-family="Times,serif" font-size="14.00">chj&#45;bin</text>
</g>
<!-- _slim_vncserver&#45;&gt;chj_bin -->
<g id="edge3" class="edge"><title>_slim_vncserver&#45;&gt;chj_bin</title>
<path fill="none" stroke="black" d="M775.062,-527.646C647.7,-505.049 342.454,-443.225 284.944,-361 275.774,-347.889 277.644,-339.237 284.944,-325 291.262,-312.677 302.587,-302.909 313.973,-295.601"/>
<polygon fill="black" stroke="black" points="315.785,-298.595 322.609,-290.49 312.221,-292.571 315.785,-298.595"/>
</g>
<!-- perhaps_aptupdate -->
<g id="node35" class="node"><title>perhaps_aptupdate</title>
<ellipse fill="none" stroke="blue" cx="705.944" cy="-148" rx="76.8869" ry="18"/>
<text text-anchor="middle" x="705.944" y="-144.3" font-family="Times,serif" font-size="14.00">perhaps_aptupdate</text>
</g>
<!-- _slim_vncserver&#45;&gt;perhaps_aptupdate -->
<g id="edge1" class="edge"><title>_slim_vncserver&#45;&gt;perhaps_aptupdate</title>
<path fill="none" stroke="black" d="M830.064,-519.84C826.637,-458.355 812.563,-249.814 776.944,-195 770.192,-184.609 760.178,-176.07 749.785,-169.292"/>
<polygon fill="black" stroke="black" points="751.401,-166.179 741.03,-164.01 747.785,-172.173 751.401,-166.179"/>
</g>
<!-- slim_desktop -->
<g id="node41" class="node"><title>slim_desktop</title>
<ellipse fill="none" stroke="blue" cx="970.944" cy="-473" rx="56.59" ry="18"/>
<text text-anchor="middle" x="970.944" y="-469.3" font-family="Times,serif" font-size="14.00">slim&#45;desktop</text>
</g>
<!-- _slim_vncserver&#45;&gt;slim_desktop -->
<g id="edge2" class="edge"><title>_slim_vncserver&#45;&gt;slim_desktop</title>
<path fill="none" stroke="black" d="M863.768,-522.229C883.672,-513.272 909.226,-501.773 930.389,-492.25"/>
<polygon fill="black" stroke="black" points="932.085,-495.325 939.768,-488.029 929.212,-488.941 932.085,-495.325"/>
</g>
<!-- chj -->
<g id="node4" class="node"><title>chj</title>
<ellipse fill="none" stroke="blue" cx="1231.94" cy="-408" rx="27" ry="18"/>
<text text-anchor="middle" x="1231.94" y="-404.3" font-family="Times,serif" font-size="14.00">chj</text>
</g>
<!-- chj&#45;&gt;chj_bin -->
<g id="edge6" class="edge"><title>chj&#45;&gt;chj_bin</title>
<path fill="none" stroke="black" d="M1208.81,-398.66C1198.83,-395.408 1186.94,-391.99 1175.94,-390 1075.59,-371.844 811.954,-400.528 717.944,-361 695.896,-351.73 699.801,-334.713 677.944,-325 564.019,-274.371 520.724,-322.677 398.944,-296 394.763,-295.084 390.443,-293.937 386.176,-292.673"/>
<polygon fill="black" stroke="black" points="386.99,-289.259 376.4,-289.567 384.871,-295.931 386.99,-289.259"/>
</g>
<!-- chj_emacs -->
<g id="node6" class="node"><title>chj_emacs</title>
<ellipse fill="none" stroke="blue" cx="1293.94" cy="-343" rx="46.5926" ry="18"/>
<text text-anchor="middle" x="1293.94" y="-339.3" font-family="Times,serif" font-size="14.00">chj&#45;emacs</text>
</g>
<!-- chj&#45;&gt;chj_emacs -->
<g id="edge7" class="edge"><title>chj&#45;&gt;chj_emacs</title>
<path fill="none" stroke="black" d="M1246.32,-392.388C1253.55,-385.041 1262.5,-375.954 1270.67,-367.645"/>
<polygon fill="black" stroke="black" points="1273.38,-369.888 1277.9,-360.306 1268.39,-364.978 1273.38,-369.888"/>
</g>
<!-- cj_git_patchtool -->
<g id="node11" class="node"><title>cj_git_patchtool</title>
<ellipse fill="none" stroke="blue" cx="1049.94" cy="-343" rx="64.9885" ry="18"/>
<text text-anchor="middle" x="1049.94" y="-339.3" font-family="Times,serif" font-size="14.00">cj&#45;git&#45;patchtool</text>
</g>
<!-- chj&#45;&gt;cj_git_patchtool -->
<g id="edge9" class="edge"><title>chj&#45;&gt;cj_git_patchtool</title>
<path fill="none" stroke="black" d="M1208.52,-398.893C1180.88,-389.324 1134.18,-373.158 1098.59,-360.84"/>
<polygon fill="black" stroke="black" points="1099.47,-357.44 1088.88,-357.477 1097.18,-364.055 1099.47,-357.44"/>
</g>
<!-- debianpackages -->
<g id="node15" class="node"><title>debianpackages</title>
<ellipse fill="none" stroke="blue" cx="946.944" cy="-278" rx="66.0889" ry="18"/>
<text text-anchor="middle" x="946.944" y="-274.3" font-family="Times,serif" font-size="14.00">debianpackages</text>
</g>
<!-- chj&#45;&gt;debianpackages -->
<g id="edge5" class="edge"><title>chj&#45;&gt;debianpackages</title>
<path fill="none" stroke="black" d="M1217.14,-392.655C1197.45,-374.34 1160.8,-342.885 1123.94,-325 1089.11,-308.093 1047.29,-296.855 1013.05,-289.722"/>
<polygon fill="black" stroke="black" points="1013.64,-286.27 1003.15,-287.728 1012.26,-293.133 1013.64,-286.27"/>
</g>
<!-- fastrandom -->
<g id="node19" class="node"><title>fastrandom</title>
<ellipse fill="none" stroke="blue" cx="1505.94" cy="-343" rx="50.8918" ry="18"/>
<text text-anchor="middle" x="1505.94" y="-339.3" font-family="Times,serif" font-size="14.00">fastrandom</text>
</g>
<!-- chj&#45;&gt;fastrandom -->
<g id="edge8" class="edge"><title>chj&#45;&gt;fastrandom</title>
<path fill="none" stroke="black" d="M1257.23,-401.186C1301.94,-390.906 1395.77,-369.333 1454.54,-355.82"/>
<polygon fill="black" stroke="black" points="1455.41,-359.212 1464.37,-353.56 1453.84,-352.39 1455.41,-359.212"/>
</g>
<!-- git_sign -->
<g id="node26" class="node"><title>git_sign</title>
<ellipse fill="none" stroke="blue" cx="1096.94" cy="-83" rx="37.8943" ry="18"/>
<text text-anchor="middle" x="1096.94" y="-79.3" font-family="Times,serif" font-size="14.00">git&#45;sign</text>
</g>
<!-- chj&#45;&gt;git_sign -->
<g id="edge4" class="edge"><title>chj&#45;&gt;git_sign</title>
<path fill="none" stroke="black" d="M1257.74,-402.453C1283.7,-396.721 1323.57,-384.615 1349.94,-361 1427.07,-291.938 1448.23,-207.819 1379.94,-130 1349.83,-95.6756 1217.51,-86.9235 1144.96,-84.7194"/>
<polygon fill="black" stroke="black" points="1144.8,-81.2138 1134.71,-84.4394 1144.61,-88.2112 1144.8,-81.2138"/>
</g>
<!-- chj_bin&#45;&gt;_bs -->
<g id="edge10" class="edge"><title>chj_bin&#45;&gt;_bs</title>
<path fill="none" stroke="black" d="M314.286,-273.401C258.514,-265.459 151.047,-240.72 110.944,-166 103.378,-151.902 101.043,-142.569 110.944,-130 129.762,-106.112 215.034,-93.1839 265.053,-87.5376"/>
<polygon fill="black" stroke="black" points="265.591,-90.9999 275.155,-86.442 264.836,-84.0408 265.591,-90.9999"/>
</g>
<!-- chj_perllib -->
<g id="node9" class="node"><title>chj_perllib</title>
<ellipse fill="none" stroke="blue" cx="264.944" cy="-213" rx="47.3916" ry="18"/>
<text text-anchor="middle" x="264.944" y="-209.3" font-family="Times,serif" font-size="14.00">chj&#45;perllib</text>
</g>
<!-- chj_bin&#45;&gt;chj_perllib -->
<g id="edge12" class="edge"><title>chj_bin&#45;&gt;chj_perllib</title>
<path fill="none" stroke="black" d="M329.883,-262.704C319.107,-254.622 305.424,-244.36 293.4,-235.342"/>
<polygon fill="black" stroke="black" points="295.497,-232.54 285.397,-229.34 291.297,-238.14 295.497,-232.54"/>
</g>
<!-- chj_bin&#45;&gt;git_sign -->
<g id="edge11" class="edge"><title>chj_bin&#45;&gt;git_sign</title>
<path fill="none" stroke="black" d="M366.08,-262.2C387.126,-244.545 424.418,-214.922 459.944,-195 526.892,-157.458 545.407,-148.32 619.944,-130 773.664,-92.2176 962.374,-85.1872 1049.15,-84.0679"/>
<polygon fill="black" stroke="black" points="1049.26,-87.567 1059.22,-83.959 1049.18,-80.5674 1049.26,-87.567"/>
</g>
<!-- chj_emacs_checkout -->
<g id="node7" class="node"><title>chj_emacs_checkout</title>
<ellipse fill="none" stroke="blue" cx="1293.94" cy="-278" rx="81.4863" ry="18"/>
<text text-anchor="middle" x="1293.94" y="-274.3" font-family="Times,serif" font-size="14.00">chj&#45;emacs&#45;checkout</text>
</g>
<!-- chj_emacs&#45;&gt;chj_emacs_checkout -->
<g id="edge13" class="edge"><title>chj_emacs&#45;&gt;chj_emacs_checkout</title>
<path fill="none" stroke="black" d="M1293.94,-324.785C1293.94,-319.09 1293.94,-312.605 1293.94,-306.343"/>
<polygon fill="black" stroke="black" points="1297.44,-306.194 1293.94,-296.194 1290.44,-306.194 1297.44,-306.194"/>
</g>
<!-- chj_emacs_checkout&#45;&gt;git_sign -->
<g id="edge14" class="edge"><title>chj_emacs_checkout&#45;&gt;git_sign</title>
<path fill="none" stroke="black" d="M1312.13,-260.382C1341.77,-231.312 1393.96,-170.48 1359.94,-130 1332.96,-97.8906 1212.71,-88.1909 1144.53,-85.2634"/>
<polygon fill="black" stroke="black" points="1144.6,-81.7632 1134.47,-84.864 1144.32,-88.7577 1144.6,-81.7632"/>
</g>
<!-- chj_fastrandom -->
<g id="node8" class="node"><title>chj_fastrandom</title>
<ellipse fill="none" stroke="green" cx="1286.94" cy="-148" rx="64.189" ry="18"/>
<text text-anchor="middle" x="1286.94" y="-144.3" font-family="Times,serif" font-size="14.00">chj&#45;fastrandom</text>
</g>
<!-- chj_fastrandom&#45;&gt;git_sign -->
<g id="edge15" class="edge"><title>chj_fastrandom&#45;&gt;git_sign</title>
<path fill="none" stroke="black" d="M1247.11,-133.793C1214.67,-123.035 1169.09,-107.921 1136.67,-97.1726"/>
<polygon fill="black" stroke="black" points="1137.66,-93.8118 1127.06,-93.9866 1135.45,-100.456 1137.66,-93.8118"/>
</g>
<!-- chj_perllib_checkout -->
<g id="node10" class="node"><title>chj_perllib_checkout</title>
<ellipse fill="none" stroke="blue" cx="201.944" cy="-148" rx="81.7856" ry="18"/>
<text text-anchor="middle" x="201.944" y="-144.3" font-family="Times,serif" font-size="14.00">chj&#45;perllib&#45;checkout</text>
</g>
<!-- chj_perllib&#45;&gt;chj_perllib_checkout -->
<g id="edge16" class="edge"><title>chj_perllib&#45;&gt;chj_perllib_checkout</title>
<path fill="none" stroke="black" d="M248.72,-195.776C241.829,-188.885 233.652,-180.708 226.077,-173.133"/>
<polygon fill="black" stroke="black" points="228.319,-170.425 218.773,-165.829 223.369,-175.375 228.319,-170.425"/>
</g>
<!-- chj_perllib_checkout&#45;&gt;_bs -->
<g id="edge17" class="edge"><title>chj_perllib_checkout&#45;&gt;_bs</title>
<path fill="none" stroke="black" d="M227.697,-130.776C241.978,-121.779 259.741,-110.588 274.312,-101.408"/>
<polygon fill="black" stroke="black" points="276.317,-104.282 282.912,-95.99 272.586,-98.3591 276.317,-104.282"/>
</g>
<!-- chj_perllib_checkout&#45;&gt;git_sign -->
<g id="edge18" class="edge"><title>chj_perllib_checkout&#45;&gt;git_sign</title>
<path fill="none" stroke="black" d="M259.54,-135.094C270.589,-133.136 282.095,-131.318 292.944,-130 578.173,-95.3416 923.588,-86.6844 1048.74,-84.6177"/>
<polygon fill="black" stroke="black" points="1049.17,-88.1114 1059.12,-84.4533 1049.06,-81.1123 1049.17,-88.1114"/>
</g>
<!-- cj_git_patchtool&#45;&gt;chj_bin -->
<g id="edge20" class="edge"><title>cj_git_patchtool&#45;&gt;chj_bin</title>
<path fill="none" stroke="black" d="M991.574,-334.979C963.834,-331.746 930.2,-327.977 899.944,-325 712.332,-306.541 488.304,-289.332 394.142,-282.319"/>
<polygon fill="black" stroke="black" points="394.341,-278.824 384.109,-281.573 393.822,-285.805 394.341,-278.824"/>
</g>
<!-- cj_git_patchtool&#45;&gt;debianpackages -->
<g id="edge19" class="edge"><title>cj_git_patchtool&#45;&gt;debianpackages</title>
<path fill="none" stroke="black" d="M1024.48,-326.427C1011.58,-318.536 995.722,-308.835 981.715,-300.268"/>
<polygon fill="black" stroke="black" points="983.184,-297.064 972.827,-294.831 979.532,-303.035 983.184,-297.064"/>
</g>
<!-- cj_git_patchtool&#45;&gt;git_sign -->
<g id="edge21" class="edge"><title>cj_git_patchtool&#45;&gt;git_sign</title>
<path fill="none" stroke="black" d="M1044.67,-325.024C1031.36,-280.827 998.789,-163.319 1017.94,-130 1026.46,-115.187 1041.78,-104.698 1056.68,-97.5156"/>
<polygon fill="black" stroke="black" points="1058.12,-100.71 1065.84,-93.4617 1055.28,-94.3089 1058.12,-100.71"/>
</g>
<!-- cplusplus -->
<g id="node12" class="node"><title>cplusplus</title>
<ellipse fill="none" stroke="blue" cx="1112.94" cy="-278" rx="44.393" ry="18"/>
<text text-anchor="middle" x="1112.94" y="-274.3" font-family="Times,serif" font-size="14.00">cplusplus</text>
</g>
<!-- cplusplus&#45;&gt;perhaps_aptupdate -->
<g id="edge22" class="edge"><title>cplusplus&#45;&gt;perhaps_aptupdate</title>
<path fill="none" stroke="black" d="M1078.94,-266.307C1008.19,-244.055 844.643,-192.62 759.558,-165.861"/>
<polygon fill="black" stroke="black" points="760.42,-162.464 749.831,-162.802 758.32,-169.141 760.42,-162.464"/>
</g>
<!-- debian_emacs -->
<g id="node13" class="node"><title>debian_emacs</title>
<ellipse fill="none" stroke="blue" cx="1205.94" cy="-538" rx="59.5901" ry="18"/>
<text text-anchor="middle" x="1205.94" y="-534.3" font-family="Times,serif" font-size="14.00">debian&#45;emacs</text>
</g>
<!-- debian_upgrade -->
<g id="node14" class="node"><title>debian_upgrade</title>
<ellipse fill="none" stroke="blue" cx="66.9441" cy="-408" rx="66.8882" ry="18"/>
<text text-anchor="middle" x="66.9441" y="-404.3" font-family="Times,serif" font-size="14.00">debian_upgrade</text>
</g>
<!-- debian_upgrade&#45;&gt;perhaps_aptupdate -->
<g id="edge23" class="edge"><title>debian_upgrade&#45;&gt;perhaps_aptupdate</title>
<path fill="none" stroke="black" d="M71.8918,-389.86C85.3798,-346.837 127.359,-234.886 208.944,-195 213.572,-192.737 485.78,-168.435 625.323,-156.099"/>
<polygon fill="black" stroke="black" points="625.891,-159.562 635.544,-155.196 625.275,-152.59 625.891,-159.562"/>
</g>
<!-- urxvt -->
<g id="node46" class="node"><title>urxvt</title>
<ellipse fill="none" stroke="blue" cx="497.944" cy="-213" rx="29.4969" ry="18"/>
<text text-anchor="middle" x="497.944" y="-209.3" font-family="Times,serif" font-size="14.00">urxvt</text>
</g>
<!-- debianpackages&#45;&gt;urxvt -->
<g id="edge24" class="edge"><title>debianpackages&#45;&gt;urxvt</title>
<path fill="none" stroke="black" d="M881,-275.856C798.828,-273.018 654.748,-263.377 535.944,-231 533.791,-230.413 531.605,-229.721 529.424,-228.957"/>
<polygon fill="black" stroke="black" points="530.612,-225.663 520.025,-225.253 528.046,-232.175 530.612,-225.663"/>
</g>
<!-- dnsresolver -->
<g id="node16" class="node"><title>dnsresolver</title>
<ellipse fill="none" stroke="green" cx="1229.94" cy="-668" rx="51.1914" ry="18"/>
<text text-anchor="middle" x="1229.94" y="-664.3" font-family="Times,serif" font-size="14.00">dnsresolver</text>
</g>
<!-- dotconfig_xfce4_checkout -->
<g id="node17" class="node"><title>dotconfig_xfce4_checkout</title>
<ellipse fill="none" stroke="blue" cx="402.944" cy="-148" rx="101.282" ry="18"/>
<text text-anchor="middle" x="402.944" y="-144.3" font-family="Times,serif" font-size="14.00">dotconfig&#45;xfce4&#45;checkout</text>
</g>
<!-- dotconfig_xfce4_checkout&#45;&gt;_bs -->
<g id="edge25" class="edge"><title>dotconfig_xfce4_checkout&#45;&gt;_bs</title>
<path fill="none" stroke="black" d="M376.671,-130.612C362.247,-121.615 344.367,-110.462 329.714,-101.322"/>
<polygon fill="black" stroke="black" points="331.404,-98.2508 321.067,-95.9279 327.699,-104.19 331.404,-98.2508"/>
</g>
<!-- dotconfig_xfce4_checkout&#45;&gt;git_sign -->
<g id="edge26" class="edge"><title>dotconfig_xfce4_checkout&#45;&gt;git_sign</title>
<path fill="none" stroke="black" d="M475.85,-135.465C489.802,-133.473 504.308,-131.548 517.944,-130 714.671,-107.67 950.226,-92.5337 1049.32,-86.6918"/>
<polygon fill="black" stroke="black" points="1049.83,-90.1685 1059.6,-86.0904 1049.42,-83.1805 1049.83,-90.1685"/>
</g>
<!-- emacs -->
<g id="node18" class="node"><title>emacs</title>
<ellipse fill="none" stroke="blue" cx="1191.94" cy="-603" rx="33.2948" ry="18"/>
<text text-anchor="middle" x="1191.94" y="-599.3" font-family="Times,serif" font-size="14.00">emacs</text>
</g>
<!-- emacs&#45;&gt;chj_emacs -->
<g id="edge28" class="edge"><title>emacs&#45;&gt;chj_emacs</title>
<path fill="none" stroke="black" d="M1215.83,-590.21C1239.03,-578.527 1271.3,-561.592 1274.94,-556 1312.11,-498.9 1305.6,-414.082 1299.04,-371.09"/>
<polygon fill="black" stroke="black" points="1302.48,-370.404 1297.4,-361.104 1295.57,-371.539 1302.48,-370.404"/>
</g>
<!-- emacs&#45;&gt;debian_emacs -->
<g id="edge27" class="edge"><title>emacs&#45;&gt;debian_emacs</title>
<path fill="none" stroke="black" d="M1195.77,-584.785C1197.04,-579.09 1198.48,-572.605 1199.87,-566.343"/>
<polygon fill="black" stroke="black" points="1203.37,-566.715 1202.12,-556.194 1196.54,-565.197 1203.37,-566.715"/>
</g>
<!-- fastrandom&#45;&gt;_usr_local_bin_fastrandom -->
<g id="edge29" class="edge"><title>fastrandom&#45;&gt;_usr_local_bin_fastrandom</title>
<path fill="none" stroke="black" d="M1512.38,-325.117C1514.6,-319.281 1517.15,-312.585 1519.61,-306.137"/>
<polygon fill="black" stroke="black" points="1523.04,-306.96 1523.33,-296.369 1516.5,-304.468 1523.04,-306.96"/>
</g>
<!-- fperl -->
<g id="node20" class="node"><title>fperl</title>
<ellipse fill="none" stroke="green" cx="863.944" cy="-343" rx="27.0966" ry="18"/>
<text text-anchor="middle" x="863.944" y="-339.3" font-family="Times,serif" font-size="14.00">fperl</text>
</g>
<!-- fperl&#45;&gt;chj_bin -->
<g id="edge32" class="edge"><title>fperl&#45;&gt;chj_bin</title>
<path fill="none" stroke="black" d="M839.09,-335.493C824.799,-331.953 806.458,-327.748 789.944,-325 646.6,-301.15 474.862,-287.461 394.55,-281.916"/>
<polygon fill="black" stroke="black" points="394.511,-278.406 384.296,-281.219 394.036,-285.39 394.511,-278.406"/>
</g>
<!-- fperl&#45;&gt;debianpackages -->
<g id="edge31" class="edge"><title>fperl&#45;&gt;debianpackages</title>
<path fill="none" stroke="black" d="M881.142,-328.946C891.635,-320.981 905.33,-310.587 917.507,-301.344"/>
<polygon fill="black" stroke="black" points="919.788,-304.007 925.637,-295.173 915.555,-298.431 919.788,-304.007"/>
</g>
<!-- fperl&#45;&gt;git_sign -->
<g id="edge30" class="edge"><title>fperl&#45;&gt;git_sign</title>
<path fill="none" stroke="black" d="M862.237,-324.73C861.285,-307.454 861.898,-280.563 871.944,-260 911.292,-179.457 1007.24,-124.911 1060.25,-99.8035"/>
<polygon fill="black" stroke="black" points="1062.02,-102.839 1069.62,-95.4583 1059.08,-96.4881 1062.02,-102.839"/>
</g>
<!-- full_desktop -->
<g id="node21" class="node"><title>full_desktop</title>
<ellipse fill="none" stroke="blue" cx="980.944" cy="-538" rx="53.0913" ry="18"/>
<text text-anchor="middle" x="980.944" y="-534.3" font-family="Times,serif" font-size="14.00">full&#45;desktop</text>
</g>
<!-- full_desktop&#45;&gt;slim_desktop -->
<g id="edge33" class="edge"><title>full_desktop&#45;&gt;slim_desktop</title>
<path fill="none" stroke="black" d="M978.212,-519.785C977.308,-514.09 976.278,-507.605 975.284,-501.343"/>
<polygon fill="black" stroke="black" points="978.698,-500.522 973.673,-491.194 971.784,-501.619 978.698,-500.522"/>
</g>
<!-- full_desktop_autoremove -->
<g id="node22" class="node"><title>full_desktop_autoremove</title>
<ellipse fill="none" stroke="green" cx="990.944" cy="-603" rx="99.3824" ry="18"/>
<text text-anchor="middle" x="990.944" y="-599.3" font-family="Times,serif" font-size="14.00">full&#45;desktop_autoremove</text>
</g>
<!-- full_desktop_autoremove&#45;&gt;full_desktop -->
<g id="edge34" class="edge"><title>full_desktop_autoremove&#45;&gt;full_desktop</title>
<path fill="none" stroke="black" d="M988.212,-584.785C987.308,-579.09 986.278,-572.605 985.284,-566.343"/>
<polygon fill="black" stroke="black" points="988.698,-565.522 983.673,-556.194 981.784,-566.619 988.698,-565.522"/>
</g>
<!-- full_vncserver -->
<g id="node23" class="node"><title>full_vncserver</title>
<ellipse fill="none" stroke="blue" cx="543.944" cy="-603" rx="59.5901" ry="18"/>
<text text-anchor="middle" x="543.944" y="-599.3" font-family="Times,serif" font-size="14.00">full&#45;vncserver</text>
</g>
<!-- full_vncserver&#45;&gt;_slim_vncserver -->
<g id="edge35" class="edge"><title>full_vncserver&#45;&gt;_slim_vncserver</title>
<path fill="none" stroke="black" d="M588.433,-590.806C596.575,-588.824 605.006,-586.815 612.944,-585 642.081,-578.339 715.483,-562.956 769.089,-551.81"/>
<polygon fill="black" stroke="black" points="770.111,-555.173 779.19,-549.711 768.687,-548.319 770.111,-555.173"/>
</g>
<!-- full_vncserver&#45;&gt;debianpackages -->
<g id="edge36" class="edge"><title>full_vncserver&#45;&gt;debianpackages</title>
<path fill="none" stroke="black" d="M579.441,-588.39C625.097,-570.002 705.786,-534.469 766.944,-491 834.318,-443.113 849.354,-426.369 899.944,-361 913.376,-343.644 925.602,-322.04 934.216,-305.365"/>
<polygon fill="black" stroke="black" points="937.468,-306.69 938.852,-296.186 931.219,-303.534 937.468,-306.69"/>
</g>
<!-- system -->
<g id="node44" class="node"><title>system</title>
<ellipse fill="none" stroke="blue" cx="97.9441" cy="-538" rx="35.9954" ry="18"/>
<text text-anchor="middle" x="97.9441" y="-534.3" font-family="Times,serif" font-size="14.00">system</text>
</g>
<!-- full_vncserver&#45;&gt;system -->
<g id="edge38" class="edge"><title>full_vncserver&#45;&gt;system</title>
<path fill="none" stroke="black" d="M485.251,-599.077C407.362,-594.315 265.933,-582.594 147.944,-556 143.819,-555.07 139.557,-553.923 135.341,-552.668"/>
<polygon fill="black" stroke="black" points="136.266,-549.29 125.676,-549.594 134.144,-555.96 136.266,-549.29"/>
</g>
<!-- full_vncserver&#45;&gt;urxvt -->
<g id="edge37" class="edge"><title>full_vncserver&#45;&gt;urxvt</title>
<path fill="none" stroke="black" d="M489.618,-595.332C384.155,-580.866 161.944,-542.282 161.944,-474 161.944,-474 161.944,-474 161.944,-342 161.944,-278.866 371.719,-235.588 459.763,-220.204"/>
<polygon fill="black" stroke="black" points="460.612,-223.61 469.875,-218.467 459.427,-216.711 460.612,-223.61"/>
</g>
<!-- gambit -->
<g id="node24" class="node"><title>gambit</title>
<ellipse fill="none" stroke="blue" cx="1130.94" cy="-408" rx="35.9954" ry="18"/>
<text text-anchor="middle" x="1130.94" y="-404.3" font-family="Times,serif" font-size="14.00">gambit</text>
</g>
<!-- gambit&#45;&gt;chj_bin -->
<g id="edge42" class="edge"><title>gambit&#45;&gt;chj_bin</title>
<path fill="none" stroke="black" d="M1095.34,-406.004C1003.18,-403.005 758.884,-392.253 684.944,-361 661.986,-351.296 664.824,-334.887 641.944,-325 542.101,-281.854 505.011,-320.082 398.944,-296 394.82,-295.064 390.559,-293.913 386.344,-292.655"/>
<polygon fill="black" stroke="black" points="387.27,-289.277 376.679,-289.578 385.146,-295.947 387.27,-289.277"/>
</g>
<!-- gambit&#45;&gt;chj_emacs -->
<g id="edge43" class="edge"><title>gambit&#45;&gt;chj_emacs</title>
<path fill="none" stroke="black" d="M1158.59,-396.313C1184.38,-386.346 1223.19,-371.348 1252.64,-359.962"/>
<polygon fill="black" stroke="black" points="1254.18,-363.122 1262.24,-356.252 1251.65,-356.593 1254.18,-363.122"/>
</g>
<!-- gambit&#45;&gt;cplusplus -->
<g id="edge40" class="edge"><title>gambit&#45;&gt;cplusplus</title>
<path fill="none" stroke="black" d="M1130.23,-389.948C1129.36,-373.299 1127.54,-347.287 1123.94,-325 1122.94,-318.768 1121.55,-312.131 1120.09,-305.894"/>
<polygon fill="black" stroke="black" points="1123.42,-304.79 1117.63,-295.917 1116.62,-306.464 1123.42,-304.79"/>
</g>
<!-- gambit&#45;&gt;debianpackages -->
<g id="edge41" class="edge"><title>gambit&#45;&gt;debianpackages</title>
<path fill="none" stroke="black" d="M1095.31,-405.463C1060.59,-402.102 1008.41,-391.834 975.944,-361 960.843,-346.656 953.596,-323.965 950.123,-306.085"/>
<polygon fill="black" stroke="black" points="953.575,-305.505 948.484,-296.213 946.67,-306.652 953.575,-305.505"/>
</g>
<!-- gambit_checkout -->
<g id="node25" class="node"><title>gambit_checkout</title>
<ellipse fill="none" stroke="blue" cx="1096.94" cy="-148" rx="70.3881" ry="18"/>
<text text-anchor="middle" x="1096.94" y="-144.3" font-family="Times,serif" font-size="14.00">gambit&#45;checkout</text>
</g>
<!-- gambit&#45;&gt;gambit_checkout -->
<g id="edge39" class="edge"><title>gambit&#45;&gt;gambit_checkout</title>
<path fill="none" stroke="black" d="M1140.37,-390.563C1154.79,-363.26 1179.34,-306.921 1165.94,-260 1156.65,-227.447 1134.75,-195.136 1118.1,-173.842"/>
<polygon fill="black" stroke="black" points="1120.77,-171.582 1111.79,-165.97 1115.31,-175.961 1120.77,-171.582"/>
</g>
<!-- virtualmem_2GB -->
<g id="node47" class="node"><title>virtualmem_2GB</title>
<ellipse fill="none" stroke="blue" cx="559.944" cy="-343" rx="73.387" ry="18"/>
<text text-anchor="middle" x="559.944" y="-339.3" font-family="Times,serif" font-size="14.00">virtualmem_2GB</text>
</g>
<!-- gambit&#45;&gt;virtualmem_2GB -->
<g id="edge44" class="edge"><title>gambit&#45;&gt;virtualmem_2GB</title>
<path fill="none" stroke="black" d="M1095.58,-404.834C1015.45,-399.665 814.013,-385.202 646.944,-361 639.341,-359.899 631.394,-358.58 623.528,-357.171"/>
<polygon fill="black" stroke="black" points="624.107,-353.719 613.638,-355.348 622.838,-360.603 624.107,-353.719"/>
</g>
<!-- gambit_checkout&#45;&gt;_bs -->
<g id="edge45" class="edge"><title>gambit_checkout&#45;&gt;_bs</title>
<path fill="none" stroke="black" d="M1030.87,-141.764C870.302,-129.04 463.639,-96.8135 338.897,-86.9283"/>
<polygon fill="black" stroke="black" points="338.967,-83.423 328.722,-86.122 338.414,-90.4011 338.967,-83.423"/>
</g>
<!-- gambit_checkout&#45;&gt;git_sign -->
<g id="edge46" class="edge"><title>gambit_checkout&#45;&gt;git_sign</title>
<path fill="none" stroke="black" d="M1096.94,-129.785C1096.94,-124.09 1096.94,-117.605 1096.94,-111.343"/>
<polygon fill="black" stroke="black" points="1100.44,-111.194 1096.94,-101.194 1093.44,-111.194 1100.44,-111.194"/>
</g>
<!-- key -->
<g id="node28" class="node"><title>key</title>
<ellipse fill="none" stroke="blue" cx="1388.94" cy="-18" rx="27" ry="18"/>
<text text-anchor="middle" x="1388.94" y="-14.3" font-family="Times,serif" font-size="14.00">key</text>
</g>
<!-- git_sign&#45;&gt;key -->
<g id="edge47" class="edge"><title>git_sign&#45;&gt;key</title>
<path fill="none" stroke="black" d="M1130.73,-74.7116C1186.41,-62.6977 1296.93,-38.8523 1353.61,-26.6228"/>
<polygon fill="black" stroke="black" points="1354.51,-30.0103 1363.54,-24.48 1353.03,-23.1678 1354.51,-30.0103"/>
</g>
<!-- graph_deps -->
<g id="node27" class="node"><title>graph_deps</title>
<ellipse fill="none" stroke="green" cx="594.944" cy="-213" rx="50.0912" ry="18"/>
<text text-anchor="middle" x="594.944" y="-209.3" font-family="Times,serif" font-size="14.00">graph&#45;deps</text>
</g>
<!-- graph_deps&#45;&gt;perhaps_aptupdate -->
<g id="edge48" class="edge"><title>graph_deps&#45;&gt;perhaps_aptupdate</title>
<path fill="none" stroke="black" d="M620.689,-197.388C635.037,-189.245 653.151,-178.963 668.989,-169.974"/>
<polygon fill="black" stroke="black" points="671.037,-172.837 678.006,-164.857 667.581,-166.749 671.037,-172.837"/>
</g>
<!-- load_profile -->
<g id="node29" class="node"><title>load_profile</title>
<ellipse fill="none" stroke="green" cx="703.944" cy="-473" rx="53.8905" ry="18"/>
<text text-anchor="middle" x="703.944" y="-469.3" font-family="Times,serif" font-size="14.00">load_profile</text>
</g>
<!-- xfce4_load_profile -->
<g id="node50" class="node"><title>xfce4_load_profile</title>
<ellipse fill="none" stroke="blue" cx="703.944" cy="-408" rx="77.1866" ry="18"/>
<text text-anchor="middle" x="703.944" y="-404.3" font-family="Times,serif" font-size="14.00">xfce4_load_profile</text>
</g>
<!-- load_profile&#45;&gt;xfce4_load_profile -->
<g id="edge49" class="edge"><title>load_profile&#45;&gt;xfce4_load_profile</title>
<path fill="none" stroke="black" d="M703.944,-454.785C703.944,-449.09 703.944,-442.605 703.944,-436.343"/>
<polygon fill="black" stroke="black" points="707.444,-436.194 703.944,-426.194 700.444,-436.194 707.444,-436.194"/>
</g>
<!-- locales -->
<g id="node30" class="node"><title>locales</title>
<ellipse fill="none" stroke="blue" cx="224.944" cy="-408" rx="35.194" ry="18"/>
<text text-anchor="middle" x="224.944" y="-404.3" font-family="Times,serif" font-size="14.00">locales</text>
</g>
<!-- locales&#45;&gt;chj_bin -->
<g id="edge50" class="edge"><title>locales&#45;&gt;chj_bin</title>
<path fill="none" stroke="black" d="M219.387,-389.933C214.703,-372.073 210.667,-344.033 223.944,-325 241.854,-299.325 275.777,-287.941 303.769,-282.913"/>
<polygon fill="black" stroke="black" points="304.441,-286.351 313.773,-281.334 303.349,-279.436 304.441,-286.351"/>
</g>
<!-- mercurial -->
<g id="node31" class="node"><title>mercurial</title>
<ellipse fill="none" stroke="green" cx="348.944" cy="-343" rx="44.6926" ry="18"/>
<text text-anchor="middle" x="348.944" y="-339.3" font-family="Times,serif" font-size="14.00">mercurial</text>
</g>
<!-- mercurial&#45;&gt;chj_bin -->
<g id="edge51" class="edge"><title>mercurial&#45;&gt;chj_bin</title>
<path fill="none" stroke="black" d="M348.944,-324.785C348.944,-319.09 348.944,-312.605 348.944,-306.343"/>
<polygon fill="black" stroke="black" points="352.444,-306.194 348.944,-296.194 345.444,-306.194 352.444,-306.194"/>
</g>
<!-- moduser -->
<g id="node32" class="node"><title>moduser</title>
<ellipse fill="none" stroke="blue" cx="1381.94" cy="-473" rx="41.6928" ry="18"/>
<text text-anchor="middle" x="1381.94" y="-469.3" font-family="Times,serif" font-size="14.00">moduser</text>
</g>
<!-- moduser&#45;&gt;chj -->
<g id="edge52" class="edge"><title>moduser&#45;&gt;chj</title>
<path fill="none" stroke="black" d="M1353.02,-459.853C1327.51,-449.137 1290.37,-433.541 1263.97,-422.451"/>
<polygon fill="black" stroke="black" points="1265,-419.086 1254.42,-418.44 1262.29,-425.54 1265,-419.086"/>
</g>
<!-- moduser&#45;&gt;key -->
<g id="edge53" class="edge"><title>moduser&#45;&gt;key</title>
<path fill="none" stroke="black" d="M1419.39,-464.922C1502.47,-448.148 1694.94,-402.929 1694.94,-344 1694.94,-344 1694.94,-344 1694.94,-147 1694.94,-31.8177 1508.14,-18.4851 1426.44,-18.1619"/>
<polygon fill="black" stroke="black" points="1426.09,-14.6627 1416.1,-18.189 1426.11,-21.6627 1426.09,-14.6627"/>
</g>
<!-- nosudo -->
<g id="node33" class="node"><title>nosudo</title>
<ellipse fill="none" stroke="green" cx="1335.94" cy="-668" rx="36.2938" ry="18"/>
<text text-anchor="middle" x="1335.94" y="-664.3" font-family="Times,serif" font-size="14.00">nosudo</text>
</g>
<!-- nosudo_auto -->
<g id="node34" class="node"><title>nosudo_auto</title>
<ellipse fill="none" stroke="blue" cx="1334.94" cy="-603" rx="53.8905" ry="18"/>
<text text-anchor="middle" x="1334.94" y="-599.3" font-family="Times,serif" font-size="14.00">nosudo&#45;auto</text>
</g>
<!-- qemu -->
<g id="node36" class="node"><title>qemu</title>
<ellipse fill="none" stroke="green" cx="1205.94" cy="-473" rx="30.5947" ry="18"/>
<text text-anchor="middle" x="1205.94" y="-469.3" font-family="Times,serif" font-size="14.00">qemu</text>
</g>
<!-- qemu&#45;&gt;gambit -->
<g id="edge55" class="edge"><title>qemu&#45;&gt;gambit</title>
<path fill="none" stroke="black" d="M1188.93,-457.704C1179.35,-449.662 1167.21,-439.461 1156.51,-430.475"/>
<polygon fill="black" stroke="black" points="1158.59,-427.648 1148.68,-423.896 1154.08,-433.008 1158.59,-427.648"/>
</g>
<!-- qemu&#45;&gt;git_sign -->
<g id="edge54" class="edge"><title>qemu&#45;&gt;git_sign</title>
<path fill="none" stroke="black" d="M1235.19,-467.423C1298.79,-456.548 1453.07,-425.138 1565.94,-361 1613.87,-333.766 1672.45,-302.993 1637.94,-260 1517.13,-109.467 1384.41,-256.546 1213.94,-166 1193.4,-155.087 1194.56,-143.946 1175.94,-130 1161.98,-119.542 1145.44,-109.584 1131.12,-101.625"/>
<polygon fill="black" stroke="black" points="1132.53,-98.4072 1122.07,-96.6977 1129.18,-104.555 1132.53,-98.4072"/>
</g>
<!-- remove_xserver -->
<g id="node37" class="node"><title>remove_xserver</title>
<ellipse fill="none" stroke="green" cx="1456.94" cy="-668" rx="66.0889" ry="18"/>
<text text-anchor="middle" x="1456.94" y="-664.3" font-family="Times,serif" font-size="14.00">remove&#45;xserver</text>
</g>
<!-- schemen -->
<g id="node38" class="node"><title>schemen</title>
<ellipse fill="none" stroke="green" cx="1117.94" cy="-668" rx="42.4939" ry="18"/>
<text text-anchor="middle" x="1117.94" y="-664.3" font-family="Times,serif" font-size="14.00">schemen</text>
</g>
<!-- schemen&#45;&gt;emacs -->
<g id="edge60" class="edge"><title>schemen&#45;&gt;emacs</title>
<path fill="none" stroke="black" d="M1136.24,-651.427C1145.56,-643.492 1157.03,-633.726 1167.13,-625.123"/>
<polygon fill="black" stroke="black" points="1169.53,-627.678 1174.88,-618.53 1164.99,-622.348 1169.53,-627.678"/>
</g>
<!-- schemen&#45;&gt;full_vncserver -->
<g id="edge57" class="edge"><title>schemen&#45;&gt;full_vncserver</title>
<path fill="none" stroke="black" d="M1076.1,-665.323C989.259,-661.376 783.335,-649.583 612.944,-621 607.621,-620.107 602.102,-619.023 596.609,-617.839"/>
<polygon fill="black" stroke="black" points="597.326,-614.412 586.8,-615.619 595.781,-621.24 597.326,-614.412"/>
</g>
<!-- schemen&#45;&gt;gambit -->
<g id="edge59" class="edge"><title>schemen&#45;&gt;gambit</title>
<path fill="none" stroke="black" d="M1118.82,-649.671C1121.03,-605.7 1126.89,-489.517 1129.57,-436.309"/>
<polygon fill="black" stroke="black" points="1133.07,-436.417 1130.07,-426.253 1126.08,-436.064 1133.07,-436.417"/>
</g>
<!-- schemen&#45;&gt;nosudo_auto -->
<g id="edge58" class="edge"><title>schemen&#45;&gt;nosudo_auto</title>
<path fill="none" stroke="black" d="M1150.05,-656.258C1156.62,-654.131 1163.49,-651.954 1169.94,-650 1208.12,-638.444 1251.59,-626.37 1284.32,-617.493"/>
<polygon fill="black" stroke="black" points="1285.37,-620.833 1294.11,-614.845 1283.55,-614.076 1285.37,-620.833"/>
</g>
<!-- schemen_user -->
<g id="node40" class="node"><title>schemen_user</title>
<ellipse fill="none" stroke="blue" cx="1381.94" cy="-538" rx="59.5901" ry="18"/>
<text text-anchor="middle" x="1381.94" y="-534.3" font-family="Times,serif" font-size="14.00">schemen&#45;user</text>
</g>
<!-- schemen&#45;&gt;schemen_user -->
<g id="edge61" class="edge"><title>schemen&#45;&gt;schemen_user</title>
<path fill="none" stroke="black" d="M1149.58,-655.985C1178.71,-645.571 1219.52,-630.206 1233.94,-621 1253.56,-608.486 1252.45,-597.696 1271.94,-585 1290.65,-572.817 1313.12,-562.735 1332.86,-555.146"/>
<polygon fill="black" stroke="black" points="1334.16,-558.397 1342.3,-551.622 1331.71,-551.839 1334.16,-558.397"/>
</g>
<!-- schemen&#45;&gt;system -->
<g id="edge56" class="edge"><title>schemen&#45;&gt;system</title>
<path fill="none" stroke="black" d="M1076.01,-665.811C973.164,-662.503 700.382,-651.349 474.944,-621 328.092,-601.23 291.065,-594.377 147.944,-556 143.909,-554.918 139.727,-553.683 135.577,-552.383"/>
<polygon fill="black" stroke="black" points="136.631,-549.045 126.039,-549.275 134.462,-555.701 136.631,-549.045"/>
</g>
<!-- tmp_passwd -->
<g id="node45" class="node"><title>tmp_passwd</title>
<ellipse fill="none" stroke="grey" cx="674.944" cy="-603" rx="53.0913" ry="18"/>
<text text-anchor="middle" x="674.944" y="-599.3" font-family="Times,serif" font-size="14.00">tmp/passwd</text>
</g>
<!-- schemen&#45;&gt;tmp_passwd -->
<g id="edge62" class="edge"><title>schemen&#45;&gt;tmp_passwd</title>
<path fill="none" stroke="black" d="M1076.47,-664.008C1006.14,-658.485 859.201,-645.005 736.944,-621 732.512,-620.13 727.932,-619.11 723.361,-618.009"/>
<polygon fill="black" stroke="black" points="723.984,-614.557 713.431,-615.498 722.268,-621.343 723.984,-614.557"/>
</g>
<!-- schemen_finish -->
<g id="node39" class="node"><title>schemen_finish</title>
<ellipse fill="none" stroke="green" cx="1605.94" cy="-668" rx="64.9885" ry="18"/>
<text text-anchor="middle" x="1605.94" y="-664.3" font-family="Times,serif" font-size="14.00">schemen&#45;finish</text>
</g>
<!-- schemen_user&#45;&gt;moduser -->
<g id="edge63" class="edge"><title>schemen_user&#45;&gt;moduser</title>
<path fill="none" stroke="black" d="M1381.94,-519.785C1381.94,-514.09 1381.94,-507.605 1381.94,-501.343"/>
<polygon fill="black" stroke="black" points="1385.44,-501.194 1381.94,-491.194 1378.44,-501.194 1385.44,-501.194"/>
</g>
<!-- slim_desktop&#45;&gt;chj -->
<g id="edge64" class="edge"><title>slim_desktop&#45;&gt;chj</title>
<path fill="none" stroke="black" d="M1017.59,-462.561C1059.3,-453.877 1121.98,-440.225 1175.94,-426 1183.24,-424.077 1191.01,-421.84 1198.37,-419.632"/>
<polygon fill="black" stroke="black" points="1199.53,-422.938 1208.07,-416.672 1197.49,-416.243 1199.53,-422.938"/>
</g>
<!-- slim_desktop&#45;&gt;xfce4_load_profile -->
<g id="edge65" class="edge"><title>slim_desktop&#45;&gt;xfce4_load_profile</title>
<path fill="none" stroke="black" d="M926.854,-461.597C883.066,-451.265 815.527,-435.329 766.264,-423.705"/>
<polygon fill="black" stroke="black" points="766.893,-420.257 756.356,-421.367 765.285,-427.07 766.893,-420.257"/>
</g>
<!-- slim_vncserver -->
<g id="node42" class="node"><title>slim_vncserver</title>
<ellipse fill="none" stroke="green" cx="809.944" cy="-603" rx="63.8893" ry="18"/>
<text text-anchor="middle" x="809.944" y="-599.3" font-family="Times,serif" font-size="14.00">slim&#45;vncserver</text>
</g>
<!-- slim_vncserver&#45;&gt;_slim_vncserver -->
<g id="edge66" class="edge"><title>slim_vncserver&#45;&gt;_slim_vncserver</title>
<path fill="none" stroke="black" d="M815.682,-584.785C817.627,-578.951 819.848,-572.288 821.982,-565.885"/>
<polygon fill="black" stroke="black" points="825.371,-566.788 825.213,-556.194 818.73,-564.574 825.371,-566.788"/>
</g>
<!-- swap -->
<g id="node43" class="node"><title>swap</title>
<ellipse fill="none" stroke="green" cx="439.944" cy="-343" rx="28.6953" ry="18"/>
<text text-anchor="middle" x="439.944" y="-339.3" font-family="Times,serif" font-size="14.00">swap</text>
</g>
<!-- swap&#45;&gt;chj_bin -->
<g id="edge67" class="edge"><title>swap&#45;&gt;chj_bin</title>
<path fill="none" stroke="black" d="M421.089,-328.946C408.5,-320.231 391.71,-308.607 377.495,-298.766"/>
<polygon fill="black" stroke="black" points="379.252,-295.725 369.038,-292.911 375.267,-301.481 379.252,-295.725"/>
</g>
<!-- system&#45;&gt;debian_upgrade -->
<g id="edge68" class="edge"><title>system&#45;&gt;debian_upgrade</title>
<path fill="none" stroke="black" d="M93.8275,-520.003C88.6163,-498.485 79.5792,-461.171 73.4349,-435.801"/>
<polygon fill="black" stroke="black" points="76.8332,-434.963 71.0776,-426.068 70.0299,-436.611 76.8332,-434.963"/>
</g>
<!-- system&#45;&gt;locales -->
<g id="edge69" class="edge"><title>system&#45;&gt;locales</title>
<path fill="none" stroke="black" d="M113.263,-521.56C135.48,-499.168 176.786,-457.538 202.458,-431.663"/>
<polygon fill="black" stroke="black" points="205.012,-434.058 209.571,-424.495 200.043,-429.128 205.012,-434.058"/>
</g>
<!-- urxvt&#45;&gt;perhaps_aptupdate -->
<g id="edge70" class="edge"><title>urxvt&#45;&gt;perhaps_aptupdate</title>
<path fill="none" stroke="black" d="M520.616,-201.163C525.606,-198.974 530.906,-196.796 535.944,-195 570.787,-182.578 610.666,-171.623 643.038,-163.523"/>
<polygon fill="black" stroke="black" points="643.962,-166.9 652.83,-161.103 642.282,-160.105 643.962,-166.9"/>
</g>
<!-- virtualmem_2GB&#45;&gt;chj_bin -->
<g id="edge71" class="edge"><title>virtualmem_2GB&#45;&gt;chj_bin</title>
<path fill="none" stroke="black" d="M512.561,-329.126C480.392,-320.223 436.955,-307.884 398.944,-296 395.116,-294.803 391.135,-293.519 387.167,-292.212"/>
<polygon fill="black" stroke="black" points="388.014,-288.805 377.421,-288.954 385.795,-295.444 388.014,-288.805"/>
</g>
<!-- vncclient -->
<g id="node48" class="node"><title>vncclient</title>
<ellipse fill="none" stroke="green" cx="705.944" cy="-213" rx="42.7926" ry="18"/>
<text text-anchor="middle" x="705.944" y="-209.3" font-family="Times,serif" font-size="14.00">vncclient</text>
</g>
<!-- vncclient&#45;&gt;perhaps_aptupdate -->
<g id="edge72" class="edge"><title>vncclient&#45;&gt;perhaps_aptupdate</title>
<path fill="none" stroke="black" d="M705.944,-194.785C705.944,-189.09 705.944,-182.605 705.944,-176.343"/>
<polygon fill="black" stroke="black" points="709.444,-176.194 705.944,-166.194 702.444,-176.194 709.444,-176.194"/>
</g>
<!-- xfce -->
<g id="node49" class="node"><title>xfce</title>
<ellipse fill="none" stroke="blue" cx="753.944" cy="-343" rx="27" ry="18"/>
<text text-anchor="middle" x="753.944" y="-339.3" font-family="Times,serif" font-size="14.00">xfce</text>
</g>
<!-- xfce&#45;&gt;chj_bin -->
<g id="edge74" class="edge"><title>xfce&#45;&gt;chj_bin</title>
<path fill="none" stroke="black" d="M732.652,-331.75C726.428,-329.147 719.527,-326.629 712.944,-325 576.898,-291.335 536.017,-325.204 398.944,-296 394.757,-295.108 390.435,-293.976 386.165,-292.721"/>
<polygon fill="black" stroke="black" points="386.978,-289.307 376.387,-289.625 384.865,-295.981 386.978,-289.307"/>
</g>
<!-- xfce&#45;&gt;dotconfig_xfce4_checkout -->
<g id="edge75" class="edge"><title>xfce&#45;&gt;dotconfig_xfce4_checkout</title>
<path fill="none" stroke="black" d="M731.32,-332.71C725.058,-330.174 718.249,-327.451 711.944,-325 600.531,-281.682 554.364,-304.309 459.944,-231 440.879,-216.197 425.692,-193.244 415.804,-175.382"/>
<polygon fill="black" stroke="black" points="418.642,-173.263 410.865,-166.067 412.458,-176.542 418.642,-173.263"/>
</g>
<!-- xfce&#45;&gt;perhaps_aptupdate -->
<g id="edge73" class="edge"><title>xfce&#45;&gt;perhaps_aptupdate</title>
<path fill="none" stroke="black" d="M758.933,-325.206C766.381,-296.901 777.554,-238.528 757.944,-195 753.945,-186.123 747.292,-178.267 740.058,-171.673"/>
<polygon fill="black" stroke="black" points="742.001,-168.737 732.078,-165.024 737.52,-174.115 742.001,-168.737"/>
</g>
<!-- xfce4_load_profile&#45;&gt;chj_bin -->
<g id="edge76" class="edge"><title>xfce4_load_profile&#45;&gt;chj_bin</title>
<path fill="none" stroke="black" d="M628.453,-403.858C516.368,-398.406 316.73,-385.373 294.944,-361 284.281,-349.071 288.236,-339.526 294.944,-325 299.846,-314.385 308.539,-305.317 317.536,-298.108"/>
<polygon fill="black" stroke="black" points="319.818,-300.774 325.785,-292.02 315.661,-295.142 319.818,-300.774"/>
</g>
<!-- xfce4_load_profile&#45;&gt;xfce -->
<g id="edge77" class="edge"><title>xfce4_load_profile&#45;&gt;xfce</title>
<path fill="none" stroke="black" d="M717.343,-390.117C722.951,-383.051 729.56,-374.723 735.608,-367.103"/>
<polygon fill="black" stroke="black" points="738.401,-369.214 741.876,-359.205 732.918,-364.862 738.401,-369.214"/>
</g>
</g>
</svg>
