<?xml version="1.0" encoding="UTF-8" standalone="no"?>
<!DOCTYPE svg PUBLIC "-//W3C//DTD SVG 1.1//EN"
 "http://www.w3.org/Graphics/SVG/1.1/DTD/svg11.dtd">
<!-- Generated by graphviz version 2.38.0 (20140413.2041)
 -->
<!-- Title: foo Pages: 1 -->
<svg width="1517pt" height="629pt"
 viewBox="0.00 0.00 1517.35 629.00" xmlns="http://www.w3.org/2000/svg" xmlns:xlink="http://www.w3.org/1999/xlink">
<g id="graph0" class="graph" transform="scale(1 1) rotate(0) translate(4 625)">
<title>foo</title>
<polygon fill="white" stroke="none" points="-4,4 -4,-625 1513.35,-625 1513.35,4 -4,4"/>
<!-- _bs -->
<g id="node1" class="node"><title>_bs</title>
<ellipse fill="none" stroke="grey" cx="1276" cy="-83" rx="27" ry="18"/>
<text text-anchor="middle" x="1276" y="-79.3" font-family="Times,serif" font-size="14.00">.bs</text>
</g>
<!-- _usr_local_bin_fastrandom -->
<g id="node2" class="node"><title>_usr_local_bin_fastrandom</title>
<ellipse fill="none" stroke="grey" cx="660" cy="-278" rx="99.3824" ry="18"/>
<text text-anchor="middle" x="660" y="-274.3" font-family="Times,serif" font-size="14.00">/usr/local/bin/fastrandom</text>
</g>
<!-- _vncserver -->
<g id="node3" class="node"><title>_vncserver</title>
<ellipse fill="none" stroke="blue" cx="1344" cy="-538" rx="49.2915" ry="18"/>
<text text-anchor="middle" x="1344" y="-534.3" font-family="Times,serif" font-size="14.00">_vncserver</text>
</g>
<!-- chj_bin -->
<g id="node5" class="node"><title>chj_bin</title>
<ellipse fill="none" stroke="blue" cx="1192" cy="-278" rx="35.9954" ry="18"/>
<text text-anchor="middle" x="1192" y="-274.3" font-family="Times,serif" font-size="14.00">chj&#45;bin</text>
</g>
<!-- _vncserver&#45;&gt;chj_bin -->
<g id="edge3" class="edge"><title>_vncserver&#45;&gt;chj_bin</title>
<path fill="none" stroke="black" d="M1349.9,-520C1362.69,-479.683 1387.78,-377.716 1335,-325 1309.14,-299.17 1268.73,-287.835 1237.46,-282.866"/>
<polygon fill="black" stroke="black" points="1237.63,-279.355 1227.24,-281.413 1236.64,-286.286 1237.63,-279.355"/>
</g>
<!-- desktop -->
<g id="node17" class="node"><title>desktop</title>
<ellipse fill="none" stroke="blue" cx="1161" cy="-473" rx="38.1938" ry="18"/>
<text text-anchor="middle" x="1161" y="-469.3" font-family="Times,serif" font-size="14.00">desktop</text>
</g>
<!-- _vncserver&#45;&gt;desktop -->
<g id="edge2" class="edge"><title>_vncserver&#45;&gt;desktop</title>
<path fill="none" stroke="black" d="M1308.71,-525.288C1281.21,-516.109 1242.11,-502.937 1208,-491 1205.31,-490.06 1202.54,-489.081 1199.75,-488.089"/>
<polygon fill="black" stroke="black" points="1200.89,-484.78 1190.3,-484.705 1198.54,-491.371 1200.89,-484.78"/>
</g>
<!-- perhaps_aptupdate -->
<g id="node32" class="node"><title>perhaps_aptupdate</title>
<ellipse fill="none" stroke="blue" cx="905" cy="-148" rx="76.8869" ry="18"/>
<text text-anchor="middle" x="905" y="-144.3" font-family="Times,serif" font-size="14.00">perhaps_aptupdate</text>
</g>
<!-- _vncserver&#45;&gt;perhaps_aptupdate -->
<g id="edge1" class="edge"><title>_vncserver&#45;&gt;perhaps_aptupdate</title>
<path fill="none" stroke="black" d="M1358.51,-520.737C1365.05,-512.432 1372.15,-501.814 1376,-491 1400.86,-421.219 1404.92,-384.655 1361,-325 1330.67,-283.802 1312.08,-282.215 1266,-260 1167.7,-212.616 1044.65,-179.93 970.562,-162.856"/>
<polygon fill="black" stroke="black" points="970.969,-159.359 960.442,-160.551 969.414,-166.185 970.969,-159.359"/>
</g>
<!-- chj -->
<g id="node4" class="node"><title>chj</title>
<ellipse fill="none" stroke="blue" cx="649" cy="-408" rx="27" ry="18"/>
<text text-anchor="middle" x="649" y="-404.3" font-family="Times,serif" font-size="14.00">chj</text>
</g>
<!-- chj&#45;&gt;chj_bin -->
<g id="edge6" class="edge"><title>chj&#45;&gt;chj_bin</title>
<path fill="none" stroke="black" d="M675.936,-405.75C749.485,-402 952.218,-389.306 1012,-361 1033.03,-351.044 1029.95,-336.798 1050,-325 1086.95,-303.258 1101.26,-309.346 1142,-296 1145.76,-294.767 1149.68,-293.466 1153.59,-292.155"/>
<polygon fill="black" stroke="black" points="1154.86,-295.422 1163.22,-288.909 1152.62,-288.789 1154.86,-295.422"/>
</g>
<!-- chj_emacs -->
<g id="node6" class="node"><title>chj_emacs</title>
<ellipse fill="none" stroke="blue" cx="344" cy="-278" rx="46.5926" ry="18"/>
<text text-anchor="middle" x="344" y="-274.3" font-family="Times,serif" font-size="14.00">chj&#45;emacs</text>
</g>
<!-- chj&#45;&gt;chj_emacs -->
<g id="edge7" class="edge"><title>chj&#45;&gt;chj_emacs</title>
<path fill="none" stroke="black" d="M622.127,-404.79C565,-399.668 433.707,-385.512 397,-361 377.045,-347.674 362.953,-324.013 354.342,-305.521"/>
<polygon fill="black" stroke="black" points="357.45,-303.893 350.227,-296.141 351.039,-306.705 357.45,-303.893"/>
</g>
<!-- cj_git_patchtool -->
<g id="node12" class="node"><title>cj_git_patchtool</title>
<ellipse fill="none" stroke="blue" cx="828" cy="-343" rx="64.9885" ry="18"/>
<text text-anchor="middle" x="828" y="-339.3" font-family="Times,serif" font-size="14.00">cj&#45;git&#45;patchtool</text>
</g>
<!-- chj&#45;&gt;cj_git_patchtool -->
<g id="edge9" class="edge"><title>chj&#45;&gt;cj_git_patchtool</title>
<path fill="none" stroke="black" d="M672.401,-398.764C699.6,-389.191 745.202,-373.141 780.026,-360.885"/>
<polygon fill="black" stroke="black" points="781.267,-364.158 789.538,-357.537 778.943,-357.555 781.267,-364.158"/>
</g>
<!-- debianpackages -->
<g id="node16" class="node"><title>debianpackages</title>
<ellipse fill="none" stroke="blue" cx="844" cy="-278" rx="66.0889" ry="18"/>
<text text-anchor="middle" x="844" y="-274.3" font-family="Times,serif" font-size="14.00">debianpackages</text>
</g>
<!-- chj&#45;&gt;debianpackages -->
<g id="edge5" class="edge"><title>chj&#45;&gt;debianpackages</title>
<path fill="none" stroke="black" d="M659.388,-391.002C671.983,-372.743 694.805,-343.078 721,-325 740.77,-311.356 765.102,-301.151 786.892,-293.865"/>
<polygon fill="black" stroke="black" points="788.245,-297.107 796.699,-290.721 786.108,-290.441 788.245,-297.107"/>
</g>
<!-- fastrandom -->
<g id="node21" class="node"><title>fastrandom</title>
<ellipse fill="none" stroke="blue" cx="618" cy="-343" rx="50.8918" ry="18"/>
<text text-anchor="middle" x="618" y="-339.3" font-family="Times,serif" font-size="14.00">fastrandom</text>
</g>
<!-- chj&#45;&gt;fastrandom -->
<g id="edge8" class="edge"><title>chj&#45;&gt;fastrandom</title>
<path fill="none" stroke="black" d="M641.017,-390.776C637.909,-384.46 634.269,-377.062 630.812,-370.038"/>
<polygon fill="black" stroke="black" points="633.836,-368.256 626.281,-360.829 627.555,-371.346 633.836,-368.256"/>
</g>
<!-- git_sign -->
<g id="node25" class="node"><title>git_sign</title>
<ellipse fill="none" stroke="blue" cx="468" cy="-83" rx="37.8943" ry="18"/>
<text text-anchor="middle" x="468" y="-79.3" font-family="Times,serif" font-size="14.00">git&#45;sign</text>
</g>
<!-- chj&#45;&gt;git_sign -->
<g id="edge4" class="edge"><title>chj&#45;&gt;git_sign</title>
<path fill="none" stroke="black" d="M622.097,-405.447C569.033,-401.763 453.935,-390.484 430,-361 419.636,-348.233 387.477,-288.022 438,-130 440.395,-122.508 444.363,-115.067 448.64,-108.423"/>
<polygon fill="black" stroke="black" points="451.712,-110.135 454.546,-99.9265 445.964,-106.14 451.712,-110.135"/>
</g>
<!-- chj_bin&#45;&gt;_bs -->
<g id="edge10" class="edge"><title>chj_bin&#45;&gt;_bs</title>
<path fill="none" stroke="black" d="M1224.04,-269.863C1250.03,-262.966 1286.71,-250.631 1314,-231 1344.26,-209.231 1354.5,-201.116 1367,-166 1372.37,-150.927 1375.38,-143.629 1367,-130 1354.86,-110.264 1331.35,-98.6843 1311.26,-92.08"/>
<polygon fill="black" stroke="black" points="1312.03,-88.6568 1301.45,-89.1433 1310.03,-95.363 1312.03,-88.6568"/>
</g>
<!-- chj_perllib -->
<g id="node9" class="node"><title>chj_perllib</title>
<ellipse fill="none" stroke="blue" cx="1258" cy="-213" rx="47.3916" ry="18"/>
<text text-anchor="middle" x="1258" y="-209.3" font-family="Times,serif" font-size="14.00">chj&#45;perllib</text>
</g>
<!-- chj_bin&#45;&gt;chj_perllib -->
<g id="edge12" class="edge"><title>chj_bin&#45;&gt;chj_perllib</title>
<path fill="none" stroke="black" d="M1207.98,-261.749C1215.77,-254.314 1225.3,-245.215 1233.95,-236.961"/>
<polygon fill="black" stroke="black" points="1236.43,-239.426 1241.25,-229.989 1231.6,-234.362 1236.43,-239.426"/>
</g>
<!-- chj_bin&#45;&gt;git_sign -->
<g id="edge11" class="edge"><title>chj_bin&#45;&gt;git_sign</title>
<path fill="none" stroke="black" d="M1191.88,-259.947C1190.64,-228.463 1183.03,-161.55 1142,-130 1092.68,-92.0731 662.067,-85.416 516.128,-84.2482"/>
<polygon fill="black" stroke="black" points="515.743,-80.7453 505.717,-84.1704 515.69,-87.7451 515.743,-80.7453"/>
</g>
<!-- chj_emacs_checkout -->
<g id="node7" class="node"><title>chj_emacs_checkout</title>
<ellipse fill="none" stroke="blue" cx="310" cy="-148" rx="81.4863" ry="18"/>
<text text-anchor="middle" x="310" y="-144.3" font-family="Times,serif" font-size="14.00">chj&#45;emacs&#45;checkout</text>
</g>
<!-- chj_emacs&#45;&gt;chj_emacs_checkout -->
<g id="edge13" class="edge"><title>chj_emacs&#45;&gt;chj_emacs_checkout</title>
<path fill="none" stroke="black" d="M339.485,-260.003C333.77,-238.485 323.858,-201.171 317.119,-175.801"/>
<polygon fill="black" stroke="black" points="320.484,-174.834 314.534,-166.068 313.718,-176.631 320.484,-174.834"/>
</g>
<!-- chj_emacs_checkout&#45;&gt;git_sign -->
<g id="edge14" class="edge"><title>chj_emacs_checkout&#45;&gt;git_sign</title>
<path fill="none" stroke="black" d="M347.845,-131.91C372.83,-121.948 405.434,-108.947 430.374,-99.0027"/>
<polygon fill="black" stroke="black" points="431.873,-102.173 439.865,-95.2183 429.28,-95.6711 431.873,-102.173"/>
</g>
<!-- chj_fastrandom -->
<g id="node8" class="node"><title>chj_fastrandom</title>
<ellipse fill="none" stroke="green" cx="92" cy="-148" rx="64.189" ry="18"/>
<text text-anchor="middle" x="92" y="-144.3" font-family="Times,serif" font-size="14.00">chj&#45;fastrandom</text>
</g>
<!-- chj_fastrandom&#45;&gt;git_sign -->
<g id="edge15" class="edge"><title>chj_fastrandom&#45;&gt;git_sign</title>
<path fill="none" stroke="black" d="M140.172,-136.016C150.018,-133.908 160.326,-131.799 170,-130 258.849,-113.476 363.383,-98.3197 422.043,-90.2004"/>
<polygon fill="black" stroke="black" points="422.671,-93.6471 432.1,-88.8153 421.716,-86.7126 422.671,-93.6471"/>
</g>
<!-- chj_perllib_checkout -->
<g id="node10" class="node"><title>chj_perllib_checkout</title>
<ellipse fill="none" stroke="blue" cx="1276" cy="-148" rx="81.7856" ry="18"/>
<text text-anchor="middle" x="1276" y="-144.3" font-family="Times,serif" font-size="14.00">chj&#45;perllib&#45;checkout</text>
</g>
<!-- chj_perllib&#45;&gt;chj_perllib_checkout -->
<g id="edge16" class="edge"><title>chj_perllib&#45;&gt;chj_perllib_checkout</title>
<path fill="none" stroke="black" d="M1262.92,-194.785C1264.59,-188.951 1266.49,-182.288 1268.32,-175.885"/>
<polygon fill="black" stroke="black" points="1271.71,-176.771 1271.09,-166.194 1264.97,-174.848 1271.71,-176.771"/>
</g>
<!-- chj_perllib_checkout&#45;&gt;_bs -->
<g id="edge17" class="edge"><title>chj_perllib_checkout&#45;&gt;_bs</title>
<path fill="none" stroke="black" d="M1276,-129.785C1276,-124.09 1276,-117.605 1276,-111.343"/>
<polygon fill="black" stroke="black" points="1279.5,-111.194 1276,-101.194 1272.5,-111.194 1279.5,-111.194"/>
</g>
<!-- chj_perllib_checkout&#45;&gt;git_sign -->
<g id="edge18" class="edge"><title>chj_perllib_checkout&#45;&gt;git_sign</title>
<path fill="none" stroke="black" d="M1217.01,-135.493C1204.81,-133.412 1192.02,-131.447 1180,-130 931.052,-100.009 630.616,-88.6859 515.781,-85.2601"/>
<polygon fill="black" stroke="black" points="515.673,-81.7555 505.575,-84.962 515.469,-88.7526 515.673,-81.7555"/>
</g>
<!-- chjvncserver -->
<g id="node11" class="node"><title>chjvncserver</title>
<ellipse fill="none" stroke="green" cx="823" cy="-603" rx="55.7903" ry="18"/>
<text text-anchor="middle" x="823" y="-599.3" font-family="Times,serif" font-size="14.00">chjvncserver</text>
</g>
<!-- chjvncserver&#45;&gt;_vncserver -->
<g id="edge22" class="edge"><title>chjvncserver&#45;&gt;_vncserver</title>
<path fill="none" stroke="black" d="M876.592,-597.675C958.27,-590.768 1118.7,-575.966 1254,-556 1266.29,-554.186 1279.46,-551.897 1291.83,-549.59"/>
<polygon fill="black" stroke="black" points="1292.82,-552.964 1301.99,-547.659 1291.52,-546.087 1292.82,-552.964"/>
</g>
<!-- chjvncserver&#45;&gt;debianpackages -->
<g id="edge19" class="edge"><title>chjvncserver&#45;&gt;debianpackages</title>
<path fill="none" stroke="black" d="M802.59,-586.218C776.594,-564.164 735,-521.463 735,-474 735,-474 735,-474 735,-407 735,-369.59 730.975,-354.485 754,-325 763.745,-312.52 777.803,-303.123 791.921,-296.186"/>
<polygon fill="black" stroke="black" points="793.514,-299.306 801.163,-291.975 790.612,-292.937 793.514,-299.306"/>
</g>
<!-- chjvncserver&#45;&gt;desktop -->
<g id="edge21" class="edge"><title>chjvncserver&#45;&gt;desktop</title>
<path fill="none" stroke="black" d="M857.899,-588.784C921.591,-564.664 1056.21,-513.686 1122.48,-488.587"/>
<polygon fill="black" stroke="black" points="1124.02,-491.748 1132.13,-484.933 1121.54,-485.202 1124.02,-491.748"/>
</g>
<!-- urxvt -->
<g id="node35" class="node"><title>urxvt</title>
<ellipse fill="none" stroke="blue" cx="697" cy="-213" rx="29.4969" ry="18"/>
<text text-anchor="middle" x="697" y="-209.3" font-family="Times,serif" font-size="14.00">urxvt</text>
</g>
<!-- chjvncserver&#45;&gt;urxvt -->
<g id="edge20" class="edge"><title>chjvncserver&#45;&gt;urxvt</title>
<path fill="none" stroke="black" d="M767.23,-600.875C684.521,-595.914 539,-573.105 539,-474 539,-474 539,-474 539,-407 539,-341.412 510.968,-311.168 552,-260 558.987,-251.287 620.055,-234.003 660.68,-223.28"/>
<polygon fill="black" stroke="black" points="661.734,-226.622 670.522,-220.704 659.962,-219.85 661.734,-226.622"/>
</g>
<!-- cj_git_patchtool&#45;&gt;chj_bin -->
<g id="edge24" class="edge"><title>cj_git_patchtool&#45;&gt;chj_bin</title>
<path fill="none" stroke="black" d="M883.563,-333.572C940.33,-324.804 1030.97,-310.372 1109,-296 1122.24,-293.561 1136.62,-290.693 1149.64,-288.015"/>
<polygon fill="black" stroke="black" points="1150.66,-291.378 1159.74,-285.919 1149.23,-284.524 1150.66,-291.378"/>
</g>
<!-- cj_git_patchtool&#45;&gt;debianpackages -->
<g id="edge23" class="edge"><title>cj_git_patchtool&#45;&gt;debianpackages</title>
<path fill="none" stroke="black" d="M832.372,-324.785C833.818,-319.09 835.465,-312.605 837.056,-306.343"/>
<polygon fill="black" stroke="black" points="840.564,-306.748 839.633,-296.194 833.779,-305.025 840.564,-306.748"/>
</g>
<!-- cj_git_patchtool&#45;&gt;git_sign -->
<g id="edge25" class="edge"><title>cj_git_patchtool&#45;&gt;git_sign</title>
<path fill="none" stroke="black" d="M866.461,-328.4C883.957,-320.835 904.044,-310.071 919,-296 948.286,-268.448 1018.16,-159.652 991,-130 959.258,-95.3434 639.22,-86.6718 516.002,-84.6101"/>
<polygon fill="black" stroke="black" points="515.796,-81.1065 505.741,-84.4462 515.684,-88.1056 515.796,-81.1065"/>
</g>
<!-- cplusplus -->
<g id="node13" class="node"><title>cplusplus</title>
<ellipse fill="none" stroke="blue" cx="568" cy="-213" rx="44.393" ry="18"/>
<text text-anchor="middle" x="568" y="-209.3" font-family="Times,serif" font-size="14.00">cplusplus</text>
</g>
<!-- cplusplus&#45;&gt;perhaps_aptupdate -->
<g id="edge26" class="edge"><title>cplusplus&#45;&gt;perhaps_aptupdate</title>
<path fill="none" stroke="black" d="M607.318,-204.65C663.666,-194.116 768.184,-174.577 837.166,-161.681"/>
<polygon fill="black" stroke="black" points="837.889,-165.107 847.076,-159.829 836.603,-158.226 837.889,-165.107"/>
</g>
<!-- debian_emacs -->
<g id="node14" class="node"><title>debian_emacs</title>
<ellipse fill="none" stroke="blue" cx="219" cy="-278" rx="59.5901" ry="18"/>
<text text-anchor="middle" x="219" y="-274.3" font-family="Times,serif" font-size="14.00">debian&#45;emacs</text>
</g>
<!-- debian_upgrade -->
<g id="node15" class="node"><title>debian_upgrade</title>
<ellipse fill="none" stroke="blue" cx="1033" cy="-278" rx="66.8882" ry="18"/>
<text text-anchor="middle" x="1033" y="-274.3" font-family="Times,serif" font-size="14.00">debian_upgrade</text>
</g>
<!-- debian_upgrade&#45;&gt;perhaps_aptupdate -->
<g id="edge27" class="edge"><title>debian_upgrade&#45;&gt;perhaps_aptupdate</title>
<path fill="none" stroke="black" d="M1018.32,-260.211C1003.35,-243.309 979.213,-216.704 957,-195 949.241,-187.419 940.511,-179.483 932.451,-172.378"/>
<polygon fill="black" stroke="black" points="934.512,-169.532 924.675,-165.595 929.91,-174.806 934.512,-169.532"/>
</g>
<!-- debianpackages&#45;&gt;urxvt -->
<g id="edge28" class="edge"><title>debianpackages&#45;&gt;urxvt</title>
<path fill="none" stroke="black" d="M809.066,-262.48C787.641,-253.519 759.677,-241.725 735,-231 733.161,-230.201 731.274,-229.375 729.371,-228.537"/>
<polygon fill="black" stroke="black" points="730.433,-225.18 719.873,-224.327 727.596,-231.58 730.433,-225.18"/>
</g>
<!-- desktop&#45;&gt;chj -->
<g id="edge29" class="edge"><title>desktop&#45;&gt;chj</title>
<path fill="none" stroke="black" d="M1124.18,-467.469C1029.68,-455.842 779.446,-425.051 685.408,-413.48"/>
<polygon fill="black" stroke="black" points="685.602,-409.977 675.249,-412.23 684.747,-416.925 685.602,-409.977"/>
</g>
<!-- xfce4_load_profile -->
<g id="node39" class="node"><title>xfce4_load_profile</title>
<ellipse fill="none" stroke="blue" cx="1270" cy="-408" rx="77.1866" ry="18"/>
<text text-anchor="middle" x="1270" y="-404.3" font-family="Times,serif" font-size="14.00">xfce4_load_profile</text>
</g>
<!-- desktop&#45;&gt;xfce4_load_profile -->
<g id="edge30" class="edge"><title>desktop&#45;&gt;xfce4_load_profile</title>
<path fill="none" stroke="black" d="M1184.38,-458.485C1198.74,-450.187 1217.43,-439.386 1233.68,-429.992"/>
<polygon fill="black" stroke="black" points="1235.51,-432.978 1242.42,-424.943 1232.01,-426.917 1235.51,-432.978"/>
</g>
<!-- desktop_autoremove -->
<g id="node18" class="node"><title>desktop_autoremove</title>
<ellipse fill="none" stroke="green" cx="1161" cy="-538" rx="84.485" ry="18"/>
<text text-anchor="middle" x="1161" y="-534.3" font-family="Times,serif" font-size="14.00">desktop_autoremove</text>
</g>
<!-- desktop_autoremove&#45;&gt;desktop -->
<g id="edge31" class="edge"><title>desktop_autoremove&#45;&gt;desktop</title>
<path fill="none" stroke="black" d="M1161,-519.785C1161,-514.09 1161,-507.605 1161,-501.343"/>
<polygon fill="black" stroke="black" points="1164.5,-501.194 1161,-491.194 1157.5,-501.194 1164.5,-501.194"/>
</g>
<!-- dnsresolver -->
<g id="node19" class="node"><title>dnsresolver</title>
<ellipse fill="none" stroke="green" cx="1458" cy="-603" rx="51.1914" ry="18"/>
<text text-anchor="middle" x="1458" y="-599.3" font-family="Times,serif" font-size="14.00">dnsresolver</text>
</g>
<!-- emacs -->
<g id="node20" class="node"><title>emacs</title>
<ellipse fill="none" stroke="green" cx="259" cy="-343" rx="33.2948" ry="18"/>
<text text-anchor="middle" x="259" y="-339.3" font-family="Times,serif" font-size="14.00">emacs</text>
</g>
<!-- emacs&#45;&gt;chj_emacs -->
<g id="edge33" class="edge"><title>emacs&#45;&gt;chj_emacs</title>
<path fill="none" stroke="black" d="M277.864,-328.018C288.832,-319.889 302.88,-309.477 315.205,-300.342"/>
<polygon fill="black" stroke="black" points="317.454,-303.032 323.404,-294.266 313.286,-297.408 317.454,-303.032"/>
</g>
<!-- emacs&#45;&gt;debian_emacs -->
<g id="edge32" class="edge"><title>emacs&#45;&gt;debian_emacs</title>
<path fill="none" stroke="black" d="M248.699,-325.776C244.597,-319.316 239.778,-311.725 235.229,-304.56"/>
<polygon fill="black" stroke="black" points="238,-302.395 229.685,-295.829 232.09,-306.147 238,-302.395"/>
</g>
<!-- fastrandom&#45;&gt;_usr_local_bin_fastrandom -->
<g id="edge34" class="edge"><title>fastrandom&#45;&gt;_usr_local_bin_fastrandom</title>
<path fill="none" stroke="black" d="M629.255,-325.117C633.492,-318.762 638.409,-311.386 643.052,-304.422"/>
<polygon fill="black" stroke="black" points="646.079,-306.191 648.714,-295.929 640.254,-302.308 646.079,-306.191"/>
</g>
<!-- fperl -->
<g id="node22" class="node"><title>fperl</title>
<ellipse fill="none" stroke="green" cx="976" cy="-343" rx="27.0966" ry="18"/>
<text text-anchor="middle" x="976" y="-339.3" font-family="Times,serif" font-size="14.00">fperl</text>
</g>
<!-- fperl&#45;&gt;chj_bin -->
<g id="edge37" class="edge"><title>fperl&#45;&gt;chj_bin</title>
<path fill="none" stroke="black" d="M997.88,-332.145C1003.99,-329.608 1010.69,-327.025 1017,-325 1071.3,-307.574 1087.16,-311.643 1142,-296 1146.02,-294.854 1150.19,-293.578 1154.33,-292.253"/>
<polygon fill="black" stroke="black" points="1155.46,-295.567 1163.86,-289.116 1153.27,-288.919 1155.46,-295.567"/>
</g>
<!-- fperl&#45;&gt;debianpackages -->
<g id="edge36" class="edge"><title>fperl&#45;&gt;debianpackages</title>
<path fill="none" stroke="black" d="M954.498,-331.738C935.621,-322.728 907.653,-309.38 884.579,-298.367"/>
<polygon fill="black" stroke="black" points="885.889,-295.114 875.357,-293.966 882.874,-301.432 885.889,-295.114"/>
</g>
<!-- fperl&#45;&gt;git_sign -->
<g id="edge35" class="edge"><title>fperl&#45;&gt;git_sign</title>
<path fill="none" stroke="black" d="M996.009,-330.554C999.917,-328.553 1004.03,-326.602 1008,-325 1051.3,-307.505 1080.9,-333.303 1109,-296 1160.88,-227.121 1102.29,-180.962 1009,-130 924.684,-83.9419 631.619,-82.0672 515.712,-83.2149"/>
<polygon fill="black" stroke="black" points="515.672,-79.7151 505.712,-83.326 515.75,-86.7146 515.672,-79.7151"/>
</g>
<!-- gambit -->
<g id="node23" class="node"><title>gambit</title>
<ellipse fill="none" stroke="blue" cx="475" cy="-343" rx="35.9954" ry="18"/>
<text text-anchor="middle" x="475" y="-339.3" font-family="Times,serif" font-size="14.00">gambit</text>
</g>
<!-- gambit&#45;&gt;chj_bin -->
<g id="edge41" class="edge"><title>gambit&#45;&gt;chj_bin</title>
<path fill="none" stroke="black" d="M506.739,-334.339C522.126,-330.924 540.93,-327.185 558,-325 801.243,-293.866 865.757,-327.134 1109,-296 1122.47,-294.276 1137.02,-291.585 1150.12,-288.848"/>
<polygon fill="black" stroke="black" points="1151.22,-292.189 1160.26,-286.661 1149.75,-285.347 1151.22,-292.189"/>
</g>
<!-- gambit&#45;&gt;chj_emacs -->
<g id="edge42" class="edge"><title>gambit&#45;&gt;chj_emacs</title>
<path fill="none" stroke="black" d="M450.052,-330.002C430.565,-320.63 403.183,-307.462 381.124,-296.854"/>
<polygon fill="black" stroke="black" points="382.564,-293.662 372.035,-292.482 379.53,-299.971 382.564,-293.662"/>
</g>
<!-- gambit&#45;&gt;cplusplus -->
<g id="edge39" class="edge"><title>gambit&#45;&gt;cplusplus</title>
<path fill="none" stroke="black" d="M482.137,-325.028C489.841,-307.746 503.161,-280.633 519,-260 525.501,-251.531 533.615,-243.24 541.358,-236.081"/>
<polygon fill="black" stroke="black" points="543.781,-238.609 548.904,-229.335 539.116,-233.391 543.781,-238.609"/>
</g>
<!-- gambit&#45;&gt;debianpackages -->
<g id="edge40" class="edge"><title>gambit&#45;&gt;debianpackages</title>
<path fill="none" stroke="black" d="M507.23,-334.892C522.564,-331.641 541.183,-327.88 558,-325 650.867,-309.095 675.28,-312.742 768,-296 773.796,-294.953 779.82,-293.771 785.827,-292.529"/>
<polygon fill="black" stroke="black" points="786.821,-295.896 795.877,-290.396 785.368,-289.048 786.821,-295.896"/>
</g>
<!-- gambit_checkout -->
<g id="node24" class="node"><title>gambit_checkout</title>
<ellipse fill="none" stroke="blue" cx="517" cy="-148" rx="70.3881" ry="18"/>
<text text-anchor="middle" x="517" y="-144.3" font-family="Times,serif" font-size="14.00">gambit&#45;checkout</text>
</g>
<!-- gambit&#45;&gt;gambit_checkout -->
<g id="edge38" class="edge"><title>gambit&#45;&gt;gambit_checkout</title>
<path fill="none" stroke="black" d="M478.727,-324.873C486.044,-291.252 502.335,-216.389 511.118,-176.029"/>
<polygon fill="black" stroke="black" points="514.575,-176.605 513.281,-166.089 507.735,-175.116 514.575,-176.605"/>
</g>
<!-- gambit_checkout&#45;&gt;_bs -->
<g id="edge43" class="edge"><title>gambit_checkout&#45;&gt;_bs</title>
<path fill="none" stroke="black" d="M582.698,-141.547C737.035,-128.736 1118.75,-97.0521 1239.06,-87.0659"/>
<polygon fill="black" stroke="black" points="1239.55,-90.5374 1249.23,-86.2221 1238.97,-83.5614 1239.55,-90.5374"/>
</g>
<!-- gambit_checkout&#45;&gt;git_sign -->
<g id="edge44" class="edge"><title>gambit_checkout&#45;&gt;git_sign</title>
<path fill="none" stroke="black" d="M503.869,-130.117C498.653,-123.411 492.553,-115.568 486.879,-108.273"/>
<polygon fill="black" stroke="black" points="489.394,-105.805 480.492,-100.061 483.868,-110.103 489.394,-105.805"/>
</g>
<!-- key -->
<g id="node27" class="node"><title>key</title>
<ellipse fill="none" stroke="blue" cx="234" cy="-18" rx="27" ry="18"/>
<text text-anchor="middle" x="234" y="-14.3" font-family="Times,serif" font-size="14.00">key</text>
</g>
<!-- git_sign&#45;&gt;key -->
<g id="edge45" class="edge"><title>git_sign&#45;&gt;key</title>
<path fill="none" stroke="black" d="M435.954,-73.3722C392.059,-61.5544 313.552,-40.4178 268.438,-28.2719"/>
<polygon fill="black" stroke="black" points="269.102,-24.826 258.536,-25.6059 267.282,-31.5854 269.102,-24.826"/>
</g>
<!-- graph_deps -->
<g id="node26" class="node"><title>graph_deps</title>
<ellipse fill="none" stroke="green" cx="794" cy="-213" rx="50.0912" ry="18"/>
<text text-anchor="middle" x="794" y="-209.3" font-family="Times,serif" font-size="14.00">graph&#45;deps</text>
</g>
<!-- graph_deps&#45;&gt;perhaps_aptupdate -->
<g id="edge46" class="edge"><title>graph_deps&#45;&gt;perhaps_aptupdate</title>
<path fill="none" stroke="black" d="M819.745,-197.388C834.092,-189.245 852.207,-178.963 868.045,-169.974"/>
<polygon fill="black" stroke="black" points="870.092,-172.837 877.062,-164.857 866.637,-166.749 870.092,-172.837"/>
</g>
<!-- load_profile -->
<g id="node28" class="node"><title>load_profile</title>
<ellipse fill="none" stroke="green" cx="1271" cy="-473" rx="53.8905" ry="18"/>
<text text-anchor="middle" x="1271" y="-469.3" font-family="Times,serif" font-size="14.00">load_profile</text>
</g>
<!-- load_profile&#45;&gt;xfce4_load_profile -->
<g id="edge47" class="edge"><title>load_profile&#45;&gt;xfce4_load_profile</title>
<path fill="none" stroke="black" d="M1270.73,-454.785C1270.64,-449.09 1270.53,-442.605 1270.43,-436.343"/>
<polygon fill="black" stroke="black" points="1273.93,-436.137 1270.27,-426.194 1266.93,-436.249 1273.93,-436.137"/>
</g>
<!-- locales -->
<g id="node29" class="node"><title>locales</title>
<ellipse fill="none" stroke="blue" cx="1094" cy="-343" rx="35.194" ry="18"/>
<text text-anchor="middle" x="1094" y="-339.3" font-family="Times,serif" font-size="14.00">locales</text>
</g>
<!-- locales&#45;&gt;chj_bin -->
<g id="edge48" class="edge"><title>locales&#45;&gt;chj_bin</title>
<path fill="none" stroke="black" d="M1115.26,-328.33C1129.01,-319.496 1147.09,-307.874 1162.24,-298.129"/>
<polygon fill="black" stroke="black" points="1164.26,-300.995 1170.78,-292.643 1160.47,-295.107 1164.26,-300.995"/>
</g>
<!-- mercurial -->
<g id="node30" class="node"><title>mercurial</title>
<ellipse fill="none" stroke="green" cx="1192" cy="-343" rx="44.6926" ry="18"/>
<text text-anchor="middle" x="1192" y="-339.3" font-family="Times,serif" font-size="14.00">mercurial</text>
</g>
<!-- mercurial&#45;&gt;chj_bin -->
<g id="edge49" class="edge"><title>mercurial&#45;&gt;chj_bin</title>
<path fill="none" stroke="black" d="M1192,-324.785C1192,-319.09 1192,-312.605 1192,-306.343"/>
<polygon fill="black" stroke="black" points="1195.5,-306.194 1192,-296.194 1188.5,-306.194 1195.5,-306.194"/>
</g>
<!-- moduser -->
<g id="node31" class="node"><title>moduser</title>
<ellipse fill="none" stroke="green" cx="629" cy="-473" rx="41.6928" ry="18"/>
<text text-anchor="middle" x="629" y="-469.3" font-family="Times,serif" font-size="14.00">moduser</text>
</g>
<!-- moduser&#45;&gt;chj -->
<g id="edge50" class="edge"><title>moduser&#45;&gt;chj</title>
<path fill="none" stroke="black" d="M634.36,-455.117C636.243,-449.185 638.408,-442.365 640.486,-435.82"/>
<polygon fill="black" stroke="black" points="643.936,-436.52 643.626,-425.929 637.264,-434.402 643.936,-436.52"/>
</g>
<!-- moduser&#45;&gt;key -->
<g id="edge51" class="edge"><title>moduser&#45;&gt;key</title>
<path fill="none" stroke="black" d="M587.242,-472.418C446.758,-472.716 0,-464.215 0,-344 0,-344 0,-344 0,-147 0,-58.2124 131.272,-30.6206 197.172,-22.3632"/>
<polygon fill="black" stroke="black" points="197.631,-25.8335 207.157,-21.1975 196.819,-18.8807 197.631,-25.8335"/>
</g>
<!-- qemu -->
<g id="node33" class="node"><title>qemu</title>
<ellipse fill="none" stroke="green" cx="303" cy="-408" rx="30.5947" ry="18"/>
<text text-anchor="middle" x="303" y="-404.3" font-family="Times,serif" font-size="14.00">qemu</text>
</g>
<!-- qemu&#45;&gt;gambit -->
<g id="edge53" class="edge"><title>qemu&#45;&gt;gambit</title>
<path fill="none" stroke="black" d="M328.379,-397.704C357.088,-387.189 404.134,-369.957 437.175,-357.855"/>
<polygon fill="black" stroke="black" points="438.757,-361.002 446.943,-354.277 436.35,-354.429 438.757,-361.002"/>
</g>
<!-- qemu&#45;&gt;git_sign -->
<g id="edge52" class="edge"><title>qemu&#45;&gt;git_sign</title>
<path fill="none" stroke="black" d="M279.328,-396.547C261.441,-388.136 236.691,-375.379 217,-361 173.496,-329.233 136.831,-312.233 150,-260 166.042,-196.37 166.981,-168.667 220,-130 251.336,-107.146 358.047,-93.8953 420.818,-87.9001"/>
<polygon fill="black" stroke="black" points="421.239,-91.3761 430.872,-86.9658 420.591,-84.4061 421.239,-91.3761"/>
</g>
<!-- system -->
<g id="node34" class="node"><title>system</title>
<ellipse fill="none" stroke="green" cx="1007" cy="-408" rx="35.9954" ry="18"/>
<text text-anchor="middle" x="1007" y="-404.3" font-family="Times,serif" font-size="14.00">system</text>
</g>
<!-- system&#45;&gt;debian_upgrade -->
<g id="edge54" class="edge"><title>system&#45;&gt;debian_upgrade</title>
<path fill="none" stroke="black" d="M979.81,-395.986C965.163,-388.481 948.413,-376.981 940,-361 932.547,-346.842 931.559,-338.592 940,-325 948.341,-311.569 961.895,-301.94 976.107,-295.085"/>
<polygon fill="black" stroke="black" points="977.741,-298.191 985.493,-290.969 974.929,-291.78 977.741,-298.191"/>
</g>
<!-- system&#45;&gt;locales -->
<g id="edge55" class="edge"><title>system&#45;&gt;locales</title>
<path fill="none" stroke="black" d="M1026.74,-392.704C1038.5,-384.187 1053.61,-373.249 1066.52,-363.897"/>
<polygon fill="black" stroke="black" points="1068.59,-366.722 1074.64,-358.022 1064.48,-361.052 1068.59,-366.722"/>
</g>
<!-- urxvt&#45;&gt;perhaps_aptupdate -->
<g id="edge56" class="edge"><title>urxvt&#45;&gt;perhaps_aptupdate</title>
<path fill="none" stroke="black" d="M719.672,-201.163C724.662,-198.974 729.962,-196.796 735,-195 769.843,-182.578 809.722,-171.623 842.094,-163.523"/>
<polygon fill="black" stroke="black" points="843.018,-166.9 851.886,-161.103 841.338,-160.105 843.018,-166.9"/>
</g>
<!-- vncclient -->
<g id="node36" class="node"><title>vncclient</title>
<ellipse fill="none" stroke="green" cx="905" cy="-213" rx="42.7926" ry="18"/>
<text text-anchor="middle" x="905" y="-209.3" font-family="Times,serif" font-size="14.00">vncclient</text>
</g>
<!-- vncclient&#45;&gt;perhaps_aptupdate -->
<g id="edge57" class="edge"><title>vncclient&#45;&gt;perhaps_aptupdate</title>
<path fill="none" stroke="black" d="M905,-194.785C905,-189.09 905,-182.605 905,-176.343"/>
<polygon fill="black" stroke="black" points="908.5,-176.194 905,-166.194 901.5,-176.194 908.5,-176.194"/>
</g>
<!-- vncserver -->
<g id="node37" class="node"><title>vncserver</title>
<ellipse fill="none" stroke="green" cx="1344" cy="-603" rx="44.6926" ry="18"/>
<text text-anchor="middle" x="1344" y="-599.3" font-family="Times,serif" font-size="14.00">vncserver</text>
</g>
<!-- vncserver&#45;&gt;_vncserver -->
<g id="edge58" class="edge"><title>vncserver&#45;&gt;_vncserver</title>
<path fill="none" stroke="black" d="M1344,-584.785C1344,-579.09 1344,-572.605 1344,-566.343"/>
<polygon fill="black" stroke="black" points="1347.5,-566.194 1344,-556.194 1340.5,-566.194 1347.5,-566.194"/>
</g>
<!-- xfce -->
<g id="node38" class="node"><title>xfce</title>
<ellipse fill="none" stroke="blue" cx="1282" cy="-343" rx="27" ry="18"/>
<text text-anchor="middle" x="1282" y="-339.3" font-family="Times,serif" font-size="14.00">xfce</text>
</g>
<!-- xfce&#45;&gt;chj_bin -->
<g id="edge61" class="edge"><title>xfce&#45;&gt;chj_bin</title>
<path fill="none" stroke="black" d="M1263.79,-329.251C1251.37,-320.557 1234.67,-308.866 1220.5,-298.949"/>
<polygon fill="black" stroke="black" points="1222.26,-295.913 1212.06,-293.045 1218.25,-301.647 1222.26,-295.913"/>
</g>
<!-- xfce&#45;&gt;desktop -->
<g id="edge60" class="edge"><title>xfce&#45;&gt;desktop</title>
<path fill="none" stroke="black" d="M1260.69,-354.081C1255.86,-356.36 1250.75,-358.766 1246,-361 1218.47,-373.939 1203.68,-366.799 1184,-390 1171.09,-405.221 1165.4,-427.189 1162.91,-444.557"/>
<polygon fill="black" stroke="black" points="1159.41,-444.337 1161.73,-454.675 1166.36,-445.146 1159.41,-444.337"/>
</g>
<!-- xfce&#45;&gt;perhaps_aptupdate -->
<g id="edge59" class="edge"><title>xfce&#45;&gt;perhaps_aptupdate</title>
<path fill="none" stroke="black" d="M1277.65,-325.108C1271.79,-306.01 1259.41,-275.557 1237,-260 1163.58,-209.033 1120.7,-264.912 1038,-231 1013,-220.747 1011.79,-209.522 989,-195 974.967,-186.058 959.068,-177.078 944.907,-169.455"/>
<polygon fill="black" stroke="black" points="946.362,-166.264 935.89,-164.656 943.073,-172.444 946.362,-166.264"/>
</g>
<!-- xfce4_load_profile&#45;&gt;chj_bin -->
<g id="edge62" class="edge"><title>xfce4_load_profile&#45;&gt;chj_bin</title>
<path fill="none" stroke="black" d="M1293.91,-390.786C1303.28,-382.997 1312.97,-372.784 1318,-361 1324.28,-346.284 1327.17,-338.111 1318,-325 1299.93,-299.167 1265.74,-287.792 1237.53,-282.808"/>
<polygon fill="black" stroke="black" points="1237.86,-279.319 1227.44,-281.246 1236.79,-286.236 1237.86,-279.319"/>
</g>
<!-- xfce4_load_profile&#45;&gt;xfce -->
<g id="edge63" class="edge"><title>xfce4_load_profile&#45;&gt;xfce</title>
<path fill="none" stroke="black" d="M1273.28,-389.785C1274.36,-384.09 1275.6,-377.605 1276.79,-371.343"/>
<polygon fill="black" stroke="black" points="1280.29,-371.673 1278.72,-361.194 1273.42,-370.363 1280.29,-371.673"/>
</g>
</g>
</svg>
