<?xml version="1.0" encoding="UTF-8" standalone="no"?>
<!DOCTYPE svg PUBLIC "-//W3C//DTD SVG 1.1//EN"
 "http://www.w3.org/Graphics/SVG/1.1/DTD/svg11.dtd">
<!-- Generated by graphviz version 2.38.0 (20140413.2041)
 -->
<!-- Title: Dependency graph Pages: 1 -->
<svg width="2421pt" height="824pt"
 viewBox="0.00 0.00 2420.90 824.00" xmlns="http://www.w3.org/2000/svg" xmlns:xlink="http://www.w3.org/1999/xlink">
<g id="graph0" class="graph" transform="scale(1 1) rotate(0) translate(4 820)">
<title>Dependency graph</title>
<polygon fill="white" stroke="none" points="-4,4 -4,-820 2416.9,-820 2416.9,4 -4,4"/>
<!-- _bs -->
<g id="node1" class="node"><title>_bs</title>
<ellipse fill="none" stroke="grey" cx="608" cy="-148" rx="27" ry="18"/>
<text text-anchor="middle" x="608" y="-144.3" font-family="Times,serif" font-size="14.00">.bs</text>
</g>
<!-- _usr_local_bin_fastrandom -->
<g id="node2" class="node"><title>_usr_local_bin_fastrandom</title>
<ellipse fill="none" stroke="grey" cx="1705" cy="-343" rx="99.3824" ry="18"/>
<text text-anchor="middle" x="1705" y="-339.3" font-family="Times,serif" font-size="14.00">/usr/local/bin/fastrandom</text>
</g>
<!-- bullseye -->
<g id="node3" class="node"><title>bullseye</title>
<ellipse fill="none" stroke="blue" cx="326" cy="-473" rx="40.0939" ry="18"/>
<text text-anchor="middle" x="326" y="-469.3" font-family="Times,serif" font-size="14.00">bullseye</text>
</g>
<!-- sources_bullseye -->
<g id="node51" class="node"><title>sources_bullseye</title>
<ellipse fill="none" stroke="blue" cx="364" cy="-408" rx="69.5877" ry="18"/>
<text text-anchor="middle" x="364" y="-404.3" font-family="Times,serif" font-size="14.00">sources&#45;bullseye</text>
</g>
<!-- bullseye&#45;&gt;sources_bullseye -->
<g id="edge1" class="edge"><title>bullseye&#45;&gt;sources_bullseye</title>
<path fill="none" stroke="black" d="M335.984,-455.447C339.733,-449.232 344.092,-442.005 348.239,-435.13"/>
<polygon fill="black" stroke="black" points="351.517,-436.471 353.685,-426.101 345.523,-432.856 351.517,-436.471"/>
</g>
<!-- chj -->
<g id="node4" class="node"><title>chj</title>
<ellipse fill="none" stroke="blue" cx="1520" cy="-473" rx="27" ry="18"/>
<text text-anchor="middle" x="1520" y="-469.3" font-family="Times,serif" font-size="14.00">chj</text>
</g>
<!-- chj_bin -->
<g id="node5" class="node"><title>chj_bin</title>
<ellipse fill="none" stroke="blue" cx="645" cy="-343" rx="35.9954" ry="18"/>
<text text-anchor="middle" x="645" y="-339.3" font-family="Times,serif" font-size="14.00">chj&#45;bin</text>
</g>
<!-- chj&#45;&gt;chj_bin -->
<g id="edge4" class="edge"><title>chj&#45;&gt;chj_bin</title>
<path fill="none" stroke="black" d="M1496.87,-463.643C1473.07,-454.875 1435.06,-440.391 1403,-426 1370.72,-411.511 1366.12,-399.371 1332,-390 1210.79,-356.708 825.096,-347.071 691.266,-344.691"/>
<polygon fill="black" stroke="black" points="691.017,-341.187 680.958,-344.514 690.896,-348.186 691.017,-341.187"/>
</g>
<!-- chj_emacs -->
<g id="node6" class="node"><title>chj_emacs</title>
<ellipse fill="none" stroke="blue" cx="1807" cy="-408" rx="46.5926" ry="18"/>
<text text-anchor="middle" x="1807" y="-404.3" font-family="Times,serif" font-size="14.00">chj&#45;emacs</text>
</g>
<!-- chj&#45;&gt;chj_emacs -->
<g id="edge5" class="edge"><title>chj&#45;&gt;chj_emacs</title>
<path fill="none" stroke="black" d="M1541.78,-461.821C1547.89,-459.282 1554.62,-456.78 1561,-455 1643.71,-431.943 1668.31,-445.175 1752,-426 1755.62,-425.17 1759.35,-424.222 1763.08,-423.209"/>
<polygon fill="black" stroke="black" points="1764.23,-426.521 1772.89,-420.408 1762.31,-419.79 1764.23,-426.521"/>
</g>
<!-- cj_git_patchtool -->
<g id="node11" class="node"><title>cj_git_patchtool</title>
<ellipse fill="none" stroke="blue" cx="1520" cy="-408" rx="64.9885" ry="18"/>
<text text-anchor="middle" x="1520" y="-404.3" font-family="Times,serif" font-size="14.00">cj&#45;git&#45;patchtool</text>
</g>
<!-- chj&#45;&gt;cj_git_patchtool -->
<g id="edge7" class="edge"><title>chj&#45;&gt;cj_git_patchtool</title>
<path fill="none" stroke="black" d="M1520,-454.785C1520,-449.09 1520,-442.605 1520,-436.343"/>
<polygon fill="black" stroke="black" points="1523.5,-436.194 1520,-426.194 1516.5,-436.194 1523.5,-436.194"/>
</g>
<!-- debianpackages -->
<g id="node19" class="node"><title>debianpackages</title>
<ellipse fill="none" stroke="blue" cx="1207" cy="-343" rx="66.0889" ry="18"/>
<text text-anchor="middle" x="1207" y="-339.3" font-family="Times,serif" font-size="14.00">debianpackages</text>
</g>
<!-- chj&#45;&gt;debianpackages -->
<g id="edge3" class="edge"><title>chj&#45;&gt;debianpackages</title>
<path fill="none" stroke="black" d="M1500.03,-460.625C1484.85,-451.731 1463.64,-438.773 1446,-426 1425.81,-411.385 1425.29,-401.149 1403,-390 1363.83,-370.409 1316.05,-358.976 1277.47,-352.408"/>
<polygon fill="black" stroke="black" points="1277.79,-348.914 1267.36,-350.761 1276.67,-355.823 1277.79,-348.914"/>
</g>
<!-- fastrandom -->
<g id="node24" class="node"><title>fastrandom</title>
<ellipse fill="none" stroke="blue" cx="1692" cy="-408" rx="50.8918" ry="18"/>
<text text-anchor="middle" x="1692" y="-404.3" font-family="Times,serif" font-size="14.00">fastrandom</text>
</g>
<!-- chj&#45;&gt;fastrandom -->
<g id="edge6" class="edge"><title>chj&#45;&gt;fastrandom</title>
<path fill="none" stroke="black" d="M1542.04,-462.599C1548.15,-460.063 1554.81,-457.368 1561,-455 1589.32,-444.165 1621.44,-432.871 1646.79,-424.185"/>
<polygon fill="black" stroke="black" points="1648.17,-427.413 1656.5,-420.871 1645.91,-420.788 1648.17,-427.413"/>
</g>
<!-- git_sign -->
<g id="node34" class="node"><title>git_sign</title>
<ellipse fill="none" stroke="blue" cx="663" cy="-83" rx="37.8943" ry="18"/>
<text text-anchor="middle" x="663" y="-79.3" font-family="Times,serif" font-size="14.00">git&#45;sign</text>
</g>
<!-- chj&#45;&gt;git_sign -->
<g id="edge2" class="edge"><title>chj&#45;&gt;git_sign</title>
<path fill="none" stroke="black" d="M1544.02,-464.223C1561.33,-457.214 1583.42,-445.039 1594,-426 1601.77,-412.015 1595.14,-405.959 1594,-390 1590.44,-340.284 1578,-328.843 1578,-279 1578,-279 1578,-279 1578,-212 1578,-123.547 898.683,-92.4931 710.702,-85.5931"/>
<polygon fill="black" stroke="black" points="710.695,-82.0907 700.575,-85.2275 710.442,-89.0861 710.695,-82.0907"/>
</g>
<!-- chj_bin&#45;&gt;_bs -->
<g id="edge8" class="edge"><title>chj_bin&#45;&gt;_bs</title>
<path fill="none" stroke="black" d="M641.716,-324.873C635.271,-291.252 620.919,-216.389 613.182,-176.029"/>
<polygon fill="black" stroke="black" points="616.596,-175.251 611.276,-166.089 609.722,-176.569 616.596,-175.251"/>
</g>
<!-- chj_perllib -->
<g id="node9" class="node"><title>chj_perllib</title>
<ellipse fill="none" stroke="blue" cx="477" cy="-278" rx="47.3916" ry="18"/>
<text text-anchor="middle" x="477" y="-274.3" font-family="Times,serif" font-size="14.00">chj&#45;perllib</text>
</g>
<!-- chj_bin&#45;&gt;chj_perllib -->
<g id="edge10" class="edge"><title>chj_bin&#45;&gt;chj_perllib</title>
<path fill="none" stroke="black" d="M617.258,-331.597C590.6,-321.6 549.951,-306.357 519.264,-294.849"/>
<polygon fill="black" stroke="black" points="520.274,-291.49 509.682,-291.256 517.816,-298.044 520.274,-291.49"/>
</g>
<!-- chj_bin&#45;&gt;git_sign -->
<g id="edge9" class="edge"><title>chj_bin&#45;&gt;git_sign</title>
<path fill="none" stroke="black" d="M646.209,-324.671C649.277,-280.7 657.383,-164.517 661.095,-111.309"/>
<polygon fill="black" stroke="black" points="664.592,-111.473 661.796,-101.253 657.609,-110.985 664.592,-111.473"/>
</g>
<!-- chj_emacs_checkout -->
<g id="node7" class="node"><title>chj_emacs_checkout</title>
<ellipse fill="none" stroke="blue" cx="1730" cy="-278" rx="81.4863" ry="18"/>
<text text-anchor="middle" x="1730" y="-274.3" font-family="Times,serif" font-size="14.00">chj&#45;emacs&#45;checkout</text>
</g>
<!-- chj_emacs&#45;&gt;chj_emacs_checkout -->
<g id="edge11" class="edge"><title>chj_emacs&#45;&gt;chj_emacs_checkout</title>
<path fill="none" stroke="black" d="M1813.58,-390.011C1819.22,-372.469 1824.74,-344.924 1813,-325 1806.2,-313.462 1795.36,-304.614 1783.71,-297.91"/>
<polygon fill="black" stroke="black" points="1785.19,-294.734 1774.71,-293.193 1781.94,-300.934 1785.19,-294.734"/>
</g>
<!-- chj_emacs_checkout&#45;&gt;git_sign -->
<g id="edge12" class="edge"><title>chj_emacs_checkout&#45;&gt;git_sign</title>
<path fill="none" stroke="black" d="M1720.18,-259.827C1700.62,-227.51 1653.32,-158.361 1592,-130 1511.8,-92.9038 889.565,-85.6148 710.85,-84.2811"/>
<polygon fill="black" stroke="black" points="710.731,-80.7802 700.706,-84.2083 710.68,-87.78 710.731,-80.7802"/>
</g>
<!-- chj_fastrandom -->
<g id="node8" class="node"><title>chj_fastrandom</title>
<ellipse fill="none" stroke="green" cx="322" cy="-148" rx="64.189" ry="18"/>
<text text-anchor="middle" x="322" y="-144.3" font-family="Times,serif" font-size="14.00">chj&#45;fastrandom</text>
</g>
<!-- chj_fastrandom&#45;&gt;git_sign -->
<g id="edge13" class="edge"><title>chj_fastrandom&#45;&gt;git_sign</title>
<path fill="none" stroke="black" d="M369.288,-135.728C378.146,-133.732 387.341,-131.739 396,-130 473.389,-114.457 564.049,-99.5248 617.327,-91.0818"/>
<polygon fill="black" stroke="black" points="618.137,-94.4974 627.469,-89.4815 617.046,-87.583 618.137,-94.4974"/>
</g>
<!-- chj_perllib_checkout -->
<g id="node10" class="node"><title>chj_perllib_checkout</title>
<ellipse fill="none" stroke="blue" cx="477" cy="-213" rx="81.7856" ry="18"/>
<text text-anchor="middle" x="477" y="-209.3" font-family="Times,serif" font-size="14.00">chj&#45;perllib&#45;checkout</text>
</g>
<!-- chj_perllib&#45;&gt;chj_perllib_checkout -->
<g id="edge14" class="edge"><title>chj_perllib&#45;&gt;chj_perllib_checkout</title>
<path fill="none" stroke="black" d="M477,-259.785C477,-254.09 477,-247.605 477,-241.343"/>
<polygon fill="black" stroke="black" points="480.5,-241.194 477,-231.194 473.5,-241.194 480.5,-241.194"/>
</g>
<!-- fperl -->
<g id="node26" class="node"><title>fperl</title>
<ellipse fill="none" stroke="blue" cx="312" cy="-213" rx="27.0966" ry="18"/>
<text text-anchor="middle" x="312" y="-209.3" font-family="Times,serif" font-size="14.00">fperl</text>
</g>
<!-- chj_perllib&#45;&gt;fperl -->
<g id="edge15" class="edge"><title>chj_perllib&#45;&gt;fperl</title>
<path fill="none" stroke="black" d="M444.795,-264.703C415.935,-253.684 373.798,-237.596 344.768,-226.511"/>
<polygon fill="black" stroke="black" points="345.68,-223.113 335.089,-222.816 343.183,-229.653 345.68,-223.113"/>
</g>
<!-- chj_perllib_checkout&#45;&gt;_bs -->
<g id="edge16" class="edge"><title>chj_perllib_checkout&#45;&gt;_bs</title>
<path fill="none" stroke="black" d="M509.382,-196.427C530.182,-186.424 557.028,-173.513 577.458,-163.688"/>
<polygon fill="black" stroke="black" points="579.136,-166.765 586.631,-159.277 576.102,-160.456 579.136,-166.765"/>
</g>
<!-- chj_perllib_checkout&#45;&gt;git_sign -->
<g id="edge17" class="edge"><title>chj_perllib_checkout&#45;&gt;git_sign</title>
<path fill="none" stroke="black" d="M498.174,-195.567C509.051,-186.961 522.419,-176.131 534,-166 551.51,-150.683 552.974,-143.389 572,-130 588.857,-118.138 609.205,-107.55 626.381,-99.5315"/>
<polygon fill="black" stroke="black" points="627.908,-102.682 635.555,-95.3492 625.004,-96.3128 627.908,-102.682"/>
</g>
<!-- cj_git_patchtool&#45;&gt;chj_bin -->
<g id="edge19" class="edge"><title>cj_git_patchtool&#45;&gt;chj_bin</title>
<path fill="none" stroke="black" d="M1465.36,-398.094C1445.74,-395.152 1423.42,-392.099 1403,-390 1133.75,-362.318 808.85,-349.451 690.728,-345.441"/>
<polygon fill="black" stroke="black" points="690.717,-341.938 680.605,-345.102 690.482,-348.934 690.717,-341.938"/>
</g>
<!-- cj_git_patchtool&#45;&gt;debianpackages -->
<g id="edge18" class="edge"><title>cj_git_patchtool&#45;&gt;debianpackages</title>
<path fill="none" stroke="black" d="M1470.72,-396.254C1460.88,-394.149 1450.62,-391.98 1441,-390 1383.01,-378.061 1316.79,-365.106 1269.63,-355.996"/>
<polygon fill="black" stroke="black" points="1270.04,-352.513 1259.56,-354.055 1268.72,-359.386 1270.04,-352.513"/>
</g>
<!-- cj_git_patchtool&#45;&gt;git_sign -->
<g id="edge20" class="edge"><title>cj_git_patchtool&#45;&gt;git_sign</title>
<path fill="none" stroke="black" d="M1504.92,-390.164C1485.72,-366.916 1455,-322.865 1455,-279 1455,-279 1455,-279 1455,-212 1455,-136.155 881.651,-96.7111 710.607,-86.6316"/>
<polygon fill="black" stroke="black" points="710.589,-83.1247 700.402,-86.0371 710.181,-90.1128 710.589,-83.1247"/>
</g>
<!-- cj_qemucontrol -->
<g id="node12" class="node"><title>cj_qemucontrol</title>
<ellipse fill="none" stroke="blue" cx="127" cy="-538" rx="64.9885" ry="18"/>
<text text-anchor="middle" x="127" y="-534.3" font-family="Times,serif" font-size="14.00">cj&#45;qemucontrol</text>
</g>
<!-- cj_qemucontrol&#45;&gt;_bs -->
<g id="edge21" class="edge"><title>cj_qemucontrol&#45;&gt;_bs</title>
<path fill="none" stroke="black" d="M108.155,-520.545C77.399,-491.728 23.0797,-431.274 57,-390 193.916,-223.401 359.51,-424.072 533,-296 572.727,-266.673 592.956,-210.207 601.935,-176.436"/>
<polygon fill="black" stroke="black" points="605.431,-176.883 604.465,-166.332 598.64,-175.183 605.431,-176.883"/>
</g>
<!-- gambit -->
<g id="node31" class="node"><title>gambit</title>
<ellipse fill="none" stroke="blue" cx="1256" cy="-473" rx="35.9954" ry="18"/>
<text text-anchor="middle" x="1256" y="-469.3" font-family="Times,serif" font-size="14.00">gambit</text>
</g>
<!-- cj_qemucontrol&#45;&gt;gambit -->
<g id="edge23" class="edge"><title>cj_qemucontrol&#45;&gt;gambit</title>
<path fill="none" stroke="black" d="M185.777,-530.062C216.746,-526.611 255.388,-522.627 290,-520 472.352,-506.16 1043.85,-482.565 1210.17,-475.839"/>
<polygon fill="black" stroke="black" points="1210.68,-479.321 1220.53,-475.42 1210.39,-472.327 1210.68,-479.321"/>
</g>
<!-- cj_qemucontrol&#45;&gt;git_sign -->
<g id="edge22" class="edge"><title>cj_qemucontrol&#45;&gt;git_sign</title>
<path fill="none" stroke="black" d="M95.2801,-522.265C57.6636,-502.344 0,-463 0,-409 0,-409 0,-409 0,-212 0,-105.566 121.298,-153.96 225,-130 364.206,-97.837 533.554,-88.1188 614.874,-85.2155"/>
<polygon fill="black" stroke="black" points="615.408,-88.6996 625.284,-84.8642 615.171,-81.7035 615.408,-88.6996"/>
</g>
<!-- coworking -->
<g id="node13" class="node"><title>coworking</title>
<ellipse fill="none" stroke="blue" cx="1330" cy="-733" rx="48.1917" ry="18"/>
<text text-anchor="middle" x="1330" y="-729.3" font-family="Times,serif" font-size="14.00">coworking</text>
</g>
<!-- coworking_user -->
<g id="node14" class="node"><title>coworking_user</title>
<ellipse fill="none" stroke="blue" cx="1669" cy="-603" rx="65.7887" ry="18"/>
<text text-anchor="middle" x="1669" y="-599.3" font-family="Times,serif" font-size="14.00">coworking&#45;user</text>
</g>
<!-- coworking&#45;&gt;coworking_user -->
<g id="edge27" class="edge"><title>coworking&#45;&gt;coworking_user</title>
<path fill="none" stroke="black" d="M1377.54,-729.755C1450.83,-725.454 1587.03,-713.877 1626,-686 1644.42,-672.821 1655.59,-649.307 1661.91,-630.828"/>
<polygon fill="black" stroke="black" points="1665.28,-631.767 1664.94,-621.178 1658.61,-629.672 1665.28,-631.767"/>
</g>
<!-- emacs -->
<g id="node23" class="node"><title>emacs</title>
<ellipse fill="none" stroke="blue" cx="1584" cy="-668" rx="33.2948" ry="18"/>
<text text-anchor="middle" x="1584" y="-664.3" font-family="Times,serif" font-size="14.00">emacs</text>
</g>
<!-- coworking&#45;&gt;emacs -->
<g id="edge29" class="edge"><title>coworking&#45;&gt;emacs</title>
<path fill="none" stroke="black" d="M1372.96,-724.744C1415.96,-716.989 1483.79,-703.419 1541,-686 1543.74,-685.167 1546.54,-684.237 1549.35,-683.252"/>
<polygon fill="black" stroke="black" points="1550.61,-686.516 1558.78,-679.759 1548.18,-679.952 1550.61,-686.516"/>
</g>
<!-- firefox -->
<g id="node25" class="node"><title>firefox</title>
<ellipse fill="none" stroke="blue" cx="1084" cy="-668" rx="34.394" ry="18"/>
<text text-anchor="middle" x="1084" y="-664.3" font-family="Times,serif" font-size="14.00">firefox</text>
</g>
<!-- coworking&#45;&gt;firefox -->
<g id="edge30" class="edge"><title>coworking&#45;&gt;firefox</title>
<path fill="none" stroke="black" d="M1287.75,-724.233C1246.56,-716.226 1182.35,-702.593 1128,-686 1125.37,-685.198 1122.68,-684.315 1119.98,-683.385"/>
<polygon fill="black" stroke="black" points="1120.9,-679.995 1110.31,-679.877 1118.52,-686.576 1120.9,-679.995"/>
</g>
<!-- full_vncserver -->
<g id="node30" class="node"><title>full_vncserver</title>
<ellipse fill="none" stroke="blue" cx="934" cy="-668" rx="59.5901" ry="18"/>
<text text-anchor="middle" x="934" y="-664.3" font-family="Times,serif" font-size="14.00">full&#45;vncserver</text>
</g>
<!-- coworking&#45;&gt;full_vncserver -->
<g id="edge26" class="edge"><title>coworking&#45;&gt;full_vncserver</title>
<path fill="none" stroke="black" d="M1284.74,-726.751C1222.25,-719.226 1106.13,-704.248 1008,-686 1001.79,-684.846 995.315,-683.528 988.889,-682.148"/>
<polygon fill="black" stroke="black" points="989.395,-678.676 978.877,-679.944 987.891,-685.512 989.395,-678.676"/>
</g>
<!-- gimp -->
<g id="node33" class="node"><title>gimp</title>
<ellipse fill="none" stroke="blue" cx="1166" cy="-668" rx="29.4969" ry="18"/>
<text text-anchor="middle" x="1166" y="-664.3" font-family="Times,serif" font-size="14.00">gimp</text>
</g>
<!-- coworking&#45;&gt;gimp -->
<g id="edge32" class="edge"><title>coworking&#45;&gt;gimp</title>
<path fill="none" stroke="black" d="M1295.79,-720.247C1270.31,-711.314 1234.75,-698.474 1204,-686 1202.14,-685.246 1200.24,-684.456 1198.33,-683.646"/>
<polygon fill="black" stroke="black" points="1199.36,-680.281 1188.8,-679.512 1196.58,-686.703 1199.36,-680.281"/>
</g>
<!-- nosudo_auto -->
<g id="node43" class="node"><title>nosudo_auto</title>
<ellipse fill="none" stroke="blue" cx="1267" cy="-668" rx="53.8905" ry="18"/>
<text text-anchor="middle" x="1267" y="-664.3" font-family="Times,serif" font-size="14.00">nosudo&#45;auto</text>
</g>
<!-- coworking&#45;&gt;nosudo_auto -->
<g id="edge28" class="edge"><title>coworking&#45;&gt;nosudo_auto</title>
<path fill="none" stroke="black" d="M1313.78,-715.776C1306.78,-708.776 1298.45,-700.448 1290.77,-692.773"/>
<polygon fill="black" stroke="black" points="1292.93,-689.984 1283.39,-685.388 1287.98,-694.934 1292.93,-689.984"/>
</g>
<!-- system -->
<g id="node53" class="node"><title>system</title>
<ellipse fill="none" stroke="blue" cx="976" cy="-603" rx="35.9954" ry="18"/>
<text text-anchor="middle" x="976" y="-599.3" font-family="Times,serif" font-size="14.00">system</text>
</g>
<!-- coworking&#45;&gt;system -->
<g id="edge25" class="edge"><title>coworking&#45;&gt;system</title>
<path fill="none" stroke="black" d="M1283.27,-728.684C1212.28,-722.963 1081.24,-709.532 1041,-686 1018.33,-672.741 1000.53,-648.305 989.338,-629.546"/>
<polygon fill="black" stroke="black" points="992.232,-627.556 984.237,-620.604 986.152,-631.025 992.232,-627.556"/>
</g>
<!-- tmp_passwd -->
<g id="node54" class="node"><title>tmp_passwd</title>
<ellipse fill="none" stroke="grey" cx="1392" cy="-668" rx="53.0913" ry="18"/>
<text text-anchor="middle" x="1392" y="-664.3" font-family="Times,serif" font-size="14.00">tmp/passwd</text>
</g>
<!-- coworking&#45;&gt;tmp_passwd -->
<g id="edge24" class="edge"><title>coworking&#45;&gt;tmp_passwd</title>
<path fill="none" stroke="black" d="M1345.97,-715.776C1352.86,-708.776 1361.05,-700.448 1368.6,-692.773"/>
<polygon fill="black" stroke="black" points="1371.35,-694.97 1375.87,-685.388 1366.36,-690.06 1371.35,-694.97"/>
</g>
<!-- unison -->
<g id="node55" class="node"><title>unison</title>
<ellipse fill="none" stroke="blue" cx="1498" cy="-668" rx="34.394" ry="18"/>
<text text-anchor="middle" x="1498" y="-664.3" font-family="Times,serif" font-size="14.00">unison</text>
</g>
<!-- coworking&#45;&gt;unison -->
<g id="edge31" class="edge"><title>coworking&#45;&gt;unison</title>
<path fill="none" stroke="black" d="M1363.2,-719.821C1388.2,-710.618 1423.29,-697.627 1454,-686 1456.5,-685.054 1459.07,-684.073 1461.67,-683.081"/>
<polygon fill="black" stroke="black" points="1462.95,-686.339 1471.03,-679.486 1460.44,-679.804 1462.95,-686.339"/>
</g>
<!-- moduser -->
<g id="node41" class="node"><title>moduser</title>
<ellipse fill="none" stroke="blue" cx="1755" cy="-538" rx="41.6928" ry="18"/>
<text text-anchor="middle" x="1755" y="-534.3" font-family="Times,serif" font-size="14.00">moduser</text>
</g>
<!-- coworking_user&#45;&gt;moduser -->
<g id="edge33" class="edge"><title>coworking_user&#45;&gt;moduser</title>
<path fill="none" stroke="black" d="M1691.15,-585.776C1701.86,-577.932 1714.84,-568.42 1726.3,-560.028"/>
<polygon fill="black" stroke="black" points="1728.7,-562.607 1734.7,-553.874 1724.56,-556.96 1728.7,-562.607"/>
</g>
<!-- cplusplus -->
<g id="node15" class="node"><title>cplusplus</title>
<ellipse fill="none" stroke="blue" cx="1279" cy="-408" rx="44.393" ry="18"/>
<text text-anchor="middle" x="1279" y="-404.3" font-family="Times,serif" font-size="14.00">cplusplus</text>
</g>
<!-- debconf_noninteractive -->
<g id="node16" class="node"><title>debconf_noninteractive</title>
<ellipse fill="none" stroke="green" cx="1737" cy="-798" rx="92.0841" ry="18"/>
<text text-anchor="middle" x="1737" y="-794.3" font-family="Times,serif" font-size="14.00">debconf&#45;noninteractive</text>
</g>
<!-- debian_emacs -->
<g id="node17" class="node"><title>debian_emacs</title>
<ellipse fill="none" stroke="blue" cx="1487" cy="-603" rx="59.5901" ry="18"/>
<text text-anchor="middle" x="1487" y="-599.3" font-family="Times,serif" font-size="14.00">debian&#45;emacs</text>
</g>
<!-- debian_upgrade -->
<g id="node18" class="node"><title>debian_upgrade</title>
<ellipse fill="none" stroke="blue" cx="992" cy="-538" rx="66.8882" ry="18"/>
<text text-anchor="middle" x="992" y="-534.3" font-family="Times,serif" font-size="14.00">debian_upgrade</text>
</g>
<!-- urxvt -->
<g id="node56" class="node"><title>urxvt</title>
<ellipse fill="none" stroke="blue" cx="1026" cy="-278" rx="29.4969" ry="18"/>
<text text-anchor="middle" x="1026" y="-274.3" font-family="Times,serif" font-size="14.00">urxvt</text>
</g>
<!-- debianpackages&#45;&gt;urxvt -->
<g id="edge34" class="edge"><title>debianpackages&#45;&gt;urxvt</title>
<path fill="none" stroke="black" d="M1167.73,-328.33C1135.78,-317.21 1091.13,-301.671 1060.54,-291.021"/>
<polygon fill="black" stroke="black" points="1061.33,-287.592 1050.74,-287.61 1059.03,-294.203 1061.33,-287.592"/>
</g>
<!-- dnsmasq -->
<g id="node20" class="node"><title>dnsmasq</title>
<ellipse fill="none" stroke="blue" cx="558" cy="-538" rx="42.4939" ry="18"/>
<text text-anchor="middle" x="558" y="-534.3" font-family="Times,serif" font-size="14.00">dnsmasq</text>
</g>
<!-- dnsresolver -->
<g id="node21" class="node"><title>dnsresolver</title>
<ellipse fill="none" stroke="green" cx="1899" cy="-798" rx="51.1914" ry="18"/>
<text text-anchor="middle" x="1899" y="-794.3" font-family="Times,serif" font-size="14.00">dnsresolver</text>
</g>
<!-- dotconfig_xfce4_checkout -->
<g id="node22" class="node"><title>dotconfig_xfce4_checkout</title>
<ellipse fill="none" stroke="blue" cx="230" cy="-278" rx="101.282" ry="18"/>
<text text-anchor="middle" x="230" y="-274.3" font-family="Times,serif" font-size="14.00">dotconfig&#45;xfce4&#45;checkout</text>
</g>
<!-- dotconfig_xfce4_checkout&#45;&gt;_bs -->
<g id="edge35" class="edge"><title>dotconfig_xfce4_checkout&#45;&gt;_bs</title>
<path fill="none" stroke="black" d="M279.971,-262.328C301.791,-254.732 327.109,-244.245 348,-231 367.648,-218.543 365.321,-205.659 386,-195 445.579,-164.289 468.439,-179.95 534,-166 546.793,-163.278 560.785,-160.112 573.125,-157.256"/>
<polygon fill="black" stroke="black" points="574.095,-160.624 583.04,-154.946 572.506,-153.806 574.095,-160.624"/>
</g>
<!-- dotconfig_xfce4_checkout&#45;&gt;git_sign -->
<g id="edge36" class="edge"><title>dotconfig_xfce4_checkout&#45;&gt;git_sign</title>
<path fill="none" stroke="black" d="M226.182,-259.558C220.549,-228.64 214.12,-164.262 249,-130 274.75,-104.707 512.123,-90.8876 615.387,-86.029"/>
<polygon fill="black" stroke="black" points="615.71,-89.5179 625.538,-85.56 615.387,-82.5254 615.71,-89.5179"/>
</g>
<!-- emacs&#45;&gt;chj_emacs -->
<g id="edge38" class="edge"><title>emacs&#45;&gt;chj_emacs</title>
<path fill="none" stroke="black" d="M1582.53,-649.872C1581.82,-632.466 1582.91,-605.255 1594,-585 1634.79,-510.483 1721.07,-454.842 1770.39,-427.619"/>
<polygon fill="black" stroke="black" points="1772.31,-430.554 1779.44,-422.712 1768.98,-424.4 1772.31,-430.554"/>
</g>
<!-- emacs&#45;&gt;debian_emacs -->
<g id="edge37" class="edge"><title>emacs&#45;&gt;debian_emacs</title>
<path fill="none" stroke="black" d="M1563.43,-653.639C1550.72,-645.384 1534.12,-634.607 1519.65,-625.205"/>
<polygon fill="black" stroke="black" points="1521.25,-622.075 1510.96,-619.563 1517.44,-627.945 1521.25,-622.075"/>
</g>
<!-- fastrandom&#45;&gt;_usr_local_bin_fastrandom -->
<g id="edge39" class="edge"><title>fastrandom&#45;&gt;_usr_local_bin_fastrandom</title>
<path fill="none" stroke="black" d="M1695.55,-389.785C1696.73,-384.09 1698.07,-377.605 1699.36,-371.343"/>
<polygon fill="black" stroke="black" points="1702.86,-371.695 1701.45,-361.194 1696,-370.281 1702.86,-371.695"/>
</g>
<!-- fperl_noinstall -->
<g id="node27" class="node"><title>fperl_noinstall</title>
<ellipse fill="none" stroke="blue" cx="465" cy="-148" rx="60.3893" ry="18"/>
<text text-anchor="middle" x="465" y="-144.3" font-family="Times,serif" font-size="14.00">fperl&#45;noinstall</text>
</g>
<!-- fperl&#45;&gt;fperl_noinstall -->
<g id="edge40" class="edge"><title>fperl&#45;&gt;fperl_noinstall</title>
<path fill="none" stroke="black" d="M334.551,-202.634C340.546,-200.148 347.017,-197.469 353,-195 375.478,-185.724 400.511,-175.438 421.2,-166.95"/>
<polygon fill="black" stroke="black" points="422.751,-170.096 430.675,-163.063 420.095,-163.62 422.751,-170.096"/>
</g>
<!-- fperl_noinstall&#45;&gt;git_sign -->
<g id="edge41" class="edge"><title>fperl_noinstall&#45;&gt;git_sign</title>
<path fill="none" stroke="black" d="M505.068,-134.251C539.317,-123.354 588.359,-107.749 622.68,-96.8291"/>
<polygon fill="black" stroke="black" points="623.917,-100.109 632.385,-93.7412 621.794,-93.4381 623.917,-100.109"/>
</g>
<!-- full_desktop -->
<g id="node28" class="node"><title>full_desktop</title>
<ellipse fill="none" stroke="blue" cx="708" cy="-603" rx="53.0913" ry="18"/>
<text text-anchor="middle" x="708" y="-599.3" font-family="Times,serif" font-size="14.00">full&#45;desktop</text>
</g>
<!-- slim_desktop -->
<g id="node49" class="node"><title>slim_desktop</title>
<ellipse fill="none" stroke="blue" cx="812" cy="-538" rx="56.59" ry="18"/>
<text text-anchor="middle" x="812" y="-534.3" font-family="Times,serif" font-size="14.00">slim&#45;desktop</text>
</g>
<!-- full_desktop&#45;&gt;slim_desktop -->
<g id="edge42" class="edge"><title>full_desktop&#45;&gt;slim_desktop</title>
<path fill="none" stroke="black" d="M732.911,-586.91C746.446,-578.71 763.38,-568.452 778.102,-559.534"/>
<polygon fill="black" stroke="black" points="780.193,-562.36 786.932,-554.185 776.566,-556.373 780.193,-562.36"/>
</g>
<!-- full_desktop_autoremove -->
<g id="node29" class="node"><title>full_desktop_autoremove</title>
<ellipse fill="none" stroke="green" cx="708" cy="-668" rx="99.3824" ry="18"/>
<text text-anchor="middle" x="708" y="-664.3" font-family="Times,serif" font-size="14.00">full&#45;desktop_autoremove</text>
</g>
<!-- full_desktop_autoremove&#45;&gt;full_desktop -->
<g id="edge43" class="edge"><title>full_desktop_autoremove&#45;&gt;full_desktop</title>
<path fill="none" stroke="black" d="M708,-649.785C708,-644.09 708,-637.605 708,-631.343"/>
<polygon fill="black" stroke="black" points="711.5,-631.194 708,-621.194 704.5,-631.194 711.5,-631.194"/>
</g>
<!-- full_vncserver&#45;&gt;debianpackages -->
<g id="edge45" class="edge"><title>full_vncserver&#45;&gt;debianpackages</title>
<path fill="none" stroke="black" d="M973.599,-654.398C1040.57,-631.877 1169,-582.961 1169,-539 1169,-539 1169,-539 1169,-472 1169,-435.574 1183.32,-395.638 1194.38,-370.226"/>
<polygon fill="black" stroke="black" points="1197.65,-371.471 1198.57,-360.916 1191.27,-368.598 1197.65,-371.471"/>
</g>
<!-- slim_vncserver -->
<g id="node50" class="node"><title>slim_vncserver</title>
<ellipse fill="none" stroke="blue" cx="843" cy="-603" rx="63.8893" ry="18"/>
<text text-anchor="middle" x="843" y="-599.3" font-family="Times,serif" font-size="14.00">slim&#45;vncserver</text>
</g>
<!-- full_vncserver&#45;&gt;slim_vncserver -->
<g id="edge44" class="edge"><title>full_vncserver&#45;&gt;slim_vncserver</title>
<path fill="none" stroke="black" d="M911.037,-651.102C899.936,-643.417 886.441,-634.075 874.406,-625.743"/>
<polygon fill="black" stroke="black" points="876.17,-622.707 865.956,-619.892 872.185,-628.462 876.17,-622.707"/>
</g>
<!-- full_vncserver&#45;&gt;system -->
<g id="edge46" class="edge"><title>full_vncserver&#45;&gt;system</title>
<path fill="none" stroke="black" d="M945.255,-650.117C949.561,-643.659 954.568,-636.148 959.276,-629.085"/>
<polygon fill="black" stroke="black" points="962.37,-630.755 965.004,-620.493 956.545,-626.872 962.37,-630.755"/>
</g>
<!-- gambit&#45;&gt;chj_bin -->
<g id="edge50" class="edge"><title>gambit&#45;&gt;chj_bin</title>
<path fill="none" stroke="black" d="M1236.74,-457.477C1210.22,-438.349 1160.25,-405.346 1112,-390 1034.3,-365.288 792.598,-351.098 690.864,-346.083"/>
<polygon fill="black" stroke="black" points="690.761,-342.574 680.603,-345.586 690.421,-349.566 690.761,-342.574"/>
</g>
<!-- gambit&#45;&gt;chj_emacs -->
<g id="edge51" class="edge"><title>gambit&#45;&gt;chj_emacs</title>
<path fill="none" stroke="black" d="M1290.94,-469.182C1396.39,-460.617 1707.04,-434.932 1752,-426 1755.7,-425.265 1759.5,-424.378 1763.29,-423.399"/>
<polygon fill="black" stroke="black" points="1764.55,-426.683 1773.25,-420.636 1762.68,-419.938 1764.55,-426.683"/>
</g>
<!-- gambit&#45;&gt;cplusplus -->
<g id="edge48" class="edge"><title>gambit&#45;&gt;cplusplus</title>
<path fill="none" stroke="black" d="M1262.16,-455.117C1264.38,-449.044 1266.94,-442.039 1269.38,-435.353"/>
<polygon fill="black" stroke="black" points="1272.68,-436.523 1272.82,-425.929 1266.1,-434.123 1272.68,-436.523"/>
</g>
<!-- gambit&#45;&gt;debianpackages -->
<g id="edge49" class="edge"><title>gambit&#45;&gt;debianpackages</title>
<path fill="none" stroke="black" d="M1243.39,-455.758C1237.36,-447.291 1230.48,-436.526 1226,-426 1218.53,-408.465 1213.74,-387.513 1210.84,-371.176"/>
<polygon fill="black" stroke="black" points="1214.27,-370.489 1209.19,-361.19 1207.36,-371.626 1214.27,-370.489"/>
</g>
<!-- gambit_checkout -->
<g id="node32" class="node"><title>gambit_checkout</title>
<ellipse fill="none" stroke="blue" cx="761" cy="-213" rx="70.3881" ry="18"/>
<text text-anchor="middle" x="761" y="-209.3" font-family="Times,serif" font-size="14.00">gambit&#45;checkout</text>
</g>
<!-- gambit&#45;&gt;gambit_checkout -->
<g id="edge47" class="edge"><title>gambit&#45;&gt;gambit_checkout</title>
<path fill="none" stroke="black" d="M1285.18,-462.561C1302.11,-455.411 1322,-443.735 1332,-426 1356.59,-382.366 1323.27,-353.383 1282,-325 1209.83,-275.366 959.208,-238.411 833.737,-222.546"/>
<polygon fill="black" stroke="black" points="833.816,-219.029 823.459,-221.258 832.946,-225.975 833.816,-219.029"/>
</g>
<!-- virtualmem_3GB -->
<g id="node57" class="node"><title>virtualmem_3GB</title>
<ellipse fill="none" stroke="blue" cx="1030" cy="-408" rx="73.387" ry="18"/>
<text text-anchor="middle" x="1030" y="-404.3" font-family="Times,serif" font-size="14.00">virtualmem_3GB</text>
</g>
<!-- gambit&#45;&gt;virtualmem_3GB -->
<g id="edge52" class="edge"><title>gambit&#45;&gt;virtualmem_3GB</title>
<path fill="none" stroke="black" d="M1225.52,-463.504C1190.01,-453.605 1130.6,-437.044 1086.57,-424.769"/>
<polygon fill="black" stroke="black" points="1087.43,-421.376 1076.86,-422.063 1085.55,-428.119 1087.43,-421.376"/>
</g>
<!-- gambit_checkout&#45;&gt;_bs -->
<g id="edge53" class="edge"><title>gambit_checkout&#45;&gt;_bs</title>
<path fill="none" stroke="black" d="M725.514,-197.388C699.641,-186.734 664.881,-172.421 639.887,-162.13"/>
<polygon fill="black" stroke="black" points="641.073,-158.833 630.493,-158.262 638.408,-165.306 641.073,-158.833"/>
</g>
<!-- gambit_checkout&#45;&gt;git_sign -->
<g id="edge54" class="edge"><title>gambit_checkout&#45;&gt;git_sign</title>
<path fill="none" stroke="black" d="M748.188,-195.266C731.221,-173.105 701.174,-133.859 681.678,-108.396"/>
<polygon fill="black" stroke="black" points="684.363,-106.146 675.505,-100.333 678.805,-110.401 684.363,-106.146"/>
</g>
<!-- key -->
<g id="node37" class="node"><title>key</title>
<ellipse fill="none" stroke="blue" cx="1272" cy="-18" rx="27" ry="18"/>
<text text-anchor="middle" x="1272" y="-14.3" font-family="Times,serif" font-size="14.00">key</text>
</g>
<!-- git_sign&#45;&gt;key -->
<g id="edge55" class="edge"><title>git_sign&#45;&gt;key</title>
<path fill="none" stroke="black" d="M699.724,-78.2009C808.233,-66.9759 1126.57,-34.0447 1235.19,-22.8081"/>
<polygon fill="black" stroke="black" points="1235.74,-26.2698 1245.33,-21.7593 1235.02,-19.307 1235.74,-26.2698"/>
</g>
<!-- graph_deps -->
<g id="node35" class="node"><title>graph_deps</title>
<ellipse fill="none" stroke="green" cx="2018" cy="-798" rx="50.0912" ry="18"/>
<text text-anchor="middle" x="2018" y="-794.3" font-family="Times,serif" font-size="14.00">graph&#45;deps</text>
</g>
<!-- guix -->
<g id="node36" class="node"><title>guix</title>
<ellipse fill="none" stroke="green" cx="326" cy="-538" rx="27" ry="18"/>
<text text-anchor="middle" x="326" y="-534.3" font-family="Times,serif" font-size="14.00">guix</text>
</g>
<!-- guix&#45;&gt;bullseye -->
<g id="edge56" class="edge"><title>guix&#45;&gt;bullseye</title>
<path fill="none" stroke="black" d="M326,-519.785C326,-514.09 326,-507.605 326,-501.343"/>
<polygon fill="black" stroke="black" points="329.5,-501.194 326,-491.194 322.5,-501.194 329.5,-501.194"/>
</g>
<!-- load_profile -->
<g id="node38" class="node"><title>load_profile</title>
<ellipse fill="none" stroke="green" cx="444" cy="-538" rx="53.8905" ry="18"/>
<text text-anchor="middle" x="444" y="-534.3" font-family="Times,serif" font-size="14.00">load_profile</text>
</g>
<!-- xfce4_load_profile -->
<g id="node61" class="node"><title>xfce4_load_profile</title>
<ellipse fill="none" stroke="blue" cx="462" cy="-473" rx="77.1866" ry="18"/>
<text text-anchor="middle" x="462" y="-469.3" font-family="Times,serif" font-size="14.00">xfce4_load_profile</text>
</g>
<!-- load_profile&#45;&gt;xfce4_load_profile -->
<g id="edge57" class="edge"><title>load_profile&#45;&gt;xfce4_load_profile</title>
<path fill="none" stroke="black" d="M448.919,-519.785C450.585,-513.951 452.489,-507.288 454.318,-500.885"/>
<polygon fill="black" stroke="black" points="457.705,-501.771 457.087,-491.194 450.975,-499.848 457.705,-501.771"/>
</g>
<!-- locales -->
<g id="node39" class="node"><title>locales</title>
<ellipse fill="none" stroke="blue" cx="756" cy="-473" rx="35.194" ry="18"/>
<text text-anchor="middle" x="756" y="-469.3" font-family="Times,serif" font-size="14.00">locales</text>
</g>
<!-- locales&#45;&gt;chj_bin -->
<g id="edge58" class="edge"><title>locales&#45;&gt;chj_bin</title>
<path fill="none" stroke="black" d="M745.685,-455.476C734.62,-438.314 716.055,-411.074 697,-390 689.281,-381.463 680.086,-372.895 671.59,-365.507"/>
<polygon fill="black" stroke="black" points="673.615,-362.635 663.73,-358.824 669.081,-367.968 673.615,-362.635"/>
</g>
<!-- mercurial -->
<g id="node40" class="node"><title>mercurial</title>
<ellipse fill="none" stroke="green" cx="535" cy="-408" rx="44.6926" ry="18"/>
<text text-anchor="middle" x="535" y="-404.3" font-family="Times,serif" font-size="14.00">mercurial</text>
</g>
<!-- mercurial&#45;&gt;chj_bin -->
<g id="edge59" class="edge"><title>mercurial&#45;&gt;chj_bin</title>
<path fill="none" stroke="black" d="M559.686,-392.862C575.506,-383.801 596.192,-371.954 613.233,-362.194"/>
<polygon fill="black" stroke="black" points="615.332,-365.025 622.27,-357.018 611.853,-358.951 615.332,-365.025"/>
</g>
<!-- moduser&#45;&gt;chj -->
<g id="edge60" class="edge"><title>moduser&#45;&gt;chj</title>
<path fill="none" stroke="black" d="M1722.2,-526.784C1714.6,-524.489 1706.53,-522.11 1699,-520 1649.23,-506.057 1591.21,-491.446 1555.04,-482.529"/>
<polygon fill="black" stroke="black" points="1555.54,-479.049 1544.99,-480.061 1553.87,-485.846 1555.54,-479.049"/>
</g>
<!-- moduser&#45;&gt;key -->
<g id="edge61" class="edge"><title>moduser&#45;&gt;key</title>
<path fill="none" stroke="black" d="M1782.56,-524.434C1819.91,-505.289 1882,-465.035 1882,-409 1882,-409 1882,-409 1882,-147 1882,-29.2647 1441.25,-19.1999 1309.04,-18.8291"/>
<polygon fill="black" stroke="black" points="1309,-15.3291 1299,-18.8183 1308.99,-22.3291 1309,-15.3291"/>
</g>
<!-- nosudo -->
<g id="node42" class="node"><title>nosudo</title>
<ellipse fill="none" stroke="green" cx="2122" cy="-798" rx="36.2938" ry="18"/>
<text text-anchor="middle" x="2122" y="-794.3" font-family="Times,serif" font-size="14.00">nosudo</text>
</g>
<!-- qemu -->
<g id="node44" class="node"><title>qemu</title>
<ellipse fill="none" stroke="green" cx="343" cy="-603" rx="30.5947" ry="18"/>
<text text-anchor="middle" x="343" y="-599.3" font-family="Times,serif" font-size="14.00">qemu</text>
</g>
<!-- qemu&#45;&gt;cj_qemucontrol -->
<g id="edge62" class="edge"><title>qemu&#45;&gt;cj_qemucontrol</title>
<path fill="none" stroke="black" d="M316.08,-594.148C282.087,-584.234 222.838,-566.953 179.704,-554.372"/>
<polygon fill="black" stroke="black" points="180.517,-550.963 169.937,-551.523 178.557,-557.683 180.517,-550.963"/>
</g>
<!-- qemu&#45;&gt;dnsmasq -->
<g id="edge63" class="edge"><title>qemu&#45;&gt;dnsmasq</title>
<path fill="none" stroke="black" d="M370.395,-594.75C403.054,-586.007 459.222,-570.654 507,-556 510.078,-555.056 513.253,-554.057 516.443,-553.036"/>
<polygon fill="black" stroke="black" points="517.545,-556.358 525.973,-549.938 515.381,-549.701 517.545,-556.358"/>
</g>
<!-- remove_xserver -->
<g id="node45" class="node"><title>remove_xserver</title>
<ellipse fill="none" stroke="green" cx="2243" cy="-798" rx="66.0889" ry="18"/>
<text text-anchor="middle" x="2243" y="-794.3" font-family="Times,serif" font-size="14.00">remove&#45;xserver</text>
</g>
<!-- schemen -->
<g id="node46" class="node"><title>schemen</title>
<ellipse fill="none" stroke="green" cx="1584" cy="-798" rx="42.4939" ry="18"/>
<text text-anchor="middle" x="1584" y="-794.3" font-family="Times,serif" font-size="14.00">schemen</text>
</g>
<!-- schemen&#45;&gt;coworking -->
<g id="edge64" class="edge"><title>schemen&#45;&gt;coworking</title>
<path fill="none" stroke="black" d="M1548.41,-788.174C1504.22,-777.212 1428.6,-758.457 1378.96,-746.145"/>
<polygon fill="black" stroke="black" points="1379.64,-742.707 1369.09,-743.696 1377.96,-749.501 1379.64,-742.707"/>
</g>
<!-- schemen&#45;&gt;emacs -->
<g id="edge65" class="edge"><title>schemen&#45;&gt;emacs</title>
<path fill="none" stroke="black" d="M1584,-779.737C1584,-758.361 1584,-721.691 1584,-696.442"/>
<polygon fill="black" stroke="black" points="1587.5,-696.398 1584,-686.398 1580.5,-696.398 1587.5,-696.398"/>
</g>
<!-- schemen_lili -->
<g id="node47" class="node"><title>schemen_lili</title>
<ellipse fill="none" stroke="blue" cx="1749" cy="-668" rx="54.6905" ry="18"/>
<text text-anchor="middle" x="1749" y="-664.3" font-family="Times,serif" font-size="14.00">schemen&#45;lili</text>
</g>
<!-- schemen&#45;&gt;schemen_lili -->
<g id="edge66" class="edge"><title>schemen&#45;&gt;schemen_lili</title>
<path fill="none" stroke="black" d="M1603.58,-781.814C1632.61,-759.287 1687.26,-716.895 1720.67,-690.978"/>
<polygon fill="black" stroke="black" points="1722.92,-693.661 1728.68,-684.766 1718.63,-688.131 1722.92,-693.661"/>
</g>
<!-- schemen_lili&#45;&gt;chj_emacs -->
<g id="edge69" class="edge"><title>schemen_lili&#45;&gt;chj_emacs</title>
<path fill="none" stroke="black" d="M1760.76,-650.314C1774.71,-629.417 1797.17,-591.977 1806,-556 1816.02,-515.161 1813.56,-465.998 1810.53,-436.143"/>
<polygon fill="black" stroke="black" points="1813.99,-435.621 1809.41,-426.068 1807.03,-436.394 1813.99,-435.621"/>
</g>
<!-- schemen_lili&#45;&gt;coworking_user -->
<g id="edge67" class="edge"><title>schemen_lili&#45;&gt;coworking_user</title>
<path fill="none" stroke="black" d="M1728.81,-651.102C1719.32,-643.624 1707.83,-634.576 1697.47,-626.417"/>
<polygon fill="black" stroke="black" points="1699.48,-623.549 1689.46,-620.112 1695.15,-629.048 1699.48,-623.549"/>
</g>
<!-- schemen_lili&#45;&gt;gambit -->
<g id="edge68" class="edge"><title>schemen_lili&#45;&gt;gambit</title>
<path fill="none" stroke="black" d="M1753.39,-649.749C1756.93,-631.468 1759.14,-602.829 1744,-585 1686.66,-517.473 1411.02,-487.094 1301.25,-477.528"/>
<polygon fill="black" stroke="black" points="1301.42,-474.03 1291.16,-476.667 1300.82,-481.005 1301.42,-474.03"/>
</g>
<!-- set_x_terminal_emulator -->
<g id="node48" class="node"><title>set_x_terminal_emulator</title>
<ellipse fill="none" stroke="blue" cx="844" cy="-408" rx="94.7833" ry="18"/>
<text text-anchor="middle" x="844" y="-404.3" font-family="Times,serif" font-size="14.00">set&#45;x&#45;terminal&#45;emulator</text>
</g>
<!-- set_x_terminal_emulator&#45;&gt;chj_bin -->
<g id="edge71" class="edge"><title>set_x_terminal_emulator&#45;&gt;chj_bin</title>
<path fill="none" stroke="black" d="M797.343,-392.229C762.883,-381.32 716.51,-366.639 684.011,-356.35"/>
<polygon fill="black" stroke="black" points="684.989,-352.989 674.399,-353.307 682.876,-359.662 684.989,-352.989"/>
</g>
<!-- set_x_terminal_emulator&#45;&gt;urxvt -->
<g id="edge70" class="edge"><title>set_x_terminal_emulator&#45;&gt;urxvt</title>
<path fill="none" stroke="black" d="M867.421,-390.528C901.141,-366.813 963.225,-323.15 998.888,-298.068"/>
<polygon fill="black" stroke="black" points="1001.19,-300.731 1007.35,-292.115 997.159,-295.005 1001.19,-300.731"/>
</g>
<!-- slim_desktop&#45;&gt;chj -->
<g id="edge72" class="edge"><title>slim_desktop&#45;&gt;chj</title>
<path fill="none" stroke="black" d="M859.769,-528.299C877.395,-525.325 897.561,-522.197 916,-520 1086.39,-499.695 1129.9,-504.085 1301,-491 1365.11,-486.097 1439.76,-480.279 1483.27,-476.877"/>
<polygon fill="black" stroke="black" points="1483.67,-480.356 1493.37,-476.087 1483.13,-473.378 1483.67,-480.356"/>
</g>
<!-- slim_desktop&#45;&gt;set_x_terminal_emulator -->
<g id="edge73" class="edge"><title>slim_desktop&#45;&gt;set_x_terminal_emulator</title>
<path fill="none" stroke="black" d="M816.249,-520.003C821.629,-498.485 830.957,-461.171 837.3,-435.801"/>
<polygon fill="black" stroke="black" points="840.703,-436.618 839.733,-426.068 833.912,-434.92 840.703,-436.618"/>
</g>
<!-- slim_desktop&#45;&gt;xfce4_load_profile -->
<g id="edge74" class="edge"><title>slim_desktop&#45;&gt;xfce4_load_profile</title>
<path fill="none" stroke="black" d="M764.068,-528.372C703.843,-517.532 600.057,-498.85 531.22,-486.46"/>
<polygon fill="black" stroke="black" points="531.789,-483.006 521.327,-484.679 530.549,-489.895 531.789,-483.006"/>
</g>
<!-- slim_vncserver&#45;&gt;chj_bin -->
<g id="edge76" class="edge"><title>slim_vncserver&#45;&gt;chj_bin</title>
<path fill="none" stroke="black" d="M801.682,-589.221C782.961,-581.835 761.584,-570.986 746,-556 731.511,-542.067 679.4,-423.774 656.236,-370.19"/>
<polygon fill="black" stroke="black" points="659.437,-368.774 652.263,-360.978 653.009,-371.546 659.437,-368.774"/>
</g>
<!-- slim_vncserver&#45;&gt;slim_desktop -->
<g id="edge75" class="edge"><title>slim_vncserver&#45;&gt;slim_desktop</title>
<path fill="none" stroke="black" d="M834.693,-585.117C831.704,-579.044 828.258,-572.039 824.967,-565.353"/>
<polygon fill="black" stroke="black" points="827.886,-563.357 820.33,-555.929 821.605,-566.447 827.886,-563.357"/>
</g>
<!-- sources_bullseye&#45;&gt;chj_bin -->
<g id="edge77" class="edge"><title>sources_bullseye&#45;&gt;chj_bin</title>
<path fill="none" stroke="black" d="M414.887,-395.591C468.746,-383.516 552.757,-364.681 602.985,-353.42"/>
<polygon fill="black" stroke="black" points="603.872,-356.808 612.864,-351.205 602.341,-349.977 603.872,-356.808"/>
</g>
<!-- swap -->
<g id="node52" class="node"><title>swap</title>
<ellipse fill="none" stroke="green" cx="626" cy="-408" rx="28.6953" ry="18"/>
<text text-anchor="middle" x="626" y="-404.3" font-family="Times,serif" font-size="14.00">swap</text>
</g>
<!-- swap&#45;&gt;chj_bin -->
<g id="edge78" class="edge"><title>swap&#45;&gt;chj_bin</title>
<path fill="none" stroke="black" d="M631.092,-390.117C632.881,-384.185 634.938,-377.365 636.911,-370.82"/>
<polygon fill="black" stroke="black" points="640.358,-371.514 639.894,-360.929 633.656,-369.493 640.358,-371.514"/>
</g>
<!-- system&#45;&gt;debian_upgrade -->
<g id="edge79" class="edge"><title>system&#45;&gt;debian_upgrade</title>
<path fill="none" stroke="black" d="M980.288,-585.117C981.77,-579.281 983.471,-572.585 985.108,-566.137"/>
<polygon fill="black" stroke="black" points="988.52,-566.923 987.589,-556.369 981.735,-565.199 988.52,-566.923"/>
</g>
<!-- system&#45;&gt;locales -->
<g id="edge80" class="edge"><title>system&#45;&gt;locales</title>
<path fill="none" stroke="black" d="M956.411,-587.79C944.487,-578.943 929.082,-567.159 916,-556 898.3,-540.902 897.717,-532.347 878,-520 852.707,-504.161 821.11,-492.436 796.409,-484.789"/>
<polygon fill="black" stroke="black" points="797.211,-481.375 786.627,-481.86 795.203,-488.081 797.211,-481.375"/>
</g>
<!-- virtualmem_3GB&#45;&gt;chj_bin -->
<g id="edge81" class="edge"><title>virtualmem_3GB&#45;&gt;chj_bin</title>
<path fill="none" stroke="black" d="M976.708,-395.519C967.166,-393.586 957.302,-391.669 948,-390 856.355,-373.556 748.42,-358.099 689.288,-349.963"/>
<polygon fill="black" stroke="black" points="689.561,-346.468 679.179,-348.578 688.611,-353.403 689.561,-346.468"/>
</g>
<!-- vncclient -->
<g id="node58" class="node"><title>vncclient</title>
<ellipse fill="none" stroke="green" cx="2370" cy="-798" rx="42.7926" ry="18"/>
<text text-anchor="middle" x="2370" y="-794.3" font-family="Times,serif" font-size="14.00">vncclient</text>
</g>
<!-- xfce_local -->
<g id="node59" class="node"><title>xfce_local</title>
<ellipse fill="none" stroke="green" cx="230" cy="-408" rx="46.2923" ry="18"/>
<text text-anchor="middle" x="230" y="-404.3" font-family="Times,serif" font-size="14.00">xfce&#45;local</text>
</g>
<!-- xfce_local&#45;&gt;chj_bin -->
<g id="edge82" class="edge"><title>xfce_local&#45;&gt;chj_bin</title>
<path fill="none" stroke="black" d="M263.79,-395.552C270.746,-393.48 278.065,-391.503 285,-390 396.872,-365.754 531.265,-352.754 599.873,-347.25"/>
<polygon fill="black" stroke="black" points="600.212,-350.734 609.907,-346.461 599.663,-343.755 600.212,-350.734"/>
</g>
<!-- xfce_local&#45;&gt;dotconfig_xfce4_checkout -->
<g id="edge83" class="edge"><title>xfce_local&#45;&gt;dotconfig_xfce4_checkout</title>
<path fill="none" stroke="black" d="M230,-389.737C230,-368.361 230,-331.691 230,-306.442"/>
<polygon fill="black" stroke="black" points="233.5,-306.398 230,-296.398 226.5,-306.398 233.5,-306.398"/>
</g>
<!-- xfce_server -->
<g id="node60" class="node"><title>xfce_server</title>
<ellipse fill="none" stroke="blue" cx="116" cy="-408" rx="50.0912" ry="18"/>
<text text-anchor="middle" x="116" y="-404.3" font-family="Times,serif" font-size="14.00">xfce&#45;server</text>
</g>
<!-- xfce_server&#45;&gt;chj_bin -->
<g id="edge84" class="edge"><title>xfce_server&#45;&gt;chj_bin</title>
<path fill="none" stroke="black" d="M152.256,-395.426C159.718,-393.363 167.566,-391.422 175,-390 328.831,-360.567 514.795,-349.446 599.276,-345.697"/>
<polygon fill="black" stroke="black" points="599.467,-349.192 609.307,-345.266 599.166,-342.199 599.467,-349.192"/>
</g>
<!-- xfce_server&#45;&gt;dotconfig_xfce4_checkout -->
<g id="edge85" class="edge"><title>xfce_server&#45;&gt;dotconfig_xfce4_checkout</title>
<path fill="none" stroke="black" d="M130.67,-390.528C150.313,-368.473 185.322,-329.165 208.095,-303.595"/>
<polygon fill="black" stroke="black" points="210.987,-305.61 215.024,-295.815 205.76,-300.955 210.987,-305.61"/>
</g>
<!-- xfce4_load_profile&#45;&gt;chj_bin -->
<g id="edge86" class="edge"><title>xfce4_load_profile&#45;&gt;chj_bin</title>
<path fill="none" stroke="black" d="M461.182,-454.892C461.266,-436.46 464.345,-407.435 481,-390 511.433,-358.141 561.993,-347.785 598.943,-344.693"/>
<polygon fill="black" stroke="black" points="599.241,-348.181 608.976,-344.002 598.76,-341.198 599.241,-348.181"/>
</g>
<!-- xfce4_load_profile&#45;&gt;xfce_server -->
<g id="edge87" class="edge"><title>xfce4_load_profile&#45;&gt;xfce_server</title>
<path fill="none" stroke="black" d="M405.447,-460.533C395.324,-458.599 384.862,-456.677 375,-455 286.453,-439.939 262.803,-444.923 175,-426 170.897,-425.116 166.66,-424.101 162.428,-423.018"/>
<polygon fill="black" stroke="black" points="163.192,-419.599 152.627,-420.392 161.38,-426.361 163.192,-419.599"/>
</g>
</g>
</svg>
