<?xml version="1.0" encoding="UTF-8" standalone="no"?>
<!DOCTYPE svg PUBLIC "-//W3C//DTD SVG 1.1//EN"
 "http://www.w3.org/Graphics/SVG/1.1/DTD/svg11.dtd">
<!-- Generated by graphviz version 2.38.0 (20140413.2041)
 -->
<!-- Title: foo Pages: 1 -->
<svg width="1388pt" height="629pt"
 viewBox="0.00 0.00 1387.85 629.00" xmlns="http://www.w3.org/2000/svg" xmlns:xlink="http://www.w3.org/1999/xlink">
<g id="graph0" class="graph" transform="scale(1 1) rotate(0) translate(4 625)">
<title>foo</title>
<polygon fill="white" stroke="none" points="-4,4 -4,-625 1383.85,-625 1383.85,4 -4,4"/>
<!-- _bs -->
<g id="node1" class="node"><title>_bs</title>
<ellipse fill="none" stroke="grey" cx="1220" cy="-83" rx="27" ry="18"/>
<text text-anchor="middle" x="1220" y="-79.3" font-family="Times,serif" font-size="14.00">.bs</text>
</g>
<!-- _usr_local_bin_fastrandom -->
<g id="node2" class="node"><title>_usr_local_bin_fastrandom</title>
<ellipse fill="none" stroke="grey" cx="755" cy="-278" rx="99.3824" ry="18"/>
<text text-anchor="middle" x="755" y="-274.3" font-family="Times,serif" font-size="14.00">/usr/local/bin/fastrandom</text>
</g>
<!-- chj -->
<g id="node3" class="node"><title>chj</title>
<ellipse fill="none" stroke="blue" cx="672" cy="-408" rx="27" ry="18"/>
<text text-anchor="middle" x="672" y="-404.3" font-family="Times,serif" font-size="14.00">chj</text>
</g>
<!-- chj_bin -->
<g id="node4" class="node"><title>chj_bin</title>
<ellipse fill="none" stroke="blue" cx="1174" cy="-278" rx="35.9954" ry="18"/>
<text text-anchor="middle" x="1174" y="-274.3" font-family="Times,serif" font-size="14.00">chj&#45;bin</text>
</g>
<!-- chj&#45;&gt;chj_bin -->
<g id="edge3" class="edge"><title>chj&#45;&gt;chj_bin</title>
<path fill="none" stroke="black" d="M698.797,-405.443C751.57,-401.813 872.238,-390.722 969,-361 1004.73,-350.026 1010.47,-339.295 1045,-325 1074.77,-312.677 1109.17,-300.511 1134.96,-291.788"/>
<polygon fill="black" stroke="black" points="1136.37,-295.005 1144.74,-288.505 1134.14,-288.369 1136.37,-295.005"/>
</g>
<!-- chj_emacs -->
<g id="node5" class="node"><title>chj_emacs</title>
<ellipse fill="none" stroke="blue" cx="289" cy="-278" rx="46.5926" ry="18"/>
<text text-anchor="middle" x="289" y="-274.3" font-family="Times,serif" font-size="14.00">chj&#45;emacs</text>
</g>
<!-- chj&#45;&gt;chj_emacs -->
<g id="edge4" class="edge"><title>chj&#45;&gt;chj_emacs</title>
<path fill="none" stroke="black" d="M645.175,-405.799C577.166,-402.343 399.87,-390.66 350,-361 328.083,-347.965 311.549,-323.722 301.262,-304.963"/>
<polygon fill="black" stroke="black" points="304.316,-303.251 296.587,-296.005 298.111,-306.49 304.316,-303.251"/>
</g>
<!-- cj_git_patchtool -->
<g id="node11" class="node"><title>cj_git_patchtool</title>
<ellipse fill="none" stroke="blue" cx="895" cy="-343" rx="64.9885" ry="18"/>
<text text-anchor="middle" x="895" y="-339.3" font-family="Times,serif" font-size="14.00">cj&#45;git&#45;patchtool</text>
</g>
<!-- chj&#45;&gt;cj_git_patchtool -->
<g id="edge6" class="edge"><title>chj&#45;&gt;cj_git_patchtool</title>
<path fill="none" stroke="black" d="M696.289,-400.138C730.89,-390.363 795.278,-372.173 841.388,-359.146"/>
<polygon fill="black" stroke="black" points="842.552,-362.454 851.224,-356.367 840.649,-355.718 842.552,-362.454"/>
</g>
<!-- debianpackages -->
<g id="node15" class="node"><title>debianpackages</title>
<ellipse fill="none" stroke="blue" cx="534" cy="-278" rx="66.0889" ry="18"/>
<text text-anchor="middle" x="534" y="-274.3" font-family="Times,serif" font-size="14.00">debianpackages</text>
</g>
<!-- chj&#45;&gt;debianpackages -->
<g id="edge2" class="edge"><title>chj&#45;&gt;debianpackages</title>
<path fill="none" stroke="black" d="M649.645,-397.637C632.331,-389.642 608.437,-376.919 591,-361 573.39,-344.923 558.25,-322.454 548.009,-305.1"/>
<polygon fill="black" stroke="black" points="550.841,-303.002 542.839,-296.059 544.764,-306.477 550.841,-303.002"/>
</g>
<!-- fastrandom -->
<g id="node20" class="node"><title>fastrandom</title>
<ellipse fill="none" stroke="blue" cx="723" cy="-343" rx="50.8918" ry="18"/>
<text text-anchor="middle" x="723" y="-339.3" font-family="Times,serif" font-size="14.00">fastrandom</text>
</g>
<!-- chj&#45;&gt;fastrandom -->
<g id="edge5" class="edge"><title>chj&#45;&gt;fastrandom</title>
<path fill="none" stroke="black" d="M684.346,-391.749C689.974,-384.796 696.781,-376.388 703.104,-368.578"/>
<polygon fill="black" stroke="black" points="706.124,-370.409 709.696,-360.434 700.684,-366.005 706.124,-370.409"/>
</g>
<!-- git_sign -->
<g id="node24" class="node"><title>git_sign</title>
<ellipse fill="none" stroke="blue" cx="641" cy="-83" rx="37.8943" ry="18"/>
<text text-anchor="middle" x="641" y="-79.3" font-family="Times,serif" font-size="14.00">git&#45;sign</text>
</g>
<!-- chj&#45;&gt;git_sign -->
<g id="edge1" class="edge"><title>chj&#45;&gt;git_sign</title>
<path fill="none" stroke="black" d="M644.842,-406.85C580.504,-405.86 421.734,-399.485 389,-361 337.123,-300.01 390.805,-236.958 459,-195 538.872,-145.858 606.414,-236.722 668,-166 682.126,-149.778 671.928,-125.974 660.239,-108.186"/>
<polygon fill="black" stroke="black" points="663.096,-106.164 654.481,-99.9973 657.37,-110.191 663.096,-106.164"/>
</g>
<!-- chj_bin&#45;&gt;_bs -->
<g id="edge7" class="edge"><title>chj_bin&#45;&gt;_bs</title>
<path fill="none" stroke="black" d="M1200.85,-266.014C1235.43,-250.05 1293.22,-216.695 1311,-166 1316.3,-150.902 1319.38,-143.629 1311,-130 1298.86,-110.264 1275.35,-98.6843 1255.26,-92.08"/>
<polygon fill="black" stroke="black" points="1256.03,-88.6568 1245.45,-89.1433 1254.03,-95.363 1256.03,-88.6568"/>
</g>
<!-- chj_perllib -->
<g id="node8" class="node"><title>chj_perllib</title>
<ellipse fill="none" stroke="blue" cx="1203" cy="-213" rx="47.3916" ry="18"/>
<text text-anchor="middle" x="1203" y="-209.3" font-family="Times,serif" font-size="14.00">chj&#45;perllib</text>
</g>
<!-- chj_bin&#45;&gt;chj_perllib -->
<g id="edge9" class="edge"><title>chj_bin&#45;&gt;chj_perllib</title>
<path fill="none" stroke="black" d="M1181.77,-260.117C1184.57,-254.044 1187.79,-247.039 1190.87,-240.353"/>
<polygon fill="black" stroke="black" points="1194.2,-241.477 1195.21,-230.929 1187.85,-238.55 1194.2,-241.477"/>
</g>
<!-- chj_bin&#45;&gt;git_sign -->
<g id="edge8" class="edge"><title>chj_bin&#45;&gt;git_sign</title>
<path fill="none" stroke="black" d="M1164.28,-260.555C1141.73,-222.401 1087.59,-131.011 1086,-130 1021.15,-88.6901 790.429,-83.7637 689.2,-83.6521"/>
<polygon fill="black" stroke="black" points="688.951,-80.1521 678.952,-83.6569 688.954,-87.1521 688.951,-80.1521"/>
</g>
<!-- chj_emacs_checkout -->
<g id="node6" class="node"><title>chj_emacs_checkout</title>
<ellipse fill="none" stroke="blue" cx="367" cy="-148" rx="81.4863" ry="18"/>
<text text-anchor="middle" x="367" y="-144.3" font-family="Times,serif" font-size="14.00">chj&#45;emacs&#45;checkout</text>
</g>
<!-- chj_emacs&#45;&gt;chj_emacs_checkout -->
<g id="edge10" class="edge"><title>chj_emacs&#45;&gt;chj_emacs_checkout</title>
<path fill="none" stroke="black" d="M299.197,-260.266C312.437,-238.539 335.684,-200.39 351.212,-174.908"/>
<polygon fill="black" stroke="black" points="354.336,-176.507 356.551,-166.146 348.359,-172.865 354.336,-176.507"/>
</g>
<!-- chj_emacs_checkout&#45;&gt;git_sign -->
<g id="edge11" class="edge"><title>chj_emacs_checkout&#45;&gt;git_sign</title>
<path fill="none" stroke="black" d="M421.134,-134.553C472.86,-122.66 549.832,-104.962 597.637,-93.9703"/>
<polygon fill="black" stroke="black" points="598.706,-97.3159 607.668,-91.664 597.138,-90.4939 598.706,-97.3159"/>
</g>
<!-- chj_fastrandom -->
<g id="node7" class="node"><title>chj_fastrandom</title>
<ellipse fill="none" stroke="green" cx="595" cy="-148" rx="64.189" ry="18"/>
<text text-anchor="middle" x="595" y="-144.3" font-family="Times,serif" font-size="14.00">chj&#45;fastrandom</text>
</g>
<!-- chj_fastrandom&#45;&gt;git_sign -->
<g id="edge12" class="edge"><title>chj_fastrandom&#45;&gt;git_sign</title>
<path fill="none" stroke="black" d="M607.327,-130.117C612.147,-123.516 617.771,-115.813 623.027,-108.615"/>
<polygon fill="black" stroke="black" points="625.887,-110.634 628.957,-100.493 620.234,-106.506 625.887,-110.634"/>
</g>
<!-- chj_perllib_checkout -->
<g id="node9" class="node"><title>chj_perllib_checkout</title>
<ellipse fill="none" stroke="blue" cx="1220" cy="-148" rx="81.7856" ry="18"/>
<text text-anchor="middle" x="1220" y="-144.3" font-family="Times,serif" font-size="14.00">chj&#45;perllib&#45;checkout</text>
</g>
<!-- chj_perllib&#45;&gt;chj_perllib_checkout -->
<g id="edge13" class="edge"><title>chj_perllib&#45;&gt;chj_perllib_checkout</title>
<path fill="none" stroke="black" d="M1207.65,-194.785C1209.22,-188.951 1211.02,-182.288 1212.75,-175.885"/>
<polygon fill="black" stroke="black" points="1216.13,-176.761 1215.36,-166.194 1209.38,-174.937 1216.13,-176.761"/>
</g>
<!-- chj_perllib_checkout&#45;&gt;_bs -->
<g id="edge14" class="edge"><title>chj_perllib_checkout&#45;&gt;_bs</title>
<path fill="none" stroke="black" d="M1220,-129.785C1220,-124.09 1220,-117.605 1220,-111.343"/>
<polygon fill="black" stroke="black" points="1223.5,-111.194 1220,-101.194 1216.5,-111.194 1223.5,-111.194"/>
</g>
<!-- chj_perllib_checkout&#45;&gt;git_sign -->
<g id="edge15" class="edge"><title>chj_perllib_checkout&#45;&gt;git_sign</title>
<path fill="none" stroke="black" d="M1160.2,-135.646C1148.24,-133.59 1135.74,-131.596 1124,-130 964.792,-108.358 774.686,-93.4287 688.115,-87.2241"/>
<polygon fill="black" stroke="black" points="688.303,-83.7287 678.08,-86.5109 687.806,-90.7111 688.303,-83.7287"/>
</g>
<!-- chjvncserver -->
<g id="node10" class="node"><title>chjvncserver</title>
<ellipse fill="none" stroke="green" cx="553" cy="-603" rx="55.7903" ry="18"/>
<text text-anchor="middle" x="553" y="-599.3" font-family="Times,serif" font-size="14.00">chjvncserver</text>
</g>
<!-- chjvncserver&#45;&gt;debianpackages -->
<g id="edge16" class="edge"><title>chjvncserver&#45;&gt;debianpackages</title>
<path fill="none" stroke="black" d="M548.783,-584.73C543.186,-560.251 534,-513.989 534,-474 534,-474 534,-474 534,-407 534,-372.389 534,-332.513 534,-306.591"/>
<polygon fill="black" stroke="black" points="537.5,-306.391 534,-296.391 530.5,-306.391 537.5,-306.391"/>
</g>
<!-- desktop -->
<g id="node16" class="node"><title>desktop</title>
<ellipse fill="none" stroke="blue" cx="728" cy="-473" rx="38.1938" ry="18"/>
<text text-anchor="middle" x="728" y="-469.3" font-family="Times,serif" font-size="14.00">desktop</text>
</g>
<!-- chjvncserver&#45;&gt;desktop -->
<g id="edge18" class="edge"><title>chjvncserver&#45;&gt;desktop</title>
<path fill="none" stroke="black" d="M556.681,-584.83C561.503,-566.344 571.715,-537.272 591,-520 594.78,-516.615 648.501,-499.136 687.529,-486.729"/>
<polygon fill="black" stroke="black" points="688.621,-490.054 697.096,-483.696 686.506,-483.382 688.621,-490.054"/>
</g>
<!-- urxvt -->
<g id="node34" class="node"><title>urxvt</title>
<ellipse fill="none" stroke="blue" cx="497" cy="-213" rx="29.4969" ry="18"/>
<text text-anchor="middle" x="497" y="-209.3" font-family="Times,serif" font-size="14.00">urxvt</text>
</g>
<!-- chjvncserver&#45;&gt;urxvt -->
<g id="edge17" class="edge"><title>chjvncserver&#45;&gt;urxvt</title>
<path fill="none" stroke="black" d="M497.444,-600.859C357.211,-596.481 0,-575.378 0,-474 0,-474 0,-474 0,-342 0,-286.224 43.9142,-282.386 95,-260 159.532,-231.721 369.758,-219.516 457.73,-215.558"/>
<polygon fill="black" stroke="black" points="457.997,-219.049 467.835,-215.115 457.691,-212.056 457.997,-219.049"/>
</g>
<!-- vncserver -->
<g id="node36" class="node"><title>vncserver</title>
<ellipse fill="none" stroke="blue" cx="831" cy="-538" rx="44.6926" ry="18"/>
<text text-anchor="middle" x="831" y="-534.3" font-family="Times,serif" font-size="14.00">vncserver</text>
</g>
<!-- chjvncserver&#45;&gt;vncserver -->
<g id="edge19" class="edge"><title>chjvncserver&#45;&gt;vncserver</title>
<path fill="none" stroke="black" d="M594.149,-590.738C602.04,-588.72 610.256,-586.716 618,-585 688.131,-569.457 707.273,-573.263 777,-556 780.599,-555.109 784.309,-554.112 788.02,-553.058"/>
<polygon fill="black" stroke="black" points="789.173,-556.367 797.769,-550.175 787.187,-549.655 789.173,-556.367"/>
</g>
<!-- cj_git_patchtool&#45;&gt;chj_bin -->
<g id="edge21" class="edge"><title>cj_git_patchtool&#45;&gt;chj_bin</title>
<path fill="none" stroke="black" d="M943.598,-331.026C996.91,-318.988 1081.6,-299.865 1132.09,-288.463"/>
<polygon fill="black" stroke="black" points="1133.04,-291.838 1142.02,-286.221 1131.5,-285.01 1133.04,-291.838"/>
</g>
<!-- cj_git_patchtool&#45;&gt;debianpackages -->
<g id="edge20" class="edge"><title>cj_git_patchtool&#45;&gt;debianpackages</title>
<path fill="none" stroke="black" d="M841.344,-332.636C776.478,-321.316 667.417,-302.283 598.164,-290.198"/>
<polygon fill="black" stroke="black" points="598.698,-286.738 588.246,-288.467 597.495,-293.634 598.698,-286.738"/>
</g>
<!-- cj_git_patchtool&#45;&gt;git_sign -->
<g id="edge22" class="edge"><title>cj_git_patchtool&#45;&gt;git_sign</title>
<path fill="none" stroke="black" d="M942.553,-330.647C984.944,-320.058 1041.32,-304.637 1048,-296 1093.17,-237.626 1102.21,-185.012 1053,-130 1029.05,-103.227 791.886,-90.2361 688.627,-85.8139"/>
<polygon fill="black" stroke="black" points="688.614,-82.3103 678.476,-85.3884 688.32,-89.3042 688.614,-82.3103"/>
</g>
<!-- cplusplus -->
<g id="node12" class="node"><title>cplusplus</title>
<ellipse fill="none" stroke="blue" cx="626" cy="-213" rx="44.393" ry="18"/>
<text text-anchor="middle" x="626" y="-209.3" font-family="Times,serif" font-size="14.00">cplusplus</text>
</g>
<!-- perhaps_aptupdate -->
<g id="node31" class="node"><title>perhaps_aptupdate</title>
<ellipse fill="none" stroke="blue" cx="792" cy="-148" rx="76.8869" ry="18"/>
<text text-anchor="middle" x="792" y="-144.3" font-family="Times,serif" font-size="14.00">perhaps_aptupdate</text>
</g>
<!-- cplusplus&#45;&gt;perhaps_aptupdate -->
<g id="edge23" class="edge"><title>cplusplus&#45;&gt;perhaps_aptupdate</title>
<path fill="none" stroke="black" d="M657.223,-200.15C681.587,-190.904 715.861,-177.896 743.748,-167.312"/>
<polygon fill="black" stroke="black" points="745.212,-170.501 753.319,-163.68 742.728,-163.956 745.212,-170.501"/>
</g>
<!-- debian_emacs -->
<g id="node13" class="node"><title>debian_emacs</title>
<ellipse fill="none" stroke="blue" cx="164" cy="-278" rx="59.5901" ry="18"/>
<text text-anchor="middle" x="164" y="-274.3" font-family="Times,serif" font-size="14.00">debian&#45;emacs</text>
</g>
<!-- debian_upgrade -->
<g id="node14" class="node"><title>debian_upgrade</title>
<ellipse fill="none" stroke="blue" cx="939" cy="-278" rx="66.8882" ry="18"/>
<text text-anchor="middle" x="939" y="-274.3" font-family="Times,serif" font-size="14.00">debian_upgrade</text>
</g>
<!-- debian_upgrade&#45;&gt;perhaps_aptupdate -->
<g id="edge24" class="edge"><title>debian_upgrade&#45;&gt;perhaps_aptupdate</title>
<path fill="none" stroke="black" d="M889.57,-265.763C880.731,-263.805 871.599,-261.815 863,-260 798.27,-246.334 758.976,-282.134 717,-231 706.848,-218.633 709.185,-208.961 717,-195 723.182,-183.957 733.218,-175.244 743.966,-168.509"/>
<polygon fill="black" stroke="black" points="745.736,-171.529 752.678,-163.525 742.26,-165.452 745.736,-171.529"/>
</g>
<!-- debianpackages&#45;&gt;urxvt -->
<g id="edge25" class="edge"><title>debianpackages&#45;&gt;urxvt</title>
<path fill="none" stroke="black" d="M524.085,-260.117C520.232,-253.557 515.74,-245.909 511.535,-238.75"/>
<polygon fill="black" stroke="black" points="514.515,-236.911 506.432,-230.061 508.479,-240.456 514.515,-236.911"/>
</g>
<!-- desktop&#45;&gt;chj -->
<g id="edge26" class="edge"><title>desktop&#45;&gt;chj</title>
<path fill="none" stroke="black" d="M713.869,-456.102C707.19,-448.589 699.103,-439.491 691.824,-431.302"/>
<polygon fill="black" stroke="black" points="694.425,-428.959 685.165,-423.811 689.193,-433.61 694.425,-428.959"/>
</g>
<!-- xfce4_load_profile -->
<g id="node38" class="node"><title>xfce4_load_profile</title>
<ellipse fill="none" stroke="blue" cx="1157" cy="-408" rx="77.1866" ry="18"/>
<text text-anchor="middle" x="1157" y="-404.3" font-family="Times,serif" font-size="14.00">xfce4_load_profile</text>
</g>
<!-- desktop&#45;&gt;xfce4_load_profile -->
<g id="edge27" class="edge"><title>desktop&#45;&gt;xfce4_load_profile</title>
<path fill="none" stroke="black" d="M764.6,-467.621C826.713,-460.054 956.67,-443.641 1066,-426 1073.7,-424.758 1081.75,-423.376 1089.74,-421.952"/>
<polygon fill="black" stroke="black" points="1090.58,-425.357 1099.79,-420.133 1089.33,-418.469 1090.58,-425.357"/>
</g>
<!-- desktop_autoremove -->
<g id="node17" class="node"><title>desktop_autoremove</title>
<ellipse fill="none" stroke="green" cx="684" cy="-538" rx="84.485" ry="18"/>
<text text-anchor="middle" x="684" y="-534.3" font-family="Times,serif" font-size="14.00">desktop_autoremove</text>
</g>
<!-- desktop_autoremove&#45;&gt;desktop -->
<g id="edge28" class="edge"><title>desktop_autoremove&#45;&gt;desktop</title>
<path fill="none" stroke="black" d="M695.791,-520.117C700.302,-513.659 705.548,-506.148 710.48,-499.085"/>
<polygon fill="black" stroke="black" points="713.624,-500.696 716.481,-490.493 707.885,-496.688 713.624,-500.696"/>
</g>
<!-- dnsresolver -->
<g id="node18" class="node"><title>dnsresolver</title>
<ellipse fill="none" stroke="green" cx="678" cy="-603" rx="51.1914" ry="18"/>
<text text-anchor="middle" x="678" y="-599.3" font-family="Times,serif" font-size="14.00">dnsresolver</text>
</g>
<!-- emacs -->
<g id="node19" class="node"><title>emacs</title>
<ellipse fill="none" stroke="green" cx="205" cy="-343" rx="33.2948" ry="18"/>
<text text-anchor="middle" x="205" y="-339.3" font-family="Times,serif" font-size="14.00">emacs</text>
</g>
<!-- emacs&#45;&gt;chj_emacs -->
<g id="edge30" class="edge"><title>emacs&#45;&gt;chj_emacs</title>
<path fill="none" stroke="black" d="M223.642,-328.018C234.481,-319.889 248.363,-309.477 260.544,-300.342"/>
<polygon fill="black" stroke="black" points="262.746,-303.066 268.646,-294.266 258.546,-297.466 262.746,-303.066"/>
</g>
<!-- emacs&#45;&gt;debian_emacs -->
<g id="edge29" class="edge"><title>emacs&#45;&gt;debian_emacs</title>
<path fill="none" stroke="black" d="M194.441,-325.776C190.237,-319.316 185.297,-311.725 180.634,-304.56"/>
<polygon fill="black" stroke="black" points="183.34,-302.301 174.952,-295.829 177.473,-306.119 183.34,-302.301"/>
</g>
<!-- fastrandom&#45;&gt;_usr_local_bin_fastrandom -->
<g id="edge31" class="edge"><title>fastrandom&#45;&gt;_usr_local_bin_fastrandom</title>
<path fill="none" stroke="black" d="M731.575,-325.117C734.61,-319.142 738.103,-312.265 741.45,-305.677"/>
<polygon fill="black" stroke="black" points="744.77,-306.87 746.178,-296.369 738.529,-303.7 744.77,-306.87"/>
</g>
<!-- fperl -->
<g id="node21" class="node"><title>fperl</title>
<ellipse fill="none" stroke="green" cx="627" cy="-343" rx="27.0966" ry="18"/>
<text text-anchor="middle" x="627" y="-339.3" font-family="Times,serif" font-size="14.00">fperl</text>
</g>
<!-- fperl&#45;&gt;chj_bin -->
<g id="edge34" class="edge"><title>fperl&#45;&gt;chj_bin</title>
<path fill="none" stroke="black" d="M647.457,-330.796C652.416,-328.518 657.792,-326.395 663,-325 814.63,-284.389 858.724,-310.79 1015,-296 1053.61,-292.346 1097.43,-287.617 1129.28,-284.075"/>
<polygon fill="black" stroke="black" points="1130.05,-287.511 1139.6,-282.922 1129.27,-280.554 1130.05,-287.511"/>
</g>
<!-- fperl&#45;&gt;debianpackages -->
<g id="edge33" class="edge"><title>fperl&#45;&gt;debianpackages</title>
<path fill="none" stroke="black" d="M608.626,-329.553C596.527,-321.357 580.359,-310.404 566.165,-300.789"/>
<polygon fill="black" stroke="black" points="567.879,-297.723 557.637,-295.012 563.953,-303.518 567.879,-297.723"/>
</g>
<!-- fperl&#45;&gt;git_sign -->
<g id="edge32" class="edge"><title>fperl&#45;&gt;git_sign</title>
<path fill="none" stroke="black" d="M626.507,-324.747C625.288,-307.24 621.353,-279.951 609,-260 598.184,-242.532 587.434,-245.621 573,-231 547.202,-204.869 533.991,-200.707 522,-166 516.775,-150.877 512.953,-143.197 522,-130 538.198,-106.373 568.402,-94.878 594.326,-89.2874"/>
<polygon fill="black" stroke="black" points="595.219,-92.68 604.38,-87.3586 593.9,-85.8053 595.219,-92.68"/>
</g>
<!-- gambit -->
<g id="node22" class="node"><title>gambit</title>
<ellipse fill="none" stroke="blue" cx="434" cy="-343" rx="35.9954" ry="18"/>
<text text-anchor="middle" x="434" y="-339.3" font-family="Times,serif" font-size="14.00">gambit</text>
</g>
<!-- gambit&#45;&gt;chj_bin -->
<g id="edge38" class="edge"><title>gambit&#45;&gt;chj_bin</title>
<path fill="none" stroke="black" d="M468.572,-337.859C500.357,-334.146 548.806,-328.726 591,-325 779.153,-308.385 826.836,-312.488 1015,-296 1053.64,-292.614 1097.46,-287.861 1129.3,-284.241"/>
<polygon fill="black" stroke="black" points="1130.07,-287.675 1139.61,-283.061 1129.28,-280.721 1130.07,-287.675"/>
</g>
<!-- gambit&#45;&gt;chj_emacs -->
<g id="edge39" class="edge"><title>gambit&#45;&gt;chj_emacs</title>
<path fill="none" stroke="black" d="M407.742,-330.591C385.525,-320.939 353.366,-306.966 328.117,-295.996"/>
<polygon fill="black" stroke="black" points="329.381,-292.729 318.814,-291.954 326.591,-299.149 329.381,-292.729"/>
</g>
<!-- gambit&#45;&gt;cplusplus -->
<g id="edge36" class="edge"><title>gambit&#45;&gt;cplusplus</title>
<path fill="none" stroke="black" d="M426.114,-325.282C418.873,-307.191 411.3,-278.464 426,-260 430.762,-254.018 519.096,-235.369 576.762,-223.735"/>
<polygon fill="black" stroke="black" points="577.678,-227.121 586.793,-221.719 576.299,-220.258 577.678,-227.121"/>
</g>
<!-- gambit&#45;&gt;debianpackages -->
<g id="edge37" class="edge"><title>gambit&#45;&gt;debianpackages</title>
<path fill="none" stroke="black" d="M455.699,-328.33C468.638,-320.178 485.347,-309.651 500.005,-300.417"/>
<polygon fill="black" stroke="black" points="502.219,-303.159 508.814,-294.867 498.488,-297.236 502.219,-303.159"/>
</g>
<!-- gambit_checkout -->
<g id="node23" class="node"><title>gambit_checkout</title>
<ellipse fill="none" stroke="blue" cx="974" cy="-148" rx="70.3881" ry="18"/>
<text text-anchor="middle" x="974" y="-144.3" font-family="Times,serif" font-size="14.00">gambit&#45;checkout</text>
</g>
<!-- gambit&#45;&gt;gambit_checkout -->
<g id="edge35" class="edge"><title>gambit&#45;&gt;gambit_checkout</title>
<path fill="none" stroke="black" d="M433.874,-324.722C434.766,-305.565 439.448,-275.345 459,-260 504.348,-224.411 937.394,-272.885 977,-231 990.563,-216.656 988.564,-193.814 983.876,-175.877"/>
<polygon fill="black" stroke="black" points="987.212,-174.819 980.99,-166.244 980.507,-176.827 987.212,-174.819"/>
</g>
<!-- gambit_checkout&#45;&gt;_bs -->
<g id="edge40" class="edge"><title>gambit_checkout&#45;&gt;_bs</title>
<path fill="none" stroke="black" d="M1021.72,-134.778C1069.74,-122.481 1142.63,-103.815 1185.37,-92.8697"/>
<polygon fill="black" stroke="black" points="1186.47,-96.1993 1195.29,-90.3278 1184.74,-89.4182 1186.47,-96.1993"/>
</g>
<!-- gambit_checkout&#45;&gt;git_sign -->
<g id="edge41" class="edge"><title>gambit_checkout&#45;&gt;git_sign</title>
<path fill="none" stroke="black" d="M919.385,-136.667C854.15,-124.326 746.268,-103.916 685.742,-92.4646"/>
<polygon fill="black" stroke="black" points="686.206,-88.9905 675.73,-90.5705 684.905,-95.8685 686.206,-88.9905"/>
</g>
<!-- key -->
<g id="node26" class="node"><title>key</title>
<ellipse fill="none" stroke="blue" cx="339" cy="-18" rx="27" ry="18"/>
<text text-anchor="middle" x="339" y="-14.3" font-family="Times,serif" font-size="14.00">key</text>
</g>
<!-- git_sign&#45;&gt;key -->
<g id="edge42" class="edge"><title>git_sign&#45;&gt;key</title>
<path fill="none" stroke="black" d="M607.236,-74.9565C549.737,-62.9616 433.346,-38.6814 374.612,-26.429"/>
<polygon fill="black" stroke="black" points="375.185,-22.9733 364.681,-24.3573 373.756,-29.8258 375.185,-22.9733"/>
</g>
<!-- graph_deps -->
<g id="node25" class="node"><title>graph_deps</title>
<ellipse fill="none" stroke="green" cx="776" cy="-213" rx="50.0912" ry="18"/>
<text text-anchor="middle" x="776" y="-209.3" font-family="Times,serif" font-size="14.00">graph&#45;deps</text>
</g>
<!-- graph_deps&#45;&gt;perhaps_aptupdate -->
<g id="edge43" class="edge"><title>graph_deps&#45;&gt;perhaps_aptupdate</title>
<path fill="none" stroke="black" d="M780.372,-194.785C781.818,-189.09 783.465,-182.605 785.056,-176.343"/>
<polygon fill="black" stroke="black" points="788.564,-176.748 787.633,-166.194 781.779,-175.025 788.564,-176.748"/>
</g>
<!-- load_profile -->
<g id="node27" class="node"><title>load_profile</title>
<ellipse fill="none" stroke="green" cx="1157" cy="-473" rx="53.8905" ry="18"/>
<text text-anchor="middle" x="1157" y="-469.3" font-family="Times,serif" font-size="14.00">load_profile</text>
</g>
<!-- load_profile&#45;&gt;xfce4_load_profile -->
<g id="edge44" class="edge"><title>load_profile&#45;&gt;xfce4_load_profile</title>
<path fill="none" stroke="black" d="M1157,-454.785C1157,-449.09 1157,-442.605 1157,-436.343"/>
<polygon fill="black" stroke="black" points="1160.5,-436.194 1157,-426.194 1153.5,-436.194 1160.5,-436.194"/>
</g>
<!-- locales -->
<g id="node28" class="node"><title>locales</title>
<ellipse fill="none" stroke="blue" cx="1089" cy="-343" rx="35.194" ry="18"/>
<text text-anchor="middle" x="1089" y="-339.3" font-family="Times,serif" font-size="14.00">locales</text>
</g>
<!-- locales&#45;&gt;chj_bin -->
<g id="edge45" class="edge"><title>locales&#45;&gt;chj_bin</title>
<path fill="none" stroke="black" d="M1108.29,-327.704C1119.59,-319.327 1134.05,-308.608 1146.53,-299.36"/>
<polygon fill="black" stroke="black" points="1148.84,-302.006 1154.79,-293.239 1144.67,-296.382 1148.84,-302.006"/>
</g>
<!-- mercurial -->
<g id="node29" class="node"><title>mercurial</title>
<ellipse fill="none" stroke="green" cx="1335" cy="-343" rx="44.6926" ry="18"/>
<text text-anchor="middle" x="1335" y="-339.3" font-family="Times,serif" font-size="14.00">mercurial</text>
</g>
<!-- mercurial&#45;&gt;chj_bin -->
<g id="edge46" class="edge"><title>mercurial&#45;&gt;chj_bin</title>
<path fill="none" stroke="black" d="M1303.96,-329.853C1277.39,-319.458 1239.1,-304.472 1210.95,-293.46"/>
<polygon fill="black" stroke="black" points="1212.05,-290.13 1201.46,-289.745 1209.5,-296.649 1212.05,-290.13"/>
</g>
<!-- moduser -->
<g id="node30" class="node"><title>moduser</title>
<ellipse fill="none" stroke="green" cx="621" cy="-473" rx="41.6928" ry="18"/>
<text text-anchor="middle" x="621" y="-469.3" font-family="Times,serif" font-size="14.00">moduser</text>
</g>
<!-- moduser&#45;&gt;chj -->
<g id="edge47" class="edge"><title>moduser&#45;&gt;chj</title>
<path fill="none" stroke="black" d="M634.134,-455.776C640.004,-448.524 647.028,-439.847 653.424,-431.947"/>
<polygon fill="black" stroke="black" points="656.215,-434.062 659.786,-424.088 650.774,-429.658 656.215,-434.062"/>
</g>
<!-- moduser&#45;&gt;key -->
<g id="edge48" class="edge"><title>moduser&#45;&gt;key</title>
<path fill="none" stroke="black" d="M579.072,-471.748C445.395,-469.828 38,-454.88 38,-344 38,-344 38,-344 38,-147 38,-33.6892 220.874,-19.2534 301.536,-18.3973"/>
<polygon fill="black" stroke="black" points="301.772,-21.8965 311.757,-18.3564 301.743,-14.8965 301.772,-21.8965"/>
</g>
<!-- qemu -->
<g id="node32" class="node"><title>qemu</title>
<ellipse fill="none" stroke="green" cx="266" cy="-408" rx="30.5947" ry="18"/>
<text text-anchor="middle" x="266" y="-404.3" font-family="Times,serif" font-size="14.00">qemu</text>
</g>
<!-- qemu&#45;&gt;gambit -->
<g id="edge50" class="edge"><title>qemu&#45;&gt;gambit</title>
<path fill="none" stroke="black" d="M291.151,-397.568C319.107,-387.085 364.538,-370.048 396.65,-358.006"/>
<polygon fill="black" stroke="black" points="398.02,-361.231 406.154,-354.442 395.562,-354.676 398.02,-361.231"/>
</g>
<!-- qemu&#45;&gt;git_sign -->
<g id="edge49" class="edge"><title>qemu&#45;&gt;git_sign</title>
<path fill="none" stroke="black" d="M237.143,-401.506C183.991,-389.533 76,-355.762 76,-279 76,-279 76,-279 76,-212 76,-106.381 456.298,-87.9105 592.884,-84.6827"/>
<polygon fill="black" stroke="black" points="593.13,-88.1783 603.051,-84.4602 592.977,-81.1799 593.13,-88.1783"/>
</g>
<!-- system -->
<g id="node33" class="node"><title>system</title>
<ellipse fill="none" stroke="green" cx="988" cy="-408" rx="35.9954" ry="18"/>
<text text-anchor="middle" x="988" y="-404.3" font-family="Times,serif" font-size="14.00">system</text>
</g>
<!-- system&#45;&gt;debian_upgrade -->
<g id="edge51" class="edge"><title>system&#45;&gt;debian_upgrade</title>
<path fill="none" stroke="black" d="M985.807,-389.81C983.232,-372.831 978.108,-346.376 969,-325 965.968,-317.884 961.845,-310.659 957.627,-304.108"/>
<polygon fill="black" stroke="black" points="960.415,-301.984 951.91,-295.667 954.62,-305.909 960.415,-301.984"/>
</g>
<!-- system&#45;&gt;locales -->
<g id="edge52" class="edge"><title>system&#45;&gt;locales</title>
<path fill="none" stroke="black" d="M1009.92,-393.33C1024.17,-384.436 1042.97,-372.714 1058.65,-362.929"/>
<polygon fill="black" stroke="black" points="1060.84,-365.689 1067.47,-357.427 1057.14,-359.75 1060.84,-365.689"/>
</g>
<!-- urxvt&#45;&gt;perhaps_aptupdate -->
<g id="edge53" class="edge"><title>urxvt&#45;&gt;perhaps_aptupdate</title>
<path fill="none" stroke="black" d="M524.065,-205.856C538.568,-202.587 556.748,-198.524 573,-195 624.427,-183.848 682.742,-171.619 726.26,-162.575"/>
<polygon fill="black" stroke="black" points="727.07,-165.982 736.15,-160.522 725.647,-159.128 727.07,-165.982"/>
</g>
<!-- vncclient -->
<g id="node35" class="node"><title>vncclient</title>
<ellipse fill="none" stroke="green" cx="925" cy="-213" rx="42.7926" ry="18"/>
<text text-anchor="middle" x="925" y="-209.3" font-family="Times,serif" font-size="14.00">vncclient</text>
</g>
<!-- vncclient&#45;&gt;perhaps_aptupdate -->
<g id="edge54" class="edge"><title>vncclient&#45;&gt;perhaps_aptupdate</title>
<path fill="none" stroke="black" d="M897.442,-198.946C879.099,-190.258 854.653,-178.678 833.918,-168.856"/>
<polygon fill="black" stroke="black" points="835.223,-165.601 824.687,-164.483 832.226,-171.927 835.223,-165.601"/>
</g>
<!-- vncserver&#45;&gt;chj_bin -->
<g id="edge57" class="edge"><title>vncserver&#45;&gt;chj_bin</title>
<path fill="none" stroke="black" d="M876.161,-537.46C967.059,-537.479 1167.87,-532.658 1220,-491 1277.64,-444.942 1260.27,-387.461 1221,-325 1215.35,-316.011 1207.6,-307.482 1200.02,-300.265"/>
<polygon fill="black" stroke="black" points="1202.35,-297.647 1192.59,-293.518 1197.64,-302.83 1202.35,-297.647"/>
</g>
<!-- vncserver&#45;&gt;desktop -->
<g id="edge56" class="edge"><title>vncserver&#45;&gt;desktop</title>
<path fill="none" stroke="black" d="M807.37,-522.547C793.071,-513.801 774.67,-502.546 759.187,-493.075"/>
<polygon fill="black" stroke="black" points="760.818,-489.97 750.461,-487.738 757.165,-495.942 760.818,-489.97"/>
</g>
<!-- vncserver&#45;&gt;perhaps_aptupdate -->
<g id="edge55" class="edge"><title>vncserver&#45;&gt;perhaps_aptupdate</title>
<path fill="none" stroke="black" d="M823.368,-520.208C806.73,-480.783 772.416,-381.386 821,-325 877.907,-258.954 958.093,-362.046 1015,-296 1025.44,-283.879 1025.12,-272.394 1015,-260 974.264,-210.103 929.636,-261.683 873,-231 865.926,-227.168 835.774,-195.79 814.331,-172.987"/>
<polygon fill="black" stroke="black" points="816.832,-170.537 807.439,-165.635 811.725,-175.324 816.832,-170.537"/>
</g>
<!-- xfce -->
<g id="node37" class="node"><title>xfce</title>
<ellipse fill="none" stroke="blue" cx="1169" cy="-343" rx="27" ry="18"/>
<text text-anchor="middle" x="1169" y="-339.3" font-family="Times,serif" font-size="14.00">xfce</text>
</g>
<!-- xfce&#45;&gt;chj_bin -->
<g id="edge60" class="edge"><title>xfce&#45;&gt;chj_bin</title>
<path fill="none" stroke="black" d="M1170.37,-324.785C1170.82,-319.09 1171.33,-312.605 1171.83,-306.343"/>
<polygon fill="black" stroke="black" points="1175.33,-306.44 1172.64,-296.194 1168.36,-305.886 1175.33,-306.44"/>
</g>
<!-- xfce&#45;&gt;desktop -->
<g id="edge59" class="edge"><title>xfce&#45;&gt;desktop</title>
<path fill="none" stroke="black" d="M1147.69,-354.081C1142.86,-356.36 1137.75,-358.766 1133,-361 1105.47,-373.939 1096.14,-372.875 1071,-390 1051.77,-403.097 1053.91,-415.796 1033,-426 988.588,-447.675 849.677,-462.007 775.614,-468.317"/>
<polygon fill="black" stroke="black" points="775.283,-464.832 765.61,-469.154 775.867,-471.808 775.283,-464.832"/>
</g>
<!-- xfce&#45;&gt;perhaps_aptupdate -->
<g id="edge58" class="edge"><title>xfce&#45;&gt;perhaps_aptupdate</title>
<path fill="none" stroke="black" d="M1154.52,-327.441C1124.3,-297.896 1051.14,-230.684 977,-195 942.122,-178.214 900.5,-167.164 865.575,-160.113"/>
<polygon fill="black" stroke="black" points="865.926,-156.616 855.441,-158.14 864.588,-163.487 865.926,-156.616"/>
</g>
<!-- xfce4_load_profile&#45;&gt;chj_bin -->
<g id="edge61" class="edge"><title>xfce4_load_profile&#45;&gt;chj_bin</title>
<path fill="none" stroke="black" d="M1180.91,-390.786C1190.28,-382.997 1199.97,-372.784 1205,-361 1211.28,-346.284 1209.67,-340.302 1205,-325 1202.68,-317.402 1198.63,-309.923 1194.22,-303.277"/>
<polygon fill="black" stroke="black" points="1196.78,-300.853 1188.09,-294.796 1191.11,-304.952 1196.78,-300.853"/>
</g>
<!-- xfce4_load_profile&#45;&gt;xfce -->
<g id="edge62" class="edge"><title>xfce4_load_profile&#45;&gt;xfce</title>
<path fill="none" stroke="black" d="M1160.28,-389.785C1161.36,-384.09 1162.6,-377.605 1163.79,-371.343"/>
<polygon fill="black" stroke="black" points="1167.29,-371.673 1165.72,-361.194 1160.42,-370.363 1167.29,-371.673"/>
</g>
</g>
</svg>
