<?xml version="1.0" encoding="UTF-8" standalone="no"?>
<!DOCTYPE svg PUBLIC "-//W3C//DTD SVG 1.1//EN"
 "http://www.w3.org/Graphics/SVG/1.1/DTD/svg11.dtd">
<!-- Generated by graphviz version 2.38.0 (20140413.2041)
 -->
<!-- Title: foo Pages: 1 -->
<svg width="1851pt" height="694pt"
 viewBox="0.00 0.00 1850.94 694.00" xmlns="http://www.w3.org/2000/svg" xmlns:xlink="http://www.w3.org/1999/xlink">
<g id="graph0" class="graph" transform="scale(1 1) rotate(0) translate(4 690)">
<title>foo</title>
<polygon fill="white" stroke="none" points="-4,4 -4,-690 1846.94,-690 1846.94,4 -4,4"/>
<!-- _bs -->
<g id="node1" class="node"><title>_bs</title>
<ellipse fill="none" stroke="grey" cx="1087" cy="-83" rx="27" ry="18"/>
<text text-anchor="middle" x="1087" y="-79.3" font-family="Times,serif" font-size="14.00">.bs</text>
</g>
<!-- _usr_local_bin_fastrandom -->
<g id="node2" class="node"><title>_usr_local_bin_fastrandom</title>
<ellipse fill="none" stroke="grey" cx="421" cy="-278" rx="99.3824" ry="18"/>
<text text-anchor="middle" x="421" y="-274.3" font-family="Times,serif" font-size="14.00">/usr/local/bin/fastrandom</text>
</g>
<!-- _slim_vncserver -->
<g id="node3" class="node"><title>_slim_vncserver</title>
<ellipse fill="none" stroke="blue" cx="1088" cy="-538" rx="67.6881" ry="18"/>
<text text-anchor="middle" x="1088" y="-534.3" font-family="Times,serif" font-size="14.00">_slim&#45;vncserver</text>
</g>
<!-- chj_bin -->
<g id="node5" class="node"><title>chj_bin</title>
<ellipse fill="none" stroke="blue" cx="1314" cy="-278" rx="35.9954" ry="18"/>
<text text-anchor="middle" x="1314" y="-274.3" font-family="Times,serif" font-size="14.00">chj&#45;bin</text>
</g>
<!-- _slim_vncserver&#45;&gt;chj_bin -->
<g id="edge3" class="edge"><title>_slim_vncserver&#45;&gt;chj_bin</title>
<path fill="none" stroke="black" d="M1136.82,-525.522C1208.53,-505.738 1339.89,-457.68 1396,-361 1404.03,-347.161 1404.09,-338.807 1396,-325 1386.76,-309.222 1369.91,-298.445 1353.87,-291.312"/>
<polygon fill="black" stroke="black" points="1355.17,-288.062 1344.59,-287.524 1352.52,-294.543 1355.17,-288.062"/>
</g>
<!-- perhaps_aptupdate -->
<g id="node36" class="node"><title>perhaps_aptupdate</title>
<ellipse fill="none" stroke="blue" cx="810" cy="-148" rx="76.8869" ry="18"/>
<text text-anchor="middle" x="810" y="-144.3" font-family="Times,serif" font-size="14.00">perhaps_aptupdate</text>
</g>
<!-- _slim_vncserver&#45;&gt;perhaps_aptupdate -->
<g id="edge1" class="edge"><title>_slim_vncserver&#45;&gt;perhaps_aptupdate</title>
<path fill="none" stroke="black" d="M1036.55,-526.26C957.95,-507.122 808.64,-459.517 728,-361 681.184,-303.806 675.827,-255.699 718,-195 726.61,-182.608 739.559,-173.385 753.046,-166.589"/>
<polygon fill="black" stroke="black" points="754.808,-169.63 762.421,-162.262 751.875,-163.274 754.808,-169.63"/>
</g>
<!-- slim_desktop -->
<g id="node44" class="node"><title>slim_desktop</title>
<ellipse fill="none" stroke="blue" cx="1439" cy="-473" rx="56.59" ry="18"/>
<text text-anchor="middle" x="1439" y="-469.3" font-family="Times,serif" font-size="14.00">slim&#45;desktop</text>
</g>
<!-- _slim_vncserver&#45;&gt;slim_desktop -->
<g id="edge2" class="edge"><title>_slim_vncserver&#45;&gt;slim_desktop</title>
<path fill="none" stroke="black" d="M1146.14,-528.7C1202.92,-520.299 1291.7,-506.381 1368,-491 1373.81,-489.829 1379.87,-488.518 1385.89,-487.158"/>
<polygon fill="black" stroke="black" points="1386.98,-490.499 1395.93,-484.838 1385.4,-483.678 1386.98,-490.499"/>
</g>
<!-- chj -->
<g id="node4" class="node"><title>chj</title>
<ellipse fill="none" stroke="blue" cx="455" cy="-408" rx="27" ry="18"/>
<text text-anchor="middle" x="455" y="-404.3" font-family="Times,serif" font-size="14.00">chj</text>
</g>
<!-- chj&#45;&gt;chj_bin -->
<g id="edge6" class="edge"><title>chj&#45;&gt;chj_bin</title>
<path fill="none" stroke="black" d="M478.119,-398.562C488.096,-395.293 499.984,-391.889 511,-390 581.707,-377.875 1091,-391.354 1156,-361 1175.67,-351.816 1170.97,-337.089 1189,-325 1214.35,-308.002 1246.78,-296.304 1272.26,-288.959"/>
<polygon fill="black" stroke="black" points="1273.3,-292.303 1282.01,-286.262 1271.44,-285.556 1273.3,-292.303"/>
</g>
<!-- chj_emacs -->
<g id="node6" class="node"><title>chj_emacs</title>
<ellipse fill="none" stroke="blue" cx="143" cy="-343" rx="46.5926" ry="18"/>
<text text-anchor="middle" x="143" y="-339.3" font-family="Times,serif" font-size="14.00">chj&#45;emacs</text>
</g>
<!-- chj&#45;&gt;chj_emacs -->
<g id="edge7" class="edge"><title>chj&#45;&gt;chj_emacs</title>
<path fill="none" stroke="black" d="M429.705,-401.159C414.939,-397.795 395.939,-393.545 379,-390 315.621,-376.737 242.401,-362.658 194.535,-353.622"/>
<polygon fill="black" stroke="black" points="194.897,-350.128 184.422,-351.716 193.601,-357.007 194.897,-350.128"/>
</g>
<!-- cj_git_patchtool -->
<g id="node11" class="node"><title>cj_git_patchtool</title>
<ellipse fill="none" stroke="blue" cx="874" cy="-343" rx="64.9885" ry="18"/>
<text text-anchor="middle" x="874" y="-339.3" font-family="Times,serif" font-size="14.00">cj&#45;git&#45;patchtool</text>
</g>
<!-- chj&#45;&gt;cj_git_patchtool -->
<g id="edge9" class="edge"><title>chj&#45;&gt;cj_git_patchtool</title>
<path fill="none" stroke="black" d="M478.446,-398.769C488.376,-395.576 500.14,-392.172 511,-390 637.583,-364.687 672.62,-381.937 800,-361 805.666,-360.069 811.547,-358.962 817.405,-357.767"/>
<polygon fill="black" stroke="black" points="818.145,-361.188 827.2,-355.687 816.691,-354.34 818.145,-361.188"/>
</g>
<!-- debianpackages -->
<g id="node15" class="node"><title>debianpackages</title>
<ellipse fill="none" stroke="blue" cx="786" cy="-278" rx="66.0889" ry="18"/>
<text text-anchor="middle" x="786" y="-274.3" font-family="Times,serif" font-size="14.00">debianpackages</text>
</g>
<!-- chj&#45;&gt;debianpackages -->
<g id="edge5" class="edge"><title>chj&#45;&gt;debianpackages</title>
<path fill="none" stroke="black" d="M475.57,-396.11C507.833,-379.319 572.59,-346.771 630,-325 662.259,-312.766 699.263,-301.732 729.132,-293.538"/>
<polygon fill="black" stroke="black" points="730.236,-296.866 738.972,-290.871 728.404,-290.109 730.236,-296.866"/>
</g>
<!-- fastrandom -->
<g id="node19" class="node"><title>fastrandom</title>
<ellipse fill="none" stroke="blue" cx="429" cy="-343" rx="50.8918" ry="18"/>
<text text-anchor="middle" x="429" y="-339.3" font-family="Times,serif" font-size="14.00">fastrandom</text>
</g>
<!-- chj&#45;&gt;fastrandom -->
<g id="edge8" class="edge"><title>chj&#45;&gt;fastrandom</title>
<path fill="none" stroke="black" d="M448.169,-390.447C445.662,-384.373 442.756,-377.333 439.977,-370.599"/>
<polygon fill="black" stroke="black" points="443.108,-369.009 436.057,-361.101 436.637,-371.68 443.108,-369.009"/>
</g>
<!-- git_sign -->
<g id="node27" class="node"><title>git_sign</title>
<ellipse fill="none" stroke="blue" cx="471" cy="-83" rx="37.8943" ry="18"/>
<text text-anchor="middle" x="471" y="-79.3" font-family="Times,serif" font-size="14.00">git&#45;sign</text>
</g>
<!-- chj&#45;&gt;git_sign -->
<g id="edge4" class="edge"><title>chj&#45;&gt;git_sign</title>
<path fill="none" stroke="black" d="M432.159,-398.029C397.751,-383.019 334.371,-349.125 313,-296 285.44,-227.492 261.343,-188.81 306,-130 320.402,-111.034 381.366,-97.7944 424.994,-90.5396"/>
<polygon fill="black" stroke="black" points="425.802,-93.9546 435.119,-88.9103 424.69,-87.0435 425.802,-93.9546"/>
</g>
<!-- chj_bin&#45;&gt;_bs -->
<g id="edge10" class="edge"><title>chj_bin&#45;&gt;_bs</title>
<path fill="none" stroke="black" d="M1317.86,-259.959C1323.63,-229.677 1330.61,-166.272 1298,-130 1275.21,-104.645 1178.3,-92.0992 1124.09,-86.9594"/>
<polygon fill="black" stroke="black" points="1124.13,-83.4485 1113.86,-86.0285 1123.5,-90.4197 1124.13,-83.4485"/>
</g>
<!-- chj_perllib -->
<g id="node9" class="node"><title>chj_perllib</title>
<ellipse fill="none" stroke="blue" cx="1158" cy="-213" rx="47.3916" ry="18"/>
<text text-anchor="middle" x="1158" y="-209.3" font-family="Times,serif" font-size="14.00">chj&#45;perllib</text>
</g>
<!-- chj_bin&#45;&gt;chj_perllib -->
<g id="edge12" class="edge"><title>chj_bin&#45;&gt;chj_perllib</title>
<path fill="none" stroke="black" d="M1286.83,-266.026C1262.46,-256.187 1226.38,-241.616 1198.6,-230.395"/>
<polygon fill="black" stroke="black" points="1199.73,-227.078 1189.15,-226.579 1197.11,-233.569 1199.73,-227.078"/>
</g>
<!-- chj_bin&#45;&gt;git_sign -->
<g id="edge11" class="edge"><title>chj_bin&#45;&gt;git_sign</title>
<path fill="none" stroke="black" d="M1278.29,-275.771C1166.66,-271.691 825.343,-257.333 718,-231 646.642,-213.495 628.325,-204.909 566,-166 562.131,-163.585 522.669,-129.238 495.838,-105.771"/>
<polygon fill="black" stroke="black" points="498.138,-103.133 488.308,-99.1807 493.528,-108.4 498.138,-103.133"/>
</g>
<!-- chj_emacs_checkout -->
<g id="node7" class="node"><title>chj_emacs_checkout</title>
<ellipse fill="none" stroke="blue" cx="109" cy="-278" rx="81.4863" ry="18"/>
<text text-anchor="middle" x="109" y="-274.3" font-family="Times,serif" font-size="14.00">chj&#45;emacs&#45;checkout</text>
</g>
<!-- chj_emacs&#45;&gt;chj_emacs_checkout -->
<g id="edge13" class="edge"><title>chj_emacs&#45;&gt;chj_emacs_checkout</title>
<path fill="none" stroke="black" d="M133.889,-325.117C130.535,-318.903 126.655,-311.713 122.971,-304.887"/>
<polygon fill="black" stroke="black" points="125.966,-303.067 118.137,-295.929 119.806,-306.392 125.966,-303.067"/>
</g>
<!-- chj_emacs_checkout&#45;&gt;git_sign -->
<g id="edge14" class="edge"><title>chj_emacs_checkout&#45;&gt;git_sign</title>
<path fill="none" stroke="black" d="M114.898,-259.569C126.527,-228.074 155.576,-161.992 204,-130 239.344,-106.65 357.122,-93.3862 423.842,-87.5744"/>
<polygon fill="black" stroke="black" points="424.423,-91.0378 434.092,-86.7052 423.832,-84.0628 424.423,-91.0378"/>
</g>
<!-- chj_fastrandom -->
<g id="node8" class="node"><title>chj_fastrandom</title>
<ellipse fill="none" stroke="green" cx="379" cy="-148" rx="64.189" ry="18"/>
<text text-anchor="middle" x="379" y="-144.3" font-family="Times,serif" font-size="14.00">chj&#45;fastrandom</text>
</g>
<!-- chj_fastrandom&#45;&gt;git_sign -->
<g id="edge15" class="edge"><title>chj_fastrandom&#45;&gt;git_sign</title>
<path fill="none" stroke="black" d="M402.215,-131.102C414.239,-122.869 429.041,-112.733 441.83,-103.975"/>
<polygon fill="black" stroke="black" points="444.03,-106.711 450.303,-98.1728 440.075,-100.935 444.03,-106.711"/>
</g>
<!-- chj_perllib_checkout -->
<g id="node10" class="node"><title>chj_perllib_checkout</title>
<ellipse fill="none" stroke="blue" cx="987" cy="-148" rx="81.7856" ry="18"/>
<text text-anchor="middle" x="987" y="-144.3" font-family="Times,serif" font-size="14.00">chj&#45;perllib&#45;checkout</text>
</g>
<!-- chj_perllib&#45;&gt;chj_perllib_checkout -->
<g id="edge16" class="edge"><title>chj_perllib&#45;&gt;chj_perllib_checkout</title>
<path fill="none" stroke="black" d="M1125.03,-199.853C1100.03,-190.641 1065.24,-177.825 1036.84,-167.363"/>
<polygon fill="black" stroke="black" points="1037.69,-163.944 1027.09,-163.771 1035.27,-170.512 1037.69,-163.944"/>
</g>
<!-- chj_perllib_checkout&#45;&gt;_bs -->
<g id="edge17" class="edge"><title>chj_perllib_checkout&#45;&gt;_bs</title>
<path fill="none" stroke="black" d="M1012.75,-130.776C1027.03,-121.779 1044.8,-110.588 1059.37,-101.408"/>
<polygon fill="black" stroke="black" points="1061.37,-104.282 1067.97,-95.99 1057.64,-98.3591 1061.37,-104.282"/>
</g>
<!-- chj_perllib_checkout&#45;&gt;git_sign -->
<g id="edge18" class="edge"><title>chj_perllib_checkout&#45;&gt;git_sign</title>
<path fill="none" stroke="black" d="M928.369,-135.362C917.626,-133.425 906.494,-131.546 896,-130 759.152,-109.842 596.293,-94.6534 517.836,-87.8832"/>
<polygon fill="black" stroke="black" points="518.051,-84.3888 507.788,-87.0225 517.453,-91.3633 518.051,-84.3888"/>
</g>
<!-- cj_git_patchtool&#45;&gt;chj_bin -->
<g id="edge20" class="edge"><title>cj_git_patchtool&#45;&gt;chj_bin</title>
<path fill="none" stroke="black" d="M920.83,-330.492C929.815,-328.497 939.174,-326.564 948,-325 1062.86,-304.642 1199.56,-289.966 1268.87,-283.193"/>
<polygon fill="black" stroke="black" points="1269.39,-286.66 1279,-282.213 1268.71,-279.692 1269.39,-286.66"/>
</g>
<!-- cj_git_patchtool&#45;&gt;debianpackages -->
<g id="edge19" class="edge"><title>cj_git_patchtool&#45;&gt;debianpackages</title>
<path fill="none" stroke="black" d="M851.338,-325.776C840.868,-318.28 828.271,-309.262 816.944,-301.153"/>
<polygon fill="black" stroke="black" points="818.754,-298.144 808.585,-295.169 814.679,-303.836 818.754,-298.144"/>
</g>
<!-- cj_git_patchtool&#45;&gt;git_sign -->
<g id="edge21" class="edge"><title>cj_git_patchtool&#45;&gt;git_sign</title>
<path fill="none" stroke="black" d="M881.403,-324.923C888.094,-306.519 894.713,-277.519 879,-260 839.298,-215.735 668.501,-252.338 613,-231 566.945,-213.294 556.821,-201.926 523,-166 507.108,-149.119 493.284,-126.71 483.892,-109.584"/>
<polygon fill="black" stroke="black" points="486.938,-107.859 479.145,-100.682 480.761,-111.152 486.938,-107.859"/>
</g>
<!-- cplusplus -->
<g id="node12" class="node"><title>cplusplus</title>
<ellipse fill="none" stroke="blue" cx="620" cy="-278" rx="44.393" ry="18"/>
<text text-anchor="middle" x="620" y="-274.3" font-family="Times,serif" font-size="14.00">cplusplus</text>
</g>
<!-- cplusplus&#45;&gt;perhaps_aptupdate -->
<g id="edge22" class="edge"><title>cplusplus&#45;&gt;perhaps_aptupdate</title>
<path fill="none" stroke="black" d="M629.395,-260.278C640.494,-241.912 660.572,-212.683 685,-195 703.68,-181.478 726.776,-171.51 748.012,-164.38"/>
<polygon fill="black" stroke="black" points="749.162,-167.687 757.616,-161.301 747.024,-161.021 749.162,-167.687"/>
</g>
<!-- debian_emacs -->
<g id="node13" class="node"><title>debian_emacs</title>
<ellipse fill="none" stroke="blue" cx="126" cy="-538" rx="59.5901" ry="18"/>
<text text-anchor="middle" x="126" y="-534.3" font-family="Times,serif" font-size="14.00">debian&#45;emacs</text>
</g>
<!-- debian_upgrade -->
<g id="node14" class="node"><title>debian_upgrade</title>
<ellipse fill="none" stroke="blue" cx="1776" cy="-408" rx="66.8882" ry="18"/>
<text text-anchor="middle" x="1776" y="-404.3" font-family="Times,serif" font-size="14.00">debian_upgrade</text>
</g>
<!-- debian_upgrade&#45;&gt;perhaps_aptupdate -->
<g id="edge23" class="edge"><title>debian_upgrade&#45;&gt;perhaps_aptupdate</title>
<path fill="none" stroke="black" d="M1778.66,-389.802C1780.46,-371.566 1780.24,-342.966 1765,-325 1701.26,-249.835 1647.8,-286.943 1553,-260 1443.4,-228.848 1417.42,-213.554 1305,-195 1125.2,-165.327 1076.63,-190.161 896,-166 888.948,-165.057 881.603,-163.891 874.308,-162.616"/>
<polygon fill="black" stroke="black" points="874.888,-159.164 864.424,-160.819 873.636,-166.051 874.888,-159.164"/>
</g>
<!-- urxvt -->
<g id="node49" class="node"><title>urxvt</title>
<ellipse fill="none" stroke="blue" cx="978" cy="-213" rx="29.4969" ry="18"/>
<text text-anchor="middle" x="978" y="-209.3" font-family="Times,serif" font-size="14.00">urxvt</text>
</g>
<!-- debianpackages&#45;&gt;urxvt -->
<g id="edge24" class="edge"><title>debianpackages&#45;&gt;urxvt</title>
<path fill="none" stroke="black" d="M832,-264.953C862.881,-256.453 904.293,-244.256 940,-231 941.88,-230.302 943.799,-229.556 945.727,-228.779"/>
<polygon fill="black" stroke="black" points="947.443,-231.854 955.292,-224.737 944.719,-225.406 947.443,-231.854"/>
</g>
<!-- dnsresolver -->
<g id="node16" class="node"><title>dnsresolver</title>
<ellipse fill="none" stroke="green" cx="592" cy="-668" rx="51.1914" ry="18"/>
<text text-anchor="middle" x="592" y="-664.3" font-family="Times,serif" font-size="14.00">dnsresolver</text>
</g>
<!-- dotconfig_xfce4_checkout -->
<g id="node17" class="node"><title>dotconfig_xfce4_checkout</title>
<ellipse fill="none" stroke="blue" cx="1188" cy="-148" rx="101.282" ry="18"/>
<text text-anchor="middle" x="1188" y="-144.3" font-family="Times,serif" font-size="14.00">dotconfig&#45;xfce4&#45;checkout</text>
</g>
<!-- dotconfig_xfce4_checkout&#45;&gt;_bs -->
<g id="edge25" class="edge"><title>dotconfig_xfce4_checkout&#45;&gt;_bs</title>
<path fill="none" stroke="black" d="M1161.73,-130.612C1147.3,-121.615 1129.42,-110.462 1114.77,-101.322"/>
<polygon fill="black" stroke="black" points="1116.46,-98.2508 1106.12,-95.9279 1112.75,-104.19 1116.46,-98.2508"/>
</g>
<!-- dotconfig_xfce4_checkout&#45;&gt;git_sign -->
<g id="edge26" class="edge"><title>dotconfig_xfce4_checkout&#45;&gt;git_sign</title>
<path fill="none" stroke="black" d="M1116.81,-135.171C1103.92,-133.265 1090.57,-131.446 1078,-130 870.166,-106.102 620.813,-91.658 518.417,-86.3365"/>
<polygon fill="black" stroke="black" points="518.562,-82.8394 508.395,-85.8205 518.202,-89.8302 518.562,-82.8394"/>
</g>
<!-- emacs -->
<g id="node18" class="node"><title>emacs</title>
<ellipse fill="none" stroke="blue" cx="126" cy="-603" rx="33.2948" ry="18"/>
<text text-anchor="middle" x="126" y="-599.3" font-family="Times,serif" font-size="14.00">emacs</text>
</g>
<!-- emacs&#45;&gt;chj_emacs -->
<g id="edge28" class="edge"><title>emacs&#45;&gt;chj_emacs</title>
<path fill="none" stroke="black" d="M99.4284,-591.871C84.0321,-584.462 65.9673,-572.756 57,-556 49.4503,-541.893 53.3951,-535.589 57,-520 70.3072,-462.456 105.139,-401.987 126.166,-369.046"/>
<polygon fill="black" stroke="black" points="129.197,-370.804 131.702,-360.51 123.324,-366.996 129.197,-370.804"/>
</g>
<!-- emacs&#45;&gt;debian_emacs -->
<g id="edge27" class="edge"><title>emacs&#45;&gt;debian_emacs</title>
<path fill="none" stroke="black" d="M126,-584.785C126,-579.09 126,-572.605 126,-566.343"/>
<polygon fill="black" stroke="black" points="129.5,-566.194 126,-556.194 122.5,-566.194 129.5,-566.194"/>
</g>
<!-- fastrandom&#45;&gt;_usr_local_bin_fastrandom -->
<g id="edge29" class="edge"><title>fastrandom&#45;&gt;_usr_local_bin_fastrandom</title>
<path fill="none" stroke="black" d="M426.814,-324.785C426.091,-319.09 425.267,-312.605 424.472,-306.343"/>
<polygon fill="black" stroke="black" points="427.915,-305.674 423.183,-296.194 420.971,-306.555 427.915,-305.674"/>
</g>
<!-- firefox -->
<g id="node20" class="node"><title>firefox</title>
<ellipse fill="none" stroke="blue" cx="336" cy="-408" rx="34.394" ry="18"/>
<text text-anchor="middle" x="336" y="-404.3" font-family="Times,serif" font-size="14.00">firefox</text>
</g>
<!-- firefox&#45;&gt;perhaps_aptupdate -->
<g id="edge30" class="edge"><title>firefox&#45;&gt;perhaps_aptupdate</title>
<path fill="none" stroke="black" d="M326.082,-390.363C309.845,-360.722 282.31,-298.3 313,-260 319.811,-251.5 610.789,-190.281 744.29,-162.568"/>
<polygon fill="black" stroke="black" points="745.315,-165.93 754.396,-160.472 743.893,-159.076 745.315,-165.93"/>
</g>
<!-- fperl -->
<g id="node21" class="node"><title>fperl</title>
<ellipse fill="none" stroke="green" cx="764" cy="-343" rx="27.0966" ry="18"/>
<text text-anchor="middle" x="764" y="-339.3" font-family="Times,serif" font-size="14.00">fperl</text>
</g>
<!-- fperl&#45;&gt;chj_bin -->
<g id="edge33" class="edge"><title>fperl&#45;&gt;chj_bin</title>
<path fill="none" stroke="black" d="M784.465,-330.822C789.423,-328.543 794.797,-326.413 800,-325 887.753,-301.165 1159.51,-286.207 1268.3,-281.034"/>
<polygon fill="black" stroke="black" points="1268.79,-284.515 1278.61,-280.55 1268.46,-277.523 1268.79,-284.515"/>
</g>
<!-- fperl&#45;&gt;debianpackages -->
<g id="edge32" class="edge"><title>fperl&#45;&gt;debianpackages</title>
<path fill="none" stroke="black" d="M769.896,-325.117C771.967,-319.185 774.349,-312.365 776.634,-305.82"/>
<polygon fill="black" stroke="black" points="780.096,-306.524 780.088,-295.929 773.487,-304.216 780.096,-306.524"/>
</g>
<!-- fperl&#45;&gt;git_sign -->
<g id="edge31" class="edge"><title>fperl&#45;&gt;git_sign</title>
<path fill="none" stroke="black" d="M785.489,-331.852C814.02,-318.373 860.861,-296.219 861,-296 869.553,-282.478 871.858,-271.752 861,-260 805.634,-200.073 555.029,-286.255 495,-231 462.21,-200.817 462.693,-144.648 466.509,-111.162"/>
<polygon fill="black" stroke="black" points="469.992,-111.52 467.828,-101.149 463.052,-110.606 469.992,-111.52"/>
</g>
<!-- full_desktop -->
<g id="node22" class="node"><title>full_desktop</title>
<ellipse fill="none" stroke="blue" cx="1439" cy="-538" rx="53.0913" ry="18"/>
<text text-anchor="middle" x="1439" y="-534.3" font-family="Times,serif" font-size="14.00">full&#45;desktop</text>
</g>
<!-- full_desktop&#45;&gt;slim_desktop -->
<g id="edge34" class="edge"><title>full_desktop&#45;&gt;slim_desktop</title>
<path fill="none" stroke="black" d="M1439,-519.785C1439,-514.09 1439,-507.605 1439,-501.343"/>
<polygon fill="black" stroke="black" points="1442.5,-501.194 1439,-491.194 1435.5,-501.194 1442.5,-501.194"/>
</g>
<!-- full_desktop_autoremove -->
<g id="node23" class="node"><title>full_desktop_autoremove</title>
<ellipse fill="none" stroke="green" cx="1439" cy="-603" rx="99.3824" ry="18"/>
<text text-anchor="middle" x="1439" y="-599.3" font-family="Times,serif" font-size="14.00">full&#45;desktop_autoremove</text>
</g>
<!-- full_desktop_autoremove&#45;&gt;full_desktop -->
<g id="edge35" class="edge"><title>full_desktop_autoremove&#45;&gt;full_desktop</title>
<path fill="none" stroke="black" d="M1439,-584.785C1439,-579.09 1439,-572.605 1439,-566.343"/>
<polygon fill="black" stroke="black" points="1442.5,-566.194 1439,-556.194 1435.5,-566.194 1442.5,-566.194"/>
</g>
<!-- full_vncserver -->
<g id="node24" class="node"><title>full_vncserver</title>
<ellipse fill="none" stroke="blue" cx="1088" cy="-603" rx="59.5901" ry="18"/>
<text text-anchor="middle" x="1088" y="-599.3" font-family="Times,serif" font-size="14.00">full&#45;vncserver</text>
</g>
<!-- full_vncserver&#45;&gt;_slim_vncserver -->
<g id="edge36" class="edge"><title>full_vncserver&#45;&gt;_slim_vncserver</title>
<path fill="none" stroke="black" d="M1088,-584.785C1088,-579.09 1088,-572.605 1088,-566.343"/>
<polygon fill="black" stroke="black" points="1091.5,-566.194 1088,-556.194 1084.5,-566.194 1091.5,-566.194"/>
</g>
<!-- full_vncserver&#45;&gt;debianpackages -->
<g id="edge37" class="edge"><title>full_vncserver&#45;&gt;debianpackages</title>
<path fill="none" stroke="black" d="M1045.99,-590.079C947.315,-561.783 709,-491.623 709,-474 709,-474 709,-474 709,-407 709,-369.59 708.002,-356.616 728,-325 733.883,-315.699 742.32,-307.473 750.944,-300.644"/>
<polygon fill="black" stroke="black" points="753.24,-303.3 759.193,-294.535 749.073,-297.674 753.24,-303.3"/>
</g>
<!-- system -->
<g id="node47" class="node"><title>system</title>
<ellipse fill="none" stroke="blue" cx="1647" cy="-538" rx="35.9954" ry="18"/>
<text text-anchor="middle" x="1647" y="-534.3" font-family="Times,serif" font-size="14.00">system</text>
</g>
<!-- full_vncserver&#45;&gt;system -->
<g id="edge38" class="edge"><title>full_vncserver&#45;&gt;system</title>
<path fill="none" stroke="black" d="M1143.12,-595.949C1222.32,-587.235 1372.87,-570.595 1501,-556 1534.98,-552.129 1573.41,-547.651 1602.3,-544.263"/>
<polygon fill="black" stroke="black" points="1602.97,-547.709 1612.49,-543.067 1602.15,-540.757 1602.97,-547.709"/>
</g>
<!-- gambit -->
<g id="node25" class="node"><title>gambit</title>
<ellipse fill="none" stroke="blue" cx="556" cy="-408" rx="35.9954" ry="18"/>
<text text-anchor="middle" x="556" y="-404.3" font-family="Times,serif" font-size="14.00">gambit</text>
</g>
<!-- gambit&#45;&gt;chj_bin -->
<g id="edge42" class="edge"><title>gambit&#45;&gt;chj_bin</title>
<path fill="none" stroke="black" d="M591.876,-407.262C709.083,-407.676 1079.47,-405.357 1189,-361 1212.1,-351.644 1211.49,-339.158 1232,-325 1247.24,-314.48 1265.08,-304.25 1280.22,-296.119"/>
<polygon fill="black" stroke="black" points="1282.04,-299.113 1289.25,-291.344 1278.77,-292.925 1282.04,-299.113"/>
</g>
<!-- gambit&#45;&gt;chj_emacs -->
<g id="edge43" class="edge"><title>gambit&#45;&gt;chj_emacs</title>
<path fill="none" stroke="black" d="M525.757,-398.256C514.868,-395.329 502.446,-392.244 491,-390 388.468,-369.896 267.184,-356.088 198.254,-349.16"/>
<polygon fill="black" stroke="black" points="198.359,-345.653 188.062,-348.148 197.667,-352.619 198.359,-345.653"/>
</g>
<!-- gambit&#45;&gt;cplusplus -->
<g id="edge40" class="edge"><title>gambit&#45;&gt;cplusplus</title>
<path fill="none" stroke="black" d="M564.367,-390.266C575.243,-368.514 594.348,-330.303 607.09,-304.82"/>
<polygon fill="black" stroke="black" points="610.289,-306.247 611.631,-295.738 604.028,-303.117 610.289,-306.247"/>
</g>
<!-- gambit&#45;&gt;debianpackages -->
<g id="edge41" class="edge"><title>gambit&#45;&gt;debianpackages</title>
<path fill="none" stroke="black" d="M577.894,-393.487C605.067,-376.854 652.966,-347.991 695,-325 711.488,-315.982 729.951,-306.532 745.915,-298.56"/>
<polygon fill="black" stroke="black" points="747.593,-301.635 754.992,-294.051 744.479,-295.365 747.593,-301.635"/>
</g>
<!-- gambit_checkout -->
<g id="node26" class="node"><title>gambit_checkout</title>
<ellipse fill="none" stroke="blue" cx="645" cy="-148" rx="70.3881" ry="18"/>
<text text-anchor="middle" x="645" y="-144.3" font-family="Times,serif" font-size="14.00">gambit&#45;checkout</text>
</g>
<!-- gambit&#45;&gt;gambit_checkout -->
<g id="edge39" class="edge"><title>gambit&#45;&gt;gambit_checkout</title>
<path fill="none" stroke="black" d="M554.388,-389.637C552.408,-361.495 551.05,-304.578 567,-260 578.891,-226.768 603.588,-194.407 622.024,-173.284"/>
<polygon fill="black" stroke="black" points="624.693,-175.551 628.744,-165.761 619.472,-170.888 624.693,-175.551"/>
</g>
<!-- virtualmem_3GB -->
<g id="node50" class="node"><title>virtualmem_3GB</title>
<ellipse fill="none" stroke="blue" cx="1314" cy="-343" rx="73.387" ry="18"/>
<text text-anchor="middle" x="1314" y="-339.3" font-family="Times,serif" font-size="14.00">virtualmem_3GB</text>
</g>
<!-- gambit&#45;&gt;virtualmem_3GB -->
<g id="edge44" class="edge"><title>gambit&#45;&gt;virtualmem_3GB</title>
<path fill="none" stroke="black" d="M591.8,-406.114C692.328,-403.289 985.619,-392.732 1227,-361 1234.72,-359.985 1242.8,-358.706 1250.78,-357.308"/>
<polygon fill="black" stroke="black" points="1251.59,-360.717 1260.8,-355.484 1250.34,-353.831 1251.59,-360.717"/>
</g>
<!-- gambit_checkout&#45;&gt;_bs -->
<g id="edge45" class="edge"><title>gambit_checkout&#45;&gt;_bs</title>
<path fill="none" stroke="black" d="M695.448,-135.469C704.907,-133.499 714.734,-131.581 724,-130 842.635,-109.757 984.484,-94.2827 1050.21,-87.6054"/>
<polygon fill="black" stroke="black" points="1050.87,-91.0574 1060.47,-86.5728 1050.17,-84.0926 1050.87,-91.0574"/>
</g>
<!-- gambit_checkout&#45;&gt;git_sign -->
<g id="edge46" class="edge"><title>gambit_checkout&#45;&gt;git_sign</title>
<path fill="none" stroke="black" d="M605.951,-132.862C577.27,-122.477 538.477,-108.431 509.844,-98.0641"/>
<polygon fill="black" stroke="black" points="510.767,-94.6761 500.173,-94.5625 508.384,-101.258 510.767,-94.6761"/>
</g>
<!-- key -->
<g id="node29" class="node"><title>key</title>
<ellipse fill="none" stroke="blue" cx="233" cy="-18" rx="27" ry="18"/>
<text text-anchor="middle" x="233" y="-14.3" font-family="Times,serif" font-size="14.00">key</text>
</g>
<!-- git_sign&#45;&gt;key -->
<g id="edge47" class="edge"><title>git_sign&#45;&gt;key</title>
<path fill="none" stroke="black" d="M438.902,-73.5035C394.195,-61.6693 313.506,-40.3105 267.533,-28.1411"/>
<polygon fill="black" stroke="black" points="268.291,-24.7213 257.729,-25.5458 266.5,-31.4883 268.291,-24.7213"/>
</g>
<!-- graph_deps -->
<g id="node28" class="node"><title>graph_deps</title>
<ellipse fill="none" stroke="green" cx="777" cy="-213" rx="50.0912" ry="18"/>
<text text-anchor="middle" x="777" y="-209.3" font-family="Times,serif" font-size="14.00">graph&#45;deps</text>
</g>
<!-- graph_deps&#45;&gt;perhaps_aptupdate -->
<g id="edge48" class="edge"><title>graph_deps&#45;&gt;perhaps_aptupdate</title>
<path fill="none" stroke="black" d="M785.843,-195.117C789.099,-188.903 792.865,-181.713 796.44,-174.887"/>
<polygon fill="black" stroke="black" points="799.592,-176.412 801.132,-165.929 793.392,-173.164 799.592,-176.412"/>
</g>
<!-- load_profile -->
<g id="node30" class="node"><title>load_profile</title>
<ellipse fill="none" stroke="green" cx="1567" cy="-473" rx="53.8905" ry="18"/>
<text text-anchor="middle" x="1567" y="-469.3" font-family="Times,serif" font-size="14.00">load_profile</text>
</g>
<!-- xfce4_load_profile -->
<g id="node53" class="node"><title>xfce4_load_profile</title>
<ellipse fill="none" stroke="blue" cx="1568" cy="-408" rx="77.1866" ry="18"/>
<text text-anchor="middle" x="1568" y="-404.3" font-family="Times,serif" font-size="14.00">xfce4_load_profile</text>
</g>
<!-- load_profile&#45;&gt;xfce4_load_profile -->
<g id="edge49" class="edge"><title>load_profile&#45;&gt;xfce4_load_profile</title>
<path fill="none" stroke="black" d="M1567.27,-454.785C1567.36,-449.09 1567.47,-442.605 1567.57,-436.343"/>
<polygon fill="black" stroke="black" points="1571.07,-436.249 1567.73,-426.194 1564.07,-436.137 1571.07,-436.249"/>
</g>
<!-- locales -->
<g id="node31" class="node"><title>locales</title>
<ellipse fill="none" stroke="blue" cx="1674" cy="-473" rx="35.194" ry="18"/>
<text text-anchor="middle" x="1674" y="-469.3" font-family="Times,serif" font-size="14.00">locales</text>
</g>
<!-- locales&#45;&gt;chj_bin -->
<g id="edge50" class="edge"><title>locales&#45;&gt;chj_bin</title>
<path fill="none" stroke="black" d="M1675,-454.732C1675.76,-423.502 1672.39,-357.834 1634,-325 1613.45,-307.421 1442.42,-290.235 1359.18,-282.817"/>
<polygon fill="black" stroke="black" points="1359.27,-279.311 1349,-281.919 1358.65,-286.284 1359.27,-279.311"/>
</g>
<!-- mercurial -->
<g id="node32" class="node"><title>mercurial</title>
<ellipse fill="none" stroke="green" cx="1488" cy="-343" rx="44.6926" ry="18"/>
<text text-anchor="middle" x="1488" y="-339.3" font-family="Times,serif" font-size="14.00">mercurial</text>
</g>
<!-- mercurial&#45;&gt;chj_bin -->
<g id="edge51" class="edge"><title>mercurial&#45;&gt;chj_bin</title>
<path fill="none" stroke="black" d="M1455.68,-330.298C1426.24,-319.638 1382.74,-303.89 1351.72,-292.658"/>
<polygon fill="black" stroke="black" points="1352.72,-289.296 1342.12,-289.182 1350.33,-295.878 1352.72,-289.296"/>
</g>
<!-- moduser -->
<g id="node33" class="node"><title>moduser</title>
<ellipse fill="none" stroke="blue" cx="309" cy="-473" rx="41.6928" ry="18"/>
<text text-anchor="middle" x="309" y="-469.3" font-family="Times,serif" font-size="14.00">moduser</text>
</g>
<!-- moduser&#45;&gt;chj -->
<g id="edge52" class="edge"><title>moduser&#45;&gt;chj</title>
<path fill="none" stroke="black" d="M337.497,-459.703C362.221,-449.035 397.96,-433.613 423.522,-422.583"/>
<polygon fill="black" stroke="black" points="424.981,-425.765 432.776,-418.59 422.208,-419.338 424.981,-425.765"/>
</g>
<!-- moduser&#45;&gt;key -->
<g id="edge53" class="edge"><title>moduser&#45;&gt;key</title>
<path fill="none" stroke="black" d="M267.327,-472.965C182.983,-472.526 0,-458.391 0,-344 0,-344 0,-344 0,-147 0,-58.5043 130.711,-30.7672 196.329,-22.4183"/>
<polygon fill="black" stroke="black" points="196.754,-25.8926 206.272,-21.2385 195.929,-18.9414 196.754,-25.8926"/>
</g>
<!-- nosudo -->
<g id="node34" class="node"><title>nosudo</title>
<ellipse fill="none" stroke="green" cx="698" cy="-668" rx="36.2938" ry="18"/>
<text text-anchor="middle" x="698" y="-664.3" font-family="Times,serif" font-size="14.00">nosudo</text>
</g>
<!-- nosudo_auto -->
<g id="node35" class="node"><title>nosudo_auto</title>
<ellipse fill="none" stroke="blue" cx="360" cy="-603" rx="53.8905" ry="18"/>
<text text-anchor="middle" x="360" y="-599.3" font-family="Times,serif" font-size="14.00">nosudo&#45;auto</text>
</g>
<!-- qemu -->
<g id="node37" class="node"><title>qemu</title>
<ellipse fill="none" stroke="green" cx="407" cy="-473" rx="30.5947" ry="18"/>
<text text-anchor="middle" x="407" y="-469.3" font-family="Times,serif" font-size="14.00">qemu</text>
</g>
<!-- qemu&#45;&gt;gambit -->
<g id="edge55" class="edge"><title>qemu&#45;&gt;gambit</title>
<path fill="none" stroke="black" d="M431.271,-461.738C455.392,-451.539 492.663,-435.78 520.186,-424.143"/>
<polygon fill="black" stroke="black" points="521.629,-427.333 529.477,-420.215 518.903,-420.885 521.629,-427.333"/>
</g>
<!-- qemu&#45;&gt;git_sign -->
<g id="edge54" class="edge"><title>qemu&#45;&gt;git_sign</title>
<path fill="none" stroke="black" d="M381.512,-462.794C350.052,-451.267 299.848,-432.269 293,-426 238.9,-376.475 218,-352.345 218,-279 218,-279 218,-279 218,-212 218,-120.98 349.991,-94.6675 423.301,-87.073"/>
<polygon fill="black" stroke="black" points="424.047,-90.5178 433.669,-86.0828 423.381,-83.5495 424.047,-90.5178"/>
</g>
<!-- remove_xserver -->
<g id="node38" class="node"><title>remove_xserver</title>
<ellipse fill="none" stroke="green" cx="819" cy="-668" rx="66.0889" ry="18"/>
<text text-anchor="middle" x="819" y="-664.3" font-family="Times,serif" font-size="14.00">remove&#45;xserver</text>
</g>
<!-- schemen -->
<g id="node39" class="node"><title>schemen</title>
<ellipse fill="none" stroke="green" cx="480" cy="-668" rx="42.4939" ry="18"/>
<text text-anchor="middle" x="480" y="-664.3" font-family="Times,serif" font-size="14.00">schemen</text>
</g>
<!-- schemen&#45;&gt;emacs -->
<g id="edge60" class="edge"><title>schemen&#45;&gt;emacs</title>
<path fill="none" stroke="black" d="M438.635,-663.922C378.461,-658.763 263.637,-646.345 169,-621 166.238,-620.26 163.411,-619.397 160.592,-618.459"/>
<polygon fill="black" stroke="black" points="161.735,-615.151 151.14,-615.054 159.362,-621.736 161.735,-615.151"/>
</g>
<!-- schemen&#45;&gt;firefox -->
<g id="edge64" class="edge"><title>schemen&#45;&gt;firefox</title>
<path fill="none" stroke="black" d="M482.492,-649.999C487.224,-610.984 493.268,-513.862 447,-455 430.362,-433.834 402.288,-422.318 378.537,-416.101"/>
<polygon fill="black" stroke="black" points="379.208,-412.663 368.669,-413.749 377.585,-419.472 379.208,-412.663"/>
</g>
<!-- schemen&#45;&gt;full_vncserver -->
<g id="edge57" class="edge"><title>schemen&#45;&gt;full_vncserver</title>
<path fill="none" stroke="black" d="M510.73,-655.515C517.641,-653.338 525.002,-651.329 532,-650 745.457,-609.465 805.239,-653.934 1020,-621 1025.13,-620.213 1030.44,-619.217 1035.72,-618.102"/>
<polygon fill="black" stroke="black" points="1036.82,-621.444 1045.81,-615.837 1035.28,-614.614 1036.82,-621.444"/>
</g>
<!-- schemen&#45;&gt;gambit -->
<g id="edge59" class="edge"><title>schemen&#45;&gt;gambit</title>
<path fill="none" stroke="black" d="M485.23,-649.974C487.881,-641.306 491.136,-630.599 494,-621 513.829,-554.548 536.582,-476.19 548.233,-435.908"/>
<polygon fill="black" stroke="black" points="551.666,-436.635 551.08,-426.056 544.941,-434.691 551.666,-436.635"/>
</g>
<!-- schemen&#45;&gt;nosudo_auto -->
<g id="edge58" class="edge"><title>schemen&#45;&gt;nosudo_auto</title>
<path fill="none" stroke="black" d="M454.257,-653.485C437.526,-644.701 415.449,-633.111 396.868,-623.356"/>
<polygon fill="black" stroke="black" points="398.273,-620.14 387.792,-618.591 395.019,-626.338 398.273,-620.14"/>
</g>
<!-- schemen_lili -->
<g id="node41" class="node"><title>schemen_lili</title>
<ellipse fill="none" stroke="blue" cx="233" cy="-603" rx="54.6905" ry="18"/>
<text text-anchor="middle" x="233" y="-599.3" font-family="Times,serif" font-size="14.00">schemen&#45;lili</text>
</g>
<!-- schemen&#45;&gt;schemen_lili -->
<g id="edge62" class="edge"><title>schemen&#45;&gt;schemen_lili</title>
<path fill="none" stroke="black" d="M444.197,-658.15C407.28,-648.99 348.064,-634.199 297,-621 292.689,-619.886 288.217,-618.719 283.732,-617.542"/>
<polygon fill="black" stroke="black" points="284.511,-614.128 273.949,-614.964 282.727,-620.897 284.511,-614.128"/>
</g>
<!-- schemen_user -->
<g id="node42" class="node"><title>schemen_user</title>
<ellipse fill="none" stroke="blue" cx="309" cy="-538" rx="59.5901" ry="18"/>
<text text-anchor="middle" x="309" y="-534.3" font-family="Times,serif" font-size="14.00">schemen&#45;user</text>
</g>
<!-- schemen&#45;&gt;schemen_user -->
<g id="edge61" class="edge"><title>schemen&#45;&gt;schemen_user</title>
<path fill="none" stroke="black" d="M471.99,-650.046C462.577,-631.749 445.362,-602.842 423,-585 405.509,-571.045 383.224,-560.804 363.005,-553.577"/>
<polygon fill="black" stroke="black" points="363.87,-550.175 353.276,-550.268 361.616,-556.802 363.87,-550.175"/>
</g>
<!-- schemen&#45;&gt;system -->
<g id="edge56" class="edge"><title>schemen&#45;&gt;system</title>
<path fill="none" stroke="black" d="M510.425,-655.44C517.416,-653.238 524.888,-651.237 532,-650 643.154,-630.66 1441.32,-660.501 1547,-621 1579.12,-608.995 1608.51,-582.129 1626.99,-562.406"/>
<polygon fill="black" stroke="black" points="1629.61,-564.73 1633.75,-554.981 1624.43,-560.016 1629.61,-564.73"/>
</g>
<!-- tmp_passwd -->
<g id="node48" class="node"><title>tmp_passwd</title>
<ellipse fill="none" stroke="grey" cx="637" cy="-603" rx="53.0913" ry="18"/>
<text text-anchor="middle" x="637" y="-599.3" font-family="Times,serif" font-size="14.00">tmp/passwd</text>
</g>
<!-- schemen&#45;&gt;tmp_passwd -->
<g id="edge63" class="edge"><title>schemen&#45;&gt;tmp_passwd</title>
<path fill="none" stroke="black" d="M509.9,-655.002C533.83,-645.399 567.694,-631.811 594.45,-621.074"/>
<polygon fill="black" stroke="black" points="595.977,-624.233 603.955,-617.26 593.37,-617.736 595.977,-624.233"/>
</g>
<!-- schemen_finish -->
<g id="node40" class="node"><title>schemen_finish</title>
<ellipse fill="none" stroke="green" cx="968" cy="-668" rx="64.9885" ry="18"/>
<text text-anchor="middle" x="968" y="-664.3" font-family="Times,serif" font-size="14.00">schemen&#45;finish</text>
</g>
<!-- schemen_lili&#45;&gt;chj_emacs -->
<g id="edge67" class="edge"><title>schemen_lili&#45;&gt;chj_emacs</title>
<path fill="none" stroke="black" d="M227.095,-585.072C211.807,-541.246 170.837,-423.8 152.317,-370.709"/>
<polygon fill="black" stroke="black" points="155.525,-369.28 148.927,-360.99 148.916,-371.585 155.525,-369.28"/>
</g>
<!-- schemen_lili&#45;&gt;gambit -->
<g id="edge66" class="edge"><title>schemen_lili&#45;&gt;gambit</title>
<path fill="none" stroke="black" d="M273.809,-590.937C310.023,-580.78 359.91,-565.853 378,-556 440.887,-521.747 502.7,-463.698 534.304,-431.757"/>
<polygon fill="black" stroke="black" points="536.812,-434.198 541.307,-424.604 531.811,-429.301 536.812,-434.198"/>
</g>
<!-- schemen_lili&#45;&gt;schemen_user -->
<g id="edge65" class="edge"><title>schemen_lili&#45;&gt;schemen_user</title>
<path fill="none" stroke="black" d="M252.178,-586.102C261.11,-578.698 271.898,-569.755 281.664,-561.66"/>
<polygon fill="black" stroke="black" points="284.099,-564.188 289.564,-555.112 279.631,-558.799 284.099,-564.188"/>
</g>
<!-- schemen_user&#45;&gt;moduser -->
<g id="edge68" class="edge"><title>schemen_user&#45;&gt;moduser</title>
<path fill="none" stroke="black" d="M309,-519.785C309,-514.09 309,-507.605 309,-501.343"/>
<polygon fill="black" stroke="black" points="312.5,-501.194 309,-491.194 305.5,-501.194 312.5,-501.194"/>
</g>
<!-- set_x_terminal_emulator -->
<g id="node43" class="node"><title>set_x_terminal_emulator</title>
<ellipse fill="none" stroke="blue" cx="1052" cy="-343" rx="94.7833" ry="18"/>
<text text-anchor="middle" x="1052" y="-339.3" font-family="Times,serif" font-size="14.00">set&#45;x&#45;terminal&#45;emulator</text>
</g>
<!-- set_x_terminal_emulator&#45;&gt;chj_bin -->
<g id="edge70" class="edge"><title>set_x_terminal_emulator&#45;&gt;chj_bin</title>
<path fill="none" stroke="black" d="M1108.21,-328.485C1157.59,-316.611 1228.29,-299.609 1272.65,-288.944"/>
<polygon fill="black" stroke="black" points="1273.6,-292.313 1282.51,-286.572 1271.97,-285.507 1273.6,-292.313"/>
</g>
<!-- set_x_terminal_emulator&#45;&gt;urxvt -->
<g id="edge69" class="edge"><title>set_x_terminal_emulator&#45;&gt;urxvt</title>
<path fill="none" stroke="black" d="M1042.17,-325.003C1029.43,-302.956 1007.09,-264.326 992.425,-238.951"/>
<polygon fill="black" stroke="black" points="995.434,-237.164 987.399,-230.258 989.374,-240.667 995.434,-237.164"/>
</g>
<!-- slim_desktop&#45;&gt;chj -->
<g id="edge71" class="edge"><title>slim_desktop&#45;&gt;chj</title>
<path fill="none" stroke="black" d="M1382.66,-471.016C1208.43,-467.686 679.957,-455.373 511,-426 503.344,-424.669 495.264,-422.616 487.697,-420.391"/>
<polygon fill="black" stroke="black" points="488.711,-417.041 478.123,-417.413 486.632,-423.725 488.711,-417.041"/>
</g>
<!-- slim_desktop&#45;&gt;set_x_terminal_emulator -->
<g id="edge72" class="edge"><title>slim_desktop&#45;&gt;set_x_terminal_emulator</title>
<path fill="none" stroke="black" d="M1401.19,-459.494C1332.43,-436.751 1186.66,-388.54 1106.93,-362.168"/>
<polygon fill="black" stroke="black" points="1107.67,-358.725 1097.07,-358.908 1105.47,-365.371 1107.67,-358.725"/>
</g>
<!-- slim_desktop&#45;&gt;xfce4_load_profile -->
<g id="edge73" class="edge"><title>slim_desktop&#45;&gt;xfce4_load_profile</title>
<path fill="none" stroke="black" d="M1468.6,-457.547C1485.98,-449.055 1508.21,-438.198 1527.24,-428.906"/>
<polygon fill="black" stroke="black" points="1528.84,-432.021 1536.29,-424.487 1525.77,-425.731 1528.84,-432.021"/>
</g>
<!-- slim_vncserver -->
<g id="node45" class="node"><title>slim_vncserver</title>
<ellipse fill="none" stroke="green" cx="947" cy="-603" rx="63.8893" ry="18"/>
<text text-anchor="middle" x="947" y="-599.3" font-family="Times,serif" font-size="14.00">slim&#45;vncserver</text>
</g>
<!-- slim_vncserver&#45;&gt;_slim_vncserver -->
<g id="edge74" class="edge"><title>slim_vncserver&#45;&gt;_slim_vncserver</title>
<path fill="none" stroke="black" d="M979.703,-587.388C999.315,-578.625 1024.47,-567.386 1045.6,-557.946"/>
<polygon fill="black" stroke="black" points="1047.28,-561.026 1054.99,-553.751 1044.43,-554.635 1047.28,-561.026"/>
</g>
<!-- swap -->
<g id="node46" class="node"><title>swap</title>
<ellipse fill="none" stroke="green" cx="1579" cy="-343" rx="28.6953" ry="18"/>
<text text-anchor="middle" x="1579" y="-339.3" font-family="Times,serif" font-size="14.00">swap</text>
</g>
<!-- swap&#45;&gt;chj_bin -->
<g id="edge75" class="edge"><title>swap&#45;&gt;chj_bin</title>
<path fill="none" stroke="black" d="M1557.42,-331.073C1552.44,-328.838 1547.11,-326.664 1542,-325 1479.71,-304.711 1404.81,-291.663 1358.29,-284.827"/>
<polygon fill="black" stroke="black" points="1358.64,-281.341 1348.24,-283.383 1357.64,-288.27 1358.64,-281.341"/>
</g>
<!-- system&#45;&gt;debian_upgrade -->
<g id="edge76" class="edge"><title>system&#45;&gt;debian_upgrade</title>
<path fill="none" stroke="black" d="M1670.99,-524.528C1685.58,-516.237 1704.01,-504.427 1718,-491 1735.19,-474.493 1750.56,-452.236 1761.15,-435.076"/>
<polygon fill="black" stroke="black" points="1764.37,-436.509 1766.53,-426.135 1758.37,-432.903 1764.37,-436.509"/>
</g>
<!-- system&#45;&gt;locales -->
<g id="edge77" class="edge"><title>system&#45;&gt;locales</title>
<path fill="none" stroke="black" d="M1654.24,-520.117C1656.84,-514.044 1659.84,-507.039 1662.71,-500.353"/>
<polygon fill="black" stroke="black" points="1666.02,-501.5 1666.74,-490.929 1659.59,-498.742 1666.02,-501.5"/>
</g>
<!-- urxvt&#45;&gt;perhaps_aptupdate -->
<g id="edge78" class="edge"><title>urxvt&#45;&gt;perhaps_aptupdate</title>
<path fill="none" stroke="black" d="M955.22,-201.451C950.236,-199.244 944.966,-196.986 940,-195 914.601,-184.844 885.978,-174.591 862.068,-166.35"/>
<polygon fill="black" stroke="black" points="863.07,-162.993 852.475,-163.063 860.801,-169.615 863.07,-162.993"/>
</g>
<!-- virtualmem_3GB&#45;&gt;chj_bin -->
<g id="edge79" class="edge"><title>virtualmem_3GB&#45;&gt;chj_bin</title>
<path fill="none" stroke="black" d="M1314,-324.785C1314,-319.09 1314,-312.605 1314,-306.343"/>
<polygon fill="black" stroke="black" points="1317.5,-306.194 1314,-296.194 1310.5,-306.194 1317.5,-306.194"/>
</g>
<!-- vncclient -->
<g id="node51" class="node"><title>vncclient</title>
<ellipse fill="none" stroke="green" cx="888" cy="-213" rx="42.7926" ry="18"/>
<text text-anchor="middle" x="888" y="-209.3" font-family="Times,serif" font-size="14.00">vncclient</text>
</g>
<!-- vncclient&#45;&gt;perhaps_aptupdate -->
<g id="edge80" class="edge"><title>vncclient&#45;&gt;perhaps_aptupdate</title>
<path fill="none" stroke="black" d="M869.118,-196.749C859.869,-189.278 848.54,-180.128 838.283,-171.844"/>
<polygon fill="black" stroke="black" points="840.326,-168.995 830.347,-165.434 835.927,-174.44 840.326,-168.995"/>
</g>
<!-- xfce -->
<g id="node52" class="node"><title>xfce</title>
<ellipse fill="none" stroke="blue" cx="1729" cy="-343" rx="27" ry="18"/>
<text text-anchor="middle" x="1729" y="-339.3" font-family="Times,serif" font-size="14.00">xfce</text>
</g>
<!-- xfce&#45;&gt;chj_bin -->
<g id="edge82" class="edge"><title>xfce&#45;&gt;chj_bin</title>
<path fill="none" stroke="black" d="M1707.68,-331.878C1701.45,-329.277 1694.56,-326.728 1688,-325 1572.47,-294.549 1431.44,-284.135 1360.09,-280.666"/>
<polygon fill="black" stroke="black" points="1359.81,-277.15 1349.66,-280.185 1359.49,-284.142 1359.81,-277.15"/>
</g>
<!-- xfce&#45;&gt;dotconfig_xfce4_checkout -->
<g id="edge83" class="edge"><title>xfce&#45;&gt;dotconfig_xfce4_checkout</title>
<path fill="none" stroke="black" d="M1717.63,-326.661C1693.69,-295.677 1634.7,-225.952 1567,-195 1519.89,-173.461 1389.02,-161.075 1294.23,-154.695"/>
<polygon fill="black" stroke="black" points="1294.23,-151.188 1284.02,-154.022 1293.77,-158.173 1294.23,-151.188"/>
</g>
<!-- xfce&#45;&gt;perhaps_aptupdate -->
<g id="edge81" class="edge"><title>xfce&#45;&gt;perhaps_aptupdate</title>
<path fill="none" stroke="black" d="M1705.76,-333.67C1633.79,-308.242 1407.77,-231.161 1214,-195 1074.49,-168.965 1036.47,-186.233 896,-166 889.219,-165.023 882.163,-163.864 875.14,-162.618"/>
<polygon fill="black" stroke="black" points="875.375,-159.102 864.908,-160.739 874.111,-165.987 875.375,-159.102"/>
</g>
<!-- xfce4_load_profile&#45;&gt;chj_bin -->
<g id="edge84" class="edge"><title>xfce4_load_profile&#45;&gt;chj_bin</title>
<path fill="none" stroke="black" d="M1592.4,-390.885C1601.96,-383.113 1611.86,-372.886 1617,-361 1623.36,-346.316 1627.43,-337.133 1617,-325 1600.44,-305.741 1440.04,-289.622 1359.57,-282.672"/>
<polygon fill="black" stroke="black" points="1359.5,-279.153 1349.23,-281.792 1358.9,-286.128 1359.5,-279.153"/>
</g>
<!-- xfce4_load_profile&#45;&gt;xfce -->
<g id="edge85" class="edge"><title>xfce4_load_profile&#45;&gt;xfce</title>
<path fill="none" stroke="black" d="M1605.75,-392.229C1633.44,-381.394 1670.64,-366.837 1696.9,-356.56"/>
<polygon fill="black" stroke="black" points="1698.35,-359.75 1706.39,-352.847 1695.8,-353.232 1698.35,-359.75"/>
</g>
</g>
</svg>
