<?xml version="1.0" encoding="UTF-8" standalone="no"?>
<!DOCTYPE svg PUBLIC "-//W3C//DTD SVG 1.1//EN"
 "http://www.w3.org/Graphics/SVG/1.1/DTD/svg11.dtd">
<!-- Generated by graphviz version 2.38.0 (20140413.2041)
 -->
<!-- Title: foo Pages: 1 -->
<svg width="1798pt" height="694pt"
 viewBox="0.00 0.00 1798.30 694.00" xmlns="http://www.w3.org/2000/svg" xmlns:xlink="http://www.w3.org/1999/xlink">
<g id="graph0" class="graph" transform="scale(1 1) rotate(0) translate(4 690)">
<title>foo</title>
<polygon fill="white" stroke="none" points="-4,4 -4,-690 1794.3,-690 1794.3,4 -4,4"/>
<!-- _bs -->
<g id="node1" class="node"><title>_bs</title>
<ellipse fill="none" stroke="grey" cx="450" cy="-83" rx="27" ry="18"/>
<text text-anchor="middle" x="450" y="-79.3" font-family="Times,serif" font-size="14.00">.bs</text>
</g>
<!-- _usr_local_bin_fastrandom -->
<g id="node2" class="node"><title>_usr_local_bin_fastrandom</title>
<ellipse fill="none" stroke="grey" cx="614" cy="-278" rx="99.3824" ry="18"/>
<text text-anchor="middle" x="614" y="-274.3" font-family="Times,serif" font-size="14.00">/usr/local/bin/fastrandom</text>
</g>
<!-- _slim_vncserver -->
<g id="node3" class="node"><title>_slim_vncserver</title>
<ellipse fill="none" stroke="blue" cx="1093" cy="-538" rx="67.6881" ry="18"/>
<text text-anchor="middle" x="1093" y="-534.3" font-family="Times,serif" font-size="14.00">_slim&#45;vncserver</text>
</g>
<!-- chj_bin -->
<g id="node5" class="node"><title>chj_bin</title>
<ellipse fill="none" stroke="blue" cx="845" cy="-278" rx="35.9954" ry="18"/>
<text text-anchor="middle" x="845" y="-274.3" font-family="Times,serif" font-size="14.00">chj&#45;bin</text>
</g>
<!-- _slim_vncserver&#45;&gt;chj_bin -->
<g id="edge3" class="edge"><title>_slim_vncserver&#45;&gt;chj_bin</title>
<path fill="none" stroke="black" d="M1096.46,-519.905C1101.52,-489.538 1107.08,-426.003 1074,-390 1032.77,-345.13 993.074,-390.935 940,-361 920.831,-350.188 922.399,-339.677 906,-325 895.784,-315.856 883.872,-306.597 873.3,-298.806"/>
<polygon fill="black" stroke="black" points="875.316,-295.945 865.167,-292.903 871.204,-301.61 875.316,-295.945"/>
</g>
<!-- perhaps_aptupdate -->
<g id="node36" class="node"><title>perhaps_aptupdate</title>
<ellipse fill="none" stroke="blue" cx="1444" cy="-148" rx="76.8869" ry="18"/>
<text text-anchor="middle" x="1444" y="-144.3" font-family="Times,serif" font-size="14.00">perhaps_aptupdate</text>
</g>
<!-- _slim_vncserver&#45;&gt;perhaps_aptupdate -->
<g id="edge1" class="edge"><title>_slim_vncserver&#45;&gt;perhaps_aptupdate</title>
<path fill="none" stroke="black" d="M1150.52,-528.278C1276.32,-508.648 1567.02,-460.055 1596,-426 1662.6,-347.718 1669.03,-276.956 1607,-195 1595.6,-179.934 1554.56,-168.402 1516.52,-160.653"/>
<polygon fill="black" stroke="black" points="1516.91,-157.161 1506.42,-158.666 1515.56,-164.03 1516.91,-157.161"/>
</g>
<!-- slim_desktop -->
<g id="node44" class="node"><title>slim_desktop</title>
<ellipse fill="none" stroke="blue" cx="883" cy="-473" rx="56.59" ry="18"/>
<text text-anchor="middle" x="883" y="-469.3" font-family="Times,serif" font-size="14.00">slim&#45;desktop</text>
</g>
<!-- _slim_vncserver&#45;&gt;slim_desktop -->
<g id="edge2" class="edge"><title>_slim_vncserver&#45;&gt;slim_desktop</title>
<path fill="none" stroke="black" d="M1050,-524.099C1015.88,-513.865 968.172,-499.552 932.477,-488.843"/>
<polygon fill="black" stroke="black" points="933.333,-485.446 922.749,-485.925 931.322,-492.151 933.333,-485.446"/>
</g>
<!-- chj -->
<g id="node4" class="node"><title>chj</title>
<ellipse fill="none" stroke="blue" cx="742" cy="-408" rx="27" ry="18"/>
<text text-anchor="middle" x="742" y="-404.3" font-family="Times,serif" font-size="14.00">chj</text>
</g>
<!-- chj&#45;&gt;chj_bin -->
<g id="edge6" class="edge"><title>chj&#45;&gt;chj_bin</title>
<path fill="none" stroke="black" d="M757.616,-392.725C766.867,-383.95 778.582,-372.263 788,-361 803.202,-342.82 818.42,-320.677 829.303,-303.985"/>
<polygon fill="black" stroke="black" points="832.404,-305.635 834.876,-295.333 826.519,-301.845 832.404,-305.635"/>
</g>
<!-- chj_emacs -->
<g id="node6" class="node"><title>chj_emacs</title>
<ellipse fill="none" stroke="blue" cx="499" cy="-343" rx="46.5926" ry="18"/>
<text text-anchor="middle" x="499" y="-339.3" font-family="Times,serif" font-size="14.00">chj&#45;emacs</text>
</g>
<!-- chj&#45;&gt;chj_emacs -->
<g id="edge7" class="edge"><title>chj&#45;&gt;chj_emacs</title>
<path fill="none" stroke="black" d="M716.637,-401.302C680.403,-393.046 611.808,-376.991 554,-361 550.623,-360.066 547.139,-359.068 543.641,-358.043"/>
<polygon fill="black" stroke="black" points="544.406,-354.619 533.822,-355.107 542.4,-361.325 544.406,-354.619"/>
</g>
<!-- cj_git_patchtool -->
<g id="node11" class="node"><title>cj_git_patchtool</title>
<ellipse fill="none" stroke="blue" cx="1014" cy="-343" rx="64.9885" ry="18"/>
<text text-anchor="middle" x="1014" y="-339.3" font-family="Times,serif" font-size="14.00">cj&#45;git&#45;patchtool</text>
</g>
<!-- chj&#45;&gt;cj_git_patchtool -->
<g id="edge9" class="edge"><title>chj&#45;&gt;cj_git_patchtool</title>
<path fill="none" stroke="black" d="M767.102,-401.186C809.744,-391.309 897.396,-371.008 955.947,-357.446"/>
<polygon fill="black" stroke="black" points="956.85,-360.83 965.803,-355.163 955.271,-354.01 956.85,-360.83"/>
</g>
<!-- debianpackages -->
<g id="node15" class="node"><title>debianpackages</title>
<ellipse fill="none" stroke="blue" cx="1140" cy="-278" rx="66.0889" ry="18"/>
<text text-anchor="middle" x="1140" y="-274.3" font-family="Times,serif" font-size="14.00">debianpackages</text>
</g>
<!-- chj&#45;&gt;debianpackages -->
<g id="edge5" class="edge"><title>chj&#45;&gt;debianpackages</title>
<path fill="none" stroke="black" d="M768.237,-403.225C793.895,-399.595 834.089,-394.075 869,-390 901.274,-386.233 1138.19,-385.089 1160,-361 1173.82,-345.736 1166.44,-322.526 1156.98,-304.69"/>
<polygon fill="black" stroke="black" points="1159.95,-302.848 1151.94,-295.923 1153.89,-306.337 1159.95,-302.848"/>
</g>
<!-- fastrandom -->
<g id="node19" class="node"><title>fastrandom</title>
<ellipse fill="none" stroke="blue" cx="614" cy="-343" rx="50.8918" ry="18"/>
<text text-anchor="middle" x="614" y="-339.3" font-family="Times,serif" font-size="14.00">fastrandom</text>
</g>
<!-- chj&#45;&gt;fastrandom -->
<g id="edge8" class="edge"><title>chj&#45;&gt;fastrandom</title>
<path fill="none" stroke="black" d="M720.863,-396.597C702.016,-387.32 673.99,-373.526 651.367,-362.392"/>
<polygon fill="black" stroke="black" points="652.88,-359.236 642.363,-357.96 649.789,-365.516 652.88,-359.236"/>
</g>
<!-- git_sign -->
<g id="node27" class="node"><title>git_sign</title>
<ellipse fill="none" stroke="blue" cx="854" cy="-83" rx="37.8943" ry="18"/>
<text text-anchor="middle" x="854" y="-79.3" font-family="Times,serif" font-size="14.00">git&#45;sign</text>
</g>
<!-- chj&#45;&gt;git_sign -->
<g id="edge4" class="edge"><title>chj&#45;&gt;git_sign</title>
<path fill="none" stroke="black" d="M728.984,-391.961C722.513,-383.479 715.369,-372.333 712,-361 707.441,-345.663 709.132,-340.741 712,-325 712.692,-321.203 758.289,-197.747 761,-195 785.815,-169.86 811.908,-192.731 835,-166 847.974,-150.981 852.53,-128.819 853.948,-111.32"/>
<polygon fill="black" stroke="black" points="857.453,-111.299 854.472,-101.132 850.463,-110.939 857.453,-111.299"/>
</g>
<!-- chj_bin&#45;&gt;_bs -->
<g id="edge10" class="edge"><title>chj_bin&#45;&gt;_bs</title>
<path fill="none" stroke="black" d="M812.164,-270.526C718.741,-251.787 456.654,-196.871 433,-166 420.54,-149.739 426.947,-126.536 435.226,-108.959"/>
<polygon fill="black" stroke="black" points="438.448,-110.347 439.91,-99.8534 432.223,-107.145 438.448,-110.347"/>
</g>
<!-- chj_perllib -->
<g id="node9" class="node"><title>chj_perllib</title>
<ellipse fill="none" stroke="blue" cx="817" cy="-213" rx="47.3916" ry="18"/>
<text text-anchor="middle" x="817" y="-209.3" font-family="Times,serif" font-size="14.00">chj&#45;perllib</text>
</g>
<!-- chj_bin&#45;&gt;chj_perllib -->
<g id="edge12" class="edge"><title>chj_bin&#45;&gt;chj_perllib</title>
<path fill="none" stroke="black" d="M837.497,-260.117C834.797,-254.044 831.684,-247.039 828.712,-240.353"/>
<polygon fill="black" stroke="black" points="831.784,-238.646 824.524,-230.929 825.387,-241.489 831.784,-238.646"/>
</g>
<!-- chj_bin&#45;&gt;git_sign -->
<g id="edge11" class="edge"><title>chj_bin&#45;&gt;git_sign</title>
<path fill="none" stroke="black" d="M857.746,-260.993C863.629,-252.585 869.971,-241.802 873,-231 884.498,-189.996 873.191,-140.577 863.758,-110.756"/>
<polygon fill="black" stroke="black" points="867.015,-109.458 860.54,-101.072 860.372,-111.666 867.015,-109.458"/>
</g>
<!-- chj_emacs_checkout -->
<g id="node7" class="node"><title>chj_emacs_checkout</title>
<ellipse fill="none" stroke="blue" cx="414" cy="-278" rx="81.4863" ry="18"/>
<text text-anchor="middle" x="414" y="-274.3" font-family="Times,serif" font-size="14.00">chj&#45;emacs&#45;checkout</text>
</g>
<!-- chj_emacs&#45;&gt;chj_emacs_checkout -->
<g id="edge13" class="edge"><title>chj_emacs&#45;&gt;chj_emacs_checkout</title>
<path fill="none" stroke="black" d="M478.424,-326.749C468.244,-319.205 455.754,-309.947 444.489,-301.598"/>
<polygon fill="black" stroke="black" points="446.291,-298.577 436.173,-295.434 442.123,-304.201 446.291,-298.577"/>
</g>
<!-- chj_emacs_checkout&#45;&gt;git_sign -->
<g id="edge14" class="edge"><title>chj_emacs_checkout&#45;&gt;git_sign</title>
<path fill="none" stroke="black" d="M410.176,-259.552C404.533,-228.624 398.088,-164.23 433,-130 459.267,-104.246 701.75,-90.6463 806.345,-85.9368"/>
<polygon fill="black" stroke="black" points="806.783,-89.4209 816.619,-85.4829 806.474,-82.4277 806.783,-89.4209"/>
</g>
<!-- chj_fastrandom -->
<g id="node8" class="node"><title>chj_fastrandom</title>
<ellipse fill="none" stroke="green" cx="1060" cy="-148" rx="64.189" ry="18"/>
<text text-anchor="middle" x="1060" y="-144.3" font-family="Times,serif" font-size="14.00">chj&#45;fastrandom</text>
</g>
<!-- chj_fastrandom&#45;&gt;git_sign -->
<g id="edge15" class="edge"><title>chj_fastrandom&#45;&gt;git_sign</title>
<path fill="none" stroke="black" d="M1018.31,-134.251C982.205,-123.208 930.293,-107.332 894.528,-96.3946"/>
<polygon fill="black" stroke="black" points="895.482,-93.0264 884.896,-93.4488 893.435,-99.7204 895.482,-93.0264"/>
</g>
<!-- chj_perllib_checkout -->
<g id="node10" class="node"><title>chj_perllib_checkout</title>
<ellipse fill="none" stroke="blue" cx="524" cy="-148" rx="81.7856" ry="18"/>
<text text-anchor="middle" x="524" y="-144.3" font-family="Times,serif" font-size="14.00">chj&#45;perllib&#45;checkout</text>
</g>
<!-- chj_perllib&#45;&gt;chj_perllib_checkout -->
<g id="edge16" class="edge"><title>chj_perllib&#45;&gt;chj_perllib_checkout</title>
<path fill="none" stroke="black" d="M776.874,-203.372C728.896,-193.056 647.893,-175.639 590.507,-163.3"/>
<polygon fill="black" stroke="black" points="590.951,-159.816 580.438,-161.135 589.479,-166.659 590.951,-159.816"/>
</g>
<!-- chj_perllib_checkout&#45;&gt;_bs -->
<g id="edge17" class="edge"><title>chj_perllib_checkout&#45;&gt;_bs</title>
<path fill="none" stroke="black" d="M504.557,-130.447C495.19,-122.473 483.868,-112.834 473.972,-104.408"/>
<polygon fill="black" stroke="black" points="475.952,-101.497 466.068,-97.6798 471.414,-106.827 475.952,-101.497"/>
</g>
<!-- chj_perllib_checkout&#45;&gt;git_sign -->
<g id="edge18" class="edge"><title>chj_perllib_checkout&#45;&gt;git_sign</title>
<path fill="none" stroke="black" d="M583.761,-135.591C648.766,-123.181 751.173,-103.631 809.475,-92.5003"/>
<polygon fill="black" stroke="black" points="810.315,-95.9031 819.481,-90.5899 809.002,-89.0273 810.315,-95.9031"/>
</g>
<!-- cj_git_patchtool&#45;&gt;chj_bin -->
<g id="edge20" class="edge"><title>cj_git_patchtool&#45;&gt;chj_bin</title>
<path fill="none" stroke="black" d="M976.912,-328.174C948.838,-317.709 910.441,-303.395 882.312,-292.909"/>
<polygon fill="black" stroke="black" points="883.417,-289.586 872.825,-289.373 880.972,-296.145 883.417,-289.586"/>
</g>
<!-- cj_git_patchtool&#45;&gt;debianpackages -->
<g id="edge19" class="edge"><title>cj_git_patchtool&#45;&gt;debianpackages</title>
<path fill="none" stroke="black" d="M1044.18,-326.91C1061.04,-318.478 1082.26,-307.87 1100.44,-298.781"/>
<polygon fill="black" stroke="black" points="1102.25,-301.788 1109.63,-294.185 1099.12,-295.527 1102.25,-301.788"/>
</g>
<!-- cj_git_patchtool&#45;&gt;git_sign -->
<g id="edge21" class="edge"><title>cj_git_patchtool&#45;&gt;git_sign</title>
<path fill="none" stroke="black" d="M987.761,-326.443C976.173,-318.518 963.137,-308.015 954,-296 905.841,-232.671 925.35,-199.708 887,-130 882.936,-122.613 877.89,-115.012 872.977,-108.169"/>
<polygon fill="black" stroke="black" points="875.675,-105.931 866.908,-99.9805 870.051,-110.099 875.675,-105.931"/>
</g>
<!-- cplusplus -->
<g id="node12" class="node"><title>cplusplus</title>
<ellipse fill="none" stroke="blue" cx="190" cy="-278" rx="44.393" ry="18"/>
<text text-anchor="middle" x="190" y="-274.3" font-family="Times,serif" font-size="14.00">cplusplus</text>
</g>
<!-- cplusplus&#45;&gt;perhaps_aptupdate -->
<g id="edge22" class="edge"><title>cplusplus&#45;&gt;perhaps_aptupdate</title>
<path fill="none" stroke="black" d="M230.022,-270.191C322.975,-254.611 560.808,-216.086 761,-195 874.917,-183.001 1204.54,-162.99 1360.43,-153.837"/>
<polygon fill="black" stroke="black" points="1360.66,-157.329 1370.44,-153.25 1360.25,-150.341 1360.66,-157.329"/>
</g>
<!-- debian_emacs -->
<g id="node13" class="node"><title>debian_emacs</title>
<ellipse fill="none" stroke="blue" cx="692" cy="-538" rx="59.5901" ry="18"/>
<text text-anchor="middle" x="692" y="-534.3" font-family="Times,serif" font-size="14.00">debian&#45;emacs</text>
</g>
<!-- debian_upgrade -->
<g id="node14" class="node"><title>debian_upgrade</title>
<ellipse fill="none" stroke="blue" cx="1520" cy="-408" rx="66.8882" ry="18"/>
<text text-anchor="middle" x="1520" y="-404.3" font-family="Times,serif" font-size="14.00">debian_upgrade</text>
</g>
<!-- debian_upgrade&#45;&gt;perhaps_aptupdate -->
<g id="edge23" class="edge"><title>debian_upgrade&#45;&gt;perhaps_aptupdate</title>
<path fill="none" stroke="black" d="M1523.29,-389.83C1525.73,-372.391 1526.97,-345.154 1516,-325 1481.73,-262.063 1417.72,-294.754 1385,-231 1377.69,-216.765 1377.98,-209.377 1385,-195 1389.66,-185.448 1397.38,-177.302 1405.71,-170.639"/>
<polygon fill="black" stroke="black" points="1407.81,-173.439 1413.81,-164.708 1403.68,-167.791 1407.81,-173.439"/>
</g>
<!-- urxvt -->
<g id="node50" class="node"><title>urxvt</title>
<ellipse fill="none" stroke="blue" cx="1233" cy="-213" rx="29.4969" ry="18"/>
<text text-anchor="middle" x="1233" y="-209.3" font-family="Times,serif" font-size="14.00">urxvt</text>
</g>
<!-- debianpackages&#45;&gt;urxvt -->
<g id="edge24" class="edge"><title>debianpackages&#45;&gt;urxvt</title>
<path fill="none" stroke="black" d="M1163.47,-261.102C1176.27,-252.431 1192.18,-241.649 1205.56,-232.59"/>
<polygon fill="black" stroke="black" points="1207.6,-235.431 1213.92,-226.925 1203.68,-229.636 1207.6,-235.431"/>
</g>
<!-- dnsresolver -->
<g id="node16" class="node"><title>dnsresolver</title>
<ellipse fill="none" stroke="green" cx="1126" cy="-668" rx="51.1914" ry="18"/>
<text text-anchor="middle" x="1126" y="-664.3" font-family="Times,serif" font-size="14.00">dnsresolver</text>
</g>
<!-- dotconfig_xfce4_checkout -->
<g id="node17" class="node"><title>dotconfig_xfce4_checkout</title>
<ellipse fill="none" stroke="blue" cx="725" cy="-148" rx="101.282" ry="18"/>
<text text-anchor="middle" x="725" y="-144.3" font-family="Times,serif" font-size="14.00">dotconfig&#45;xfce4&#45;checkout</text>
</g>
<!-- dotconfig_xfce4_checkout&#45;&gt;_bs -->
<g id="edge25" class="edge"><title>dotconfig_xfce4_checkout&#45;&gt;_bs</title>
<path fill="none" stroke="black" d="M665.329,-133.33C610.372,-120.74 530.681,-102.483 485.244,-92.074"/>
<polygon fill="black" stroke="black" points="485.806,-88.6122 475.277,-89.7907 484.243,-95.4355 485.806,-88.6122"/>
</g>
<!-- dotconfig_xfce4_checkout&#45;&gt;git_sign -->
<g id="edge26" class="edge"><title>dotconfig_xfce4_checkout&#45;&gt;git_sign</title>
<path fill="none" stroke="black" d="M757.886,-130.939C776.66,-121.771 800.182,-110.283 819.257,-100.967"/>
<polygon fill="black" stroke="black" points="821.051,-103.987 828.501,-96.4532 817.979,-97.6967 821.051,-103.987"/>
</g>
<!-- emacs -->
<g id="node18" class="node"><title>emacs</title>
<ellipse fill="none" stroke="blue" cx="692" cy="-603" rx="33.2948" ry="18"/>
<text text-anchor="middle" x="692" y="-599.3" font-family="Times,serif" font-size="14.00">emacs</text>
</g>
<!-- emacs&#45;&gt;chj_emacs -->
<g id="edge28" class="edge"><title>emacs&#45;&gt;chj_emacs</title>
<path fill="none" stroke="black" d="M668.355,-590.237C653.883,-582.138 635.757,-570.28 623,-556 589.363,-518.347 596.325,-498.678 571,-455 553.481,-424.786 531.373,-391.305 516.308,-369.097"/>
<polygon fill="black" stroke="black" points="519.038,-366.887 510.512,-360.597 513.254,-370.831 519.038,-366.887"/>
</g>
<!-- emacs&#45;&gt;debian_emacs -->
<g id="edge27" class="edge"><title>emacs&#45;&gt;debian_emacs</title>
<path fill="none" stroke="black" d="M692,-584.785C692,-579.09 692,-572.605 692,-566.343"/>
<polygon fill="black" stroke="black" points="695.5,-566.194 692,-556.194 688.5,-566.194 695.5,-566.194"/>
</g>
<!-- fastrandom&#45;&gt;_usr_local_bin_fastrandom -->
<g id="edge29" class="edge"><title>fastrandom&#45;&gt;_usr_local_bin_fastrandom</title>
<path fill="none" stroke="black" d="M614,-324.785C614,-319.09 614,-312.605 614,-306.343"/>
<polygon fill="black" stroke="black" points="617.5,-306.194 614,-296.194 610.5,-306.194 617.5,-306.194"/>
</g>
<!-- firefox -->
<g id="node20" class="node"><title>firefox</title>
<ellipse fill="none" stroke="blue" cx="1715" cy="-408" rx="34.394" ry="18"/>
<text text-anchor="middle" x="1715" y="-404.3" font-family="Times,serif" font-size="14.00">firefox</text>
</g>
<!-- firefox&#45;&gt;perhaps_aptupdate -->
<g id="edge30" class="edge"><title>firefox&#45;&gt;perhaps_aptupdate</title>
<path fill="none" stroke="black" d="M1714.24,-389.706C1711.47,-349.198 1698.73,-247.629 1640,-195 1622.08,-178.94 1566.72,-166.848 1519.39,-159.101"/>
<polygon fill="black" stroke="black" points="1519.86,-155.631 1509.43,-157.515 1518.76,-162.544 1519.86,-155.631"/>
</g>
<!-- fperl -->
<g id="node21" class="node"><title>fperl</title>
<ellipse fill="none" stroke="green" cx="1124" cy="-343" rx="27.0966" ry="18"/>
<text text-anchor="middle" x="1124" y="-339.3" font-family="Times,serif" font-size="14.00">fperl</text>
</g>
<!-- fperl&#45;&gt;chj_bin -->
<g id="edge33" class="edge"><title>fperl&#45;&gt;chj_bin</title>
<path fill="none" stroke="black" d="M1103.04,-331.013C1098.2,-328.781 1093,-326.623 1088,-325 1051.69,-313.204 948.577,-295.601 888.985,-285.949"/>
<polygon fill="black" stroke="black" points="889.175,-282.435 878.746,-284.3 888.062,-289.346 889.175,-282.435"/>
</g>
<!-- fperl&#45;&gt;debianpackages -->
<g id="edge32" class="edge"><title>fperl&#45;&gt;debianpackages</title>
<path fill="none" stroke="black" d="M1128.29,-325.117C1129.77,-319.281 1131.47,-312.585 1133.11,-306.137"/>
<polygon fill="black" stroke="black" points="1136.52,-306.923 1135.59,-296.369 1129.73,-305.199 1136.52,-306.923"/>
</g>
<!-- fperl&#45;&gt;git_sign -->
<g id="edge31" class="edge"><title>fperl&#45;&gt;git_sign</title>
<path fill="none" stroke="black" d="M1106.13,-329.194C1094.12,-320.321 1078.15,-307.99 1065,-296 990.189,-227.783 982.63,-199.49 909,-130 900.038,-121.541 889.782,-112.746 880.573,-105.139"/>
<polygon fill="black" stroke="black" points="882.768,-102.412 872.809,-98.7978 878.341,-107.834 882.768,-102.412"/>
</g>
<!-- full_desktop -->
<g id="node22" class="node"><title>full_desktop</title>
<ellipse fill="none" stroke="blue" cx="856" cy="-538" rx="53.0913" ry="18"/>
<text text-anchor="middle" x="856" y="-534.3" font-family="Times,serif" font-size="14.00">full&#45;desktop</text>
</g>
<!-- full_desktop&#45;&gt;slim_desktop -->
<g id="edge34" class="edge"><title>full_desktop&#45;&gt;slim_desktop</title>
<path fill="none" stroke="black" d="M863.236,-520.117C865.838,-514.044 868.84,-507.039 871.706,-500.353"/>
<polygon fill="black" stroke="black" points="875.022,-501.5 875.745,-490.929 868.588,-498.742 875.022,-501.5"/>
</g>
<!-- full_desktop_autoremove -->
<g id="node23" class="node"><title>full_desktop_autoremove</title>
<ellipse fill="none" stroke="green" cx="843" cy="-603" rx="99.3824" ry="18"/>
<text text-anchor="middle" x="843" y="-599.3" font-family="Times,serif" font-size="14.00">full&#45;desktop_autoremove</text>
</g>
<!-- full_desktop_autoremove&#45;&gt;full_desktop -->
<g id="edge35" class="edge"><title>full_desktop_autoremove&#45;&gt;full_desktop</title>
<path fill="none" stroke="black" d="M846.552,-584.785C847.727,-579.09 849.066,-572.605 850.358,-566.343"/>
<polygon fill="black" stroke="black" points="853.859,-566.695 852.452,-556.194 847.003,-565.281 853.859,-566.695"/>
</g>
<!-- full_vncserver -->
<g id="node24" class="node"><title>full_vncserver</title>
<ellipse fill="none" stroke="blue" cx="1058" cy="-603" rx="59.5901" ry="18"/>
<text text-anchor="middle" x="1058" y="-599.3" font-family="Times,serif" font-size="14.00">full&#45;vncserver</text>
</g>
<!-- full_vncserver&#45;&gt;_slim_vncserver -->
<g id="edge36" class="edge"><title>full_vncserver&#45;&gt;_slim_vncserver</title>
<path fill="none" stroke="black" d="M1067.38,-585.117C1070.83,-578.903 1074.83,-571.713 1078.62,-564.887"/>
<polygon fill="black" stroke="black" points="1081.8,-566.371 1083.59,-555.929 1075.68,-562.971 1081.8,-566.371"/>
</g>
<!-- full_vncserver&#45;&gt;debianpackages -->
<g id="edge37" class="edge"><title>full_vncserver&#45;&gt;debianpackages</title>
<path fill="none" stroke="black" d="M1099.39,-589.804C1195.37,-561.23 1425,-491.081 1425,-474 1425,-474 1425,-474 1425,-407 1425,-369.59 1433.19,-350.696 1406,-325 1379.07,-299.548 1283.91,-287.988 1215.1,-282.869"/>
<polygon fill="black" stroke="black" points="1214.94,-279.349 1204.72,-282.131 1214.44,-286.332 1214.94,-279.349"/>
</g>
<!-- system -->
<g id="node47" class="node"><title>system</title>
<ellipse fill="none" stroke="blue" cx="971" cy="-538" rx="35.9954" ry="18"/>
<text text-anchor="middle" x="971" y="-534.3" font-family="Times,serif" font-size="14.00">system</text>
</g>
<!-- full_vncserver&#45;&gt;system -->
<g id="edge38" class="edge"><title>full_vncserver&#45;&gt;system</title>
<path fill="none" stroke="black" d="M1036.05,-586.102C1024.79,-577.948 1010.95,-567.928 998.934,-559.228"/>
<polygon fill="black" stroke="black" points="1000.72,-556.203 990.572,-553.173 996.619,-561.873 1000.72,-556.203"/>
</g>
<!-- gambit -->
<g id="node25" class="node"><title>gambit</title>
<ellipse fill="none" stroke="blue" cx="424" cy="-408" rx="35.9954" ry="18"/>
<text text-anchor="middle" x="424" y="-404.3" font-family="Times,serif" font-size="14.00">gambit</text>
</g>
<!-- gambit&#45;&gt;chj_bin -->
<g id="edge42" class="edge"><title>gambit&#45;&gt;chj_bin</title>
<path fill="none" stroke="black" d="M388.578,-404.88C358.672,-400.998 317.535,-390.278 297,-361 287.813,-347.901 286.078,-336.692 297,-325 329.309,-290.411 674.918,-300.854 722,-296 748.431,-293.275 777.925,-289.233 801.404,-285.774"/>
<polygon fill="black" stroke="black" points="802.029,-289.22 811.403,-284.283 800.996,-282.296 802.029,-289.22"/>
</g>
<!-- gambit&#45;&gt;chj_emacs -->
<g id="edge43" class="edge"><title>gambit&#45;&gt;chj_emacs</title>
<path fill="none" stroke="black" d="M441.774,-392.07C450.934,-384.375 462.29,-374.837 472.465,-366.29"/>
<polygon fill="black" stroke="black" points="474.901,-368.814 480.307,-359.702 470.399,-363.454 474.901,-368.814"/>
</g>
<!-- gambit&#45;&gt;cplusplus -->
<g id="edge40" class="edge"><title>gambit&#45;&gt;cplusplus</title>
<path fill="none" stroke="black" d="M388.225,-407.612C311.022,-408.086 132.711,-404.35 95,-361 84.4988,-348.928 86.502,-338.557 95,-325 105.511,-308.231 124.062,-297.424 141.997,-290.533"/>
<polygon fill="black" stroke="black" points="143.557,-293.696 151.843,-287.095 141.249,-287.087 143.557,-293.696"/>
</g>
<!-- gambit&#45;&gt;debianpackages -->
<g id="edge41" class="edge"><title>gambit&#45;&gt;debianpackages</title>
<path fill="none" stroke="black" d="M422.547,-389.886C421.98,-370.878 424.397,-340.795 443,-325 480.94,-292.787 840.338,-299.299 890,-296 949.392,-292.054 1016.71,-287.47 1066.52,-284.057"/>
<polygon fill="black" stroke="black" points="1066.82,-287.545 1076.56,-283.369 1066.34,-280.561 1066.82,-287.545"/>
</g>
<!-- gambit_checkout -->
<g id="node26" class="node"><title>gambit_checkout</title>
<ellipse fill="none" stroke="blue" cx="278" cy="-148" rx="70.3881" ry="18"/>
<text text-anchor="middle" x="278" y="-144.3" font-family="Times,serif" font-size="14.00">gambit&#45;checkout</text>
</g>
<!-- gambit&#45;&gt;gambit_checkout -->
<g id="edge39" class="edge"><title>gambit&#45;&gt;gambit_checkout</title>
<path fill="none" stroke="black" d="M388.233,-407.795C309.131,-408.707 123.243,-405.91 84,-361 20.8801,-288.765 162.016,-205.445 236.19,-168.441"/>
<polygon fill="black" stroke="black" points="237.889,-171.505 245.318,-163.951 234.8,-165.224 237.889,-171.505"/>
</g>
<!-- virtualmem_3GB -->
<g id="node51" class="node"><title>virtualmem_3GB</title>
<ellipse fill="none" stroke="blue" cx="177" cy="-343" rx="73.387" ry="18"/>
<text text-anchor="middle" x="177" y="-339.3" font-family="Times,serif" font-size="14.00">virtualmem_3GB</text>
</g>
<!-- gambit&#45;&gt;virtualmem_3GB -->
<g id="edge44" class="edge"><title>gambit&#45;&gt;virtualmem_3GB</title>
<path fill="none" stroke="black" d="M392.717,-399.021C353.369,-388.985 285.003,-371.547 235.77,-358.99"/>
<polygon fill="black" stroke="black" points="236.437,-355.548 225.882,-356.468 234.707,-362.331 236.437,-355.548"/>
</g>
<!-- gambit_checkout&#45;&gt;_bs -->
<g id="edge45" class="edge"><title>gambit_checkout&#45;&gt;_bs</title>
<path fill="none" stroke="black" d="M316.6,-132.862C346.901,-121.763 388.619,-106.483 417.292,-95.9804"/>
<polygon fill="black" stroke="black" points="418.663,-99.2055 426.849,-92.4796 416.256,-92.6325 418.663,-99.2055"/>
</g>
<!-- gambit_checkout&#45;&gt;git_sign -->
<g id="edge46" class="edge"><title>gambit_checkout&#45;&gt;git_sign</title>
<path fill="none" stroke="black" d="M337.202,-138.296C357.133,-135.487 379.511,-132.465 400,-130 548.408,-112.148 724.673,-95.623 807.115,-88.1665"/>
<polygon fill="black" stroke="black" points="807.523,-91.644 817.168,-87.2601 806.895,-84.6722 807.523,-91.644"/>
</g>
<!-- key -->
<g id="node29" class="node"><title>key</title>
<ellipse fill="none" stroke="blue" cx="427" cy="-18" rx="27" ry="18"/>
<text text-anchor="middle" x="427" y="-14.3" font-family="Times,serif" font-size="14.00">key</text>
</g>
<!-- git_sign&#45;&gt;key -->
<g id="edge47" class="edge"><title>git_sign&#45;&gt;key</title>
<path fill="none" stroke="black" d="M818.329,-76.737C738.145,-64.9066 544.366,-36.3163 463.451,-24.3781"/>
<polygon fill="black" stroke="black" points="463.659,-20.871 453.256,-22.8738 462.638,-27.796 463.659,-20.871"/>
</g>
<!-- graph_deps -->
<g id="node28" class="node"><title>graph_deps</title>
<ellipse fill="none" stroke="green" cx="1444" cy="-213" rx="50.0912" ry="18"/>
<text text-anchor="middle" x="1444" y="-209.3" font-family="Times,serif" font-size="14.00">graph&#45;deps</text>
</g>
<!-- graph_deps&#45;&gt;perhaps_aptupdate -->
<g id="edge48" class="edge"><title>graph_deps&#45;&gt;perhaps_aptupdate</title>
<path fill="none" stroke="black" d="M1444,-194.785C1444,-189.09 1444,-182.605 1444,-176.343"/>
<polygon fill="black" stroke="black" points="1447.5,-176.194 1444,-166.194 1440.5,-176.194 1447.5,-176.194"/>
</g>
<!-- load_profile -->
<g id="node30" class="node"><title>load_profile</title>
<ellipse fill="none" stroke="green" cx="1011" cy="-473" rx="53.8905" ry="18"/>
<text text-anchor="middle" x="1011" y="-469.3" font-family="Times,serif" font-size="14.00">load_profile</text>
</g>
<!-- xfce4_load_profile -->
<g id="node54" class="node"><title>xfce4_load_profile</title>
<ellipse fill="none" stroke="blue" cx="988" cy="-408" rx="77.1866" ry="18"/>
<text text-anchor="middle" x="988" y="-404.3" font-family="Times,serif" font-size="14.00">xfce4_load_profile</text>
</g>
<!-- load_profile&#45;&gt;xfce4_load_profile -->
<g id="edge49" class="edge"><title>load_profile&#45;&gt;xfce4_load_profile</title>
<path fill="none" stroke="black" d="M1004.84,-455.117C1002.71,-449.281 1000.26,-442.585 997.907,-436.137"/>
<polygon fill="black" stroke="black" points="1001.06,-434.562 994.341,-426.369 994.483,-436.963 1001.06,-434.562"/>
</g>
<!-- locales -->
<g id="node31" class="node"><title>locales</title>
<ellipse fill="none" stroke="blue" cx="773" cy="-473" rx="35.194" ry="18"/>
<text text-anchor="middle" x="773" y="-469.3" font-family="Times,serif" font-size="14.00">locales</text>
</g>
<!-- locales&#45;&gt;chj_bin -->
<g id="edge50" class="edge"><title>locales&#45;&gt;chj_bin</title>
<path fill="none" stroke="black" d="M779.713,-455.134C788.31,-433.431 803.581,-394.526 816,-361 822.798,-342.647 830.146,-321.859 835.745,-305.806"/>
<polygon fill="black" stroke="black" points="839.171,-306.609 839.148,-296.014 832.559,-304.311 839.171,-306.609"/>
</g>
<!-- mercurial -->
<g id="node32" class="node"><title>mercurial</title>
<ellipse fill="none" stroke="green" cx="351" cy="-343" rx="44.6926" ry="18"/>
<text text-anchor="middle" x="351" y="-339.3" font-family="Times,serif" font-size="14.00">mercurial</text>
</g>
<!-- mercurial&#45;&gt;chj_bin -->
<g id="edge51" class="edge"><title>mercurial&#45;&gt;chj_bin</title>
<path fill="none" stroke="black" d="M384.745,-331.098C392.939,-328.779 401.725,-326.562 410,-325 546.847,-299.162 583.656,-311.982 722,-296 748.302,-292.961 777.68,-288.925 801.126,-285.548"/>
<polygon fill="black" stroke="black" points="801.723,-288.998 811.117,-284.098 800.717,-282.071 801.723,-288.998"/>
</g>
<!-- moduser -->
<g id="node33" class="node"><title>moduser</title>
<ellipse fill="none" stroke="blue" cx="385" cy="-473" rx="41.6928" ry="18"/>
<text text-anchor="middle" x="385" y="-469.3" font-family="Times,serif" font-size="14.00">moduser</text>
</g>
<!-- moduser&#45;&gt;chj -->
<g id="edge52" class="edge"><title>moduser&#45;&gt;chj</title>
<path fill="none" stroke="black" d="M422.867,-465.318C492.024,-453.113 637.879,-427.374 705.79,-415.39"/>
<polygon fill="black" stroke="black" points="706.757,-418.774 715.996,-413.589 705.54,-411.88 706.757,-418.774"/>
</g>
<!-- moduser&#45;&gt;key -->
<g id="edge53" class="edge"><title>moduser&#45;&gt;key</title>
<path fill="none" stroke="black" d="M345.248,-467.38C246.881,-454.847 0,-416.198 0,-344 0,-344 0,-344 0,-147 0,-65.8188 286.773,-31.7308 390.291,-22.0703"/>
<polygon fill="black" stroke="black" points="390.648,-25.5525 400.289,-21.1605 390.013,-18.5813 390.648,-25.5525"/>
</g>
<!-- nosudo -->
<g id="node34" class="node"><title>nosudo</title>
<ellipse fill="none" stroke="green" cx="1232" cy="-668" rx="36.2938" ry="18"/>
<text text-anchor="middle" x="1232" y="-664.3" font-family="Times,serif" font-size="14.00">nosudo</text>
</g>
<!-- nosudo_auto -->
<g id="node35" class="node"><title>nosudo_auto</title>
<ellipse fill="none" stroke="blue" cx="1335" cy="-603" rx="53.8905" ry="18"/>
<text text-anchor="middle" x="1335" y="-599.3" font-family="Times,serif" font-size="14.00">nosudo&#45;auto</text>
</g>
<!-- qemu -->
<g id="node37" class="node"><title>qemu</title>
<ellipse fill="none" stroke="green" cx="1569" cy="-473" rx="30.5947" ry="18"/>
<text text-anchor="middle" x="1569" y="-469.3" font-family="Times,serif" font-size="14.00">qemu</text>
</g>
<!-- qemu&#45;&gt;gambit -->
<g id="edge55" class="edge"><title>qemu&#45;&gt;gambit</title>
<path fill="none" stroke="black" d="M1538.42,-470.447C1426.94,-464.77 1031.81,-444.504 706,-426 622.734,-421.271 525.666,-415.324 469.868,-411.863"/>
<polygon fill="black" stroke="black" points="469.806,-408.353 459.608,-411.226 469.372,-415.339 469.806,-408.353"/>
</g>
<!-- qemu&#45;&gt;git_sign -->
<g id="edge54" class="edge"><title>qemu&#45;&gt;git_sign</title>
<path fill="none" stroke="black" d="M1587.15,-458.22C1598.08,-449.531 1611.96,-437.761 1623,-426 1706.14,-337.462 1842.76,-291.494 1769,-195 1702.15,-107.542 1638.55,-148.27 1530,-130 1296.82,-90.7544 1013.04,-84.7794 901.888,-84.0232"/>
<polygon fill="black" stroke="black" points="901.698,-80.5222 891.678,-83.9654 901.658,-87.5221 901.698,-80.5222"/>
</g>
<!-- remove_xserver -->
<g id="node38" class="node"><title>remove_xserver</title>
<ellipse fill="none" stroke="green" cx="1353" cy="-668" rx="66.0889" ry="18"/>
<text text-anchor="middle" x="1353" y="-664.3" font-family="Times,serif" font-size="14.00">remove&#45;xserver</text>
</g>
<!-- schemen -->
<g id="node39" class="node"><title>schemen</title>
<ellipse fill="none" stroke="green" cx="1014" cy="-668" rx="42.4939" ry="18"/>
<text text-anchor="middle" x="1014" y="-664.3" font-family="Times,serif" font-size="14.00">schemen</text>
</g>
<!-- schemen&#45;&gt;emacs -->
<g id="edge60" class="edge"><title>schemen&#45;&gt;emacs</title>
<path fill="none" stroke="black" d="M973.219,-663.031C918.344,-657.069 818.035,-643.976 735,-621 732.244,-620.237 729.422,-619.358 726.606,-618.408"/>
<polygon fill="black" stroke="black" points="727.754,-615.102 717.16,-614.982 725.367,-621.682 727.754,-615.102"/>
</g>
<!-- schemen&#45;&gt;firefox -->
<g id="edge64" class="edge"><title>schemen&#45;&gt;firefox</title>
<path fill="none" stroke="black" d="M1044.73,-655.537C1051.64,-653.359 1059,-651.344 1066,-650 1165.72,-630.85 1430.48,-664.973 1522,-621 1608.04,-579.66 1673.49,-481.276 1700.9,-434.521"/>
<polygon fill="black" stroke="black" points="1704.07,-436.041 1706.02,-425.628 1698,-432.548 1704.07,-436.041"/>
</g>
<!-- schemen&#45;&gt;full_vncserver -->
<g id="edge57" class="edge"><title>schemen&#45;&gt;full_vncserver</title>
<path fill="none" stroke="black" d="M1025.56,-650.447C1030.07,-643.988 1035.35,-636.436 1040.31,-629.323"/>
<polygon fill="black" stroke="black" points="1043.51,-630.863 1046.36,-620.661 1037.77,-626.855 1043.51,-630.863"/>
</g>
<!-- schemen&#45;&gt;gambit -->
<g id="edge59" class="edge"><title>schemen&#45;&gt;gambit</title>
<path fill="none" stroke="black" d="M972.06,-664.947C888.914,-660.351 706.345,-647.497 650,-621 556.243,-576.91 475.647,-479.176 441.472,-433.463"/>
<polygon fill="black" stroke="black" points="444.205,-431.271 435.452,-425.301 438.572,-435.427 444.205,-431.271"/>
</g>
<!-- schemen&#45;&gt;nosudo_auto -->
<g id="edge58" class="edge"><title>schemen&#45;&gt;nosudo_auto</title>
<path fill="none" stroke="black" d="M1045.37,-655.76C1052.12,-653.622 1059.25,-651.567 1066,-650 1156.07,-629.109 1181.42,-639.524 1272,-621 1276.43,-620.095 1281,-619.059 1285.58,-617.955"/>
<polygon fill="black" stroke="black" points="1286.68,-621.287 1295.52,-615.454 1284.97,-614.499 1286.68,-621.287"/>
</g>
<!-- schemen_lili -->
<g id="node41" class="node"><title>schemen_lili</title>
<ellipse fill="none" stroke="blue" cx="473" cy="-603" rx="54.6905" ry="18"/>
<text text-anchor="middle" x="473" y="-599.3" font-family="Times,serif" font-size="14.00">schemen&#45;lili</text>
</g>
<!-- schemen&#45;&gt;schemen_lili -->
<g id="edge62" class="edge"><title>schemen&#45;&gt;schemen_lili</title>
<path fill="none" stroke="black" d="M972.155,-664.897C889.606,-660.311 700.151,-647.62 543,-621 536.769,-619.945 530.271,-618.643 523.854,-617.235"/>
<polygon fill="black" stroke="black" points="524.414,-613.773 513.885,-614.952 522.852,-620.596 524.414,-613.773"/>
</g>
<!-- schemen_user -->
<g id="node42" class="node"><title>schemen_user</title>
<ellipse fill="none" stroke="blue" cx="385" cy="-538" rx="59.5901" ry="18"/>
<text text-anchor="middle" x="385" y="-534.3" font-family="Times,serif" font-size="14.00">schemen&#45;user</text>
</g>
<!-- schemen&#45;&gt;schemen_user -->
<g id="edge61" class="edge"><title>schemen&#45;&gt;schemen_user</title>
<path fill="none" stroke="black" d="M971.757,-666.525C841.553,-664.688 452.53,-656.272 409,-621 392.911,-607.964 387.232,-584.761 385.395,-566.356"/>
<polygon fill="black" stroke="black" points="388.874,-565.928 384.707,-556.187 381.89,-566.4 388.874,-565.928"/>
</g>
<!-- schemen&#45;&gt;system -->
<g id="edge56" class="edge"><title>schemen&#45;&gt;system</title>
<path fill="none" stroke="black" d="M1003.56,-650.499C998.543,-641.966 992.811,-631.22 989,-621 982.357,-603.188 977.811,-582.241 974.949,-565.976"/>
<polygon fill="black" stroke="black" points="978.391,-565.339 973.307,-556.044 971.485,-566.482 978.391,-565.339"/>
</g>
<!-- tmp_passwd -->
<g id="node48" class="node"><title>tmp_passwd</title>
<ellipse fill="none" stroke="grey" cx="1460" cy="-603" rx="53.0913" ry="18"/>
<text text-anchor="middle" x="1460" y="-599.3" font-family="Times,serif" font-size="14.00">tmp/passwd</text>
</g>
<!-- schemen&#45;&gt;tmp_passwd -->
<g id="edge63" class="edge"><title>schemen&#45;&gt;tmp_passwd</title>
<path fill="none" stroke="black" d="M1044.76,-655.661C1051.67,-653.476 1059.02,-651.426 1066,-650 1211.12,-620.349 1252.21,-647.134 1398,-621 1402.51,-620.192 1407.17,-619.205 1411.81,-618.119"/>
<polygon fill="black" stroke="black" points="1413.02,-621.424 1421.88,-615.612 1411.33,-614.631 1413.02,-621.424"/>
</g>
<!-- unison -->
<g id="node49" class="node"><title>unison</title>
<ellipse fill="none" stroke="blue" cx="1726" cy="-213" rx="34.394" ry="18"/>
<text text-anchor="middle" x="1726" y="-209.3" font-family="Times,serif" font-size="14.00">unison</text>
</g>
<!-- schemen&#45;&gt;unison -->
<g id="edge65" class="edge"><title>schemen&#45;&gt;unison</title>
<path fill="none" stroke="black" d="M1044.73,-655.51C1051.64,-653.333 1059,-651.325 1066,-650 1283.4,-608.837 1346.69,-667.58 1563,-621 1662.57,-599.558 1777,-640.854 1777,-539 1777,-539 1777,-539 1777,-472 1777,-386.043 1749.42,-286.982 1734.82,-240.577"/>
<polygon fill="black" stroke="black" points="1738.13,-239.437 1731.75,-230.98 1731.47,-241.571 1738.13,-239.437"/>
</g>
<!-- schemen_finish -->
<g id="node40" class="node"><title>schemen_finish</title>
<ellipse fill="none" stroke="green" cx="1502" cy="-668" rx="64.9885" ry="18"/>
<text text-anchor="middle" x="1502" y="-664.3" font-family="Times,serif" font-size="14.00">schemen&#45;finish</text>
</g>
<!-- schemen_lili&#45;&gt;chj_emacs -->
<g id="edge68" class="edge"><title>schemen_lili&#45;&gt;chj_emacs</title>
<path fill="none" stroke="black" d="M474.746,-584.671C479.178,-540.7 490.886,-424.517 496.248,-371.309"/>
<polygon fill="black" stroke="black" points="499.741,-371.554 497.261,-361.253 492.776,-370.852 499.741,-371.554"/>
</g>
<!-- schemen_lili&#45;&gt;gambit -->
<g id="edge67" class="edge"><title>schemen_lili&#45;&gt;gambit</title>
<path fill="none" stroke="black" d="M469.249,-584.996C465.539,-568.382 459.619,-542.395 454,-520 446.745,-491.083 437.744,-458.128 431.505,-435.688"/>
<polygon fill="black" stroke="black" points="434.825,-434.566 428.765,-425.875 428.083,-436.448 434.825,-434.566"/>
</g>
<!-- schemen_lili&#45;&gt;schemen_user -->
<g id="edge66" class="edge"><title>schemen_lili&#45;&gt;schemen_user</title>
<path fill="none" stroke="black" d="M451.247,-586.427C440.435,-578.686 427.19,-569.204 415.393,-560.758"/>
<polygon fill="black" stroke="black" points="417.282,-557.807 407.114,-554.831 413.208,-563.499 417.282,-557.807"/>
</g>
<!-- schemen_user&#45;&gt;moduser -->
<g id="edge69" class="edge"><title>schemen_user&#45;&gt;moduser</title>
<path fill="none" stroke="black" d="M385,-519.785C385,-514.09 385,-507.605 385,-501.343"/>
<polygon fill="black" stroke="black" points="388.5,-501.194 385,-491.194 381.5,-501.194 388.5,-501.194"/>
</g>
<!-- set_x_terminal_emulator -->
<g id="node43" class="node"><title>set_x_terminal_emulator</title>
<ellipse fill="none" stroke="blue" cx="1302" cy="-343" rx="94.7833" ry="18"/>
<text text-anchor="middle" x="1302" y="-339.3" font-family="Times,serif" font-size="14.00">set&#45;x&#45;terminal&#45;emulator</text>
</g>
<!-- set_x_terminal_emulator&#45;&gt;chj_bin -->
<g id="edge71" class="edge"><title>set_x_terminal_emulator&#45;&gt;chj_bin</title>
<path fill="none" stroke="black" d="M1227.81,-331.773C1131.77,-318.533 967.467,-295.883 889.097,-285.079"/>
<polygon fill="black" stroke="black" points="889.459,-281.596 879.075,-283.697 888.503,-288.53 889.459,-281.596"/>
</g>
<!-- set_x_terminal_emulator&#45;&gt;urxvt -->
<g id="edge70" class="edge"><title>set_x_terminal_emulator&#45;&gt;urxvt</title>
<path fill="none" stroke="black" d="M1292.24,-325.032C1287.31,-316.379 1281.27,-305.667 1276,-296 1265.72,-277.119 1254.44,-255.584 1246.02,-239.322"/>
<polygon fill="black" stroke="black" points="1249.12,-237.694 1241.42,-230.416 1242.9,-240.907 1249.12,-237.694"/>
</g>
<!-- slim_desktop&#45;&gt;chj -->
<g id="edge72" class="edge"><title>slim_desktop&#45;&gt;chj</title>
<path fill="none" stroke="black" d="M851.357,-457.862C828.054,-447.45 796.515,-433.358 773.295,-422.983"/>
<polygon fill="black" stroke="black" points="774.459,-419.669 763.901,-418.785 771.603,-426.06 774.459,-419.669"/>
</g>
<!-- slim_desktop&#45;&gt;set_x_terminal_emulator -->
<g id="edge73" class="edge"><title>slim_desktop&#45;&gt;set_x_terminal_emulator</title>
<path fill="none" stroke="black" d="M881.655,-454.679C881.232,-435.775 883.825,-406.066 902,-390 948.206,-349.155 1116.78,-368.411 1178,-361 1191.06,-359.419 1204.89,-357.634 1218.38,-355.831"/>
<polygon fill="black" stroke="black" points="1219.17,-359.256 1228.61,-354.451 1218.23,-352.318 1219.17,-359.256"/>
</g>
<!-- slim_desktop&#45;&gt;xfce4_load_profile -->
<g id="edge74" class="edge"><title>slim_desktop&#45;&gt;xfce4_load_profile</title>
<path fill="none" stroke="black" d="M908.418,-456.749C921.687,-448.788 938.134,-438.919 952.626,-430.224"/>
<polygon fill="black" stroke="black" points="954.577,-433.135 961.351,-424.989 950.976,-427.133 954.577,-433.135"/>
</g>
<!-- slim_vncserver -->
<g id="node45" class="node"><title>slim_vncserver</title>
<ellipse fill="none" stroke="green" cx="1199" cy="-603" rx="63.8893" ry="18"/>
<text text-anchor="middle" x="1199" y="-599.3" font-family="Times,serif" font-size="14.00">slim&#45;vncserver</text>
</g>
<!-- slim_vncserver&#45;&gt;_slim_vncserver -->
<g id="edge75" class="edge"><title>slim_vncserver&#45;&gt;_slim_vncserver</title>
<path fill="none" stroke="black" d="M1172.8,-586.427C1159.29,-578.4 1142.64,-568.502 1128.04,-559.827"/>
<polygon fill="black" stroke="black" points="1129.65,-556.713 1119.27,-554.612 1126.08,-562.73 1129.65,-556.713"/>
</g>
<!-- swap -->
<g id="node46" class="node"><title>swap</title>
<ellipse fill="none" stroke="green" cx="750" cy="-343" rx="28.6953" ry="18"/>
<text text-anchor="middle" x="750" y="-339.3" font-family="Times,serif" font-size="14.00">swap</text>
</g>
<!-- swap&#45;&gt;chj_bin -->
<g id="edge76" class="edge"><title>swap&#45;&gt;chj_bin</title>
<path fill="none" stroke="black" d="M769.225,-329.251C782.549,-320.415 800.542,-308.483 815.65,-298.464"/>
<polygon fill="black" stroke="black" points="817.756,-301.267 824.156,-292.823 813.887,-295.433 817.756,-301.267"/>
</g>
<!-- system&#45;&gt;debian_upgrade -->
<g id="edge77" class="edge"><title>system&#45;&gt;debian_upgrade</title>
<path fill="none" stroke="black" d="M997.911,-526.111C1003.82,-523.925 1010.08,-521.761 1016,-520 1171.32,-473.822 1358.72,-437.492 1455.36,-420.142"/>
<polygon fill="black" stroke="black" points="1456.04,-423.575 1465.27,-418.372 1454.81,-416.684 1456.04,-423.575"/>
</g>
<!-- system&#45;&gt;locales -->
<g id="edge78" class="edge"><title>system&#45;&gt;locales</title>
<path fill="none" stroke="black" d="M941.892,-527.486C934.142,-525.001 925.766,-522.36 918,-520 873.315,-506.422 861.27,-505.875 817,-491 814.467,-490.149 811.866,-489.239 809.254,-488.298"/>
<polygon fill="black" stroke="black" points="810.447,-485.008 799.854,-484.812 808.013,-491.571 810.447,-485.008"/>
</g>
<!-- unison&#45;&gt;perhaps_aptupdate -->
<g id="edge79" class="edge"><title>unison&#45;&gt;perhaps_aptupdate</title>
<path fill="none" stroke="black" d="M1699.06,-201.68C1692.25,-199.287 1684.91,-196.891 1678,-195 1624.43,-180.332 1562.74,-168.405 1516.16,-160.374"/>
<polygon fill="black" stroke="black" points="1516.6,-156.899 1506.16,-158.669 1515.43,-163.8 1516.6,-156.899"/>
</g>
<!-- urxvt&#45;&gt;perhaps_aptupdate -->
<g id="edge80" class="edge"><title>urxvt&#45;&gt;perhaps_aptupdate</title>
<path fill="none" stroke="black" d="M1258.87,-204.275C1291.07,-194.663 1346.91,-177.989 1388.87,-165.462"/>
<polygon fill="black" stroke="black" points="1390.09,-168.749 1398.67,-162.534 1388.09,-162.042 1390.09,-168.749"/>
</g>
<!-- virtualmem_3GB&#45;&gt;chj_bin -->
<g id="edge81" class="edge"><title>virtualmem_3GB&#45;&gt;chj_bin</title>
<path fill="none" stroke="black" d="M230.193,-330.472C241.32,-328.38 253.01,-326.416 264,-325 466.292,-298.943 519.062,-316.421 722,-296 748.438,-293.34 777.932,-289.3 801.409,-285.826"/>
<polygon fill="black" stroke="black" points="802.037,-289.271 811.408,-284.327 800.999,-282.349 802.037,-289.271"/>
</g>
<!-- vncclient -->
<g id="node52" class="node"><title>vncclient</title>
<ellipse fill="none" stroke="green" cx="1555" cy="-213" rx="42.7926" ry="18"/>
<text text-anchor="middle" x="1555" y="-209.3" font-family="Times,serif" font-size="14.00">vncclient</text>
</g>
<!-- vncclient&#45;&gt;perhaps_aptupdate -->
<g id="edge82" class="edge"><title>vncclient&#45;&gt;perhaps_aptupdate</title>
<path fill="none" stroke="black" d="M1530.64,-198.174C1515.99,-189.862 1497.07,-179.121 1480.65,-169.799"/>
<polygon fill="black" stroke="black" points="1482.25,-166.683 1471.82,-164.791 1478.79,-172.771 1482.25,-166.683"/>
</g>
<!-- xfce -->
<g id="node53" class="node"><title>xfce</title>
<ellipse fill="none" stroke="blue" cx="1480" cy="-343" rx="27" ry="18"/>
<text text-anchor="middle" x="1480" y="-339.3" font-family="Times,serif" font-size="14.00">xfce</text>
</g>
<!-- xfce&#45;&gt;chj_bin -->
<g id="edge84" class="edge"><title>xfce&#45;&gt;chj_bin</title>
<path fill="none" stroke="black" d="M1455.17,-335.354C1440.88,-331.769 1422.54,-327.565 1406,-325 1380.67,-321.073 1019.9,-292.674 890.651,-282.563"/>
<polygon fill="black" stroke="black" points="890.554,-279.045 880.312,-281.754 890.009,-286.023 890.554,-279.045"/>
</g>
<!-- xfce&#45;&gt;dotconfig_xfce4_checkout -->
<g id="edge85" class="edge"><title>xfce&#45;&gt;dotconfig_xfce4_checkout</title>
<path fill="none" stroke="black" d="M1457.47,-332.587C1451.47,-330.102 1445,-327.435 1439,-325 1406.65,-311.87 1394.87,-315.628 1366,-296 1315.04,-261.353 1326.49,-221.806 1271,-195 1251.43,-185.545 981.41,-166.138 828.594,-155.813"/>
<polygon fill="black" stroke="black" points="828.463,-152.296 818.25,-155.116 827.992,-159.28 828.463,-152.296"/>
</g>
<!-- xfce&#45;&gt;perhaps_aptupdate -->
<g id="edge83" class="edge"><title>xfce&#45;&gt;perhaps_aptupdate</title>
<path fill="none" stroke="black" d="M1459.17,-331.472C1428.94,-314.867 1374.11,-279.433 1352,-231 1345.36,-216.445 1343.59,-208.61 1352,-195 1359.86,-182.287 1372.41,-172.971 1385.75,-166.188"/>
<polygon fill="black" stroke="black" points="1387.45,-169.258 1395.06,-161.886 1384.51,-162.903 1387.45,-169.258"/>
</g>
<!-- xfce4_load_profile&#45;&gt;chj_bin -->
<g id="edge86" class="edge"><title>xfce4_load_profile&#45;&gt;chj_bin</title>
<path fill="none" stroke="black" d="M954.077,-391.668C938.748,-383.79 920.983,-373.262 907,-361 888.146,-344.466 871.311,-321.379 859.959,-303.914"/>
<polygon fill="black" stroke="black" points="862.847,-301.933 854.54,-295.358 856.933,-305.679 862.847,-301.933"/>
</g>
<!-- xfce4_load_profile&#45;&gt;xfce -->
<g id="edge87" class="edge"><title>xfce4_load_profile&#45;&gt;xfce</title>
<path fill="none" stroke="black" d="M1060.47,-401.597C1144.11,-394.766 1285.61,-381.382 1406,-361 1418.9,-358.817 1432.91,-355.772 1445.24,-352.862"/>
<polygon fill="black" stroke="black" points="1446.24,-356.221 1455.14,-350.471 1444.6,-349.417 1446.24,-356.221"/>
</g>
</g>
</svg>
