<?xml version="1.0" encoding="UTF-8" standalone="no"?>
<!DOCTYPE svg PUBLIC "-//W3C//DTD SVG 1.1//EN"
 "http://www.w3.org/Graphics/SVG/1.1/DTD/svg11.dtd">
<!-- Generated by graphviz version 2.38.0 (20140413.2041)
 -->
<!-- Title: foo Pages: 1 -->
<svg width="1238pt" height="564pt"
 viewBox="0.00 0.00 1237.60 564.00" xmlns="http://www.w3.org/2000/svg" xmlns:xlink="http://www.w3.org/1999/xlink">
<g id="graph0" class="graph" transform="scale(1 1) rotate(0) translate(4 560)">
<title>foo</title>
<polygon fill="white" stroke="none" points="-4,4 -4,-560 1233.6,-560 1233.6,4 -4,4"/>
<!-- _bs -->
<g id="node1" class="node"><title>_bs</title>
<ellipse fill="none" stroke="grey" cx="169.596" cy="-83" rx="27" ry="18"/>
<text text-anchor="middle" x="169.596" y="-79.3" font-family="Times,serif" font-size="14.00">.bs</text>
</g>
<!-- _usr_local_bin_fastrandom -->
<g id="node2" class="node"><title>_usr_local_bin_fastrandom</title>
<ellipse fill="none" stroke="grey" cx="738.596" cy="-278" rx="99.3824" ry="18"/>
<text text-anchor="middle" x="738.596" y="-274.3" font-family="Times,serif" font-size="14.00">/usr/local/bin/fastrandom</text>
</g>
<!-- chj -->
<g id="node3" class="node"><title>chj</title>
<ellipse fill="none" stroke="blue" cx="470.596" cy="-408" rx="27" ry="18"/>
<text text-anchor="middle" x="470.596" y="-404.3" font-family="Times,serif" font-size="14.00">chj</text>
</g>
<!-- chj_bin -->
<g id="node4" class="node"><title>chj_bin</title>
<ellipse fill="none" stroke="blue" cx="207.596" cy="-278" rx="35.9954" ry="18"/>
<text text-anchor="middle" x="207.596" y="-274.3" font-family="Times,serif" font-size="14.00">chj&#45;bin</text>
</g>
<!-- chj&#45;&gt;chj_bin -->
<g id="edge3" class="edge"><title>chj&#45;&gt;chj_bin</title>
<path fill="none" stroke="black" d="M446.691,-399.064C422.142,-390.631 383.045,-376.409 350.596,-361 310.241,-341.836 265.929,-315.553 237.491,-297.959"/>
<polygon fill="black" stroke="black" points="239.18,-294.887 228.841,-292.572 235.479,-300.829 239.18,-294.887"/>
</g>
<!-- chj_emacs -->
<g id="node5" class="node"><title>chj_emacs</title>
<ellipse fill="none" stroke="blue" cx="1016.6" cy="-278" rx="46.5926" ry="18"/>
<text text-anchor="middle" x="1016.6" y="-274.3" font-family="Times,serif" font-size="14.00">chj&#45;emacs</text>
</g>
<!-- chj&#45;&gt;chj_emacs -->
<g id="edge4" class="edge"><title>chj&#45;&gt;chj_emacs</title>
<path fill="none" stroke="black" d="M497.836,-407.271C588.131,-407.736 876.372,-405.615 955.596,-361 977.948,-348.413 994.509,-323.89 1004.69,-304.927"/>
<polygon fill="black" stroke="black" points="1007.88,-306.375 1009.3,-295.876 1001.64,-303.197 1007.88,-306.375"/>
</g>
<!-- cj_git_patchtool -->
<g id="node10" class="node"><title>cj_git_patchtool</title>
<ellipse fill="none" stroke="blue" cx="424.596" cy="-343" rx="64.9885" ry="18"/>
<text text-anchor="middle" x="424.596" y="-339.3" font-family="Times,serif" font-size="14.00">cj&#45;git&#45;patchtool</text>
</g>
<!-- chj&#45;&gt;cj_git_patchtool -->
<g id="edge6" class="edge"><title>chj&#45;&gt;cj_git_patchtool</title>
<path fill="none" stroke="black" d="M459.226,-391.427C454.33,-384.722 448.481,-376.712 442.996,-369.199"/>
<polygon fill="black" stroke="black" points="445.526,-366.73 436.803,-360.717 439.873,-370.858 445.526,-366.73"/>
</g>
<!-- debianpackages -->
<g id="node14" class="node"><title>debianpackages</title>
<ellipse fill="none" stroke="blue" cx="517.596" cy="-278" rx="66.0889" ry="18"/>
<text text-anchor="middle" x="517.596" y="-274.3" font-family="Times,serif" font-size="14.00">debianpackages</text>
</g>
<!-- chj&#45;&gt;debianpackages -->
<g id="edge2" class="edge"><title>chj&#45;&gt;debianpackages</title>
<path fill="none" stroke="black" d="M481.76,-391.484C487.512,-382.863 494.218,-371.735 498.596,-361 505.794,-343.351 510.589,-322.401 513.562,-306.094"/>
<polygon fill="black" stroke="black" points="517.03,-306.576 515.259,-296.13 510.13,-305.4 517.03,-306.576"/>
</g>
<!-- fastrandom -->
<g id="node19" class="node"><title>fastrandom</title>
<ellipse fill="none" stroke="blue" cx="703.596" cy="-343" rx="50.8918" ry="18"/>
<text text-anchor="middle" x="703.596" y="-339.3" font-family="Times,serif" font-size="14.00">fastrandom</text>
</g>
<!-- chj&#45;&gt;fastrandom -->
<g id="edge5" class="edge"><title>chj&#45;&gt;fastrandom</title>
<path fill="none" stroke="black" d="M495.091,-400.377C532.803,-390.18 605.828,-370.435 654.657,-357.233"/>
<polygon fill="black" stroke="black" points="655.645,-360.591 664.385,-354.602 653.818,-353.834 655.645,-360.591"/>
</g>
<!-- git_sign -->
<g id="node23" class="node"><title>git_sign</title>
<ellipse fill="none" stroke="blue" cx="669.596" cy="-83" rx="37.8943" ry="18"/>
<text text-anchor="middle" x="669.596" y="-79.3" font-family="Times,serif" font-size="14.00">git&#45;sign</text>
</g>
<!-- chj&#45;&gt;git_sign -->
<g id="edge1" class="edge"><title>chj&#45;&gt;git_sign</title>
<path fill="none" stroke="black" d="M497.477,-406.277C589.593,-403.527 888.407,-392.246 916.596,-361 990.512,-279.069 912.866,-197.529 825.596,-130 794.025,-105.57 749.748,-94.0942 716.427,-88.7149"/>
<polygon fill="black" stroke="black" points="716.87,-85.2424 706.464,-87.2337 715.84,-92.1663 716.87,-85.2424"/>
</g>
<!-- chj_bin&#45;&gt;_bs -->
<g id="edge7" class="edge"><title>chj_bin&#45;&gt;_bs</title>
<path fill="none" stroke="black" d="M182.023,-265.157C149.686,-248.449 96.1109,-214.491 78.5963,-166 73.1609,-150.952 70.2145,-143.629 78.5963,-130 90.7343,-110.264 114.248,-98.6843 134.333,-92.08"/>
<polygon fill="black" stroke="black" points="135.57,-95.363 144.147,-89.1433 133.564,-88.6568 135.57,-95.363"/>
</g>
<!-- chj_perllib -->
<g id="node8" class="node"><title>chj_perllib</title>
<ellipse fill="none" stroke="blue" cx="188.596" cy="-213" rx="47.3916" ry="18"/>
<text text-anchor="middle" x="188.596" y="-209.3" font-family="Times,serif" font-size="14.00">chj&#45;perllib</text>
</g>
<!-- chj_bin&#45;&gt;chj_perllib -->
<g id="edge9" class="edge"><title>chj_bin&#45;&gt;chj_perllib</title>
<path fill="none" stroke="black" d="M202.505,-260.117C200.716,-254.185 198.659,-247.365 196.685,-240.82"/>
<polygon fill="black" stroke="black" points="199.94,-239.493 193.702,-230.929 193.239,-241.514 199.94,-239.493"/>
</g>
<!-- chj_bin&#45;&gt;git_sign -->
<g id="edge8" class="edge"><title>chj_bin&#45;&gt;git_sign</title>
<path fill="none" stroke="black" d="M233.601,-265.512C274.453,-246.99 355.511,-208.299 418.596,-166 439.298,-152.119 439.233,-141.006 461.596,-130 513.206,-104.601 578.88,-93.085 622.48,-87.9579"/>
<polygon fill="black" stroke="black" points="622.968,-91.4253 632.521,-86.8441 622.196,-84.4679 622.968,-91.4253"/>
</g>
<!-- chj_emacs_checkout -->
<g id="node6" class="node"><title>chj_emacs_checkout</title>
<ellipse fill="none" stroke="blue" cx="1065.6" cy="-213" rx="81.4863" ry="18"/>
<text text-anchor="middle" x="1065.6" y="-209.3" font-family="Times,serif" font-size="14.00">chj&#45;emacs&#45;checkout</text>
</g>
<!-- chj_emacs&#45;&gt;chj_emacs_checkout -->
<g id="edge10" class="edge"><title>chj_emacs&#45;&gt;chj_emacs_checkout</title>
<path fill="none" stroke="black" d="M1029.47,-260.447C1034.52,-253.949 1040.44,-246.346 1046,-239.195"/>
<polygon fill="black" stroke="black" points="1048.92,-241.143 1052.3,-231.101 1043.39,-236.845 1048.92,-241.143"/>
</g>
<!-- chj_emacs_checkout&#45;&gt;git_sign -->
<g id="edge11" class="edge"><title>chj_emacs_checkout&#45;&gt;git_sign</title>
<path fill="none" stroke="black" d="M1074.76,-194.982C1083.25,-176.63 1092.39,-147.674 1076.6,-130 1052.98,-103.564 819.224,-90.4023 717.018,-85.8746"/>
<polygon fill="black" stroke="black" points="717.11,-82.3754 706.967,-85.4385 716.806,-89.3688 717.11,-82.3754"/>
</g>
<!-- chj_fastrandom -->
<g id="node7" class="node"><title>chj_fastrandom</title>
<ellipse fill="none" stroke="green" cx="1003.6" cy="-148" rx="64.189" ry="18"/>
<text text-anchor="middle" x="1003.6" y="-144.3" font-family="Times,serif" font-size="14.00">chj&#45;fastrandom</text>
</g>
<!-- chj_fastrandom&#45;&gt;git_sign -->
<g id="edge12" class="edge"><title>chj_fastrandom&#45;&gt;git_sign</title>
<path fill="none" stroke="black" d="M954.972,-136.113C945.256,-134.019 935.112,-131.891 925.596,-130 852.049,-115.383 766.199,-100.373 714.955,-91.6313"/>
<polygon fill="black" stroke="black" points="715.317,-88.1427 704.872,-89.9158 714.143,-95.0435 715.317,-88.1427"/>
</g>
<!-- chj_perllib_checkout -->
<g id="node9" class="node"><title>chj_perllib_checkout</title>
<ellipse fill="none" stroke="blue" cx="169.596" cy="-148" rx="81.7856" ry="18"/>
<text text-anchor="middle" x="169.596" y="-144.3" font-family="Times,serif" font-size="14.00">chj&#45;perllib&#45;checkout</text>
</g>
<!-- chj_perllib&#45;&gt;chj_perllib_checkout -->
<g id="edge13" class="edge"><title>chj_perllib&#45;&gt;chj_perllib_checkout</title>
<path fill="none" stroke="black" d="M183.404,-194.785C181.645,-188.951 179.636,-182.288 177.705,-175.885"/>
<polygon fill="black" stroke="black" points="181.02,-174.758 174.782,-166.194 174.318,-176.779 181.02,-174.758"/>
</g>
<!-- chj_perllib_checkout&#45;&gt;_bs -->
<g id="edge14" class="edge"><title>chj_perllib_checkout&#45;&gt;_bs</title>
<path fill="none" stroke="black" d="M169.596,-129.785C169.596,-124.09 169.596,-117.605 169.596,-111.343"/>
<polygon fill="black" stroke="black" points="173.096,-111.194 169.596,-101.194 166.096,-111.194 173.096,-111.194"/>
</g>
<!-- chj_perllib_checkout&#45;&gt;git_sign -->
<g id="edge15" class="edge"><title>chj_perllib_checkout&#45;&gt;git_sign</title>
<path fill="none" stroke="black" d="M228.233,-135.398C238.975,-133.457 250.105,-131.568 260.596,-130 391.2,-110.483 546.386,-95.1719 622.598,-88.1656"/>
<polygon fill="black" stroke="black" points="623.177,-91.6274 632.817,-87.2326 622.54,-84.6564 623.177,-91.6274"/>
</g>
<!-- cj_git_patchtool&#45;&gt;chj_bin -->
<g id="edge17" class="edge"><title>cj_git_patchtool&#45;&gt;chj_bin</title>
<path fill="none" stroke="black" d="M377.139,-330.664C342.39,-322.036 294.233,-309.395 252.596,-296 250.003,-295.166 247.339,-294.268 244.666,-293.336"/>
<polygon fill="black" stroke="black" points="245.643,-289.968 235.049,-289.868 243.268,-296.553 245.643,-289.968"/>
</g>
<!-- cj_git_patchtool&#45;&gt;debianpackages -->
<g id="edge16" class="edge"><title>cj_git_patchtool&#45;&gt;debianpackages</title>
<path fill="none" stroke="black" d="M448.064,-326.102C459.409,-318.417 473.2,-309.075 485.5,-300.743"/>
<polygon fill="black" stroke="black" points="487.82,-303.399 494.136,-294.892 483.894,-297.603 487.82,-303.399"/>
</g>
<!-- cj_git_patchtool&#45;&gt;git_sign -->
<g id="edge18" class="edge"><title>cj_git_patchtool&#45;&gt;git_sign</title>
<path fill="none" stroke="black" d="M425.688,-324.749C427.381,-307.489 431.685,-280.61 442.596,-260 479.813,-189.703 500.618,-175.875 565.596,-130 585.139,-116.202 609.482,-105.161 629.702,-97.357"/>
<polygon fill="black" stroke="black" points="631.115,-100.566 639.258,-93.7884 628.666,-94.008 631.115,-100.566"/>
</g>
<!-- cplusplus -->
<g id="node11" class="node"><title>cplusplus</title>
<ellipse fill="none" stroke="blue" cx="791.596" cy="-213" rx="44.393" ry="18"/>
<text text-anchor="middle" x="791.596" y="-209.3" font-family="Times,serif" font-size="14.00">cplusplus</text>
</g>
<!-- perhaps_aptupdate -->
<g id="node30" class="node"><title>perhaps_aptupdate</title>
<ellipse fill="none" stroke="blue" cx="651.596" cy="-148" rx="76.8869" ry="18"/>
<text text-anchor="middle" x="651.596" y="-144.3" font-family="Times,serif" font-size="14.00">perhaps_aptupdate</text>
</g>
<!-- cplusplus&#45;&gt;perhaps_aptupdate -->
<g id="edge19" class="edge"><title>cplusplus&#45;&gt;perhaps_aptupdate</title>
<path fill="none" stroke="black" d="M762.927,-199.099C743.258,-190.248 716.805,-178.344 694.62,-168.361"/>
<polygon fill="black" stroke="black" points="695.962,-165.126 685.406,-164.214 693.089,-171.51 695.962,-165.126"/>
</g>
<!-- debian_emacs -->
<g id="node12" class="node"><title>debian_emacs</title>
<ellipse fill="none" stroke="blue" cx="1141.6" cy="-278" rx="59.5901" ry="18"/>
<text text-anchor="middle" x="1141.6" y="-274.3" font-family="Times,serif" font-size="14.00">debian&#45;emacs</text>
</g>
<!-- debian_upgrade -->
<g id="node13" class="node"><title>debian_upgrade</title>
<ellipse fill="none" stroke="blue" cx="328.596" cy="-278" rx="66.8882" ry="18"/>
<text text-anchor="middle" x="328.596" y="-274.3" font-family="Times,serif" font-size="14.00">debian_upgrade</text>
</g>
<!-- debian_upgrade&#45;&gt;perhaps_aptupdate -->
<g id="edge20" class="edge"><title>debian_upgrade&#45;&gt;perhaps_aptupdate</title>
<path fill="none" stroke="black" d="M364.708,-262.689C423.427,-239.42 539.568,-193.395 604.626,-167.614"/>
<polygon fill="black" stroke="black" points="606.22,-170.747 614.227,-163.809 603.641,-164.239 606.22,-170.747"/>
</g>
<!-- urxvt -->
<g id="node33" class="node"><title>urxvt</title>
<ellipse fill="none" stroke="blue" cx="700.596" cy="-213" rx="29.4969" ry="18"/>
<text text-anchor="middle" x="700.596" y="-209.3" font-family="Times,serif" font-size="14.00">urxvt</text>
</g>
<!-- debianpackages&#45;&gt;urxvt -->
<g id="edge21" class="edge"><title>debianpackages&#45;&gt;urxvt</title>
<path fill="none" stroke="black" d="M561.503,-264.486C590.492,-255.879 629.155,-243.738 662.596,-231 664.471,-230.286 666.385,-229.527 668.309,-228.742"/>
<polygon fill="black" stroke="black" points="670.035,-231.811 677.865,-224.673 667.293,-225.37 670.035,-231.811"/>
</g>
<!-- desktop -->
<g id="node15" class="node"><title>desktop</title>
<ellipse fill="none" stroke="blue" cx="377.596" cy="-473" rx="38.1938" ry="18"/>
<text text-anchor="middle" x="377.596" y="-469.3" font-family="Times,serif" font-size="14.00">desktop</text>
</g>
<!-- desktop&#45;&gt;chj -->
<g id="edge22" class="edge"><title>desktop&#45;&gt;chj</title>
<path fill="none" stroke="black" d="M398.699,-457.704C412.102,-448.625 429.566,-436.795 443.925,-427.067"/>
<polygon fill="black" stroke="black" points="446.085,-429.832 452.401,-421.326 442.159,-424.037 446.085,-429.832"/>
</g>
<!-- xfce4_load_profile -->
<g id="node34" class="node"><title>xfce4_load_profile</title>
<ellipse fill="none" stroke="blue" cx="175.596" cy="-408" rx="77.1866" ry="18"/>
<text text-anchor="middle" x="175.596" y="-404.3" font-family="Times,serif" font-size="14.00">xfce4_load_profile</text>
</g>
<!-- desktop&#45;&gt;xfce4_load_profile -->
<g id="edge23" class="edge"><title>desktop&#45;&gt;xfce4_load_profile</title>
<path fill="none" stroke="black" d="M346.476,-462.294C315.39,-452.599 266.979,-437.501 229.61,-425.846"/>
<polygon fill="black" stroke="black" points="230.466,-422.447 219.877,-422.81 228.382,-429.129 230.466,-422.447"/>
</g>
<!-- desktop_autoremove -->
<g id="node16" class="node"><title>desktop_autoremove</title>
<ellipse fill="none" stroke="green" cx="377.596" cy="-538" rx="84.485" ry="18"/>
<text text-anchor="middle" x="377.596" y="-534.3" font-family="Times,serif" font-size="14.00">desktop_autoremove</text>
</g>
<!-- desktop_autoremove&#45;&gt;desktop -->
<g id="edge24" class="edge"><title>desktop_autoremove&#45;&gt;desktop</title>
<path fill="none" stroke="black" d="M377.596,-519.785C377.596,-514.09 377.596,-507.605 377.596,-501.343"/>
<polygon fill="black" stroke="black" points="381.096,-501.194 377.596,-491.194 374.096,-501.194 381.096,-501.194"/>
</g>
<!-- dnsresolver -->
<g id="node17" class="node"><title>dnsresolver</title>
<ellipse fill="none" stroke="green" cx="531.596" cy="-538" rx="51.1914" ry="18"/>
<text text-anchor="middle" x="531.596" y="-534.3" font-family="Times,serif" font-size="14.00">dnsresolver</text>
</g>
<!-- emacs -->
<g id="node18" class="node"><title>emacs</title>
<ellipse fill="none" stroke="green" cx="1100.6" cy="-343" rx="33.2948" ry="18"/>
<text text-anchor="middle" x="1100.6" y="-339.3" font-family="Times,serif" font-size="14.00">emacs</text>
</g>
<!-- emacs&#45;&gt;chj_emacs -->
<g id="edge26" class="edge"><title>emacs&#45;&gt;chj_emacs</title>
<path fill="none" stroke="black" d="M1081.95,-328.018C1071.12,-319.889 1057.23,-309.477 1045.05,-300.342"/>
<polygon fill="black" stroke="black" points="1047.05,-297.466 1036.95,-294.266 1042.85,-303.066 1047.05,-297.466"/>
</g>
<!-- emacs&#45;&gt;debian_emacs -->
<g id="edge25" class="edge"><title>emacs&#45;&gt;debian_emacs</title>
<path fill="none" stroke="black" d="M1111.15,-325.776C1115.36,-319.316 1120.3,-311.725 1124.96,-304.56"/>
<polygon fill="black" stroke="black" points="1128.12,-306.119 1130.64,-295.829 1122.26,-302.301 1128.12,-306.119"/>
</g>
<!-- fastrandom&#45;&gt;_usr_local_bin_fastrandom -->
<g id="edge27" class="edge"><title>fastrandom&#45;&gt;_usr_local_bin_fastrandom</title>
<path fill="none" stroke="black" d="M712.976,-325.117C716.428,-318.903 720.422,-311.713 724.215,-304.887"/>
<polygon fill="black" stroke="black" points="727.394,-306.371 729.191,-295.929 721.275,-302.971 727.394,-306.371"/>
</g>
<!-- fperl -->
<g id="node20" class="node"><title>fperl</title>
<ellipse fill="none" stroke="green" cx="572.596" cy="-343" rx="27.0966" ry="18"/>
<text text-anchor="middle" x="572.596" y="-339.3" font-family="Times,serif" font-size="14.00">fperl</text>
</g>
<!-- fperl&#45;&gt;chj_bin -->
<g id="edge30" class="edge"><title>fperl&#45;&gt;chj_bin</title>
<path fill="none" stroke="black" d="M547.39,-335.495C533.144,-331.998 514.962,-327.836 498.596,-325 390.122,-306.203 359.55,-322.091 252.596,-296 249.782,-295.313 246.904,-294.501 244.032,-293.609"/>
<polygon fill="black" stroke="black" points="244.98,-290.235 234.386,-290.339 242.733,-296.864 244.98,-290.235"/>
</g>
<!-- fperl&#45;&gt;debianpackages -->
<g id="edge29" class="edge"><title>fperl&#45;&gt;debianpackages</title>
<path fill="none" stroke="black" d="M559.562,-327.07C553.368,-319.974 545.804,-311.311 538.813,-303.303"/>
<polygon fill="black" stroke="black" points="541.298,-300.828 532.085,-295.596 536.025,-305.431 541.298,-300.828"/>
</g>
<!-- fperl&#45;&gt;git_sign -->
<g id="edge28" class="edge"><title>fperl&#45;&gt;git_sign</title>
<path fill="none" stroke="black" d="M579.408,-325.318C588.191,-306.119 605.395,-275.276 630.596,-260 712.675,-210.247 781.449,-303.282 844.596,-231 893.885,-174.582 775.279,-121.423 709.622,-97.4047"/>
<polygon fill="black" stroke="black" points="710.553,-94.0205 699.959,-93.9396 708.191,-100.61 710.553,-94.0205"/>
</g>
<!-- gambit -->
<g id="node21" class="node"><title>gambit</title>
<ellipse fill="none" stroke="blue" cx="871.596" cy="-343" rx="35.9954" ry="18"/>
<text text-anchor="middle" x="871.596" y="-339.3" font-family="Times,serif" font-size="14.00">gambit</text>
</g>
<!-- gambit&#45;&gt;chj_bin -->
<g id="edge34" class="edge"><title>gambit&#45;&gt;chj_bin</title>
<path fill="none" stroke="black" d="M838.622,-335.938C817.292,-332.232 788.887,-327.701 763.596,-325 537.406,-300.84 475.125,-343.185 252.596,-296 249.589,-295.362 246.516,-294.556 243.458,-293.644"/>
<polygon fill="black" stroke="black" points="244.438,-290.281 233.844,-290.442 242.226,-296.923 244.438,-290.281"/>
</g>
<!-- gambit&#45;&gt;chj_emacs -->
<g id="edge35" class="edge"><title>gambit&#45;&gt;chj_emacs</title>
<path fill="none" stroke="black" d="M897.855,-330.591C920.071,-320.939 952.23,-306.966 977.479,-295.996"/>
<polygon fill="black" stroke="black" points="979.005,-299.149 986.782,-291.954 976.216,-292.729 979.005,-299.149"/>
</g>
<!-- gambit&#45;&gt;cplusplus -->
<g id="edge32" class="edge"><title>gambit&#45;&gt;cplusplus</title>
<path fill="none" stroke="black" d="M878.779,-325.293C885.129,-307.733 891.675,-279.943 879.596,-260 870.264,-244.592 853.889,-234.098 837.776,-227.075"/>
<polygon fill="black" stroke="black" points="838.959,-223.778 828.373,-223.329 836.368,-230.281 838.959,-223.778"/>
</g>
<!-- gambit&#45;&gt;debianpackages -->
<g id="edge33" class="edge"><title>gambit&#45;&gt;debianpackages</title>
<path fill="none" stroke="black" d="M838.293,-336.073C779.57,-325.622 656.704,-303.757 581.257,-290.33"/>
<polygon fill="black" stroke="black" points="581.851,-286.88 571.392,-288.574 580.624,-293.772 581.851,-286.88"/>
</g>
<!-- gambit_checkout -->
<g id="node22" class="node"><title>gambit_checkout</title>
<ellipse fill="none" stroke="blue" cx="339.596" cy="-148" rx="70.3881" ry="18"/>
<text text-anchor="middle" x="339.596" y="-144.3" font-family="Times,serif" font-size="14.00">gambit&#45;checkout</text>
</g>
<!-- gambit&#45;&gt;gambit_checkout -->
<g id="edge31" class="edge"><title>gambit&#45;&gt;gambit_checkout</title>
<path fill="none" stroke="black" d="M871.61,-324.862C870.615,-305.833 865.84,-275.731 846.596,-260 794.398,-217.33 610.114,-246.903 544.596,-231 484.936,-216.519 419.687,-188.062 379.194,-168.784"/>
<polygon fill="black" stroke="black" points="380.477,-165.518 369.948,-164.337 377.443,-171.826 380.477,-165.518"/>
</g>
<!-- gambit_checkout&#45;&gt;_bs -->
<g id="edge36" class="edge"><title>gambit_checkout&#45;&gt;_bs</title>
<path fill="none" stroke="black" d="M301.445,-132.862C271.671,-121.828 230.746,-106.661 202.423,-96.1651"/>
<polygon fill="black" stroke="black" points="203.562,-92.8549 192.969,-92.6618 201.13,-99.4187 203.562,-92.8549"/>
</g>
<!-- gambit_checkout&#45;&gt;git_sign -->
<g id="edge37" class="edge"><title>gambit_checkout&#45;&gt;git_sign</title>
<path fill="none" stroke="black" d="M392.897,-136.089C403.083,-134.039 413.665,-131.933 423.596,-130 493.871,-116.319 575.599,-101.192 624.92,-92.1484"/>
<polygon fill="black" stroke="black" points="625.731,-95.5582 634.937,-90.3137 624.47,-88.6727 625.731,-95.5582"/>
</g>
<!-- key -->
<g id="node25" class="node"><title>key</title>
<ellipse fill="none" stroke="blue" cx="345.596" cy="-18" rx="27" ry="18"/>
<text text-anchor="middle" x="345.596" y="-14.3" font-family="Times,serif" font-size="14.00">key</text>
</g>
<!-- git_sign&#45;&gt;key -->
<g id="edge38" class="edge"><title>git_sign&#45;&gt;key</title>
<path fill="none" stroke="black" d="M635.229,-75.3175C573.366,-63.2885 443.876,-38.11 381.155,-25.9143"/>
<polygon fill="black" stroke="black" points="381.809,-22.4758 371.324,-24.0027 380.472,-29.3471 381.809,-22.4758"/>
</g>
<!-- graph_deps -->
<g id="node24" class="node"><title>graph_deps</title>
<ellipse fill="none" stroke="green" cx="603.596" cy="-213" rx="50.0912" ry="18"/>
<text text-anchor="middle" x="603.596" y="-209.3" font-family="Times,serif" font-size="14.00">graph&#45;deps</text>
</g>
<!-- graph_deps&#45;&gt;perhaps_aptupdate -->
<g id="edge39" class="edge"><title>graph_deps&#45;&gt;perhaps_aptupdate</title>
<path fill="none" stroke="black" d="M616.208,-195.447C621.159,-188.949 626.952,-181.346 632.4,-174.195"/>
<polygon fill="black" stroke="black" points="635.291,-176.176 638.567,-166.101 629.723,-171.934 635.291,-176.176"/>
</g>
<!-- load_profile -->
<g id="node26" class="node"><title>load_profile</title>
<ellipse fill="none" stroke="green" cx="175.596" cy="-473" rx="53.8905" ry="18"/>
<text text-anchor="middle" x="175.596" y="-469.3" font-family="Times,serif" font-size="14.00">load_profile</text>
</g>
<!-- load_profile&#45;&gt;xfce4_load_profile -->
<g id="edge40" class="edge"><title>load_profile&#45;&gt;xfce4_load_profile</title>
<path fill="none" stroke="black" d="M175.596,-454.785C175.596,-449.09 175.596,-442.605 175.596,-436.343"/>
<polygon fill="black" stroke="black" points="179.096,-436.194 175.596,-426.194 172.096,-436.194 179.096,-436.194"/>
</g>
<!-- locales -->
<g id="node27" class="node"><title>locales</title>
<ellipse fill="none" stroke="blue" cx="230.596" cy="-343" rx="35.194" ry="18"/>
<text text-anchor="middle" x="230.596" y="-339.3" font-family="Times,serif" font-size="14.00">locales</text>
</g>
<!-- locales&#45;&gt;chj_bin -->
<g id="edge41" class="edge"><title>locales&#45;&gt;chj_bin</title>
<path fill="none" stroke="black" d="M224.433,-325.117C222.216,-319.044 219.658,-312.039 217.217,-305.353"/>
<polygon fill="black" stroke="black" points="220.494,-304.123 213.777,-295.929 213.919,-306.523 220.494,-304.123"/>
</g>
<!-- mercurial -->
<g id="node28" class="node"><title>mercurial</title>
<ellipse fill="none" stroke="green" cx="94.5963" cy="-343" rx="44.6926" ry="18"/>
<text text-anchor="middle" x="94.5963" y="-339.3" font-family="Times,serif" font-size="14.00">mercurial</text>
</g>
<!-- mercurial&#45;&gt;chj_bin -->
<g id="edge42" class="edge"><title>mercurial&#45;&gt;chj_bin</title>
<path fill="none" stroke="black" d="M119.675,-328.018C136.175,-318.819 157.917,-306.697 175.652,-296.81"/>
<polygon fill="black" stroke="black" points="177.482,-299.797 184.512,-291.87 174.073,-293.683 177.482,-299.797"/>
</g>
<!-- moduser -->
<g id="node29" class="node"><title>moduser</title>
<ellipse fill="none" stroke="green" cx="41.5963" cy="-473" rx="41.6928" ry="18"/>
<text text-anchor="middle" x="41.5963" y="-469.3" font-family="Times,serif" font-size="14.00">moduser</text>
</g>
<!-- moduser&#45;&gt;chj -->
<g id="edge43" class="edge"><title>moduser&#45;&gt;chj</title>
<path fill="none" stroke="black" d="M76.0919,-462.872C87.6364,-460.049 100.616,-457.127 112.596,-455 221.861,-435.601 250.631,-440.922 360.596,-426 385.28,-422.651 412.996,-418.364 434.432,-414.933"/>
<polygon fill="black" stroke="black" points="435.094,-418.372 444.41,-413.326 433.98,-411.461 435.094,-418.372"/>
</g>
<!-- moduser&#45;&gt;key -->
<g id="edge44" class="edge"><title>moduser&#45;&gt;key</title>
<path fill="none" stroke="black" d="M37.1577,-454.743C31.2655,-430.279 21.5963,-384.035 21.5963,-344 21.5963,-344 21.5963,-344 21.5963,-147 21.5963,-85.307 77.3363,-90.3148 133.596,-65 191.502,-38.9447 265.088,-27.2568 308.585,-22.3132"/>
<polygon fill="black" stroke="black" points="309.137,-25.7741 318.705,-21.2236 308.388,-18.8143 309.137,-25.7741"/>
</g>
<!-- qemu -->
<g id="node31" class="node"><title>qemu</title>
<ellipse fill="none" stroke="green" cx="1050.6" cy="-408" rx="30.5947" ry="18"/>
<text text-anchor="middle" x="1050.6" y="-404.3" font-family="Times,serif" font-size="14.00">qemu</text>
</g>
<!-- qemu&#45;&gt;gambit -->
<g id="edge46" class="edge"><title>qemu&#45;&gt;gambit</title>
<path fill="none" stroke="black" d="M1024.95,-397.974C994.859,-387.383 944.675,-369.72 909.951,-357.499"/>
<polygon fill="black" stroke="black" points="910.749,-354.07 900.154,-354.051 908.425,-360.673 910.749,-354.07"/>
</g>
<!-- qemu&#45;&gt;git_sign -->
<g id="edge45" class="edge"><title>qemu&#45;&gt;git_sign</title>
<path fill="none" stroke="black" d="M1078.57,-400.754C1128.91,-387.676 1229.6,-352.352 1229.6,-279 1229.6,-279 1229.6,-279 1229.6,-212 1229.6,-107.27 852.664,-88.2297 717.287,-84.7687"/>
<polygon fill="black" stroke="black" points="717.29,-81.2679 707.209,-84.5287 717.123,-88.2659 717.29,-81.2679"/>
</g>
<!-- system -->
<g id="node32" class="node"><title>system</title>
<ellipse fill="none" stroke="green" cx="315.596" cy="-408" rx="35.9954" ry="18"/>
<text text-anchor="middle" x="315.596" y="-404.3" font-family="Times,serif" font-size="14.00">system</text>
</g>
<!-- system&#45;&gt;debian_upgrade -->
<g id="edge47" class="edge"><title>system&#45;&gt;debian_upgrade</title>
<path fill="none" stroke="black" d="M317.323,-390.003C319.498,-368.581 323.264,-331.502 325.84,-306.14"/>
<polygon fill="black" stroke="black" points="329.334,-306.37 326.863,-296.068 322.37,-305.663 329.334,-306.37"/>
</g>
<!-- system&#45;&gt;locales -->
<g id="edge48" class="edge"><title>system&#45;&gt;locales</title>
<path fill="none" stroke="black" d="M296.308,-392.704C285.006,-384.327 270.544,-373.608 258.066,-364.36"/>
<polygon fill="black" stroke="black" points="259.926,-361.382 249.808,-358.239 255.758,-367.006 259.926,-361.382"/>
</g>
<!-- urxvt&#45;&gt;perhaps_aptupdate -->
<g id="edge49" class="edge"><title>urxvt&#45;&gt;perhaps_aptupdate</title>
<path fill="none" stroke="black" d="M688.484,-196.427C683.239,-189.684 676.967,-181.619 671.094,-174.069"/>
<polygon fill="black" stroke="black" points="673.85,-171.91 664.947,-166.166 668.324,-176.208 673.85,-171.91"/>
</g>
<!-- xfce4_load_profile&#45;&gt;chj_bin -->
<g id="edge50" class="edge"><title>xfce4_load_profile&#45;&gt;chj_bin</title>
<path fill="none" stroke="black" d="M176.433,-389.737C177.591,-372.93 180.307,-346.806 186.596,-325 188.512,-318.357 191.237,-311.449 194.091,-305.066"/>
<polygon fill="black" stroke="black" points="197.465,-306.119 198.585,-295.583 191.139,-303.121 197.465,-306.119"/>
</g>
</g>
</svg>
