<?xml version="1.0" encoding="UTF-8" standalone="no"?>
<!DOCTYPE svg PUBLIC "-//W3C//DTD SVG 1.1//EN"
 "http://www.w3.org/Graphics/SVG/1.1/DTD/svg11.dtd">
<!-- Generated by graphviz version 2.38.0 (20140413.2041)
 -->
<!-- Title: foo Pages: 1 -->
<svg width="1421pt" height="694pt"
 viewBox="0.00 0.00 1420.95 694.00" xmlns="http://www.w3.org/2000/svg" xmlns:xlink="http://www.w3.org/1999/xlink">
<g id="graph0" class="graph" transform="scale(1 1) rotate(0) translate(4 690)">
<title>foo</title>
<polygon fill="white" stroke="none" points="-4,4 -4,-690 1416.95,-690 1416.95,4 -4,4"/>
<!-- _bs -->
<g id="node1" class="node"><title>_bs</title>
<ellipse fill="none" stroke="grey" cx="1184" cy="-83" rx="27" ry="18"/>
<text text-anchor="middle" x="1184" y="-79.3" font-family="Times,serif" font-size="14.00">.bs</text>
</g>
<!-- _usr_local_bin_fastrandom -->
<g id="node2" class="node"><title>_usr_local_bin_fastrandom</title>
<ellipse fill="none" stroke="grey" cx="529" cy="-278" rx="99.3824" ry="18"/>
<text text-anchor="middle" x="529" y="-274.3" font-family="Times,serif" font-size="14.00">/usr/local/bin/fastrandom</text>
</g>
<!-- _vncserver -->
<g id="node3" class="node"><title>_vncserver</title>
<ellipse fill="none" stroke="blue" cx="1114" cy="-538" rx="49.2915" ry="18"/>
<text text-anchor="middle" x="1114" y="-534.3" font-family="Times,serif" font-size="14.00">_vncserver</text>
</g>
<!-- chj_bin -->
<g id="node5" class="node"><title>chj_bin</title>
<ellipse fill="none" stroke="blue" cx="1161" cy="-278" rx="35.9954" ry="18"/>
<text text-anchor="middle" x="1161" y="-274.3" font-family="Times,serif" font-size="14.00">chj&#45;bin</text>
</g>
<!-- _vncserver&#45;&gt;chj_bin -->
<g id="edge3" class="edge"><title>_vncserver&#45;&gt;chj_bin</title>
<path fill="none" stroke="black" d="M1163.4,-536.012C1201.86,-532.673 1254.22,-522.126 1288,-491 1310.53,-470.234 1305.81,-456.202 1311,-426 1318.76,-380.812 1321.93,-357.903 1290,-325 1267.73,-302.052 1233.26,-290.52 1205.55,-284.742"/>
<polygon fill="black" stroke="black" points="1206.16,-281.296 1195.68,-282.864 1204.85,-288.172 1206.16,-281.296"/>
</g>
<!-- desktop -->
<g id="node18" class="node"><title>desktop</title>
<ellipse fill="none" stroke="blue" cx="910" cy="-473" rx="38.1938" ry="18"/>
<text text-anchor="middle" x="910" y="-469.3" font-family="Times,serif" font-size="14.00">desktop</text>
</g>
<!-- _vncserver&#45;&gt;desktop -->
<g id="edge2" class="edge"><title>_vncserver&#45;&gt;desktop</title>
<path fill="none" stroke="black" d="M1076.76,-525.98C1045.95,-516.802 1001.05,-503.292 962,-491 958.185,-489.799 954.218,-488.534 950.252,-487.257"/>
<polygon fill="black" stroke="black" points="951.077,-483.845 940.485,-484.091 948.918,-490.504 951.077,-483.845"/>
</g>
<!-- perhaps_aptupdate -->
<g id="node35" class="node"><title>perhaps_aptupdate</title>
<ellipse fill="none" stroke="blue" cx="869" cy="-148" rx="76.8869" ry="18"/>
<text text-anchor="middle" x="869" y="-144.3" font-family="Times,serif" font-size="14.00">perhaps_aptupdate</text>
</g>
<!-- _vncserver&#45;&gt;perhaps_aptupdate -->
<g id="edge1" class="edge"><title>_vncserver&#45;&gt;perhaps_aptupdate</title>
<path fill="none" stroke="black" d="M1098.37,-520.644C1078.94,-499.785 1045.48,-462.081 1022,-426 959.438,-329.881 969.484,-291.17 907,-195 902.318,-187.793 896.679,-180.426 891.195,-173.759"/>
<polygon fill="black" stroke="black" points="893.55,-171.124 884.417,-165.754 888.208,-175.648 893.55,-171.124"/>
</g>
<!-- chj -->
<g id="node4" class="node"><title>chj</title>
<ellipse fill="none" stroke="blue" cx="561" cy="-408" rx="27" ry="18"/>
<text text-anchor="middle" x="561" y="-404.3" font-family="Times,serif" font-size="14.00">chj</text>
</g>
<!-- chj&#45;&gt;chj_bin -->
<g id="edge6" class="edge"><title>chj&#45;&gt;chj_bin</title>
<path fill="none" stroke="black" d="M587.429,-403.531C638.429,-396.674 753.876,-380.361 850,-361 864.913,-357.996 1101.47,-300.502 1116,-296 1118.6,-295.194 1121.27,-294.317 1123.95,-293.4"/>
<polygon fill="black" stroke="black" points="1125.34,-296.622 1133.58,-289.964 1122.98,-290.029 1125.34,-296.622"/>
</g>
<!-- chj_emacs -->
<g id="node6" class="node"><title>chj_emacs</title>
<ellipse fill="none" stroke="blue" cx="251" cy="-278" rx="46.5926" ry="18"/>
<text text-anchor="middle" x="251" y="-274.3" font-family="Times,serif" font-size="14.00">chj&#45;emacs</text>
</g>
<!-- chj&#45;&gt;chj_emacs -->
<g id="edge7" class="edge"><title>chj&#45;&gt;chj_emacs</title>
<path fill="none" stroke="black" d="M534.137,-404.529C477.693,-398.942 348.944,-384.005 312,-361 290.353,-347.521 273.786,-323.332 263.418,-304.707"/>
<polygon fill="black" stroke="black" points="266.48,-303.011 258.699,-295.821 260.298,-306.295 266.48,-303.011"/>
</g>
<!-- cj_git_patchtool -->
<g id="node13" class="node"><title>cj_git_patchtool</title>
<ellipse fill="none" stroke="blue" cx="628" cy="-343" rx="64.9885" ry="18"/>
<text text-anchor="middle" x="628" y="-339.3" font-family="Times,serif" font-size="14.00">cj&#45;git&#45;patchtool</text>
</g>
<!-- chj&#45;&gt;cj_git_patchtool -->
<g id="edge9" class="edge"><title>chj&#45;&gt;cj_git_patchtool</title>
<path fill="none" stroke="black" d="M576.203,-392.704C584.166,-385.217 594.119,-375.858 603.166,-367.351"/>
<polygon fill="black" stroke="black" points="605.602,-369.865 610.49,-360.465 600.807,-364.766 605.602,-369.865"/>
</g>
<!-- debianpackages -->
<g id="node17" class="node"><title>debianpackages</title>
<ellipse fill="none" stroke="blue" cx="750" cy="-278" rx="66.0889" ry="18"/>
<text text-anchor="middle" x="750" y="-274.3" font-family="Times,serif" font-size="14.00">debianpackages</text>
</g>
<!-- chj&#45;&gt;debianpackages -->
<g id="edge5" class="edge"><title>chj&#45;&gt;debianpackages</title>
<path fill="none" stroke="black" d="M587.588,-404.052C618.119,-399.471 668.317,-388.143 702,-361 719.882,-346.59 732.51,-323.602 740.311,-305.628"/>
<polygon fill="black" stroke="black" points="743.603,-306.825 744.15,-296.244 737.124,-304.174 743.603,-306.825"/>
</g>
<!-- fastrandom -->
<g id="node23" class="node"><title>fastrandom</title>
<ellipse fill="none" stroke="blue" cx="494" cy="-343" rx="50.8918" ry="18"/>
<text text-anchor="middle" x="494" y="-339.3" font-family="Times,serif" font-size="14.00">fastrandom</text>
</g>
<!-- chj&#45;&gt;fastrandom -->
<g id="edge8" class="edge"><title>chj&#45;&gt;fastrandom</title>
<path fill="none" stroke="black" d="M545.797,-392.704C537.713,-385.103 527.579,-375.574 518.423,-366.965"/>
<polygon fill="black" stroke="black" points="520.712,-364.313 511.029,-360.012 515.916,-369.412 520.712,-364.313"/>
</g>
<!-- git_sign -->
<g id="node27" class="node"><title>git_sign</title>
<ellipse fill="none" stroke="blue" cx="509" cy="-83" rx="37.8943" ry="18"/>
<text text-anchor="middle" x="509" y="-79.3" font-family="Times,serif" font-size="14.00">git&#45;sign</text>
</g>
<!-- chj&#45;&gt;git_sign -->
<g id="edge4" class="edge"><title>chj&#45;&gt;git_sign</title>
<path fill="none" stroke="black" d="M534.059,-405.359C481.535,-401.537 368.52,-390.056 345,-361 319.814,-329.885 341.042,-229.948 430,-130 441.339,-117.26 457.079,-107.11 471.527,-99.6212"/>
<polygon fill="black" stroke="black" points="473.339,-102.63 480.775,-95.0833 470.256,-96.3461 473.339,-102.63"/>
</g>
<!-- chj_bin&#45;&gt;_bs -->
<g id="edge10" class="edge"><title>chj_bin&#45;&gt;_bs</title>
<path fill="none" stroke="black" d="M1195.19,-272.268C1248.69,-262.82 1350.66,-236.113 1395,-166 1435.86,-101.391 1292.81,-87.6236 1221.74,-84.7374"/>
<polygon fill="black" stroke="black" points="1221.51,-81.2274 1211.4,-84.3736 1221.27,-88.2231 1221.51,-81.2274"/>
</g>
<!-- chj_perllib -->
<g id="node9" class="node"><title>chj_perllib</title>
<ellipse fill="none" stroke="blue" cx="1181" cy="-213" rx="47.3916" ry="18"/>
<text text-anchor="middle" x="1181" y="-209.3" font-family="Times,serif" font-size="14.00">chj&#45;perllib</text>
</g>
<!-- chj_bin&#45;&gt;chj_perllib -->
<g id="edge12" class="edge"><title>chj_bin&#45;&gt;chj_perllib</title>
<path fill="none" stroke="black" d="M1166.36,-260.117C1168.24,-254.185 1170.41,-247.365 1172.49,-240.82"/>
<polygon fill="black" stroke="black" points="1175.94,-241.52 1175.63,-230.929 1169.26,-239.402 1175.94,-241.52"/>
</g>
<!-- chj_bin&#45;&gt;git_sign -->
<g id="edge11" class="edge"><title>chj_bin&#45;&gt;git_sign</title>
<path fill="none" stroke="black" d="M1146.54,-261.248C1129.3,-243.22 1098.91,-213.772 1068,-195 1037.45,-176.448 1023.21,-185.095 993,-166 973.335,-153.57 976.141,-139.71 955,-130 885.059,-97.8747 657.041,-87.9324 556.899,-85.0712"/>
<polygon fill="black" stroke="black" points="556.853,-81.5687 546.761,-84.7934 556.661,-88.5661 556.853,-81.5687"/>
</g>
<!-- chj_emacs_checkout -->
<g id="node7" class="node"><title>chj_emacs_checkout</title>
<ellipse fill="none" stroke="blue" cx="198" cy="-213" rx="81.4863" ry="18"/>
<text text-anchor="middle" x="198" y="-209.3" font-family="Times,serif" font-size="14.00">chj&#45;emacs&#45;checkout</text>
</g>
<!-- chj_emacs&#45;&gt;chj_emacs_checkout -->
<g id="edge13" class="edge"><title>chj_emacs&#45;&gt;chj_emacs_checkout</title>
<path fill="none" stroke="black" d="M237.351,-260.776C231.675,-254.029 224.961,-246.048 218.701,-238.607"/>
<polygon fill="black" stroke="black" points="221.273,-236.228 212.157,-230.829 215.917,-240.734 221.273,-236.228"/>
</g>
<!-- chj_emacs_checkout&#45;&gt;git_sign -->
<g id="edge14" class="edge"><title>chj_emacs_checkout&#45;&gt;git_sign</title>
<path fill="none" stroke="black" d="M192.183,-195.023C187.09,-176.707 182.654,-147.783 198,-130 231.402,-91.2945 382.464,-84.6039 461.093,-83.7992"/>
<polygon fill="black" stroke="black" points="461.255,-87.2982 471.229,-83.724 461.203,-80.2984 461.255,-87.2982"/>
</g>
<!-- chj_fastrandom -->
<g id="node8" class="node"><title>chj_fastrandom</title>
<ellipse fill="none" stroke="green" cx="271" cy="-148" rx="64.189" ry="18"/>
<text text-anchor="middle" x="271" y="-144.3" font-family="Times,serif" font-size="14.00">chj&#45;fastrandom</text>
</g>
<!-- chj_fastrandom&#45;&gt;git_sign -->
<g id="edge15" class="edge"><title>chj_fastrandom&#45;&gt;git_sign</title>
<path fill="none" stroke="black" d="M316.046,-135.076C359.463,-123.583 424.639,-106.331 467.001,-95.1174"/>
<polygon fill="black" stroke="black" points="467.955,-98.4855 476.726,-92.5431 466.164,-91.7186 467.955,-98.4855"/>
</g>
<!-- chj_perllib_checkout -->
<g id="node10" class="node"><title>chj_perllib_checkout</title>
<ellipse fill="none" stroke="blue" cx="1084" cy="-148" rx="81.7856" ry="18"/>
<text text-anchor="middle" x="1084" y="-144.3" font-family="Times,serif" font-size="14.00">chj&#45;perllib&#45;checkout</text>
</g>
<!-- chj_perllib&#45;&gt;chj_perllib_checkout -->
<g id="edge16" class="edge"><title>chj_perllib&#45;&gt;chj_perllib_checkout</title>
<path fill="none" stroke="black" d="M1158.01,-197.07C1145.97,-189.25 1131,-179.525 1117.68,-170.872"/>
<polygon fill="black" stroke="black" points="1119.5,-167.883 1109.21,-165.371 1115.69,-173.754 1119.5,-167.883"/>
</g>
<!-- chj_perllib_checkout&#45;&gt;_bs -->
<g id="edge17" class="edge"><title>chj_perllib_checkout&#45;&gt;_bs</title>
<path fill="none" stroke="black" d="M1109.75,-130.776C1124.03,-121.779 1141.8,-110.588 1156.37,-101.408"/>
<polygon fill="black" stroke="black" points="1158.37,-104.282 1164.97,-95.99 1154.64,-98.3591 1158.37,-104.282"/>
</g>
<!-- chj_perllib_checkout&#45;&gt;git_sign -->
<g id="edge18" class="edge"><title>chj_perllib_checkout&#45;&gt;git_sign</title>
<path fill="none" stroke="black" d="M1024.2,-135.653C1012.24,-133.597 999.74,-131.601 988,-130 830.466,-108.522 642.434,-93.5557 556.311,-87.2893"/>
<polygon fill="black" stroke="black" points="556.302,-83.7797 546.076,-86.5508 555.799,-90.7615 556.302,-83.7797"/>
</g>
<!-- chjvncserver -->
<g id="node11" class="node"><title>chjvncserver</title>
<ellipse fill="none" stroke="blue" cx="904" cy="-603" rx="55.7903" ry="18"/>
<text text-anchor="middle" x="904" y="-599.3" font-family="Times,serif" font-size="14.00">chjvncserver</text>
</g>
<!-- chjvncserver&#45;&gt;_vncserver -->
<g id="edge22" class="edge"><title>chjvncserver&#45;&gt;_vncserver</title>
<path fill="none" stroke="black" d="M943.499,-590.15C978.728,-579.582 1030.33,-564.1 1067.54,-552.939"/>
<polygon fill="black" stroke="black" points="1068.57,-556.284 1077.14,-550.058 1066.56,-549.579 1068.57,-556.284"/>
</g>
<!-- chjvncserver&#45;&gt;debianpackages -->
<g id="edge19" class="edge"><title>chjvncserver&#45;&gt;debianpackages</title>
<path fill="none" stroke="black" d="M861.95,-591.116C840.982,-583.957 816.445,-572.745 799,-556 769.747,-527.92 759,-514.549 759,-474 759,-474 759,-474 759,-407 759,-372.303 755.669,-332.447 753.06,-306.551"/>
<polygon fill="black" stroke="black" points="756.516,-305.947 751.997,-296.364 749.553,-306.673 756.516,-305.947"/>
</g>
<!-- chjvncserver&#45;&gt;desktop -->
<g id="edge21" class="edge"><title>chjvncserver&#45;&gt;desktop</title>
<path fill="none" stroke="black" d="M953.913,-594.897C977.513,-588.758 1003.61,-577.317 1018,-556 1026.95,-542.737 1026.82,-533.348 1018,-520 1013.84,-513.699 978.279,-499.271 949.083,-488.24"/>
<polygon fill="black" stroke="black" points="950.073,-484.874 939.481,-484.647 947.62,-491.43 950.073,-484.874"/>
</g>
<!-- urxvt -->
<g id="node39" class="node"><title>urxvt</title>
<ellipse fill="none" stroke="blue" cx="869" cy="-213" rx="29.4969" ry="18"/>
<text text-anchor="middle" x="869" y="-209.3" font-family="Times,serif" font-size="14.00">urxvt</text>
</g>
<!-- chjvncserver&#45;&gt;urxvt -->
<g id="edge20" class="edge"><title>chjvncserver&#45;&gt;urxvt</title>
<path fill="none" stroke="black" d="M869.239,-588.737C855.025,-581.386 840.053,-570.701 832,-556 824.313,-541.967 831.038,-535.971 832,-520 833.657,-492.494 856.601,-311.147 865.504,-241.331"/>
<polygon fill="black" stroke="black" points="869.013,-241.487 866.807,-231.124 862.069,-240.6 869.013,-241.487"/>
</g>
<!-- chjvncserver_clean -->
<g id="node12" class="node"><title>chjvncserver_clean</title>
<ellipse fill="none" stroke="green" cx="904" cy="-668" rx="78.7863" ry="18"/>
<text text-anchor="middle" x="904" y="-664.3" font-family="Times,serif" font-size="14.00">chjvncserver_clean</text>
</g>
<!-- chjvncserver_clean&#45;&gt;chjvncserver -->
<g id="edge23" class="edge"><title>chjvncserver_clean&#45;&gt;chjvncserver</title>
<path fill="none" stroke="black" d="M904,-649.785C904,-644.09 904,-637.605 904,-631.343"/>
<polygon fill="black" stroke="black" points="907.5,-631.194 904,-621.194 900.5,-631.194 907.5,-631.194"/>
</g>
<!-- cj_git_patchtool&#45;&gt;chj_bin -->
<g id="edge25" class="edge"><title>cj_git_patchtool&#45;&gt;chj_bin</title>
<path fill="none" stroke="black" d="M686.373,-335.01C714.113,-331.784 747.748,-328.012 778,-325 928.033,-310.065 968.973,-329.403 1116,-296 1119,-295.319 1122.06,-294.482 1125.12,-293.549"/>
<polygon fill="black" stroke="black" points="1126.37,-296.821 1134.72,-290.309 1124.13,-290.188 1126.37,-296.821"/>
</g>
<!-- cj_git_patchtool&#45;&gt;debianpackages -->
<g id="edge24" class="edge"><title>cj_git_patchtool&#45;&gt;debianpackages</title>
<path fill="none" stroke="black" d="M657.222,-326.91C673.55,-318.478 694.093,-307.87 711.695,-298.781"/>
<polygon fill="black" stroke="black" points="713.314,-301.883 720.594,-294.185 710.102,-295.664 713.314,-301.883"/>
</g>
<!-- cj_git_patchtool&#45;&gt;git_sign -->
<g id="edge26" class="edge"><title>cj_git_patchtool&#45;&gt;git_sign</title>
<path fill="none" stroke="black" d="M632.73,-324.937C636.677,-308.28 641.056,-282.262 637,-260 625.932,-199.254 627.871,-177.147 588,-130 576.987,-116.977 561.3,-106.782 546.803,-99.3355"/>
<polygon fill="black" stroke="black" points="548.035,-96.0436 537.509,-94.8367 544.985,-102.344 548.035,-96.0436"/>
</g>
<!-- cplusplus -->
<g id="node14" class="node"><title>cplusplus</title>
<ellipse fill="none" stroke="blue" cx="510" cy="-213" rx="44.393" ry="18"/>
<text text-anchor="middle" x="510" y="-209.3" font-family="Times,serif" font-size="14.00">cplusplus</text>
</g>
<!-- cplusplus&#45;&gt;perhaps_aptupdate -->
<g id="edge27" class="edge"><title>cplusplus&#45;&gt;perhaps_aptupdate</title>
<path fill="none" stroke="black" d="M549.791,-205.017C609.944,-194.461 724.879,-174.291 799.172,-161.254"/>
<polygon fill="black" stroke="black" points="800.131,-164.639 809.375,-159.463 798.921,-157.745 800.131,-164.639"/>
</g>
<!-- debian_emacs -->
<g id="node15" class="node"><title>debian_emacs</title>
<ellipse fill="none" stroke="blue" cx="126" cy="-278" rx="59.5901" ry="18"/>
<text text-anchor="middle" x="126" y="-274.3" font-family="Times,serif" font-size="14.00">debian&#45;emacs</text>
</g>
<!-- debian_upgrade -->
<g id="node16" class="node"><title>debian_upgrade</title>
<ellipse fill="none" stroke="blue" cx="1040" cy="-278" rx="66.8882" ry="18"/>
<text text-anchor="middle" x="1040" y="-274.3" font-family="Times,serif" font-size="14.00">debian_upgrade</text>
</g>
<!-- debian_upgrade&#45;&gt;perhaps_aptupdate -->
<g id="edge28" class="edge"><title>debian_upgrade&#45;&gt;perhaps_aptupdate</title>
<path fill="none" stroke="black" d="M1048.23,-260.028C1055.66,-241.986 1063.41,-213.551 1049,-195 1041.8,-185.725 984.531,-172.115 936.497,-162.104"/>
<polygon fill="black" stroke="black" points="936.909,-158.616 926.408,-160.026 935.496,-165.472 936.909,-158.616"/>
</g>
<!-- debianpackages&#45;&gt;urxvt -->
<g id="edge29" class="edge"><title>debianpackages&#45;&gt;urxvt</title>
<path fill="none" stroke="black" d="M778.807,-261.749C796.931,-252.154 820.287,-239.789 838.69,-230.046"/>
<polygon fill="black" stroke="black" points="840.344,-233.131 847.545,-225.359 837.069,-226.944 840.344,-233.131"/>
</g>
<!-- desktop&#45;&gt;chj -->
<g id="edge30" class="edge"><title>desktop&#45;&gt;chj</title>
<path fill="none" stroke="black" d="M874.939,-465.671C808.323,-453.646 664.126,-427.616 596.881,-415.477"/>
<polygon fill="black" stroke="black" points="597.235,-411.985 586.772,-413.652 595.992,-418.873 597.235,-411.985"/>
</g>
<!-- xfce4_load_profile -->
<g id="node43" class="node"><title>xfce4_load_profile</title>
<ellipse fill="none" stroke="blue" cx="1225" cy="-408" rx="77.1866" ry="18"/>
<text text-anchor="middle" x="1225" y="-404.3" font-family="Times,serif" font-size="14.00">xfce4_load_profile</text>
</g>
<!-- desktop&#45;&gt;xfce4_load_profile -->
<g id="edge31" class="edge"><title>desktop&#45;&gt;xfce4_load_profile</title>
<path fill="none" stroke="black" d="M944.612,-465.078C995.812,-454.838 1092.71,-435.457 1158.08,-422.384"/>
<polygon fill="black" stroke="black" points="1159.17,-425.736 1168.29,-420.342 1157.8,-418.871 1159.17,-425.736"/>
</g>
<!-- desktop_autoremove -->
<g id="node19" class="node"><title>desktop_autoremove</title>
<ellipse fill="none" stroke="green" cx="925" cy="-538" rx="84.485" ry="18"/>
<text text-anchor="middle" x="925" y="-534.3" font-family="Times,serif" font-size="14.00">desktop_autoremove</text>
</g>
<!-- desktop_autoremove&#45;&gt;desktop -->
<g id="edge32" class="edge"><title>desktop_autoremove&#45;&gt;desktop</title>
<path fill="none" stroke="black" d="M920.901,-519.785C919.545,-514.09 918.001,-507.605 916.51,-501.343"/>
<polygon fill="black" stroke="black" points="919.815,-500.112 914.094,-491.194 913.005,-501.733 919.815,-500.112"/>
</g>
<!-- dnsresolver -->
<g id="node20" class="node"><title>dnsresolver</title>
<ellipse fill="none" stroke="green" cx="1052" cy="-668" rx="51.1914" ry="18"/>
<text text-anchor="middle" x="1052" y="-664.3" font-family="Times,serif" font-size="14.00">dnsresolver</text>
</g>
<!-- dotconfig_xfce4_checkout -->
<g id="node21" class="node"><title>dotconfig_xfce4_checkout</title>
<ellipse fill="none" stroke="blue" cx="1285" cy="-148" rx="101.282" ry="18"/>
<text text-anchor="middle" x="1285" y="-144.3" font-family="Times,serif" font-size="14.00">dotconfig&#45;xfce4&#45;checkout</text>
</g>
<!-- dotconfig_xfce4_checkout&#45;&gt;_bs -->
<g id="edge33" class="edge"><title>dotconfig_xfce4_checkout&#45;&gt;_bs</title>
<path fill="none" stroke="black" d="M1258.73,-130.612C1244.3,-121.615 1226.42,-110.462 1211.77,-101.322"/>
<polygon fill="black" stroke="black" points="1213.46,-98.2508 1203.12,-95.9279 1209.75,-104.19 1213.46,-98.2508"/>
</g>
<!-- dotconfig_xfce4_checkout&#45;&gt;git_sign -->
<g id="edge34" class="edge"><title>dotconfig_xfce4_checkout&#45;&gt;git_sign</title>
<path fill="none" stroke="black" d="M1213.82,-135.101C1200.92,-133.202 1187.58,-131.404 1175,-130 944.017,-104.221 666.247,-90.6031 556.72,-85.9121"/>
<polygon fill="black" stroke="black" points="556.792,-82.4121 546.653,-85.4859 556.496,-89.4059 556.792,-82.4121"/>
</g>
<!-- emacs -->
<g id="node22" class="node"><title>emacs</title>
<ellipse fill="none" stroke="green" cx="168" cy="-343" rx="33.2948" ry="18"/>
<text text-anchor="middle" x="168" y="-339.3" font-family="Times,serif" font-size="14.00">emacs</text>
</g>
<!-- emacs&#45;&gt;chj_emacs -->
<g id="edge36" class="edge"><title>emacs&#45;&gt;chj_emacs</title>
<path fill="none" stroke="black" d="M186.42,-328.018C197.13,-319.889 210.847,-309.477 222.882,-300.342"/>
<polygon fill="black" stroke="black" points="225.039,-303.099 230.888,-294.266 220.807,-297.524 225.039,-303.099"/>
</g>
<!-- emacs&#45;&gt;debian_emacs -->
<g id="edge35" class="edge"><title>emacs&#45;&gt;debian_emacs</title>
<path fill="none" stroke="black" d="M157.184,-325.776C152.877,-319.316 147.817,-311.725 143.04,-304.56"/>
<polygon fill="black" stroke="black" points="145.678,-302.208 137.219,-295.829 139.854,-306.091 145.678,-302.208"/>
</g>
<!-- fastrandom&#45;&gt;_usr_local_bin_fastrandom -->
<g id="edge37" class="edge"><title>fastrandom&#45;&gt;_usr_local_bin_fastrandom</title>
<path fill="none" stroke="black" d="M503.379,-325.117C506.832,-318.903 510.826,-311.713 514.618,-304.887"/>
<polygon fill="black" stroke="black" points="517.798,-306.371 519.595,-295.929 511.679,-302.971 517.798,-306.371"/>
</g>
<!-- fperl -->
<g id="node24" class="node"><title>fperl</title>
<ellipse fill="none" stroke="green" cx="814" cy="-343" rx="27.0966" ry="18"/>
<text text-anchor="middle" x="814" y="-339.3" font-family="Times,serif" font-size="14.00">fperl</text>
</g>
<!-- fperl&#45;&gt;chj_bin -->
<g id="edge40" class="edge"><title>fperl&#45;&gt;chj_bin</title>
<path fill="none" stroke="black" d="M835.737,-331.651C841.849,-329.112 848.582,-326.651 855,-325 968.032,-295.915 1002.52,-323.282 1116,-296 1118.99,-295.281 1122.05,-294.418 1125.1,-293.466"/>
<polygon fill="black" stroke="black" points="1126.36,-296.734 1134.7,-290.194 1124.1,-290.108 1126.36,-296.734"/>
</g>
<!-- fperl&#45;&gt;debianpackages -->
<g id="edge39" class="edge"><title>fperl&#45;&gt;debianpackages</title>
<path fill="none" stroke="black" d="M799.477,-327.704C791.947,-320.292 782.554,-311.045 773.981,-302.606"/>
<polygon fill="black" stroke="black" points="776.308,-299.986 766.726,-295.465 771.398,-304.975 776.308,-299.986"/>
</g>
<!-- fperl&#45;&gt;git_sign -->
<g id="edge38" class="edge"><title>fperl&#45;&gt;git_sign</title>
<path fill="none" stroke="black" d="M822.534,-325.713C830.637,-307.736 839.595,-278.855 825,-260 793.526,-219.339 757.445,-256.857 713,-231 658.937,-199.547 666.446,-165.572 615,-130 594.915,-116.112 569.965,-105.032 549.318,-97.2283"/>
<polygon fill="black" stroke="black" points="550.462,-93.92 539.869,-93.7693 548.056,-100.493 550.462,-93.92"/>
</g>
<!-- gambit -->
<g id="node25" class="node"><title>gambit</title>
<ellipse fill="none" stroke="blue" cx="390" cy="-343" rx="35.9954" ry="18"/>
<text text-anchor="middle" x="390" y="-339.3" font-family="Times,serif" font-size="14.00">gambit</text>
</g>
<!-- gambit&#45;&gt;chj_bin -->
<g id="edge44" class="edge"><title>gambit&#45;&gt;chj_bin</title>
<path fill="none" stroke="black" d="M416.101,-330.316C421.888,-328.18 428.068,-326.237 434,-325 730.996,-263.064 818.775,-356.823 1116,-296 1119.01,-295.384 1122.09,-294.593 1125.15,-293.691"/>
<polygon fill="black" stroke="black" points="1126.37,-296.973 1134.77,-290.507 1124.17,-290.327 1126.37,-296.973"/>
</g>
<!-- gambit&#45;&gt;chj_emacs -->
<g id="edge45" class="edge"><title>gambit&#45;&gt;chj_emacs</title>
<path fill="none" stroke="black" d="M364.181,-330.298C343.11,-320.748 313.032,-307.115 289.178,-296.304"/>
<polygon fill="black" stroke="black" points="290.597,-293.104 280.044,-292.164 287.707,-299.48 290.597,-293.104"/>
</g>
<!-- gambit&#45;&gt;cplusplus -->
<g id="edge42" class="edge"><title>gambit&#45;&gt;cplusplus</title>
<path fill="none" stroke="black" d="M392.769,-324.732C396.445,-306.704 404.501,-278.526 421,-260 433.281,-246.211 450.682,-235.947 466.845,-228.657"/>
<polygon fill="black" stroke="black" points="468.329,-231.829 476.17,-224.704 465.597,-225.384 468.329,-231.829"/>
</g>
<!-- gambit&#45;&gt;debianpackages -->
<g id="edge43" class="edge"><title>gambit&#45;&gt;debianpackages</title>
<path fill="none" stroke="black" d="M416.675,-330.585C422.318,-328.485 428.295,-326.489 434,-325 522.184,-301.985 546.826,-309.224 637,-296 652.136,-293.78 668.406,-291.356 683.753,-289.051"/>
<polygon fill="black" stroke="black" points="684.316,-292.505 693.684,-287.556 683.275,-285.583 684.316,-292.505"/>
</g>
<!-- gambit_checkout -->
<g id="node26" class="node"><title>gambit_checkout</title>
<ellipse fill="none" stroke="blue" cx="509" cy="-148" rx="70.3881" ry="18"/>
<text text-anchor="middle" x="509" y="-144.3" font-family="Times,serif" font-size="14.00">gambit&#45;checkout</text>
</g>
<!-- gambit&#45;&gt;gambit_checkout -->
<g id="edge41" class="edge"><title>gambit&#45;&gt;gambit_checkout</title>
<path fill="none" stroke="black" d="M388.619,-324.882C387.921,-307.724 388.728,-280.923 398,-260 414.539,-222.678 449.726,-191.03 476.075,-171.193"/>
<polygon fill="black" stroke="black" points="478.289,-173.91 484.285,-165.175 474.151,-168.264 478.289,-173.91"/>
</g>
<!-- gambit_checkout&#45;&gt;_bs -->
<g id="edge46" class="edge"><title>gambit_checkout&#45;&gt;_bs</title>
<path fill="none" stroke="black" d="M573.722,-140.959C713.114,-127.949 1037.93,-97.6335 1147.3,-87.425"/>
<polygon fill="black" stroke="black" points="1147.87,-90.8877 1157.5,-86.4735 1147.22,-83.918 1147.87,-90.8877"/>
</g>
<!-- gambit_checkout&#45;&gt;git_sign -->
<g id="edge47" class="edge"><title>gambit_checkout&#45;&gt;git_sign</title>
<path fill="none" stroke="black" d="M509,-129.785C509,-124.09 509,-117.605 509,-111.343"/>
<polygon fill="black" stroke="black" points="512.5,-111.194 509,-101.194 505.5,-111.194 512.5,-111.194"/>
</g>
<!-- key -->
<g id="node29" class="node"><title>key</title>
<ellipse fill="none" stroke="blue" cx="254" cy="-18" rx="27" ry="18"/>
<text text-anchor="middle" x="254" y="-14.3" font-family="Times,serif" font-size="14.00">key</text>
</g>
<!-- git_sign&#45;&gt;key -->
<g id="edge48" class="edge"><title>git_sign&#45;&gt;key</title>
<path fill="none" stroke="black" d="M476.185,-73.8928C427.962,-61.9788 338.338,-39.8366 288.934,-27.6307"/>
<polygon fill="black" stroke="black" points="289.579,-24.1849 279.031,-25.1842 287.9,-30.9806 289.579,-24.1849"/>
</g>
<!-- graph_deps -->
<g id="node28" class="node"><title>graph_deps</title>
<ellipse fill="none" stroke="green" cx="772" cy="-213" rx="50.0912" ry="18"/>
<text text-anchor="middle" x="772" y="-209.3" font-family="Times,serif" font-size="14.00">graph&#45;deps</text>
</g>
<!-- graph_deps&#45;&gt;perhaps_aptupdate -->
<g id="edge49" class="edge"><title>graph_deps&#45;&gt;perhaps_aptupdate</title>
<path fill="none" stroke="black" d="M795.481,-196.749C807.531,-188.923 822.42,-179.253 835.64,-170.667"/>
<polygon fill="black" stroke="black" points="837.56,-173.593 844.04,-165.211 833.747,-167.723 837.56,-173.593"/>
</g>
<!-- load_profile -->
<g id="node30" class="node"><title>load_profile</title>
<ellipse fill="none" stroke="green" cx="1225" cy="-473" rx="53.8905" ry="18"/>
<text text-anchor="middle" x="1225" y="-469.3" font-family="Times,serif" font-size="14.00">load_profile</text>
</g>
<!-- load_profile&#45;&gt;xfce4_load_profile -->
<g id="edge50" class="edge"><title>load_profile&#45;&gt;xfce4_load_profile</title>
<path fill="none" stroke="black" d="M1225,-454.785C1225,-449.09 1225,-442.605 1225,-436.343"/>
<polygon fill="black" stroke="black" points="1228.5,-436.194 1225,-426.194 1221.5,-436.194 1228.5,-436.194"/>
</g>
<!-- locales -->
<g id="node31" class="node"><title>locales</title>
<ellipse fill="none" stroke="blue" cx="1229" cy="-343" rx="35.194" ry="18"/>
<text text-anchor="middle" x="1229" y="-339.3" font-family="Times,serif" font-size="14.00">locales</text>
</g>
<!-- locales&#45;&gt;chj_bin -->
<g id="edge51" class="edge"><title>locales&#45;&gt;chj_bin</title>
<path fill="none" stroke="black" d="M1212.54,-326.749C1204.19,-319.011 1193.89,-309.471 1184.7,-300.958"/>
<polygon fill="black" stroke="black" points="1187.02,-298.339 1177.31,-294.11 1182.27,-303.474 1187.02,-298.339"/>
</g>
<!-- mercurial -->
<g id="node32" class="node"><title>mercurial</title>
<ellipse fill="none" stroke="green" cx="1056" cy="-343" rx="44.6926" ry="18"/>
<text text-anchor="middle" x="1056" y="-339.3" font-family="Times,serif" font-size="14.00">mercurial</text>
</g>
<!-- mercurial&#45;&gt;chj_bin -->
<g id="edge52" class="edge"><title>mercurial&#45;&gt;chj_bin</title>
<path fill="none" stroke="black" d="M1079.83,-327.704C1094.6,-318.843 1113.73,-307.361 1129.71,-297.771"/>
<polygon fill="black" stroke="black" points="1131.93,-300.524 1138.7,-292.378 1128.33,-294.521 1131.93,-300.524"/>
</g>
<!-- moduser -->
<g id="node33" class="node"><title>moduser</title>
<ellipse fill="none" stroke="green" cx="314" cy="-473" rx="41.6928" ry="18"/>
<text text-anchor="middle" x="314" y="-469.3" font-family="Times,serif" font-size="14.00">moduser</text>
</g>
<!-- moduser&#45;&gt;chj -->
<g id="edge53" class="edge"><title>moduser&#45;&gt;chj</title>
<path fill="none" stroke="black" d="M348.865,-463.107C395.943,-451.1 479.34,-429.828 526.321,-417.845"/>
<polygon fill="black" stroke="black" points="527.222,-421.228 536.046,-415.365 525.492,-414.445 527.222,-421.228"/>
</g>
<!-- moduser&#45;&gt;key -->
<g id="edge54" class="edge"><title>moduser&#45;&gt;key</title>
<path fill="none" stroke="black" d="M276.436,-464.944C193.09,-448.218 0,-403.09 0,-344 0,-344 0,-344 0,-147 0,-51.1834 145.926,-27.0806 216.564,-21.0263"/>
<polygon fill="black" stroke="black" points="217.119,-24.4938 226.818,-20.2293 216.576,-17.5148 217.119,-24.4938"/>
</g>
<!-- nosudo -->
<g id="node34" class="node"><title>nosudo</title>
<ellipse fill="none" stroke="green" cx="1158" cy="-668" rx="36.2938" ry="18"/>
<text text-anchor="middle" x="1158" y="-664.3" font-family="Times,serif" font-size="14.00">nosudo</text>
</g>
<!-- qemu -->
<g id="node36" class="node"><title>qemu</title>
<ellipse fill="none" stroke="green" cx="225" cy="-408" rx="30.5947" ry="18"/>
<text text-anchor="middle" x="225" y="-404.3" font-family="Times,serif" font-size="14.00">qemu</text>
</g>
<!-- qemu&#45;&gt;gambit -->
<g id="edge56" class="edge"><title>qemu&#45;&gt;gambit</title>
<path fill="none" stroke="black" d="M250.06,-397.432C277.393,-386.995 321.426,-370.183 352.796,-358.205"/>
<polygon fill="black" stroke="black" points="354.405,-361.337 362.499,-354.5 351.908,-354.798 354.405,-361.337"/>
</g>
<!-- qemu&#45;&gt;git_sign -->
<g id="edge55" class="edge"><title>qemu&#45;&gt;git_sign</title>
<path fill="none" stroke="black" d="M196.599,-401.355C144.286,-389.124 38,-354.931 38,-279 38,-279 38,-279 38,-212 38,-124.913 341.641,-95.155 461.327,-86.8078"/>
<polygon fill="black" stroke="black" points="461.907,-90.2767 471.648,-86.1095 461.434,-83.2926 461.907,-90.2767"/>
</g>
<!-- swap -->
<g id="node37" class="node"><title>swap</title>
<ellipse fill="none" stroke="green" cx="1147" cy="-343" rx="28.6953" ry="18"/>
<text text-anchor="middle" x="1147" y="-339.3" font-family="Times,serif" font-size="14.00">swap</text>
</g>
<!-- swap&#45;&gt;chj_bin -->
<g id="edge57" class="edge"><title>swap&#45;&gt;chj_bin</title>
<path fill="none" stroke="black" d="M1150.75,-325.117C1152.07,-319.185 1153.59,-312.365 1155.04,-305.82"/>
<polygon fill="black" stroke="black" points="1158.49,-306.451 1157.24,-295.929 1151.65,-304.932 1158.49,-306.451"/>
</g>
<!-- system -->
<g id="node38" class="node"><title>system</title>
<ellipse fill="none" stroke="green" cx="1067" cy="-408" rx="35.9954" ry="18"/>
<text text-anchor="middle" x="1067" y="-404.3" font-family="Times,serif" font-size="14.00">system</text>
</g>
<!-- system&#45;&gt;debian_upgrade -->
<g id="edge58" class="edge"><title>system&#45;&gt;debian_upgrade</title>
<path fill="none" stroke="black" d="M1040.6,-395.787C1026.38,-388.217 1010.13,-376.717 1002,-361 994.648,-346.789 996.585,-340.056 1002,-325 1004.81,-317.187 1009.59,-309.757 1014.82,-303.236"/>
<polygon fill="black" stroke="black" points="1017.64,-305.333 1021.58,-295.502 1012.37,-300.725 1017.64,-305.333"/>
</g>
<!-- system&#45;&gt;locales -->
<g id="edge59" class="edge"><title>system&#45;&gt;locales</title>
<path fill="none" stroke="black" d="M1094.48,-396.313C1121.41,-385.842 1162.62,-369.816 1192.33,-358.262"/>
<polygon fill="black" stroke="black" points="1193.87,-361.416 1201.92,-354.529 1191.34,-354.892 1193.87,-361.416"/>
</g>
<!-- urxvt&#45;&gt;perhaps_aptupdate -->
<g id="edge60" class="edge"><title>urxvt&#45;&gt;perhaps_aptupdate</title>
<path fill="none" stroke="black" d="M869,-194.785C869,-189.09 869,-182.605 869,-176.343"/>
<polygon fill="black" stroke="black" points="872.5,-176.194 869,-166.194 865.5,-176.194 872.5,-176.194"/>
</g>
<!-- vncclient -->
<g id="node40" class="node"><title>vncclient</title>
<ellipse fill="none" stroke="green" cx="997" cy="-213" rx="42.7926" ry="18"/>
<text text-anchor="middle" x="997" y="-209.3" font-family="Times,serif" font-size="14.00">vncclient</text>
</g>
<!-- vncclient&#45;&gt;perhaps_aptupdate -->
<g id="edge61" class="edge"><title>vncclient&#45;&gt;perhaps_aptupdate</title>
<path fill="none" stroke="black" d="M970.167,-198.793C952.7,-190.196 929.581,-178.817 909.853,-169.108"/>
<polygon fill="black" stroke="black" points="911.289,-165.913 900.771,-164.638 908.198,-172.194 911.289,-165.913"/>
</g>
<!-- vncserver -->
<g id="node41" class="node"><title>vncserver</title>
<ellipse fill="none" stroke="green" cx="1114" cy="-603" rx="44.6926" ry="18"/>
<text text-anchor="middle" x="1114" y="-599.3" font-family="Times,serif" font-size="14.00">vncserver</text>
</g>
<!-- vncserver&#45;&gt;_vncserver -->
<g id="edge62" class="edge"><title>vncserver&#45;&gt;_vncserver</title>
<path fill="none" stroke="black" d="M1114,-584.785C1114,-579.09 1114,-572.605 1114,-566.343"/>
<polygon fill="black" stroke="black" points="1117.5,-566.194 1114,-556.194 1110.5,-566.194 1117.5,-566.194"/>
</g>
<!-- xfce -->
<g id="node42" class="node"><title>xfce</title>
<ellipse fill="none" stroke="blue" cx="1385" cy="-343" rx="27" ry="18"/>
<text text-anchor="middle" x="1385" y="-339.3" font-family="Times,serif" font-size="14.00">xfce</text>
</g>
<!-- xfce&#45;&gt;chj_bin -->
<g id="edge64" class="edge"><title>xfce&#45;&gt;chj_bin</title>
<path fill="none" stroke="black" d="M1363.1,-332.222C1356.98,-329.684 1350.29,-327.082 1344,-325 1296.67,-309.333 1240.94,-296.036 1203.52,-287.829"/>
<polygon fill="black" stroke="black" points="1203.99,-284.349 1193.48,-285.651 1202.51,-291.19 1203.99,-284.349"/>
</g>
<!-- xfce&#45;&gt;dotconfig_xfce4_checkout -->
<g id="edge65" class="edge"><title>xfce&#45;&gt;dotconfig_xfce4_checkout</title>
<path fill="none" stroke="black" d="M1392.94,-325.317C1405.56,-296.147 1426.1,-235.163 1399,-195 1389.95,-181.595 1376.28,-172.096 1361.5,-165.364"/>
<polygon fill="black" stroke="black" points="1362.77,-162.101 1352.19,-161.52 1360.1,-168.571 1362.77,-162.101"/>
</g>
<!-- xfce&#45;&gt;perhaps_aptupdate -->
<g id="edge63" class="edge"><title>xfce&#45;&gt;perhaps_aptupdate</title>
<path fill="none" stroke="black" d="M1374.63,-326.172C1353.17,-294.935 1300.58,-225.727 1237,-195 1138.67,-147.483 1101.32,-179.862 993,-166 976.847,-163.933 959.524,-161.619 943.101,-159.38"/>
<polygon fill="black" stroke="black" points="943.392,-155.888 933.01,-157.999 942.443,-162.823 943.392,-155.888"/>
</g>
<!-- xfce4_load_profile&#45;&gt;chj_bin -->
<g id="edge66" class="edge"><title>xfce4_load_profile&#45;&gt;chj_bin</title>
<path fill="none" stroke="black" d="M1248.91,-390.786C1258.28,-382.997 1267.97,-372.784 1273,-361 1279.28,-346.284 1281.91,-338.29 1273,-325 1257.93,-302.518 1229.69,-291.014 1205.33,-285.133"/>
<polygon fill="black" stroke="black" points="1206.05,-281.707 1195.53,-283.009 1204.56,-288.548 1206.05,-281.707"/>
</g>
<!-- xfce4_load_profile&#45;&gt;xfce -->
<g id="edge67" class="edge"><title>xfce4_load_profile&#45;&gt;xfce</title>
<path fill="none" stroke="black" d="M1262.51,-392.229C1289.87,-381.458 1326.56,-367.011 1352.63,-356.744"/>
<polygon fill="black" stroke="black" points="1354.04,-359.95 1362.07,-353.03 1351.48,-353.437 1354.04,-359.95"/>
</g>
</g>
</svg>
