<?xml version="1.0" encoding="UTF-8" standalone="no"?>
<!DOCTYPE svg PUBLIC "-//W3C//DTD SVG 1.1//EN"
 "http://www.w3.org/Graphics/SVG/1.1/DTD/svg11.dtd">
<!-- Generated by graphviz version 2.38.0 (20140413.2041)
 -->
<!-- Title: foo Pages: 1 -->
<svg width="1998pt" height="694pt"
 viewBox="0.00 0.00 1998.34 694.00" xmlns="http://www.w3.org/2000/svg" xmlns:xlink="http://www.w3.org/1999/xlink">
<g id="graph0" class="graph" transform="scale(1 1) rotate(0) translate(4 690)">
<title>foo</title>
<polygon fill="white" stroke="none" points="-4,4 -4,-690 1994.34,-690 1994.34,4 -4,4"/>
<!-- _bs -->
<g id="node1" class="node"><title>_bs</title>
<ellipse fill="none" stroke="grey" cx="362.343" cy="-83" rx="27" ry="18"/>
<text text-anchor="middle" x="362.343" y="-79.3" font-family="Times,serif" font-size="14.00">.bs</text>
</g>
<!-- _usr_local_bin_fastrandom -->
<g id="node2" class="node"><title>_usr_local_bin_fastrandom</title>
<ellipse fill="none" stroke="grey" cx="1182.34" cy="-278" rx="99.3824" ry="18"/>
<text text-anchor="middle" x="1182.34" y="-274.3" font-family="Times,serif" font-size="14.00">/usr/local/bin/fastrandom</text>
</g>
<!-- _slim_vncserver -->
<g id="node3" class="node"><title>_slim_vncserver</title>
<ellipse fill="none" stroke="blue" cx="703.343" cy="-538" rx="67.6881" ry="18"/>
<text text-anchor="middle" x="703.343" y="-534.3" font-family="Times,serif" font-size="14.00">_slim&#45;vncserver</text>
</g>
<!-- chj_bin -->
<g id="node5" class="node"><title>chj_bin</title>
<ellipse fill="none" stroke="blue" cx="486.343" cy="-278" rx="35.9954" ry="18"/>
<text text-anchor="middle" x="486.343" y="-274.3" font-family="Times,serif" font-size="14.00">chj&#45;bin</text>
</g>
<!-- _slim_vncserver&#45;&gt;chj_bin -->
<g id="edge3" class="edge"><title>_slim_vncserver&#45;&gt;chj_bin</title>
<path fill="none" stroke="black" d="M650.701,-526.609C573.746,-508.274 433.099,-462.116 372.343,-361 364.103,-347.285 363.393,-338.263 372.343,-325 387.82,-302.066 416.856,-290.563 441.75,-284.795"/>
<polygon fill="black" stroke="black" points="442.675,-288.178 451.757,-282.723 441.255,-281.324 442.675,-288.178"/>
</g>
<!-- perhaps_aptupdate -->
<g id="node36" class="node"><title>perhaps_aptupdate</title>
<ellipse fill="none" stroke="blue" cx="1431.34" cy="-148" rx="76.8869" ry="18"/>
<text text-anchor="middle" x="1431.34" y="-144.3" font-family="Times,serif" font-size="14.00">perhaps_aptupdate</text>
</g>
<!-- _slim_vncserver&#45;&gt;perhaps_aptupdate -->
<g id="edge1" class="edge"><title>_slim_vncserver&#45;&gt;perhaps_aptupdate</title>
<path fill="none" stroke="black" d="M769.119,-533.779C882.464,-527.722 1109.79,-513.212 1186.34,-491 1216.13,-482.357 1409.31,-380.603 1433.34,-361 1472.95,-328.692 1522.04,-298.432 1488.34,-260 1423.32,-185.846 1333.36,-305.154 1268.34,-231 1257.79,-218.97 1258.69,-207.758 1268.34,-195 1274.66,-186.653 1324.39,-173.358 1367.28,-163.203"/>
<polygon fill="black" stroke="black" points="1368.21,-166.579 1377.15,-160.891 1366.62,-159.763 1368.21,-166.579"/>
</g>
<!-- slim_desktop -->
<g id="node44" class="node"><title>slim_desktop</title>
<ellipse fill="none" stroke="blue" cx="286.343" cy="-473" rx="56.59" ry="18"/>
<text text-anchor="middle" x="286.343" y="-469.3" font-family="Times,serif" font-size="14.00">slim&#45;desktop</text>
</g>
<!-- _slim_vncserver&#45;&gt;slim_desktop -->
<g id="edge2" class="edge"><title>_slim_vncserver&#45;&gt;slim_desktop</title>
<path fill="none" stroke="black" d="M643.545,-529.445C577.883,-520.949 469.397,-506.325 376.343,-491 365.532,-489.22 354.02,-487.166 342.968,-485.115"/>
<polygon fill="black" stroke="black" points="343.455,-481.645 332.981,-483.24 342.164,-488.525 343.455,-481.645"/>
</g>
<!-- chj -->
<g id="node4" class="node"><title>chj</title>
<ellipse fill="none" stroke="blue" cx="1117.34" cy="-408" rx="27" ry="18"/>
<text text-anchor="middle" x="1117.34" y="-404.3" font-family="Times,serif" font-size="14.00">chj</text>
</g>
<!-- chj&#45;&gt;chj_bin -->
<g id="edge6" class="edge"><title>chj&#45;&gt;chj_bin</title>
<path fill="none" stroke="black" d="M1096.88,-395.83C1091.92,-393.55 1086.54,-391.418 1081.34,-390 944.849,-352.781 900.815,-398.3 764.343,-361 728.29,-351.146 723.664,-337.222 688.343,-325 635.075,-306.567 571.323,-293.464 529.887,-286.072"/>
<polygon fill="black" stroke="black" points="530.307,-282.593 519.853,-284.316 529.1,-289.488 530.307,-282.593"/>
</g>
<!-- chj_emacs -->
<g id="node6" class="node"><title>chj_emacs</title>
<ellipse fill="none" stroke="blue" cx="1311.34" cy="-343" rx="46.5926" ry="18"/>
<text text-anchor="middle" x="1311.34" y="-339.3" font-family="Times,serif" font-size="14.00">chj&#45;emacs</text>
</g>
<!-- chj&#45;&gt;chj_emacs -->
<g id="edge7" class="edge"><title>chj&#45;&gt;chj_emacs</title>
<path fill="none" stroke="black" d="M1141.13,-399.275C1172.47,-389.097 1228.19,-371.004 1267.32,-358.297"/>
<polygon fill="black" stroke="black" points="1268.45,-361.608 1276.88,-355.191 1266.29,-354.95 1268.45,-361.608"/>
</g>
<!-- cj_git_patchtool -->
<g id="node11" class="node"><title>cj_git_patchtool</title>
<ellipse fill="none" stroke="blue" cx="948.343" cy="-343" rx="64.9885" ry="18"/>
<text text-anchor="middle" x="948.343" y="-339.3" font-family="Times,serif" font-size="14.00">cj&#45;git&#45;patchtool</text>
</g>
<!-- chj&#45;&gt;cj_git_patchtool -->
<g id="edge9" class="edge"><title>chj&#45;&gt;cj_git_patchtool</title>
<path fill="none" stroke="black" d="M1096.19,-396.546C1091.36,-394.287 1086.21,-391.983 1081.34,-390 1054.58,-379.09 1024.15,-368.44 999.158,-360.14"/>
<polygon fill="black" stroke="black" points="1000.11,-356.768 989.515,-356.964 997.918,-363.416 1000.11,-356.768"/>
</g>
<!-- debianpackages -->
<g id="node15" class="node"><title>debianpackages</title>
<ellipse fill="none" stroke="blue" cx="961.343" cy="-278" rx="66.0889" ry="18"/>
<text text-anchor="middle" x="961.343" y="-274.3" font-family="Times,serif" font-size="14.00">debianpackages</text>
</g>
<!-- chj&#45;&gt;debianpackages -->
<g id="edge5" class="edge"><title>chj&#45;&gt;debianpackages</title>
<path fill="none" stroke="black" d="M1105.58,-391.442C1091.77,-373.863 1067.53,-345.089 1042.34,-325 1030.02,-315.169 1015.33,-306.154 1001.87,-298.759"/>
<polygon fill="black" stroke="black" points="1003.26,-295.534 992.789,-293.909 999.96,-301.708 1003.26,-295.534"/>
</g>
<!-- fastrandom -->
<g id="node19" class="node"><title>fastrandom</title>
<ellipse fill="none" stroke="blue" cx="1196.34" cy="-343" rx="50.8918" ry="18"/>
<text text-anchor="middle" x="1196.34" y="-339.3" font-family="Times,serif" font-size="14.00">fastrandom</text>
</g>
<!-- chj&#45;&gt;fastrandom -->
<g id="edge8" class="edge"><title>chj&#45;&gt;fastrandom</title>
<path fill="none" stroke="black" d="M1134.1,-393.639C1144.08,-385.676 1157.01,-375.365 1168.5,-366.206"/>
<polygon fill="black" stroke="black" points="1170.91,-368.762 1176.54,-359.791 1166.54,-363.289 1170.91,-368.762"/>
</g>
<!-- git_sign -->
<g id="node27" class="node"><title>git_sign</title>
<ellipse fill="none" stroke="blue" cx="761.343" cy="-83" rx="37.8943" ry="18"/>
<text text-anchor="middle" x="761.343" y="-79.3" font-family="Times,serif" font-size="14.00">git&#45;sign</text>
</g>
<!-- chj&#45;&gt;git_sign -->
<g id="edge4" class="edge"><title>chj&#45;&gt;git_sign</title>
<path fill="none" stroke="black" d="M1111.49,-390.18C1100.58,-360.8 1074.72,-299.5 1036.34,-260 963.72,-185.248 853.561,-127.085 797.245,-100.242"/>
<polygon fill="black" stroke="black" points="798.567,-96.9963 788.029,-95.9008 795.584,-103.329 798.567,-96.9963"/>
</g>
<!-- chj_bin&#45;&gt;_bs -->
<g id="edge10" class="edge"><title>chj_bin&#45;&gt;_bs</title>
<path fill="none" stroke="black" d="M455.696,-268.204C433.107,-260.728 402.425,-248.416 379.343,-231 349.588,-208.549 338.845,-201.116 326.343,-166 320.977,-150.927 321.128,-145.126 326.343,-130 329.337,-121.318 334.718,-113.021 340.422,-105.925"/>
<polygon fill="black" stroke="black" points="343.224,-108.037 347.143,-98.1938 337.941,-103.444 343.224,-108.037"/>
</g>
<!-- chj_perllib -->
<g id="node9" class="node"><title>chj_perllib</title>
<ellipse fill="none" stroke="blue" cx="435.343" cy="-213" rx="47.3916" ry="18"/>
<text text-anchor="middle" x="435.343" y="-209.3" font-family="Times,serif" font-size="14.00">chj&#45;perllib</text>
</g>
<!-- chj_bin&#45;&gt;chj_perllib -->
<g id="edge12" class="edge"><title>chj_bin&#45;&gt;chj_perllib</title>
<path fill="none" stroke="black" d="M473.474,-261.102C467.926,-254.25 461.312,-246.079 455.161,-238.481"/>
<polygon fill="black" stroke="black" points="457.755,-236.123 448.743,-230.553 452.314,-240.527 457.755,-236.123"/>
</g>
<!-- chj_bin&#45;&gt;git_sign -->
<g id="edge11" class="edge"><title>chj_bin&#45;&gt;git_sign</title>
<path fill="none" stroke="black" d="M488.176,-259.918C492.444,-228.991 505.974,-163.797 546.343,-130 571.416,-109.008 659.234,-95.5102 714.578,-88.878"/>
<polygon fill="black" stroke="black" points="714.984,-92.3544 724.511,-87.7193 714.173,-85.4016 714.984,-92.3544"/>
</g>
<!-- chj_emacs_checkout -->
<g id="node7" class="node"><title>chj_emacs_checkout</title>
<ellipse fill="none" stroke="blue" cx="1381.34" cy="-278" rx="81.4863" ry="18"/>
<text text-anchor="middle" x="1381.34" y="-274.3" font-family="Times,serif" font-size="14.00">chj&#45;emacs&#45;checkout</text>
</g>
<!-- chj_emacs&#45;&gt;chj_emacs_checkout -->
<g id="edge13" class="edge"><title>chj_emacs&#45;&gt;chj_emacs_checkout</title>
<path fill="none" stroke="black" d="M1329.01,-326.102C1337.03,-318.885 1346.67,-310.206 1355.48,-302.274"/>
<polygon fill="black" stroke="black" points="1357.86,-304.844 1362.95,-295.553 1353.18,-299.641 1357.86,-304.844"/>
</g>
<!-- chj_emacs_checkout&#45;&gt;git_sign -->
<g id="edge14" class="edge"><title>chj_emacs_checkout&#45;&gt;git_sign</title>
<path fill="none" stroke="black" d="M1322.08,-265.676C1258.76,-253.432 1166.46,-235.108 1159.34,-231 1107.27,-200.936 1122.23,-158.593 1069.34,-130 1025.22,-106.15 883.292,-92.7095 808.488,-87.1167"/>
<polygon fill="black" stroke="black" points="808.624,-83.6174 798.396,-86.3793 808.114,-90.5987 808.624,-83.6174"/>
</g>
<!-- chj_fastrandom -->
<g id="node8" class="node"><title>chj_fastrandom</title>
<ellipse fill="none" stroke="green" cx="1265.34" cy="-148" rx="64.189" ry="18"/>
<text text-anchor="middle" x="1265.34" y="-144.3" font-family="Times,serif" font-size="14.00">chj&#45;fastrandom</text>
</g>
<!-- chj_fastrandom&#45;&gt;git_sign -->
<g id="edge15" class="edge"><title>chj_fastrandom&#45;&gt;git_sign</title>
<path fill="none" stroke="black" d="M1217.65,-135.758C1207.67,-133.645 1197.19,-131.6 1187.34,-130 1050.49,-107.764 887.104,-93.5229 808.36,-87.422"/>
<polygon fill="black" stroke="black" points="808.513,-83.9236 798.275,-86.6495 807.979,-90.9031 808.513,-83.9236"/>
</g>
<!-- chj_perllib_checkout -->
<g id="node10" class="node"><title>chj_perllib_checkout</title>
<ellipse fill="none" stroke="blue" cx="417.343" cy="-148" rx="81.7856" ry="18"/>
<text text-anchor="middle" x="417.343" y="-144.3" font-family="Times,serif" font-size="14.00">chj&#45;perllib&#45;checkout</text>
</g>
<!-- chj_perllib&#45;&gt;chj_perllib_checkout -->
<g id="edge16" class="edge"><title>chj_perllib&#45;&gt;chj_perllib_checkout</title>
<path fill="none" stroke="black" d="M430.425,-194.785C428.758,-188.951 426.854,-182.288 425.025,-175.885"/>
<polygon fill="black" stroke="black" points="428.368,-174.848 422.256,-166.194 421.638,-176.771 428.368,-174.848"/>
</g>
<!-- chj_perllib_checkout&#45;&gt;_bs -->
<g id="edge17" class="edge"><title>chj_perllib_checkout&#45;&gt;_bs</title>
<path fill="none" stroke="black" d="M402.604,-130.117C396.435,-123.051 389.165,-114.723 382.513,-107.103"/>
<polygon fill="black" stroke="black" points="384.831,-104.437 375.618,-99.2054 379.558,-109.04 384.831,-104.437"/>
</g>
<!-- chj_perllib_checkout&#45;&gt;git_sign -->
<g id="edge18" class="edge"><title>chj_perllib_checkout&#45;&gt;git_sign</title>
<path fill="none" stroke="black" d="M478.052,-135.882C546.427,-123.36 655.923,-103.307 716.821,-92.1538"/>
<polygon fill="black" stroke="black" points="717.679,-95.555 726.885,-90.3107 716.418,-88.6695 717.679,-95.555"/>
</g>
<!-- cj_git_patchtool&#45;&gt;chj_bin -->
<g id="edge20" class="edge"><title>cj_git_patchtool&#45;&gt;chj_bin</title>
<path fill="none" stroke="black" d="M893.117,-333.394C875.035,-330.636 854.842,-327.619 836.343,-325 726.616,-309.463 597.274,-292.924 530.774,-284.551"/>
<polygon fill="black" stroke="black" points="531.012,-281.053 520.653,-283.279 530.138,-287.999 531.012,-281.053"/>
</g>
<!-- cj_git_patchtool&#45;&gt;debianpackages -->
<g id="edge19" class="edge"><title>cj_git_patchtool&#45;&gt;debianpackages</title>
<path fill="none" stroke="black" d="M951.895,-324.785C953.071,-319.09 954.409,-312.605 955.701,-306.343"/>
<polygon fill="black" stroke="black" points="959.202,-306.695 957.795,-296.194 952.346,-305.281 959.202,-306.695"/>
</g>
<!-- cj_git_patchtool&#45;&gt;git_sign -->
<g id="edge21" class="edge"><title>cj_git_patchtool&#45;&gt;git_sign</title>
<path fill="none" stroke="black" d="M892.404,-333.667C849.336,-326.03 794.796,-313.282 780.343,-296 736.215,-243.231 746.216,-155.109 754.959,-110.95"/>
<polygon fill="black" stroke="black" points="758.425,-111.475 757.065,-100.968 751.576,-110.03 758.425,-111.475"/>
</g>
<!-- cplusplus -->
<g id="node12" class="node"><title>cplusplus</title>
<ellipse fill="none" stroke="blue" cx="833.343" cy="-278" rx="44.393" ry="18"/>
<text text-anchor="middle" x="833.343" y="-274.3" font-family="Times,serif" font-size="14.00">cplusplus</text>
</g>
<!-- cplusplus&#45;&gt;perhaps_aptupdate -->
<g id="edge22" class="edge"><title>cplusplus&#45;&gt;perhaps_aptupdate</title>
<path fill="none" stroke="black" d="M866.258,-265.827C872.871,-263.757 879.799,-261.711 886.343,-260 976.165,-236.523 1238.55,-185.687 1363.57,-161.839"/>
<polygon fill="black" stroke="black" points="1364.26,-165.273 1373.42,-159.962 1362.95,-158.396 1364.26,-165.273"/>
</g>
<!-- debian_emacs -->
<g id="node13" class="node"><title>debian_emacs</title>
<ellipse fill="none" stroke="blue" cx="1775.34" cy="-538" rx="59.5901" ry="18"/>
<text text-anchor="middle" x="1775.34" y="-534.3" font-family="Times,serif" font-size="14.00">debian&#45;emacs</text>
</g>
<!-- debian_upgrade -->
<g id="node14" class="node"><title>debian_upgrade</title>
<ellipse fill="none" stroke="blue" cx="1566.34" cy="-213" rx="66.8882" ry="18"/>
<text text-anchor="middle" x="1566.34" y="-209.3" font-family="Times,serif" font-size="14.00">debian_upgrade</text>
</g>
<!-- debian_upgrade&#45;&gt;perhaps_aptupdate -->
<g id="edge23" class="edge"><title>debian_upgrade&#45;&gt;perhaps_aptupdate</title>
<path fill="none" stroke="black" d="M1534.35,-197.07C1516.26,-188.627 1493.41,-177.964 1473.83,-168.827"/>
<polygon fill="black" stroke="black" points="1475.06,-165.538 1464.52,-164.481 1472.1,-171.881 1475.06,-165.538"/>
</g>
<!-- urxvt -->
<g id="node49" class="node"><title>urxvt</title>
<ellipse fill="none" stroke="blue" cx="1680.34" cy="-213" rx="29.4969" ry="18"/>
<text text-anchor="middle" x="1680.34" y="-209.3" font-family="Times,serif" font-size="14.00">urxvt</text>
</g>
<!-- debianpackages&#45;&gt;urxvt -->
<g id="edge24" class="edge"><title>debianpackages&#45;&gt;urxvt</title>
<path fill="none" stroke="black" d="M1015.81,-267.699C1034.34,-264.831 1055.2,-261.924 1074.34,-260 1325.85,-234.723 1396.57,-290.062 1642.34,-231 1644.66,-230.444 1647,-229.751 1649.33,-228.964"/>
<polygon fill="black" stroke="black" points="1650.67,-232.199 1658.73,-225.317 1648.14,-225.673 1650.67,-232.199"/>
</g>
<!-- dnsresolver -->
<g id="node16" class="node"><title>dnsresolver</title>
<ellipse fill="none" stroke="green" cx="1549.34" cy="-668" rx="51.1914" ry="18"/>
<text text-anchor="middle" x="1549.34" y="-664.3" font-family="Times,serif" font-size="14.00">dnsresolver</text>
</g>
<!-- dotconfig_xfce4_checkout -->
<g id="node17" class="node"><title>dotconfig_xfce4_checkout</title>
<ellipse fill="none" stroke="blue" cx="178.343" cy="-148" rx="101.282" ry="18"/>
<text text-anchor="middle" x="178.343" y="-144.3" font-family="Times,serif" font-size="14.00">dotconfig&#45;xfce4&#45;checkout</text>
</g>
<!-- dotconfig_xfce4_checkout&#45;&gt;_bs -->
<g id="edge25" class="edge"><title>dotconfig_xfce4_checkout&#45;&gt;_bs</title>
<path fill="none" stroke="black" d="M222.884,-131.749C255.66,-120.527 299.502,-105.516 329.216,-95.3424"/>
<polygon fill="black" stroke="black" points="330.388,-98.6408 338.715,-92.0901 328.12,-92.0182 330.388,-98.6408"/>
</g>
<!-- dotconfig_xfce4_checkout&#45;&gt;git_sign -->
<g id="edge26" class="edge"><title>dotconfig_xfce4_checkout&#45;&gt;git_sign</title>
<path fill="none" stroke="black" d="M260.526,-137.427C281.947,-134.968 305.006,-132.354 326.343,-130 467.754,-114.402 635.149,-96.999 714.77,-88.7859"/>
<polygon fill="black" stroke="black" points="715.365,-92.2432 724.954,-87.7362 714.647,-85.2801 715.365,-92.2432"/>
</g>
<!-- emacs -->
<g id="node18" class="node"><title>emacs</title>
<ellipse fill="none" stroke="blue" cx="1798.34" cy="-603" rx="33.2948" ry="18"/>
<text text-anchor="middle" x="1798.34" y="-599.3" font-family="Times,serif" font-size="14.00">emacs</text>
</g>
<!-- emacs&#45;&gt;chj_emacs -->
<g id="edge28" class="edge"><title>emacs&#45;&gt;chj_emacs</title>
<path fill="none" stroke="black" d="M1774.42,-590.275C1755.79,-581.089 1729.33,-567.914 1706.34,-556 1572.37,-486.572 1414.76,-400.708 1346.16,-363.126"/>
<polygon fill="black" stroke="black" points="1347.54,-359.888 1337.09,-358.15 1344.17,-366.026 1347.54,-359.888"/>
</g>
<!-- emacs&#45;&gt;debian_emacs -->
<g id="edge27" class="edge"><title>emacs&#45;&gt;debian_emacs</title>
<path fill="none" stroke="black" d="M1792.18,-585.117C1789.96,-579.044 1787.41,-572.039 1784.96,-565.353"/>
<polygon fill="black" stroke="black" points="1788.24,-564.123 1781.52,-555.929 1781.67,-566.523 1788.24,-564.123"/>
</g>
<!-- fastrandom&#45;&gt;_usr_local_bin_fastrandom -->
<g id="edge29" class="edge"><title>fastrandom&#45;&gt;_usr_local_bin_fastrandom</title>
<path fill="none" stroke="black" d="M1192.52,-324.785C1191.25,-319.09 1189.81,-312.605 1188.42,-306.343"/>
<polygon fill="black" stroke="black" points="1191.75,-305.197 1186.16,-296.194 1184.92,-306.715 1191.75,-305.197"/>
</g>
<!-- firefox -->
<g id="node20" class="node"><title>firefox</title>
<ellipse fill="none" stroke="blue" cx="1819.34" cy="-408" rx="34.394" ry="18"/>
<text text-anchor="middle" x="1819.34" y="-404.3" font-family="Times,serif" font-size="14.00">firefox</text>
</g>
<!-- firefox&#45;&gt;perhaps_aptupdate -->
<g id="edge30" class="edge"><title>firefox&#45;&gt;perhaps_aptupdate</title>
<path fill="none" stroke="black" d="M1816.67,-389.879C1809.29,-348.841 1784.6,-244.594 1718.34,-195 1686.99,-171.534 1588.17,-159.614 1515.21,-153.865"/>
<polygon fill="black" stroke="black" points="1515.33,-150.364 1505.1,-153.094 1514.8,-157.344 1515.33,-150.364"/>
</g>
<!-- fperl -->
<g id="node21" class="node"><title>fperl</title>
<ellipse fill="none" stroke="green" cx="800.343" cy="-343" rx="27.0966" ry="18"/>
<text text-anchor="middle" x="800.343" y="-339.3" font-family="Times,serif" font-size="14.00">fperl</text>
</g>
<!-- fperl&#45;&gt;chj_bin -->
<g id="edge33" class="edge"><title>fperl&#45;&gt;chj_bin</title>
<path fill="none" stroke="black" d="M778.541,-331.889C772.429,-329.351 765.712,-326.831 759.343,-325 680.797,-302.414 586.15,-289.538 531.445,-283.437"/>
<polygon fill="black" stroke="black" points="531.701,-279.944 521.381,-282.341 530.943,-286.903 531.701,-279.944"/>
</g>
<!-- fperl&#45;&gt;debianpackages -->
<g id="edge32" class="edge"><title>fperl&#45;&gt;debianpackages</title>
<path fill="none" stroke="black" d="M823.411,-332.974C847.419,-323.579 885.648,-308.62 915.777,-296.83"/>
<polygon fill="black" stroke="black" points="917.209,-300.028 925.246,-293.125 914.658,-293.51 917.209,-300.028"/>
</g>
<!-- fperl&#45;&gt;git_sign -->
<g id="edge31" class="edge"><title>fperl&#45;&gt;git_sign</title>
<path fill="none" stroke="black" d="M780.322,-330.736C768.323,-322.761 754.119,-310.854 747.343,-296 719.258,-234.436 738.615,-152.238 751.841,-110.594"/>
<polygon fill="black" stroke="black" points="755.224,-111.511 755.039,-100.918 748.578,-109.314 755.224,-111.511"/>
</g>
<!-- full_desktop -->
<g id="node22" class="node"><title>full_desktop</title>
<ellipse fill="none" stroke="blue" cx="286.343" cy="-538" rx="53.0913" ry="18"/>
<text text-anchor="middle" x="286.343" y="-534.3" font-family="Times,serif" font-size="14.00">full&#45;desktop</text>
</g>
<!-- full_desktop&#45;&gt;slim_desktop -->
<g id="edge34" class="edge"><title>full_desktop&#45;&gt;slim_desktop</title>
<path fill="none" stroke="black" d="M286.343,-519.785C286.343,-514.09 286.343,-507.605 286.343,-501.343"/>
<polygon fill="black" stroke="black" points="289.843,-501.194 286.343,-491.194 282.843,-501.194 289.843,-501.194"/>
</g>
<!-- full_desktop_autoremove -->
<g id="node23" class="node"><title>full_desktop_autoremove</title>
<ellipse fill="none" stroke="green" cx="286.343" cy="-603" rx="99.3824" ry="18"/>
<text text-anchor="middle" x="286.343" y="-599.3" font-family="Times,serif" font-size="14.00">full&#45;desktop_autoremove</text>
</g>
<!-- full_desktop_autoremove&#45;&gt;full_desktop -->
<g id="edge35" class="edge"><title>full_desktop_autoremove&#45;&gt;full_desktop</title>
<path fill="none" stroke="black" d="M286.343,-584.785C286.343,-579.09 286.343,-572.605 286.343,-566.343"/>
<polygon fill="black" stroke="black" points="289.843,-566.194 286.343,-556.194 282.843,-566.194 289.843,-566.194"/>
</g>
<!-- full_vncserver -->
<g id="node24" class="node"><title>full_vncserver</title>
<ellipse fill="none" stroke="blue" cx="1437.34" cy="-603" rx="59.5901" ry="18"/>
<text text-anchor="middle" x="1437.34" y="-599.3" font-family="Times,serif" font-size="14.00">full&#45;vncserver</text>
</g>
<!-- full_vncserver&#45;&gt;_slim_vncserver -->
<g id="edge36" class="edge"><title>full_vncserver&#45;&gt;_slim_vncserver</title>
<path fill="none" stroke="black" d="M1383.34,-595.165C1356.09,-591.843 1322.49,-587.943 1292.34,-585 1107.97,-566.999 890.578,-551.501 778.529,-543.935"/>
<polygon fill="black" stroke="black" points="778.56,-540.429 768.347,-543.25 778.09,-547.413 778.56,-540.429"/>
</g>
<!-- full_vncserver&#45;&gt;debianpackages -->
<g id="edge37" class="edge"><title>full_vncserver&#45;&gt;debianpackages</title>
<path fill="none" stroke="black" d="M1455.76,-585.498C1463.37,-577.449 1471.35,-567.112 1475.34,-556 1480.76,-540.944 1479.35,-535.491 1475.34,-520 1450.55,-424.08 1450.11,-379.445 1367.34,-325 1312.68,-289.043 1139.27,-304.092 1074.34,-296 1058.92,-294.078 1042.36,-291.74 1026.79,-289.421"/>
<polygon fill="black" stroke="black" points="1027.14,-285.934 1016.73,-287.905 1026.1,-292.856 1027.14,-285.934"/>
</g>
<!-- system -->
<g id="node47" class="node"><title>system</title>
<ellipse fill="none" stroke="blue" cx="1430.34" cy="-538" rx="35.9954" ry="18"/>
<text text-anchor="middle" x="1430.34" y="-534.3" font-family="Times,serif" font-size="14.00">system</text>
</g>
<!-- full_vncserver&#45;&gt;system -->
<g id="edge39" class="edge"><title>full_vncserver&#45;&gt;system</title>
<path fill="none" stroke="black" d="M1435.43,-584.785C1434.8,-579.09 1434.08,-572.605 1433.38,-566.343"/>
<polygon fill="black" stroke="black" points="1436.84,-565.747 1432.25,-556.194 1429.88,-566.52 1436.84,-565.747"/>
</g>
<!-- full_vncserver&#45;&gt;urxvt -->
<g id="edge38" class="edge"><title>full_vncserver&#45;&gt;urxvt</title>
<path fill="none" stroke="black" d="M1478.91,-590.014C1549.99,-568.267 1687.34,-520.262 1687.34,-474 1687.34,-474 1687.34,-474 1687.34,-342 1687.34,-307.337 1684.75,-267.473 1682.72,-241.567"/>
<polygon fill="black" stroke="black" points="1686.19,-241.059 1681.9,-231.375 1679.22,-241.625 1686.19,-241.059"/>
</g>
<!-- gambit -->
<g id="node25" class="node"><title>gambit</title>
<ellipse fill="none" stroke="blue" cx="1036.34" cy="-408" rx="35.9954" ry="18"/>
<text text-anchor="middle" x="1036.34" y="-404.3" font-family="Times,serif" font-size="14.00">gambit</text>
</g>
<!-- gambit&#45;&gt;chj_bin -->
<g id="edge43" class="edge"><title>gambit&#45;&gt;chj_bin</title>
<path fill="none" stroke="black" d="M1000.76,-405.844C891.074,-402.001 563.163,-388.318 524.343,-361 506.154,-348.2 496.458,-324.434 491.425,-305.771"/>
<polygon fill="black" stroke="black" points="494.824,-304.935 489.085,-296.029 488.018,-306.57 494.824,-304.935"/>
</g>
<!-- gambit&#45;&gt;chj_emacs -->
<g id="edge44" class="edge"><title>gambit&#45;&gt;chj_emacs</title>
<path fill="none" stroke="black" d="M1063.19,-395.874C1069.1,-393.703 1075.38,-391.605 1081.34,-390 1157.48,-369.526 1179.62,-379.127 1256.34,-361 1259.96,-360.145 1263.69,-359.18 1267.42,-358.155"/>
<polygon fill="black" stroke="black" points="1268.57,-361.464 1277.21,-355.335 1266.64,-354.737 1268.57,-361.464"/>
</g>
<!-- gambit&#45;&gt;cplusplus -->
<g id="edge41" class="edge"><title>gambit&#45;&gt;cplusplus</title>
<path fill="none" stroke="black" d="M1000.95,-405.105C965.319,-401.483 910.589,-391.032 874.343,-361 857.256,-346.843 846.62,-323.786 840.477,-305.722"/>
<polygon fill="black" stroke="black" points="843.769,-304.524 837.439,-296.028 837.09,-306.617 843.769,-304.524"/>
</g>
<!-- gambit&#45;&gt;debianpackages -->
<g id="edge42" class="edge"><title>gambit&#45;&gt;debianpackages</title>
<path fill="none" stroke="black" d="M1036.99,-389.709C1036.85,-372.173 1034.43,-344.86 1022.34,-325 1016.43,-315.285 1007.63,-306.917 998.548,-300.084"/>
<polygon fill="black" stroke="black" points="1000.4,-297.108 990.199,-294.246 996.388,-302.845 1000.4,-297.108"/>
</g>
<!-- gambit_checkout -->
<g id="node26" class="node"><title>gambit_checkout</title>
<ellipse fill="none" stroke="blue" cx="625.343" cy="-148" rx="70.3881" ry="18"/>
<text text-anchor="middle" x="625.343" y="-144.3" font-family="Times,serif" font-size="14.00">gambit&#45;checkout</text>
</g>
<!-- gambit&#45;&gt;gambit_checkout -->
<g id="edge40" class="edge"><title>gambit&#45;&gt;gambit_checkout</title>
<path fill="none" stroke="black" d="M1001.06,-404.53C936.585,-399.454 802.827,-386.158 764.343,-361 694.82,-315.551 652.259,-221.895 634.692,-175.81"/>
<polygon fill="black" stroke="black" points="637.891,-174.372 631.134,-166.212 631.328,-176.805 637.891,-174.372"/>
</g>
<!-- virtualmem_3GB -->
<g id="node50" class="node"><title>virtualmem_3GB</title>
<ellipse fill="none" stroke="blue" cx="606.343" cy="-343" rx="73.387" ry="18"/>
<text text-anchor="middle" x="606.343" y="-339.3" font-family="Times,serif" font-size="14.00">virtualmem_3GB</text>
</g>
<!-- gambit&#45;&gt;virtualmem_3GB -->
<g id="edge45" class="edge"><title>gambit&#45;&gt;virtualmem_3GB</title>
<path fill="none" stroke="black" d="M1001.67,-403.044C939.655,-395.813 805.686,-379.492 693.343,-361 686.058,-359.801 678.447,-358.454 670.89,-357.057"/>
<polygon fill="black" stroke="black" points="671.491,-353.609 661.017,-355.2 670.197,-360.488 671.491,-353.609"/>
</g>
<!-- gambit_checkout&#45;&gt;_bs -->
<g id="edge46" class="edge"><title>gambit_checkout&#45;&gt;_bs</title>
<path fill="none" stroke="black" d="M575.875,-135.15C523.722,-122.657 442.908,-103.299 397.113,-92.3288"/>
<polygon fill="black" stroke="black" points="397.891,-88.9163 387.35,-89.9904 396.26,-95.7237 397.891,-88.9163"/>
</g>
<!-- gambit_checkout&#45;&gt;git_sign -->
<g id="edge47" class="edge"><title>gambit_checkout&#45;&gt;git_sign</title>
<path fill="none" stroke="black" d="M657.919,-131.91C678.362,-122.44 704.733,-110.224 725.729,-100.498"/>
<polygon fill="black" stroke="black" points="727.355,-103.602 734.957,-96.2229 724.412,-97.2504 727.355,-103.602"/>
</g>
<!-- key -->
<g id="node29" class="node"><title>key</title>
<ellipse fill="none" stroke="blue" cx="1249.34" cy="-18" rx="27" ry="18"/>
<text text-anchor="middle" x="1249.34" y="-14.3" font-family="Times,serif" font-size="14.00">key</text>
</g>
<!-- git_sign&#45;&gt;key -->
<g id="edge48" class="edge"><title>git_sign&#45;&gt;key</title>
<path fill="none" stroke="black" d="M797.227,-77.3675C887.318,-65.7369 1122.29,-35.4019 1212.94,-23.6997"/>
<polygon fill="black" stroke="black" points="1213.54,-27.1513 1223.01,-22.3996 1212.64,-20.2089 1213.54,-27.1513"/>
</g>
<!-- graph_deps -->
<g id="node28" class="node"><title>graph_deps</title>
<ellipse fill="none" stroke="green" cx="1327.34" cy="-213" rx="50.0912" ry="18"/>
<text text-anchor="middle" x="1327.34" y="-209.3" font-family="Times,serif" font-size="14.00">graph&#45;deps</text>
</g>
<!-- graph_deps&#45;&gt;perhaps_aptupdate -->
<g id="edge49" class="edge"><title>graph_deps&#45;&gt;perhaps_aptupdate</title>
<path fill="none" stroke="black" d="M1351.73,-197.229C1364.95,-189.218 1381.53,-179.173 1396.14,-170.327"/>
<polygon fill="black" stroke="black" points="1398.19,-173.177 1404.93,-165.003 1394.56,-167.19 1398.19,-173.177"/>
</g>
<!-- load_profile -->
<g id="node30" class="node"><title>load_profile</title>
<ellipse fill="none" stroke="green" cx="77.3431" cy="-473" rx="53.8905" ry="18"/>
<text text-anchor="middle" x="77.3431" y="-469.3" font-family="Times,serif" font-size="14.00">load_profile</text>
</g>
<!-- xfce4_load_profile -->
<g id="node53" class="node"><title>xfce4_load_profile</title>
<ellipse fill="none" stroke="blue" cx="77.3431" cy="-408" rx="77.1866" ry="18"/>
<text text-anchor="middle" x="77.3431" y="-404.3" font-family="Times,serif" font-size="14.00">xfce4_load_profile</text>
</g>
<!-- load_profile&#45;&gt;xfce4_load_profile -->
<g id="edge50" class="edge"><title>load_profile&#45;&gt;xfce4_load_profile</title>
<path fill="none" stroke="black" d="M77.3431,-454.785C77.3431,-449.09 77.3431,-442.605 77.3431,-436.343"/>
<polygon fill="black" stroke="black" points="80.8432,-436.194 77.3431,-426.194 73.8432,-436.194 80.8432,-436.194"/>
</g>
<!-- locales -->
<g id="node31" class="node"><title>locales</title>
<ellipse fill="none" stroke="blue" cx="720.343" cy="-473" rx="35.194" ry="18"/>
<text text-anchor="middle" x="720.343" y="-469.3" font-family="Times,serif" font-size="14.00">locales</text>
</g>
<!-- locales&#45;&gt;chj_bin -->
<g id="edge51" class="edge"><title>locales&#45;&gt;chj_bin</title>
<path fill="none" stroke="black" d="M687.458,-466.088C636.916,-455.115 541.191,-426.471 495.343,-361 484.254,-345.165 482.357,-323.231 483.041,-306.032"/>
<polygon fill="black" stroke="black" points="486.534,-306.252 483.742,-296.032 479.551,-305.763 486.534,-306.252"/>
</g>
<!-- mercurial -->
<g id="node32" class="node"><title>mercurial</title>
<ellipse fill="none" stroke="green" cx="280.343" cy="-343" rx="44.6926" ry="18"/>
<text text-anchor="middle" x="280.343" y="-339.3" font-family="Times,serif" font-size="14.00">mercurial</text>
</g>
<!-- mercurial&#45;&gt;chj_bin -->
<g id="edge52" class="edge"><title>mercurial&#45;&gt;chj_bin</title>
<path fill="none" stroke="black" d="M315.649,-331.772C354.331,-320.533 413.87,-303.13 436.343,-296 440.167,-294.787 444.143,-293.492 448.11,-292.178"/>
<polygon fill="black" stroke="black" points="449.485,-295.409 457.853,-288.912 447.259,-288.772 449.485,-295.409"/>
</g>
<!-- moduser -->
<g id="node33" class="node"><title>moduser</title>
<ellipse fill="none" stroke="blue" cx="1316.34" cy="-473" rx="41.6928" ry="18"/>
<text text-anchor="middle" x="1316.34" y="-469.3" font-family="Times,serif" font-size="14.00">moduser</text>
</g>
<!-- moduser&#45;&gt;chj -->
<g id="edge53" class="edge"><title>moduser&#45;&gt;chj</title>
<path fill="none" stroke="black" d="M1283.48,-461.597C1246.85,-450.001 1187.92,-431.345 1150.98,-419.65"/>
<polygon fill="black" stroke="black" points="1151.77,-416.229 1141.18,-416.547 1149.66,-422.902 1151.77,-416.229"/>
</g>
<!-- moduser&#45;&gt;key -->
<g id="edge54" class="edge"><title>moduser&#45;&gt;key</title>
<path fill="none" stroke="black" d="M1352.77,-464.303C1469.68,-437.922 1821.88,-344.439 1718.34,-195 1617.22,-49.0475 1379.09,-23.9524 1286.8,-19.7736"/>
<polygon fill="black" stroke="black" points="1286.67,-16.266 1276.54,-19.3695 1286.4,-23.2605 1286.67,-16.266"/>
</g>
<!-- nosudo -->
<g id="node34" class="node"><title>nosudo</title>
<ellipse fill="none" stroke="green" cx="1655.34" cy="-668" rx="36.2938" ry="18"/>
<text text-anchor="middle" x="1655.34" y="-664.3" font-family="Times,serif" font-size="14.00">nosudo</text>
</g>
<!-- nosudo_auto -->
<g id="node35" class="node"><title>nosudo_auto</title>
<ellipse fill="none" stroke="blue" cx="1569.34" cy="-603" rx="53.8905" ry="18"/>
<text text-anchor="middle" x="1569.34" y="-599.3" font-family="Times,serif" font-size="14.00">nosudo&#45;auto</text>
</g>
<!-- qemu -->
<g id="node37" class="node"><title>qemu</title>
<ellipse fill="none" stroke="green" cx="1146.34" cy="-473" rx="30.5947" ry="18"/>
<text text-anchor="middle" x="1146.34" y="-469.3" font-family="Times,serif" font-size="14.00">qemu</text>
</g>
<!-- qemu&#45;&gt;gambit -->
<g id="edge56" class="edge"><title>qemu&#45;&gt;gambit</title>
<path fill="none" stroke="black" d="M1125.13,-459.853C1108.9,-450.554 1086.25,-437.582 1067.89,-427.067"/>
<polygon fill="black" stroke="black" points="1069.42,-423.91 1059,-421.977 1065.94,-429.984 1069.42,-423.91"/>
</g>
<!-- qemu&#45;&gt;git_sign -->
<g id="edge55" class="edge"><title>qemu&#45;&gt;git_sign</title>
<path fill="none" stroke="black" d="M1171.39,-462.508C1241.85,-435.226 1438.76,-354.788 1471.34,-296 1479.1,-282.006 1481.94,-271.984 1471.34,-260 1436.33,-220.424 1284.3,-250.887 1235.34,-231 1166.58,-203.064 1170.94,-158.342 1102.34,-130 1050.23,-108.47 889.552,-93.6795 808.757,-87.3963"/>
<polygon fill="black" stroke="black" points="808.613,-83.8751 798.375,-86.6016 808.078,-90.8546 808.613,-83.8751"/>
</g>
<!-- remove_xserver -->
<g id="node38" class="node"><title>remove_xserver</title>
<ellipse fill="none" stroke="green" cx="1776.34" cy="-668" rx="66.0889" ry="18"/>
<text text-anchor="middle" x="1776.34" y="-664.3" font-family="Times,serif" font-size="14.00">remove&#45;xserver</text>
</g>
<!-- schemen -->
<g id="node39" class="node"><title>schemen</title>
<ellipse fill="none" stroke="green" cx="1437.34" cy="-668" rx="42.4939" ry="18"/>
<text text-anchor="middle" x="1437.34" y="-664.3" font-family="Times,serif" font-size="14.00">schemen</text>
</g>
<!-- schemen&#45;&gt;emacs -->
<g id="edge61" class="edge"><title>schemen&#45;&gt;emacs</title>
<path fill="none" stroke="black" d="M1468.4,-655.683C1475.23,-653.524 1482.47,-651.479 1489.34,-650 1606.03,-624.874 1640.58,-650.114 1756.34,-621 1758.97,-620.339 1761.65,-619.549 1764.32,-618.675"/>
<polygon fill="black" stroke="black" points="1765.63,-621.923 1773.85,-615.232 1763.26,-615.339 1765.63,-621.923"/>
</g>
<!-- schemen&#45;&gt;firefox -->
<g id="edge65" class="edge"><title>schemen&#45;&gt;firefox</title>
<path fill="none" stroke="black" d="M1468.1,-655.636C1475.01,-653.452 1482.36,-651.41 1489.34,-650 1527.7,-642.256 1812.96,-648.96 1840.34,-621 1889.28,-571.023 1854.45,-479.185 1832.91,-434.613"/>
<polygon fill="black" stroke="black" points="1836.02,-432.991 1828.43,-425.6 1829.75,-436.112 1836.02,-432.991"/>
</g>
<!-- schemen&#45;&gt;full_vncserver -->
<g id="edge58" class="edge"><title>schemen&#45;&gt;full_vncserver</title>
<path fill="none" stroke="black" d="M1437.34,-649.785C1437.34,-644.09 1437.34,-637.605 1437.34,-631.343"/>
<polygon fill="black" stroke="black" points="1440.84,-631.194 1437.34,-621.194 1433.84,-631.194 1440.84,-631.194"/>
</g>
<!-- schemen&#45;&gt;gambit -->
<g id="edge60" class="edge"><title>schemen&#45;&gt;gambit</title>
<path fill="none" stroke="black" d="M1396.04,-663.898C1329.53,-658.271 1202.3,-644.714 1164.34,-621 1095.19,-577.799 1058.25,-482.252 1043.74,-435.631"/>
<polygon fill="black" stroke="black" points="1047.06,-434.508 1040.83,-425.936 1040.36,-436.52 1047.06,-434.508"/>
</g>
<!-- schemen&#45;&gt;nosudo_auto -->
<g id="edge59" class="edge"><title>schemen&#45;&gt;nosudo_auto</title>
<path fill="none" stroke="black" d="M1464.37,-654.099C1483.43,-645.005 1509.23,-632.689 1530.49,-622.544"/>
<polygon fill="black" stroke="black" points="1532.07,-625.666 1539.59,-618.2 1529.06,-619.349 1532.07,-625.666"/>
</g>
<!-- schemen_lili -->
<g id="node41" class="node"><title>schemen_lili</title>
<ellipse fill="none" stroke="blue" cx="1228.34" cy="-603" rx="54.6905" ry="18"/>
<text text-anchor="middle" x="1228.34" y="-599.3" font-family="Times,serif" font-size="14.00">schemen&#45;lili</text>
</g>
<!-- schemen&#45;&gt;schemen_lili -->
<g id="edge63" class="edge"><title>schemen&#45;&gt;schemen_lili</title>
<path fill="none" stroke="black" d="M1403.76,-656.878C1369.55,-646.565 1316.13,-630.463 1277.23,-618.736"/>
<polygon fill="black" stroke="black" points="1277.75,-615.239 1267.17,-615.704 1275.73,-621.941 1277.75,-615.239"/>
</g>
<!-- schemen_user -->
<g id="node42" class="node"><title>schemen_user</title>
<ellipse fill="none" stroke="blue" cx="1316.34" cy="-538" rx="59.5901" ry="18"/>
<text text-anchor="middle" x="1316.34" y="-534.3" font-family="Times,serif" font-size="14.00">schemen&#45;user</text>
</g>
<!-- schemen&#45;&gt;schemen_user -->
<g id="edge62" class="edge"><title>schemen&#45;&gt;schemen_user</title>
<path fill="none" stroke="black" d="M1408.37,-654.75C1392.41,-646.9 1373.1,-635.466 1359.34,-621 1344.25,-605.131 1333.04,-582.924 1325.86,-565.622"/>
<polygon fill="black" stroke="black" points="1329.02,-564.104 1322.09,-556.087 1322.51,-566.673 1329.02,-564.104"/>
</g>
<!-- schemen&#45;&gt;system -->
<g id="edge57" class="edge"><title>schemen&#45;&gt;system</title>
<path fill="none" stroke="black" d="M1407.23,-655.113C1392.69,-647.659 1376.63,-636.486 1368.34,-621 1360.79,-606.893 1361.15,-599.292 1368.34,-585 1374.38,-573.002 1385.19,-563.349 1396.11,-556.043"/>
<polygon fill="black" stroke="black" points="1398.13,-558.912 1404.81,-550.687 1394.46,-552.952 1398.13,-558.912"/>
</g>
<!-- tmp_passwd -->
<g id="node48" class="node"><title>tmp_passwd</title>
<ellipse fill="none" stroke="grey" cx="1694.34" cy="-603" rx="53.0913" ry="18"/>
<text text-anchor="middle" x="1694.34" y="-599.3" font-family="Times,serif" font-size="14.00">tmp/passwd</text>
</g>
<!-- schemen&#45;&gt;tmp_passwd -->
<g id="edge64" class="edge"><title>schemen&#45;&gt;tmp_passwd</title>
<path fill="none" stroke="black" d="M1469.07,-655.982C1475.72,-653.853 1482.73,-651.745 1489.34,-650 1552.05,-633.452 1569.26,-636.027 1632.34,-621 1636.5,-620.011 1640.79,-618.938 1645.1,-617.828"/>
<polygon fill="black" stroke="black" points="1646.31,-621.127 1655.09,-615.193 1644.53,-614.358 1646.31,-621.127"/>
</g>
<!-- schemen_finish -->
<g id="node40" class="node"><title>schemen_finish</title>
<ellipse fill="none" stroke="green" cx="1925.34" cy="-668" rx="64.9885" ry="18"/>
<text text-anchor="middle" x="1925.34" y="-664.3" font-family="Times,serif" font-size="14.00">schemen&#45;finish</text>
</g>
<!-- schemen_lili&#45;&gt;chj_emacs -->
<g id="edge68" class="edge"><title>schemen_lili&#45;&gt;chj_emacs</title>
<path fill="none" stroke="black" d="M1232.06,-584.988C1235.75,-568.368 1241.65,-542.377 1247.34,-520 1254.73,-490.948 1255.59,-483.344 1265.34,-455 1275.52,-425.447 1289.54,-392.466 1299.42,-370.191"/>
<polygon fill="black" stroke="black" points="1302.62,-371.61 1303.51,-361.052 1296.23,-368.751 1302.62,-371.61"/>
</g>
<!-- schemen_lili&#45;&gt;gambit -->
<g id="edge67" class="edge"><title>schemen_lili&#45;&gt;gambit</title>
<path fill="none" stroke="black" d="M1209.06,-585.782C1184.41,-564.762 1140.81,-526.579 1106.34,-491 1088.26,-472.34 1069.21,-449.809 1055.56,-433.089"/>
<polygon fill="black" stroke="black" points="1057.96,-430.492 1048.94,-424.927 1052.52,-434.9 1057.96,-430.492"/>
</g>
<!-- schemen_lili&#45;&gt;schemen_user -->
<g id="edge66" class="edge"><title>schemen_lili&#45;&gt;schemen_user</title>
<path fill="none" stroke="black" d="M1250.1,-586.427C1260.91,-578.686 1274.15,-569.204 1285.95,-560.758"/>
<polygon fill="black" stroke="black" points="1288.14,-563.499 1294.23,-554.831 1284.06,-557.807 1288.14,-563.499"/>
</g>
<!-- schemen_user&#45;&gt;moduser -->
<g id="edge69" class="edge"><title>schemen_user&#45;&gt;moduser</title>
<path fill="none" stroke="black" d="M1316.34,-519.785C1316.34,-514.09 1316.34,-507.605 1316.34,-501.343"/>
<polygon fill="black" stroke="black" points="1319.84,-501.194 1316.34,-491.194 1312.84,-501.194 1319.84,-501.194"/>
</g>
<!-- set_x_terminal_emulator -->
<g id="node43" class="node"><title>set_x_terminal_emulator</title>
<ellipse fill="none" stroke="blue" cx="267.343" cy="-408" rx="94.7833" ry="18"/>
<text text-anchor="middle" x="267.343" y="-404.3" font-family="Times,serif" font-size="14.00">set&#45;x&#45;terminal&#45;emulator</text>
</g>
<!-- set_x_terminal_emulator&#45;&gt;chj_bin -->
<g id="edge70" class="edge"><title>set_x_terminal_emulator&#45;&gt;chj_bin</title>
<path fill="none" stroke="black" d="M248.294,-390.141C230.581,-372.455 209.299,-344.56 226.343,-325 257.292,-289.483 390.501,-306.854 436.343,-296 440.458,-295.026 444.714,-293.851 448.925,-292.579"/>
<polygon fill="black" stroke="black" points="450.13,-295.868 458.586,-289.484 447.995,-289.202 450.13,-295.868"/>
</g>
<!-- slim_desktop&#45;&gt;chj -->
<g id="edge71" class="edge"><title>slim_desktop&#45;&gt;chj</title>
<path fill="none" stroke="black" d="M341.845,-469.371C516.526,-461.019 1045.59,-435.11 1081.34,-426 1083.52,-425.445 1085.72,-424.758 1087.91,-423.979"/>
<polygon fill="black" stroke="black" points="1089.37,-427.163 1097.29,-420.121 1086.71,-420.69 1089.37,-427.163"/>
</g>
<!-- slim_desktop&#45;&gt;set_x_terminal_emulator -->
<g id="edge72" class="edge"><title>slim_desktop&#45;&gt;set_x_terminal_emulator</title>
<path fill="none" stroke="black" d="M281.151,-454.785C279.392,-448.951 277.382,-442.288 275.451,-435.885"/>
<polygon fill="black" stroke="black" points="278.767,-434.758 272.529,-426.194 272.065,-436.779 278.767,-434.758"/>
</g>
<!-- slim_desktop&#45;&gt;xfce4_load_profile -->
<g id="edge73" class="edge"><title>slim_desktop&#45;&gt;xfce4_load_profile</title>
<path fill="none" stroke="black" d="M246.54,-460.002C214.279,-450.277 168.455,-436.464 132.631,-425.666"/>
<polygon fill="black" stroke="black" points="133.396,-422.241 122.812,-422.706 131.376,-428.943 133.396,-422.241"/>
</g>
<!-- slim_vncserver -->
<g id="node45" class="node"><title>slim_vncserver</title>
<ellipse fill="none" stroke="green" cx="703.343" cy="-603" rx="63.8893" ry="18"/>
<text text-anchor="middle" x="703.343" y="-599.3" font-family="Times,serif" font-size="14.00">slim&#45;vncserver</text>
</g>
<!-- slim_vncserver&#45;&gt;_slim_vncserver -->
<g id="edge74" class="edge"><title>slim_vncserver&#45;&gt;_slim_vncserver</title>
<path fill="none" stroke="black" d="M703.343,-584.785C703.343,-579.09 703.343,-572.605 703.343,-566.343"/>
<polygon fill="black" stroke="black" points="706.843,-566.194 703.343,-556.194 699.843,-566.194 706.843,-566.194"/>
</g>
<!-- swap -->
<g id="node46" class="node"><title>swap</title>
<ellipse fill="none" stroke="green" cx="410.343" cy="-343" rx="28.6953" ry="18"/>
<text text-anchor="middle" x="410.343" y="-339.3" font-family="Times,serif" font-size="14.00">swap</text>
</g>
<!-- swap&#45;&gt;chj_bin -->
<g id="edge75" class="edge"><title>swap&#45;&gt;chj_bin</title>
<path fill="none" stroke="black" d="M427.21,-328.018C437.063,-319.851 449.696,-309.379 460.753,-300.213"/>
<polygon fill="black" stroke="black" points="462.999,-302.897 468.464,-293.82 458.532,-297.508 462.999,-302.897"/>
</g>
<!-- system&#45;&gt;debian_upgrade -->
<g id="edge76" class="edge"><title>system&#45;&gt;debian_upgrade</title>
<path fill="none" stroke="black" d="M1451.06,-523.324C1477.29,-504.74 1521.57,-468.865 1542.34,-426 1571.84,-365.134 1571.47,-283.235 1568.83,-241.277"/>
<polygon fill="black" stroke="black" points="1572.32,-240.99 1568.11,-231.267 1565.34,-241.494 1572.32,-240.99"/>
</g>
<!-- system&#45;&gt;locales -->
<g id="edge77" class="edge"><title>system&#45;&gt;locales</title>
<path fill="none" stroke="black" d="M1404.08,-525.615C1398.03,-523.404 1391.54,-521.355 1385.34,-520 1266.72,-494.078 895.722,-479.744 765.819,-475.418"/>
<polygon fill="black" stroke="black" points="765.555,-471.908 755.446,-475.077 765.325,-478.904 765.555,-471.908"/>
</g>
<!-- urxvt&#45;&gt;perhaps_aptupdate -->
<g id="edge78" class="edge"><title>urxvt&#45;&gt;perhaps_aptupdate</title>
<path fill="none" stroke="black" d="M1658.14,-201.15C1653.03,-198.911 1647.56,-196.716 1642.34,-195 1596.77,-180.016 1544.04,-168.52 1502.7,-160.767"/>
<polygon fill="black" stroke="black" points="1503.18,-157.297 1492.71,-158.926 1501.91,-164.181 1503.18,-157.297"/>
</g>
<!-- virtualmem_3GB&#45;&gt;chj_bin -->
<g id="edge79" class="edge"><title>virtualmem_3GB&#45;&gt;chj_bin</title>
<path fill="none" stroke="black" d="M576.68,-326.427C559.304,-317.304 537.321,-305.763 519.391,-296.35"/>
<polygon fill="black" stroke="black" points="520.912,-293.196 510.431,-291.646 517.658,-299.393 520.912,-293.196"/>
</g>
<!-- vncclient -->
<g id="node51" class="node"><title>vncclient</title>
<ellipse fill="none" stroke="green" cx="1438.34" cy="-213" rx="42.7926" ry="18"/>
<text text-anchor="middle" x="1438.34" y="-209.3" font-family="Times,serif" font-size="14.00">vncclient</text>
</g>
<!-- vncclient&#45;&gt;perhaps_aptupdate -->
<g id="edge80" class="edge"><title>vncclient&#45;&gt;perhaps_aptupdate</title>
<path fill="none" stroke="black" d="M1436.43,-194.785C1435.8,-189.09 1435.08,-182.605 1434.38,-176.343"/>
<polygon fill="black" stroke="black" points="1437.84,-175.747 1433.25,-166.194 1430.88,-176.52 1437.84,-175.747"/>
</g>
<!-- xfce -->
<g id="node52" class="node"><title>xfce</title>
<ellipse fill="none" stroke="blue" cx="114.343" cy="-343" rx="27" ry="18"/>
<text text-anchor="middle" x="114.343" y="-339.3" font-family="Times,serif" font-size="14.00">xfce</text>
</g>
<!-- xfce&#45;&gt;chj_bin -->
<g id="edge82" class="edge"><title>xfce&#45;&gt;chj_bin</title>
<path fill="none" stroke="black" d="M135.647,-331.795C141.871,-329.193 148.77,-326.664 155.343,-325 277.056,-294.188 313.689,-322.822 436.343,-296 440.525,-295.086 444.844,-293.939 449.112,-292.676"/>
<polygon fill="black" stroke="black" points="450.417,-295.934 458.888,-289.57 448.298,-289.263 450.417,-295.934"/>
</g>
<!-- xfce&#45;&gt;dotconfig_xfce4_checkout -->
<g id="edge83" class="edge"><title>xfce&#45;&gt;dotconfig_xfce4_checkout</title>
<path fill="none" stroke="black" d="M119.911,-325.21C131.017,-291.717 156.009,-216.35 169.427,-175.888"/>
<polygon fill="black" stroke="black" points="172.826,-176.759 172.651,-166.165 166.181,-174.555 172.826,-176.759"/>
</g>
<!-- xfce&#45;&gt;perhaps_aptupdate -->
<g id="edge81" class="edge"><title>xfce&#45;&gt;perhaps_aptupdate</title>
<path fill="none" stroke="black" d="M135.75,-331.529C141.088,-329.168 146.857,-326.824 152.343,-325 277.274,-283.468 311.53,-281.934 441.343,-260 692.755,-217.519 757.667,-220.709 1011.34,-195 1156.5,-180.289 1193.76,-185.583 1338.34,-166 1346.85,-164.848 1355.77,-163.456 1364.57,-161.972"/>
<polygon fill="black" stroke="black" points="1365.17,-165.42 1374.42,-160.264 1363.97,-158.522 1365.17,-165.42"/>
</g>
<!-- xfce4_load_profile&#45;&gt;chj_bin -->
<g id="edge84" class="edge"><title>xfce4_load_profile&#45;&gt;chj_bin</title>
<path fill="none" stroke="black" d="M103.363,-390.885C140.191,-368.196 204.39,-329.121 216.343,-325 309.58,-292.853 340.303,-318.426 436.343,-296 440.461,-295.038 444.719,-293.871 448.931,-292.604"/>
<polygon fill="black" stroke="black" points="450.134,-295.894 458.593,-289.515 448.003,-289.227 450.134,-295.894"/>
</g>
<!-- xfce4_load_profile&#45;&gt;xfce -->
<g id="edge85" class="edge"><title>xfce4_load_profile&#45;&gt;xfce</title>
<path fill="none" stroke="black" d="M87.2585,-390.117C91.1115,-383.557 95.603,-375.909 99.8077,-368.75"/>
<polygon fill="black" stroke="black" points="102.864,-370.456 104.911,-360.061 96.8285,-366.911 102.864,-370.456"/>
</g>
</g>
</svg>
