<?xml version="1.0" encoding="UTF-8" standalone="no"?>
<!DOCTYPE svg PUBLIC "-//W3C//DTD SVG 1.1//EN"
 "http://www.w3.org/Graphics/SVG/1.1/DTD/svg11.dtd">
<!-- Generated by graphviz version 2.38.0 (20140413.2041)
 -->
<!-- Title: foo Pages: 1 -->
<svg width="1657pt" height="694pt"
 viewBox="0.00 0.00 1657.39 694.00" xmlns="http://www.w3.org/2000/svg" xmlns:xlink="http://www.w3.org/1999/xlink">
<g id="graph0" class="graph" transform="scale(1 1) rotate(0) translate(4 690)">
<title>foo</title>
<polygon fill="white" stroke="none" points="-4,4 -4,-690 1653.39,-690 1653.39,4 -4,4"/>
<!-- _bs -->
<g id="node1" class="node"><title>_bs</title>
<ellipse fill="none" stroke="grey" cx="285.391" cy="-83" rx="27" ry="18"/>
<text text-anchor="middle" x="285.391" y="-79.3" font-family="Times,serif" font-size="14.00">.bs</text>
</g>
<!-- _usr_local_bin_fastrandom -->
<g id="node2" class="node"><title>_usr_local_bin_fastrandom</title>
<ellipse fill="none" stroke="grey" cx="610.391" cy="-278" rx="99.3824" ry="18"/>
<text text-anchor="middle" x="610.391" y="-274.3" font-family="Times,serif" font-size="14.00">/usr/local/bin/fastrandom</text>
</g>
<!-- _slim_vncserver -->
<g id="node3" class="node"><title>_slim_vncserver</title>
<ellipse fill="none" stroke="blue" cx="632.391" cy="-538" rx="67.6881" ry="18"/>
<text text-anchor="middle" x="632.391" y="-534.3" font-family="Times,serif" font-size="14.00">_slim&#45;vncserver</text>
</g>
<!-- chj_bin -->
<g id="node5" class="node"><title>chj_bin</title>
<ellipse fill="none" stroke="blue" cx="305.391" cy="-278" rx="35.9954" ry="18"/>
<text text-anchor="middle" x="305.391" y="-274.3" font-family="Times,serif" font-size="14.00">chj&#45;bin</text>
</g>
<!-- _slim_vncserver&#45;&gt;chj_bin -->
<g id="edge3" class="edge"><title>_slim_vncserver&#45;&gt;chj_bin</title>
<path fill="none" stroke="black" d="M593.103,-523.142C546.928,-505.542 469.609,-471.856 414.391,-426 372.305,-391.05 337.522,-336.612 319.258,-304.713"/>
<polygon fill="black" stroke="black" points="322.079,-302.589 314.13,-295.584 315.975,-306.017 322.079,-302.589"/>
</g>
<!-- perhaps_aptupdate -->
<g id="node35" class="node"><title>perhaps_aptupdate</title>
<ellipse fill="none" stroke="blue" cx="944.391" cy="-148" rx="76.8869" ry="18"/>
<text text-anchor="middle" x="944.391" y="-144.3" font-family="Times,serif" font-size="14.00">perhaps_aptupdate</text>
</g>
<!-- _slim_vncserver&#45;&gt;perhaps_aptupdate -->
<g id="edge1" class="edge"><title>_slim_vncserver&#45;&gt;perhaps_aptupdate</title>
<path fill="none" stroke="black" d="M677.078,-524.406C759.673,-498.209 932.367,-428.917 982.391,-296 997.891,-254.817 977.018,-204.837 960.618,-175.045"/>
<polygon fill="black" stroke="black" points="963.511,-173.054 955.502,-166.118 957.438,-176.534 963.511,-173.054"/>
</g>
<!-- slim_desktop -->
<g id="node37" class="node"><title>slim_desktop</title>
<ellipse fill="none" stroke="blue" cx="260.391" cy="-473" rx="56.59" ry="18"/>
<text text-anchor="middle" x="260.391" y="-469.3" font-family="Times,serif" font-size="14.00">slim&#45;desktop</text>
</g>
<!-- _slim_vncserver&#45;&gt;slim_desktop -->
<g id="edge2" class="edge"><title>_slim_vncserver&#45;&gt;slim_desktop</title>
<path fill="none" stroke="black" d="M572.741,-529.377C511.829,-521.244 414.656,-507.301 331.391,-491 325.494,-489.846 319.347,-488.536 313.244,-487.168"/>
<polygon fill="black" stroke="black" points="313.596,-483.657 303.066,-484.827 312.027,-490.479 313.596,-483.657"/>
</g>
<!-- chj -->
<g id="node4" class="node"><title>chj</title>
<ellipse fill="none" stroke="blue" cx="769.391" cy="-408" rx="27" ry="18"/>
<text text-anchor="middle" x="769.391" y="-404.3" font-family="Times,serif" font-size="14.00">chj</text>
</g>
<!-- chj&#45;&gt;chj_bin -->
<g id="edge6" class="edge"><title>chj&#45;&gt;chj_bin</title>
<path fill="none" stroke="black" d="M742.808,-404.163C697.804,-398.868 604.113,-385.715 528.391,-361 492.86,-349.403 487.375,-338.156 452.391,-325 408.277,-308.411 395.142,-310.785 350.391,-296 347.804,-295.145 345.145,-294.232 342.476,-293.29"/>
<polygon fill="black" stroke="black" points="343.46,-289.924 332.866,-289.799 341.07,-296.503 343.46,-289.924"/>
</g>
<!-- chj_emacs -->
<g id="node6" class="node"><title>chj_emacs</title>
<ellipse fill="none" stroke="blue" cx="1260.39" cy="-278" rx="46.5926" ry="18"/>
<text text-anchor="middle" x="1260.39" y="-274.3" font-family="Times,serif" font-size="14.00">chj&#45;emacs</text>
</g>
<!-- chj&#45;&gt;chj_emacs -->
<g id="edge7" class="edge"><title>chj&#45;&gt;chj_emacs</title>
<path fill="none" stroke="black" d="M796.45,-407.282C881.525,-407.698 1142.04,-405.248 1211.39,-361 1231.3,-348.297 1244.22,-324.352 1251.77,-305.604"/>
<polygon fill="black" stroke="black" points="1255.1,-306.687 1255.33,-296.094 1248.55,-304.234 1255.1,-306.687"/>
</g>
<!-- cj_git_patchtool -->
<g id="node11" class="node"><title>cj_git_patchtool</title>
<ellipse fill="none" stroke="blue" cx="722.391" cy="-343" rx="64.9885" ry="18"/>
<text text-anchor="middle" x="722.391" y="-339.3" font-family="Times,serif" font-size="14.00">cj&#45;git&#45;patchtool</text>
</g>
<!-- chj&#45;&gt;cj_git_patchtool -->
<g id="edge9" class="edge"><title>chj&#45;&gt;cj_git_patchtool</title>
<path fill="none" stroke="black" d="M757.773,-391.427C752.771,-384.722 746.795,-376.712 741.19,-369.199"/>
<polygon fill="black" stroke="black" points="743.648,-366.64 734.863,-360.717 738.037,-370.826 743.648,-366.64"/>
</g>
<!-- debianpackages -->
<g id="node15" class="node"><title>debianpackages</title>
<ellipse fill="none" stroke="blue" cx="907.391" cy="-278" rx="66.0889" ry="18"/>
<text text-anchor="middle" x="907.391" y="-274.3" font-family="Times,serif" font-size="14.00">debianpackages</text>
</g>
<!-- chj&#45;&gt;debianpackages -->
<g id="edge5" class="edge"><title>chj&#45;&gt;debianpackages</title>
<path fill="none" stroke="black" d="M796.318,-406.623C828.49,-404.553 881.131,-395.679 906.391,-361 917.706,-345.466 917.366,-323.515 914.517,-306.234"/>
<polygon fill="black" stroke="black" points="917.898,-305.293 912.5,-296.176 911.035,-306.669 917.898,-305.293"/>
</g>
<!-- fastrandom -->
<g id="node19" class="node"><title>fastrandom</title>
<ellipse fill="none" stroke="blue" cx="588.391" cy="-343" rx="50.8918" ry="18"/>
<text text-anchor="middle" x="588.391" y="-339.3" font-family="Times,serif" font-size="14.00">fastrandom</text>
</g>
<!-- chj&#45;&gt;fastrandom -->
<g id="edge8" class="edge"><title>chj&#45;&gt;fastrandom</title>
<path fill="none" stroke="black" d="M746.099,-398.893C717.648,-388.99 668.894,-372.02 633.107,-359.564"/>
<polygon fill="black" stroke="black" points="633.98,-356.162 623.385,-356.18 631.679,-362.773 633.98,-356.162"/>
</g>
<!-- git_sign -->
<g id="node27" class="node"><title>git_sign</title>
<ellipse fill="none" stroke="blue" cx="775.391" cy="-83" rx="37.8943" ry="18"/>
<text text-anchor="middle" x="775.391" y="-79.3" font-family="Times,serif" font-size="14.00">git&#45;sign</text>
</g>
<!-- chj&#45;&gt;git_sign -->
<g id="edge4" class="edge"><title>chj&#45;&gt;git_sign</title>
<path fill="none" stroke="black" d="M781.121,-391.76C786.95,-383.219 793.379,-372.081 796.391,-361 809.044,-314.449 789.098,-171.502 779.775,-111.24"/>
<polygon fill="black" stroke="black" points="783.175,-110.33 778.168,-100.993 776.26,-111.414 783.175,-110.33"/>
</g>
<!-- chj_bin&#45;&gt;_bs -->
<g id="edge10" class="edge"><title>chj_bin&#45;&gt;_bs</title>
<path fill="none" stroke="black" d="M281.687,-264.361C269.621,-256.519 256.112,-245.219 249.391,-231 230.208,-190.417 234.759,-172.437 249.391,-130 252.385,-121.318 257.765,-113.021 263.47,-105.925"/>
<polygon fill="black" stroke="black" points="266.271,-108.037 270.191,-98.1938 260.989,-103.444 266.271,-108.037"/>
</g>
<!-- chj_perllib -->
<g id="node9" class="node"><title>chj_perllib</title>
<ellipse fill="none" stroke="blue" cx="305.391" cy="-213" rx="47.3916" ry="18"/>
<text text-anchor="middle" x="305.391" y="-209.3" font-family="Times,serif" font-size="14.00">chj&#45;perllib</text>
</g>
<!-- chj_bin&#45;&gt;chj_perllib -->
<g id="edge12" class="edge"><title>chj_bin&#45;&gt;chj_perllib</title>
<path fill="none" stroke="black" d="M305.391,-259.785C305.391,-254.09 305.391,-247.605 305.391,-241.343"/>
<polygon fill="black" stroke="black" points="308.891,-241.194 305.391,-231.194 301.891,-241.194 308.891,-241.194"/>
</g>
<!-- chj_bin&#45;&gt;git_sign -->
<g id="edge11" class="edge"><title>chj_bin&#45;&gt;git_sign</title>
<path fill="none" stroke="black" d="M325.872,-263.074C369.362,-234.114 474.943,-167.02 572.391,-130 624.664,-110.142 687.913,-97.4834 729.771,-90.5765"/>
<polygon fill="black" stroke="black" points="730.352,-94.028 739.67,-88.9846 729.241,-87.1168 730.352,-94.028"/>
</g>
<!-- chj_emacs_checkout -->
<g id="node7" class="node"><title>chj_emacs_checkout</title>
<ellipse fill="none" stroke="blue" cx="1402.39" cy="-213" rx="81.4863" ry="18"/>
<text text-anchor="middle" x="1402.39" y="-209.3" font-family="Times,serif" font-size="14.00">chj&#45;emacs&#45;checkout</text>
</g>
<!-- chj_emacs&#45;&gt;chj_emacs_checkout -->
<g id="edge13" class="edge"><title>chj_emacs&#45;&gt;chj_emacs_checkout</title>
<path fill="none" stroke="black" d="M1289.81,-263.946C1309.65,-255.148 1336.16,-243.385 1358.47,-233.484"/>
<polygon fill="black" stroke="black" points="1360.03,-236.624 1367.75,-229.369 1357.19,-230.226 1360.03,-236.624"/>
</g>
<!-- chj_emacs_checkout&#45;&gt;git_sign -->
<g id="edge14" class="edge"><title>chj_emacs_checkout&#45;&gt;git_sign</title>
<path fill="none" stroke="black" d="M1369.51,-196.363C1328.2,-177.44 1254.7,-146.115 1188.39,-130 1058.83,-98.5118 901.099,-88.5138 823.388,-85.3882"/>
<polygon fill="black" stroke="black" points="823.091,-81.8745 812.965,-84.9913 822.824,-88.8694 823.091,-81.8745"/>
</g>
<!-- chj_fastrandom -->
<g id="node8" class="node"><title>chj_fastrandom</title>
<ellipse fill="none" stroke="green" cx="645.391" cy="-148" rx="64.189" ry="18"/>
<text text-anchor="middle" x="645.391" y="-144.3" font-family="Times,serif" font-size="14.00">chj&#45;fastrandom</text>
</g>
<!-- chj_fastrandom&#45;&gt;git_sign -->
<g id="edge15" class="edge"><title>chj_fastrandom&#45;&gt;git_sign</title>
<path fill="none" stroke="black" d="M676.199,-132.07C695.515,-122.709 720.462,-110.619 740.505,-100.906"/>
<polygon fill="black" stroke="black" points="742.145,-104.001 749.617,-96.4903 739.092,-97.7018 742.145,-104.001"/>
</g>
<!-- chj_perllib_checkout -->
<g id="node10" class="node"><title>chj_perllib_checkout</title>
<ellipse fill="none" stroke="blue" cx="340.391" cy="-148" rx="81.7856" ry="18"/>
<text text-anchor="middle" x="340.391" y="-144.3" font-family="Times,serif" font-size="14.00">chj&#45;perllib&#45;checkout</text>
</g>
<!-- chj_perllib&#45;&gt;chj_perllib_checkout -->
<g id="edge16" class="edge"><title>chj_perllib&#45;&gt;chj_perllib_checkout</title>
<path fill="none" stroke="black" d="M314.77,-195.117C318.223,-188.903 322.217,-181.713 326.009,-174.887"/>
<polygon fill="black" stroke="black" points="329.189,-176.371 330.986,-165.929 323.07,-172.971 329.189,-176.371"/>
</g>
<!-- chj_perllib_checkout&#45;&gt;_bs -->
<g id="edge17" class="edge"><title>chj_perllib_checkout&#45;&gt;_bs</title>
<path fill="none" stroke="black" d="M325.652,-130.117C319.483,-123.051 312.213,-114.723 305.561,-107.103"/>
<polygon fill="black" stroke="black" points="307.879,-104.437 298.666,-99.2054 302.606,-109.04 307.879,-104.437"/>
</g>
<!-- chj_perllib_checkout&#45;&gt;git_sign -->
<g id="edge18" class="edge"><title>chj_perllib_checkout&#45;&gt;git_sign</title>
<path fill="none" stroke="black" d="M406.932,-137.363C496.151,-124.442 652.242,-101.835 729.455,-90.6528"/>
<polygon fill="black" stroke="black" points="730.416,-94.0502 739.812,-89.1529 729.413,-87.1224 730.416,-94.0502"/>
</g>
<!-- cj_git_patchtool&#45;&gt;chj_bin -->
<g id="edge20" class="edge"><title>cj_git_patchtool&#45;&gt;chj_bin</title>
<path fill="none" stroke="black" d="M675.991,-330.379C666.882,-328.371 657.368,-326.462 648.391,-325 517.051,-303.614 479.984,-326.221 350.391,-296 347.397,-295.302 344.334,-294.453 341.282,-293.511"/>
<polygon fill="black" stroke="black" points="342.274,-290.152 331.68,-290.257 340.028,-296.781 342.274,-290.152"/>
</g>
<!-- cj_git_patchtool&#45;&gt;debianpackages -->
<g id="edge19" class="edge"><title>cj_git_patchtool&#45;&gt;debianpackages</title>
<path fill="none" stroke="black" d="M761.625,-328.639C789.763,-319.057 827.876,-306.078 858.073,-295.795"/>
<polygon fill="black" stroke="black" points="859.238,-299.095 867.576,-292.559 856.982,-292.469 859.238,-299.095"/>
</g>
<!-- cj_git_patchtool&#45;&gt;git_sign -->
<g id="edge21" class="edge"><title>cj_git_patchtool&#45;&gt;git_sign</title>
<path fill="none" stroke="black" d="M724.873,-324.823C730.262,-288.56 743.961,-201.634 761.391,-130 762.908,-123.765 764.777,-117.126 766.649,-110.889"/>
<polygon fill="black" stroke="black" points="770.123,-111.5 769.741,-100.912 763.437,-109.428 770.123,-111.5"/>
</g>
<!-- cplusplus -->
<g id="node12" class="node"><title>cplusplus</title>
<ellipse fill="none" stroke="blue" cx="1221.39" cy="-213" rx="44.393" ry="18"/>
<text text-anchor="middle" x="1221.39" y="-209.3" font-family="Times,serif" font-size="14.00">cplusplus</text>
</g>
<!-- cplusplus&#45;&gt;perhaps_aptupdate -->
<g id="edge22" class="edge"><title>cplusplus&#45;&gt;perhaps_aptupdate</title>
<path fill="none" stroke="black" d="M1188.47,-200.835C1181.86,-198.764 1174.93,-196.716 1168.39,-195 1153.18,-191.011 1071.01,-174.342 1010.58,-162.214"/>
<polygon fill="black" stroke="black" points="1011.19,-158.769 1000.7,-160.234 1009.82,-165.632 1011.19,-158.769"/>
</g>
<!-- debian_emacs -->
<g id="node13" class="node"><title>debian_emacs</title>
<ellipse fill="none" stroke="blue" cx="1423.39" cy="-278" rx="59.5901" ry="18"/>
<text text-anchor="middle" x="1423.39" y="-274.3" font-family="Times,serif" font-size="14.00">debian&#45;emacs</text>
</g>
<!-- debian_upgrade -->
<g id="node14" class="node"><title>debian_upgrade</title>
<ellipse fill="none" stroke="blue" cx="426.391" cy="-278" rx="66.8882" ry="18"/>
<text text-anchor="middle" x="426.391" y="-274.3" font-family="Times,serif" font-size="14.00">debian_upgrade</text>
</g>
<!-- debian_upgrade&#45;&gt;perhaps_aptupdate -->
<g id="edge23" class="edge"><title>debian_upgrade&#45;&gt;perhaps_aptupdate</title>
<path fill="none" stroke="black" d="M474.195,-265.188C568.822,-241.805 779.826,-189.665 883.928,-163.941"/>
<polygon fill="black" stroke="black" points="884.793,-167.332 893.661,-161.535 883.114,-160.537 884.793,-167.332"/>
</g>
<!-- urxvt -->
<g id="node41" class="node"><title>urxvt</title>
<ellipse fill="none" stroke="blue" cx="1130.39" cy="-213" rx="29.4969" ry="18"/>
<text text-anchor="middle" x="1130.39" y="-209.3" font-family="Times,serif" font-size="14.00">urxvt</text>
</g>
<!-- debianpackages&#45;&gt;urxvt -->
<g id="edge24" class="edge"><title>debianpackages&#45;&gt;urxvt</title>
<path fill="none" stroke="black" d="M959.141,-266.705C996.635,-258.627 1048.28,-246.218 1092.39,-231 1094.5,-230.272 1096.65,-229.473 1098.81,-228.63"/>
<polygon fill="black" stroke="black" points="1100.27,-231.815 1108.15,-224.738 1097.57,-225.353 1100.27,-231.815"/>
</g>
<!-- dnsresolver -->
<g id="node16" class="node"><title>dnsresolver</title>
<ellipse fill="none" stroke="green" cx="1116.39" cy="-668" rx="51.1914" ry="18"/>
<text text-anchor="middle" x="1116.39" y="-664.3" font-family="Times,serif" font-size="14.00">dnsresolver</text>
</g>
<!-- dotconfig_xfce4_checkout -->
<g id="node17" class="node"><title>dotconfig_xfce4_checkout</title>
<ellipse fill="none" stroke="blue" cx="101.391" cy="-148" rx="101.282" ry="18"/>
<text text-anchor="middle" x="101.391" y="-144.3" font-family="Times,serif" font-size="14.00">dotconfig&#45;xfce4&#45;checkout</text>
</g>
<!-- dotconfig_xfce4_checkout&#45;&gt;_bs -->
<g id="edge25" class="edge"><title>dotconfig_xfce4_checkout&#45;&gt;_bs</title>
<path fill="none" stroke="black" d="M145.932,-131.749C178.708,-120.527 222.55,-105.516 252.264,-95.3424"/>
<polygon fill="black" stroke="black" points="253.436,-98.6408 261.763,-92.0901 251.168,-92.0182 253.436,-98.6408"/>
</g>
<!-- dotconfig_xfce4_checkout&#45;&gt;git_sign -->
<g id="edge26" class="edge"><title>dotconfig_xfce4_checkout&#45;&gt;git_sign</title>
<path fill="none" stroke="black" d="M182.772,-137.25C204.411,-134.768 227.776,-132.186 249.391,-130 425.906,-112.147 636.167,-94.9966 728.259,-87.6904"/>
<polygon fill="black" stroke="black" points="728.678,-91.1682 738.371,-86.89 728.126,-84.19 728.678,-91.1682"/>
</g>
<!-- emacs -->
<g id="node18" class="node"><title>emacs</title>
<ellipse fill="none" stroke="green" cx="1409.39" cy="-343" rx="33.2948" ry="18"/>
<text text-anchor="middle" x="1409.39" y="-339.3" font-family="Times,serif" font-size="14.00">emacs</text>
</g>
<!-- emacs&#45;&gt;chj_emacs -->
<g id="edge28" class="edge"><title>emacs&#45;&gt;chj_emacs</title>
<path fill="none" stroke="black" d="M1384.12,-331.313C1361.12,-321.589 1326.79,-307.076 1300.13,-295.801"/>
<polygon fill="black" stroke="black" points="1301.26,-292.48 1290.69,-291.809 1298.53,-298.927 1301.26,-292.48"/>
</g>
<!-- emacs&#45;&gt;debian_emacs -->
<g id="edge27" class="edge"><title>emacs&#45;&gt;debian_emacs</title>
<path fill="none" stroke="black" d="M1413.22,-324.785C1414.48,-319.09 1415.92,-312.605 1417.31,-306.343"/>
<polygon fill="black" stroke="black" points="1420.82,-306.715 1419.57,-296.194 1413.98,-305.197 1420.82,-306.715"/>
</g>
<!-- fastrandom&#45;&gt;_usr_local_bin_fastrandom -->
<g id="edge29" class="edge"><title>fastrandom&#45;&gt;_usr_local_bin_fastrandom</title>
<path fill="none" stroke="black" d="M594.287,-325.117C596.325,-319.281 598.663,-312.585 600.915,-306.137"/>
<polygon fill="black" stroke="black" points="604.333,-306.964 604.326,-296.369 597.725,-304.656 604.333,-306.964"/>
</g>
<!-- fperl -->
<g id="node20" class="node"><title>fperl</title>
<ellipse fill="none" stroke="green" cx="870.391" cy="-343" rx="27.0966" ry="18"/>
<text text-anchor="middle" x="870.391" y="-339.3" font-family="Times,serif" font-size="14.00">fperl</text>
</g>
<!-- fperl&#45;&gt;chj_bin -->
<g id="edge32" class="edge"><title>fperl&#45;&gt;chj_bin</title>
<path fill="none" stroke="black" d="M845.576,-335.248C831.297,-331.628 812.955,-327.425 796.391,-325 599.845,-296.225 544.54,-338.004 350.391,-296 347.386,-295.35 344.315,-294.535 341.259,-293.617"/>
<polygon fill="black" stroke="black" points="342.241,-290.255 331.647,-290.404 340.022,-296.894 342.241,-290.255"/>
</g>
<!-- fperl&#45;&gt;debianpackages -->
<g id="edge31" class="edge"><title>fperl&#45;&gt;debianpackages</title>
<path fill="none" stroke="black" d="M879.919,-325.776C883.713,-319.316 888.171,-311.725 892.38,-304.56"/>
<polygon fill="black" stroke="black" points="895.461,-306.224 897.508,-295.829 889.425,-302.679 895.461,-306.224"/>
</g>
<!-- fperl&#45;&gt;git_sign -->
<g id="edge30" class="edge"><title>fperl&#45;&gt;git_sign</title>
<path fill="none" stroke="black" d="M855.536,-327.454C847.623,-318.95 838.325,-307.625 832.391,-296 797.742,-228.119 810.046,-203.36 789.391,-130 787.652,-123.823 785.695,-117.207 783.807,-110.974"/>
<polygon fill="black" stroke="black" points="787.024,-109.525 780.748,-100.989 780.331,-111.576 787.024,-109.525"/>
</g>
<!-- full_desktop -->
<g id="node21" class="node"><title>full_desktop</title>
<ellipse fill="none" stroke="blue" cx="260.391" cy="-538" rx="53.0913" ry="18"/>
<text text-anchor="middle" x="260.391" y="-534.3" font-family="Times,serif" font-size="14.00">full&#45;desktop</text>
</g>
<!-- full_desktop&#45;&gt;slim_desktop -->
<g id="edge33" class="edge"><title>full_desktop&#45;&gt;slim_desktop</title>
<path fill="none" stroke="black" d="M260.391,-519.785C260.391,-514.09 260.391,-507.605 260.391,-501.343"/>
<polygon fill="black" stroke="black" points="263.891,-501.194 260.391,-491.194 256.891,-501.194 263.891,-501.194"/>
</g>
<!-- full_desktop_autoremove -->
<g id="node22" class="node"><title>full_desktop_autoremove</title>
<ellipse fill="none" stroke="green" cx="260.391" cy="-603" rx="99.3824" ry="18"/>
<text text-anchor="middle" x="260.391" y="-599.3" font-family="Times,serif" font-size="14.00">full&#45;desktop_autoremove</text>
</g>
<!-- full_desktop_autoremove&#45;&gt;full_desktop -->
<g id="edge34" class="edge"><title>full_desktop_autoremove&#45;&gt;full_desktop</title>
<path fill="none" stroke="black" d="M260.391,-584.785C260.391,-579.09 260.391,-572.605 260.391,-566.343"/>
<polygon fill="black" stroke="black" points="263.891,-566.194 260.391,-556.194 256.891,-566.194 263.891,-566.194"/>
</g>
<!-- full_vncserver -->
<g id="node23" class="node"><title>full_vncserver</title>
<ellipse fill="none" stroke="blue" cx="963.391" cy="-603" rx="59.5901" ry="18"/>
<text text-anchor="middle" x="963.391" y="-599.3" font-family="Times,serif" font-size="14.00">full&#45;vncserver</text>
</g>
<!-- full_vncserver&#45;&gt;_slim_vncserver -->
<g id="edge37" class="edge"><title>full_vncserver&#45;&gt;_slim_vncserver</title>
<path fill="none" stroke="black" d="M914.194,-592.636C856.073,-581.574 759.255,-563.146 695.619,-551.034"/>
<polygon fill="black" stroke="black" points="696.179,-547.578 685.701,-549.147 694.87,-554.455 696.179,-547.578"/>
</g>
<!-- full_vncserver&#45;&gt;debianpackages -->
<g id="edge35" class="edge"><title>full_vncserver&#45;&gt;debianpackages</title>
<path fill="none" stroke="black" d="M963.391,-584.609C963.391,-559.987 963.391,-513.556 963.391,-474 963.391,-474 963.391,-474 963.391,-407 963.391,-368.763 942.156,-329.081 925.839,-304.233"/>
<polygon fill="black" stroke="black" points="928.612,-302.086 920.098,-295.78 922.821,-306.019 928.612,-302.086"/>
</g>
<!-- full_vncserver&#45;&gt;urxvt -->
<g id="edge36" class="edge"><title>full_vncserver&#45;&gt;urxvt</title>
<path fill="none" stroke="black" d="M1017.09,-594.946C1120.1,-579.902 1335.39,-540.507 1335.39,-474 1335.39,-474 1335.39,-474 1335.39,-342 1335.39,-304.59 1343.29,-285.997 1316.39,-260 1268.19,-213.421 1232.28,-251.261 1168.39,-231 1166.26,-230.325 1164.1,-229.566 1161.93,-228.753"/>
<polygon fill="black" stroke="black" points="1163.15,-225.469 1152.57,-224.932 1160.5,-231.951 1163.15,-225.469"/>
</g>
<!-- full_vncserver_clean -->
<g id="node24" class="node"><title>full_vncserver_clean</title>
<ellipse fill="none" stroke="green" cx="963.391" cy="-668" rx="83.3857" ry="18"/>
<text text-anchor="middle" x="963.391" y="-664.3" font-family="Times,serif" font-size="14.00">full&#45;vncserver_clean</text>
</g>
<!-- full_vncserver_clean&#45;&gt;full_vncserver -->
<g id="edge38" class="edge"><title>full_vncserver_clean&#45;&gt;full_vncserver</title>
<path fill="none" stroke="black" d="M963.391,-649.785C963.391,-644.09 963.391,-637.605 963.391,-631.343"/>
<polygon fill="black" stroke="black" points="966.891,-631.194 963.391,-621.194 959.891,-631.194 966.891,-631.194"/>
</g>
<!-- gambit -->
<g id="node25" class="node"><title>gambit</title>
<ellipse fill="none" stroke="blue" cx="1166.39" cy="-343" rx="35.9954" ry="18"/>
<text text-anchor="middle" x="1166.39" y="-339.3" font-family="Times,serif" font-size="14.00">gambit</text>
</g>
<!-- gambit&#45;&gt;chj_bin -->
<g id="edge42" class="edge"><title>gambit&#45;&gt;chj_bin</title>
<path fill="none" stroke="black" d="M1131.07,-339.543C1081.07,-336.097 986.771,-329.724 906.391,-325 659.37,-310.483 592.573,-346.774 350.391,-296 347.382,-295.369 344.308,-294.568 341.25,-293.659"/>
<polygon fill="black" stroke="black" points="342.228,-290.296 331.634,-290.463 340.02,-296.939 342.228,-290.296"/>
</g>
<!-- gambit&#45;&gt;chj_emacs -->
<g id="edge43" class="edge"><title>gambit&#45;&gt;chj_emacs</title>
<path fill="none" stroke="black" d="M1187.25,-328.018C1199.7,-319.673 1215.75,-308.922 1229.63,-299.616"/>
<polygon fill="black" stroke="black" points="1231.59,-302.517 1237.95,-294.043 1227.69,-296.703 1231.59,-302.517"/>
</g>
<!-- gambit&#45;&gt;cplusplus -->
<g id="edge40" class="edge"><title>gambit&#45;&gt;cplusplus</title>
<path fill="none" stroke="black" d="M1163.84,-324.749C1162.09,-307.487 1161.59,-280.608 1171.39,-260 1175.91,-250.493 1183.36,-242.024 1191.14,-235.025"/>
<polygon fill="black" stroke="black" points="1193.49,-237.62 1198.94,-228.531 1189.01,-232.241 1193.49,-237.62"/>
</g>
<!-- gambit&#45;&gt;debianpackages -->
<g id="edge41" class="edge"><title>gambit&#45;&gt;debianpackages</title>
<path fill="none" stroke="black" d="M1134.89,-334.338C1092.72,-324.079 1017.15,-305.697 964.736,-292.949"/>
<polygon fill="black" stroke="black" points="965.451,-289.521 954.907,-290.558 963.796,-296.322 965.451,-289.521"/>
</g>
<!-- gambit_checkout -->
<g id="node26" class="node"><title>gambit_checkout</title>
<ellipse fill="none" stroke="blue" cx="1109.39" cy="-148" rx="70.3881" ry="18"/>
<text text-anchor="middle" x="1109.39" y="-144.3" font-family="Times,serif" font-size="14.00">gambit&#45;checkout</text>
</g>
<!-- gambit&#45;&gt;gambit_checkout -->
<g id="edge39" class="edge"><title>gambit&#45;&gt;gambit_checkout</title>
<path fill="none" stroke="black" d="M1170.3,-325.077C1175.32,-306.808 1185.71,-277.926 1204.39,-260 1228.69,-236.683 1255.68,-259.001 1274.39,-231 1283.28,-217.696 1284.07,-207.743 1274.39,-195 1271,-190.532 1214.26,-175.344 1168.25,-163.629"/>
<polygon fill="black" stroke="black" points="1168.87,-160.176 1158.32,-161.112 1167.15,-166.962 1168.87,-160.176"/>
</g>
<!-- gambit_checkout&#45;&gt;_bs -->
<g id="edge44" class="edge"><title>gambit_checkout&#45;&gt;_bs</title>
<path fill="none" stroke="black" d="M1059.87,-135.153C1050.14,-133.164 1039.98,-131.32 1030.39,-130 891.322,-110.854 454.03,-91.1673 322.913,-85.5687"/>
<polygon fill="black" stroke="black" points="322.733,-82.058 312.594,-85.1302 322.436,-89.0517 322.733,-82.058"/>
</g>
<!-- gambit_checkout&#45;&gt;git_sign -->
<g id="edge45" class="edge"><title>gambit_checkout&#45;&gt;git_sign</title>
<path fill="none" stroke="black" d="M1058.02,-135.685C1048.83,-133.735 1039.34,-131.769 1030.39,-130 957.107,-115.509 871.6,-100.462 820.564,-91.6782"/>
<polygon fill="black" stroke="black" points="820.97,-88.1968 810.522,-89.9541 819.785,-95.0958 820.97,-88.1968"/>
</g>
<!-- key -->
<g id="node29" class="node"><title>key</title>
<ellipse fill="none" stroke="blue" cx="1162.39" cy="-18" rx="27" ry="18"/>
<text text-anchor="middle" x="1162.39" y="-14.3" font-family="Times,serif" font-size="14.00">key</text>
</g>
<!-- git_sign&#45;&gt;key -->
<g id="edge46" class="edge"><title>git_sign&#45;&gt;key</title>
<path fill="none" stroke="black" d="M810.417,-76.2981C883.481,-64.4039 1051.51,-37.0496 1125.86,-24.9467"/>
<polygon fill="black" stroke="black" points="1126.82,-28.3367 1136.13,-23.2753 1125.7,-21.4276 1126.82,-28.3367"/>
</g>
<!-- graph_deps -->
<g id="node28" class="node"><title>graph_deps</title>
<ellipse fill="none" stroke="green" cx="891.391" cy="-213" rx="50.0912" ry="18"/>
<text text-anchor="middle" x="891.391" y="-209.3" font-family="Times,serif" font-size="14.00">graph&#45;deps</text>
</g>
<!-- graph_deps&#45;&gt;perhaps_aptupdate -->
<g id="edge47" class="edge"><title>graph_deps&#45;&gt;perhaps_aptupdate</title>
<path fill="none" stroke="black" d="M905.316,-195.447C910.783,-188.949 917.179,-181.346 923.196,-174.195"/>
<polygon fill="black" stroke="black" points="926.245,-176.006 930.005,-166.101 920.889,-171.5 926.245,-176.006"/>
</g>
<!-- load_profile -->
<g id="node30" class="node"><title>load_profile</title>
<ellipse fill="none" stroke="green" cx="124.391" cy="-473" rx="53.8905" ry="18"/>
<text text-anchor="middle" x="124.391" y="-469.3" font-family="Times,serif" font-size="14.00">load_profile</text>
</g>
<!-- xfce4_load_profile -->
<g id="node44" class="node"><title>xfce4_load_profile</title>
<ellipse fill="none" stroke="blue" cx="124.391" cy="-408" rx="77.1866" ry="18"/>
<text text-anchor="middle" x="124.391" y="-404.3" font-family="Times,serif" font-size="14.00">xfce4_load_profile</text>
</g>
<!-- load_profile&#45;&gt;xfce4_load_profile -->
<g id="edge48" class="edge"><title>load_profile&#45;&gt;xfce4_load_profile</title>
<path fill="none" stroke="black" d="M124.391,-454.785C124.391,-449.09 124.391,-442.605 124.391,-436.343"/>
<polygon fill="black" stroke="black" points="127.891,-436.194 124.391,-426.194 120.891,-436.194 127.891,-436.194"/>
</g>
<!-- locales -->
<g id="node31" class="node"><title>locales</title>
<ellipse fill="none" stroke="blue" cx="408.391" cy="-343" rx="35.194" ry="18"/>
<text text-anchor="middle" x="408.391" y="-339.3" font-family="Times,serif" font-size="14.00">locales</text>
</g>
<!-- locales&#45;&gt;chj_bin -->
<g id="edge49" class="edge"><title>locales&#45;&gt;chj_bin</title>
<path fill="none" stroke="black" d="M386.547,-328.639C371.799,-319.619 352.129,-307.587 335.847,-297.628"/>
<polygon fill="black" stroke="black" points="337.56,-294.574 327.203,-292.341 333.908,-300.545 337.56,-294.574"/>
</g>
<!-- mercurial -->
<g id="node32" class="node"><title>mercurial</title>
<ellipse fill="none" stroke="green" cx="197.391" cy="-343" rx="44.6926" ry="18"/>
<text text-anchor="middle" x="197.391" y="-339.3" font-family="Times,serif" font-size="14.00">mercurial</text>
</g>
<!-- mercurial&#45;&gt;chj_bin -->
<g id="edge50" class="edge"><title>mercurial&#45;&gt;chj_bin</title>
<path fill="none" stroke="black" d="M221.898,-327.704C237.336,-318.699 257.414,-306.987 274.011,-297.305"/>
<polygon fill="black" stroke="black" points="275.948,-300.227 282.823,-292.165 272.421,-294.18 275.948,-300.227"/>
</g>
<!-- moduser -->
<g id="node33" class="node"><title>moduser</title>
<ellipse fill="none" stroke="green" cx="1477.39" cy="-473" rx="41.6928" ry="18"/>
<text text-anchor="middle" x="1477.39" y="-469.3" font-family="Times,serif" font-size="14.00">moduser</text>
</g>
<!-- moduser&#45;&gt;chj -->
<g id="edge51" class="edge"><title>moduser&#45;&gt;chj</title>
<path fill="none" stroke="black" d="M1437.04,-468.409C1311.25,-457.216 927.441,-423.064 806.38,-412.291"/>
<polygon fill="black" stroke="black" points="806.422,-408.781 796.151,-411.381 805.802,-415.754 806.422,-408.781"/>
</g>
<!-- moduser&#45;&gt;key -->
<g id="edge52" class="edge"><title>moduser&#45;&gt;key</title>
<path fill="none" stroke="black" d="M1493.37,-456.232C1514.58,-433.539 1549.39,-389.384 1549.39,-344 1549.39,-344 1549.39,-344 1549.39,-147 1549.39,-73.6741 1295.8,-35.1858 1199.17,-23.1827"/>
<polygon fill="black" stroke="black" points="1199.34,-19.6772 1188.99,-21.944 1198.5,-26.626 1199.34,-19.6772"/>
</g>
<!-- nosudo -->
<g id="node34" class="node"><title>nosudo</title>
<ellipse fill="none" stroke="green" cx="1222.39" cy="-668" rx="36.2938" ry="18"/>
<text text-anchor="middle" x="1222.39" y="-664.3" font-family="Times,serif" font-size="14.00">nosudo</text>
</g>
<!-- qemu -->
<g id="node36" class="node"><title>qemu</title>
<ellipse fill="none" stroke="green" cx="1221.39" cy="-408" rx="30.5947" ry="18"/>
<text text-anchor="middle" x="1221.39" y="-404.3" font-family="Times,serif" font-size="14.00">qemu</text>
</g>
<!-- qemu&#45;&gt;gambit -->
<g id="edge54" class="edge"><title>qemu&#45;&gt;gambit</title>
<path fill="none" stroke="black" d="M1208.08,-391.749C1201.78,-384.539 1194.12,-375.764 1187.09,-367.714"/>
<polygon fill="black" stroke="black" points="1189.56,-365.221 1180.35,-359.989 1184.29,-369.824 1189.56,-365.221"/>
</g>
<!-- qemu&#45;&gt;git_sign -->
<g id="edge53" class="edge"><title>qemu&#45;&gt;git_sign</title>
<path fill="none" stroke="black" d="M1252.15,-407.203C1326.79,-405.926 1511.39,-391.406 1511.39,-279 1511.39,-279 1511.39,-279 1511.39,-212 1511.39,-139.476 1952.5,-258.146 1256.39,-130 1099.22,-101.066 909.603,-89.7216 822.868,-85.8106"/>
<polygon fill="black" stroke="black" points="822.954,-82.311 812.81,-85.3698 822.647,-89.3043 822.954,-82.311"/>
</g>
<!-- slim_desktop&#45;&gt;chj -->
<g id="edge55" class="edge"><title>slim_desktop&#45;&gt;chj</title>
<path fill="none" stroke="black" d="M311.998,-465.613C414.973,-452.867 643.707,-424.556 732.837,-413.524"/>
<polygon fill="black" stroke="black" points="733.503,-416.969 742.997,-412.267 732.643,-410.022 733.503,-416.969"/>
</g>
<!-- slim_desktop&#45;&gt;xfce4_load_profile -->
<g id="edge56" class="edge"><title>slim_desktop&#45;&gt;xfce4_load_profile</title>
<path fill="none" stroke="black" d="M229.53,-457.704C210.993,-449.117 187.143,-438.069 166.846,-428.667"/>
<polygon fill="black" stroke="black" points="168.05,-425.367 157.505,-424.34 165.108,-431.719 168.05,-425.367"/>
</g>
<!-- slim_vncserver -->
<g id="node38" class="node"><title>slim_vncserver</title>
<ellipse fill="none" stroke="green" cx="632.391" cy="-603" rx="63.8893" ry="18"/>
<text text-anchor="middle" x="632.391" y="-599.3" font-family="Times,serif" font-size="14.00">slim&#45;vncserver</text>
</g>
<!-- slim_vncserver&#45;&gt;_slim_vncserver -->
<g id="edge57" class="edge"><title>slim_vncserver&#45;&gt;_slim_vncserver</title>
<path fill="none" stroke="black" d="M632.391,-584.785C632.391,-579.09 632.391,-572.605 632.391,-566.343"/>
<polygon fill="black" stroke="black" points="635.891,-566.194 632.391,-556.194 628.891,-566.194 635.891,-566.194"/>
</g>
<!-- swap -->
<g id="node39" class="node"><title>swap</title>
<ellipse fill="none" stroke="green" cx="288.391" cy="-343" rx="28.6953" ry="18"/>
<text text-anchor="middle" x="288.391" y="-339.3" font-family="Times,serif" font-size="14.00">swap</text>
</g>
<!-- swap&#45;&gt;chj_bin -->
<g id="edge58" class="edge"><title>swap&#45;&gt;chj_bin</title>
<path fill="none" stroke="black" d="M292.947,-325.117C294.547,-319.185 296.388,-312.365 298.154,-305.82"/>
<polygon fill="black" stroke="black" points="301.597,-306.496 300.823,-295.929 294.838,-304.672 301.597,-306.496"/>
</g>
<!-- system -->
<g id="node40" class="node"><title>system</title>
<ellipse fill="none" stroke="green" cx="459.391" cy="-408" rx="35.9954" ry="18"/>
<text text-anchor="middle" x="459.391" y="-404.3" font-family="Times,serif" font-size="14.00">system</text>
</g>
<!-- system&#45;&gt;debian_upgrade -->
<g id="edge59" class="edge"><title>system&#45;&gt;debian_upgrade</title>
<path fill="none" stroke="black" d="M460.027,-389.952C460.176,-373.08 459.1,-346.704 452.391,-325 450.279,-318.169 447.044,-311.234 443.564,-304.891"/>
<polygon fill="black" stroke="black" points="446.481,-302.948 438.394,-296.103 440.448,-306.497 446.481,-302.948"/>
</g>
<!-- system&#45;&gt;locales -->
<g id="edge60" class="edge"><title>system&#45;&gt;locales</title>
<path fill="none" stroke="black" d="M446.522,-391.102C440.887,-384.142 434.152,-375.823 427.921,-368.126"/>
<polygon fill="black" stroke="black" points="430.446,-365.682 421.434,-360.112 425.005,-370.086 430.446,-365.682"/>
</g>
<!-- urxvt&#45;&gt;perhaps_aptupdate -->
<g id="edge61" class="edge"><title>urxvt&#45;&gt;perhaps_aptupdate</title>
<path fill="none" stroke="black" d="M1107.67,-201.305C1102.68,-199.106 1097.39,-196.889 1092.39,-195 1062.91,-183.869 1029.43,-173.295 1001.77,-165.098"/>
<polygon fill="black" stroke="black" points="1002.45,-161.649 991.869,-162.189 1000.48,-168.365 1002.45,-161.649"/>
</g>
<!-- vncclient -->
<g id="node42" class="node"><title>vncclient</title>
<ellipse fill="none" stroke="green" cx="1040.39" cy="-213" rx="42.7926" ry="18"/>
<text text-anchor="middle" x="1040.39" y="-209.3" font-family="Times,serif" font-size="14.00">vncclient</text>
</g>
<!-- vncclient&#45;&gt;perhaps_aptupdate -->
<g id="edge62" class="edge"><title>vncclient&#45;&gt;perhaps_aptupdate</title>
<path fill="none" stroke="black" d="M1018.13,-197.388C1006.04,-189.457 990.863,-179.497 977.425,-170.678"/>
<polygon fill="black" stroke="black" points="979.176,-167.641 968.895,-165.081 975.336,-173.494 979.176,-167.641"/>
</g>
<!-- xfce -->
<g id="node43" class="node"><title>xfce</title>
<ellipse fill="none" stroke="blue" cx="69.391" cy="-343" rx="27" ry="18"/>
<text text-anchor="middle" x="69.391" y="-339.3" font-family="Times,serif" font-size="14.00">xfce</text>
</g>
<!-- xfce&#45;&gt;chj_bin -->
<g id="edge64" class="edge"><title>xfce&#45;&gt;chj_bin</title>
<path fill="none" stroke="black" d="M91.2311,-332.017C97.3434,-329.479 104.051,-326.928 110.391,-325 173.268,-305.878 191.923,-313.058 255.391,-296 259.425,-294.916 263.607,-293.679 267.757,-292.378"/>
<polygon fill="black" stroke="black" points="268.872,-295.696 277.295,-289.269 266.702,-289.041 268.872,-295.696"/>
</g>
<!-- xfce&#45;&gt;dotconfig_xfce4_checkout -->
<g id="edge65" class="edge"><title>xfce&#45;&gt;dotconfig_xfce4_checkout</title>
<path fill="none" stroke="black" d="M72.2308,-324.873C77.8052,-291.252 90.2177,-216.389 96.9096,-176.029"/>
<polygon fill="black" stroke="black" points="100.375,-176.527 98.5576,-166.089 93.4689,-175.382 100.375,-176.527"/>
</g>
<!-- xfce&#45;&gt;perhaps_aptupdate -->
<g id="edge63" class="edge"><title>xfce&#45;&gt;perhaps_aptupdate</title>
<path fill="none" stroke="black" d="M90.0055,-331.295C124.411,-313.857 196.113,-279.327 260.391,-260 472.113,-196.34 732.345,-166.877 862.333,-155.319"/>
<polygon fill="black" stroke="black" points="862.947,-158.779 872.604,-154.419 862.336,-151.806 862.947,-158.779"/>
</g>
<!-- xfce4_load_profile&#45;&gt;chj_bin -->
<g id="edge66" class="edge"><title>xfce4_load_profile&#45;&gt;chj_bin</title>
<path fill="none" stroke="black" d="M123.507,-389.828C123.533,-371.34 126.562,-342.267 143.391,-325 179.28,-288.177 206.127,-310.731 255.391,-296 259.234,-294.851 263.224,-293.598 267.198,-292.31"/>
<polygon fill="black" stroke="black" points="268.561,-295.546 276.952,-289.078 266.359,-288.901 268.561,-295.546"/>
</g>
<!-- xfce4_load_profile&#45;&gt;xfce -->
<g id="edge67" class="edge"><title>xfce4_load_profile&#45;&gt;xfce</title>
<path fill="none" stroke="black" d="M109.652,-390.117C103.483,-383.051 96.2131,-374.723 89.5606,-367.103"/>
<polygon fill="black" stroke="black" points="91.8787,-364.437 82.6655,-359.205 86.6055,-369.04 91.8787,-364.437"/>
</g>
</g>
</svg>
