<?xml version="1.0" encoding="UTF-8" standalone="no"?>
<!DOCTYPE svg PUBLIC "-//W3C//DTD SVG 1.1//EN"
 "http://www.w3.org/Graphics/SVG/1.1/DTD/svg11.dtd">
<!-- Generated by graphviz version 2.38.0 (20140413.2041)
 -->
<!-- Title: foo Pages: 1 -->
<svg width="1560pt" height="694pt"
 viewBox="0.00 0.00 1559.94 694.00" xmlns="http://www.w3.org/2000/svg" xmlns:xlink="http://www.w3.org/1999/xlink">
<g id="graph0" class="graph" transform="scale(1 1) rotate(0) translate(4 690)">
<title>foo</title>
<polygon fill="white" stroke="none" points="-4,4 -4,-690 1555.94,-690 1555.94,4 -4,4"/>
<!-- _bs -->
<g id="node1" class="node"><title>_bs</title>
<ellipse fill="none" stroke="grey" cx="1309" cy="-83" rx="27" ry="18"/>
<text text-anchor="middle" x="1309" y="-79.3" font-family="Times,serif" font-size="14.00">.bs</text>
</g>
<!-- _usr_local_bin_fastrandom -->
<g id="node2" class="node"><title>_usr_local_bin_fastrandom</title>
<ellipse fill="none" stroke="grey" cx="203" cy="-278" rx="99.3824" ry="18"/>
<text text-anchor="middle" x="203" y="-274.3" font-family="Times,serif" font-size="14.00">/usr/local/bin/fastrandom</text>
</g>
<!-- _slim_vncserver -->
<g id="node3" class="node"><title>_slim_vncserver</title>
<ellipse fill="none" stroke="blue" cx="837" cy="-538" rx="67.6881" ry="18"/>
<text text-anchor="middle" x="837" y="-534.3" font-family="Times,serif" font-size="14.00">_slim&#45;vncserver</text>
</g>
<!-- chj_bin -->
<g id="node5" class="node"><title>chj_bin</title>
<ellipse fill="none" stroke="blue" cx="1009" cy="-278" rx="35.9954" ry="18"/>
<text text-anchor="middle" x="1009" y="-274.3" font-family="Times,serif" font-size="14.00">chj&#45;bin</text>
</g>
<!-- _slim_vncserver&#45;&gt;chj_bin -->
<g id="edge3" class="edge"><title>_slim_vncserver&#45;&gt;chj_bin</title>
<path fill="none" stroke="black" d="M848.285,-520.072C877.888,-475.668 957.871,-355.693 992.569,-303.646"/>
<polygon fill="black" stroke="black" points="995.483,-305.585 998.118,-295.323 989.659,-301.702 995.483,-305.585"/>
</g>
<!-- perhaps_aptupdate -->
<g id="node35" class="node"><title>perhaps_aptupdate</title>
<ellipse fill="none" stroke="blue" cx="1032" cy="-148" rx="76.8869" ry="18"/>
<text text-anchor="middle" x="1032" y="-144.3" font-family="Times,serif" font-size="14.00">perhaps_aptupdate</text>
</g>
<!-- _slim_vncserver&#45;&gt;perhaps_aptupdate -->
<g id="edge1" class="edge"><title>_slim_vncserver&#45;&gt;perhaps_aptupdate</title>
<path fill="none" stroke="black" d="M769.476,-536.126C669.72,-533.688 477.55,-524.599 318,-491 206.875,-467.599 76,-522.562 76,-409 76,-409 76,-409 76,-342 76,-304.59 66.4507,-284.175 95,-260 134.59,-226.475 509.998,-240.493 561,-231 613.236,-221.278 622.993,-205.881 675,-195 793.565,-170.194 826.244,-184.207 946,-166 952.773,-164.97 959.824,-163.777 966.844,-162.509"/>
<polygon fill="black" stroke="black" points="967.88,-165.877 977.073,-160.61 966.602,-158.995 967.88,-165.877"/>
</g>
<!-- slim_desktop -->
<g id="node37" class="node"><title>slim_desktop</title>
<ellipse fill="none" stroke="blue" cx="972" cy="-473" rx="56.59" ry="18"/>
<text text-anchor="middle" x="972" y="-469.3" font-family="Times,serif" font-size="14.00">slim&#45;desktop</text>
</g>
<!-- _slim_vncserver&#45;&gt;slim_desktop -->
<g id="edge2" class="edge"><title>_slim_vncserver&#45;&gt;slim_desktop</title>
<path fill="none" stroke="black" d="M868.993,-522.07C887.84,-513.275 911.85,-502.07 931.948,-492.691"/>
<polygon fill="black" stroke="black" points="933.584,-495.79 941.166,-488.389 930.624,-489.447 933.584,-495.79"/>
</g>
<!-- chj -->
<g id="node4" class="node"><title>chj</title>
<ellipse fill="none" stroke="blue" cx="591" cy="-408" rx="27" ry="18"/>
<text text-anchor="middle" x="591" y="-404.3" font-family="Times,serif" font-size="14.00">chj</text>
</g>
<!-- chj&#45;&gt;chj_bin -->
<g id="edge6" class="edge"><title>chj&#45;&gt;chj_bin</title>
<path fill="none" stroke="black" d="M618.057,-405.112C685.818,-400.073 861.149,-385.032 914,-361 918.174,-359.102 957.955,-324.227 984.698,-300.576"/>
<polygon fill="black" stroke="black" points="987.023,-303.192 992.19,-293.942 982.382,-297.951 987.023,-303.192"/>
</g>
<!-- chj_emacs -->
<g id="node6" class="node"><title>chj_emacs</title>
<ellipse fill="none" stroke="blue" cx="543" cy="-278" rx="46.5926" ry="18"/>
<text text-anchor="middle" x="543" y="-274.3" font-family="Times,serif" font-size="14.00">chj&#45;emacs</text>
</g>
<!-- chj&#45;&gt;chj_emacs -->
<g id="edge7" class="edge"><title>chj&#45;&gt;chj_emacs</title>
<path fill="none" stroke="black" d="M568.893,-397.474C554.367,-389.902 536.526,-377.783 528,-361 519.26,-343.797 523.693,-322.271 529.948,-305.591"/>
<polygon fill="black" stroke="black" points="533.364,-306.491 533.976,-295.914 526.902,-303.801 533.364,-306.491"/>
</g>
<!-- cj_git_patchtool -->
<g id="node11" class="node"><title>cj_git_patchtool</title>
<ellipse fill="none" stroke="blue" cx="730" cy="-343" rx="64.9885" ry="18"/>
<text text-anchor="middle" x="730" y="-339.3" font-family="Times,serif" font-size="14.00">cj&#45;git&#45;patchtool</text>
</g>
<!-- chj&#45;&gt;cj_git_patchtool -->
<g id="edge9" class="edge"><title>chj&#45;&gt;cj_git_patchtool</title>
<path fill="none" stroke="black" d="M612.719,-397.156C632.895,-388.012 663.484,-374.148 688.364,-362.871"/>
<polygon fill="black" stroke="black" points="689.923,-366.007 697.586,-358.691 687.033,-359.632 689.923,-366.007"/>
</g>
<!-- debianpackages -->
<g id="node15" class="node"><title>debianpackages</title>
<ellipse fill="none" stroke="blue" cx="788" cy="-278" rx="66.0889" ry="18"/>
<text text-anchor="middle" x="788" y="-274.3" font-family="Times,serif" font-size="14.00">debianpackages</text>
</g>
<!-- chj&#45;&gt;debianpackages -->
<g id="edge5" class="edge"><title>chj&#45;&gt;debianpackages</title>
<path fill="none" stroke="black" d="M599.943,-390.861C610.905,-372.47 631.124,-342.681 656,-325 677.029,-310.053 703.357,-299.587 726.956,-292.458"/>
<polygon fill="black" stroke="black" points="728.236,-295.732 736.879,-289.604 726.301,-289.005 728.236,-295.732"/>
</g>
<!-- fastrandom -->
<g id="node19" class="node"><title>fastrandom</title>
<ellipse fill="none" stroke="blue" cx="247" cy="-343" rx="50.8918" ry="18"/>
<text text-anchor="middle" x="247" y="-339.3" font-family="Times,serif" font-size="14.00">fastrandom</text>
</g>
<!-- chj&#45;&gt;fastrandom -->
<g id="edge8" class="edge"><title>chj&#45;&gt;fastrandom</title>
<path fill="none" stroke="black" d="M566.932,-399.489C556.035,-396.267 542.945,-392.645 531,-390 451.885,-372.481 430.985,-373.98 351,-361 335.149,-358.428 317.942,-355.621 302.171,-353.043"/>
<polygon fill="black" stroke="black" points="302.478,-349.546 292.044,-351.386 301.348,-356.454 302.478,-349.546"/>
</g>
<!-- git_sign -->
<g id="node27" class="node"><title>git_sign</title>
<ellipse fill="none" stroke="blue" cx="693" cy="-83" rx="37.8943" ry="18"/>
<text text-anchor="middle" x="693" y="-79.3" font-family="Times,serif" font-size="14.00">git&#45;sign</text>
</g>
<!-- chj&#45;&gt;git_sign -->
<g id="edge4" class="edge"><title>chj&#45;&gt;git_sign</title>
<path fill="none" stroke="black" d="M567.306,-399.152C556.369,-395.824 543.143,-392.211 531,-390 420.518,-369.884 38,-391.298 38,-279 38,-279 38,-279 38,-212 38,-88.3829 493.055,-81.9114 644.579,-83.1831"/>
<polygon fill="black" stroke="black" points="644.919,-86.6865 654.953,-83.2865 644.989,-79.6869 644.919,-86.6865"/>
</g>
<!-- chj_bin&#45;&gt;_bs -->
<g id="edge10" class="edge"><title>chj_bin&#45;&gt;_bs</title>
<path fill="none" stroke="black" d="M1044.39,-275.118C1150.6,-268.636 1462.76,-243.213 1520,-166 1565.84,-104.163 1418.02,-88.9478 1346.05,-85.212"/>
<polygon fill="black" stroke="black" points="1346.16,-81.7137 1336.01,-84.7399 1345.83,-88.7059 1346.16,-81.7137"/>
</g>
<!-- chj_perllib -->
<g id="node9" class="node"><title>chj_perllib</title>
<ellipse fill="none" stroke="blue" cx="1250" cy="-213" rx="47.3916" ry="18"/>
<text text-anchor="middle" x="1250" y="-209.3" font-family="Times,serif" font-size="14.00">chj&#45;perllib</text>
</g>
<!-- chj_bin&#45;&gt;chj_perllib -->
<g id="edge12" class="edge"><title>chj_bin&#45;&gt;chj_perllib</title>
<path fill="none" stroke="black" d="M1040.69,-269.534C1077.45,-260.769 1139.81,-245.574 1193,-231 1196.76,-229.97 1200.65,-228.875 1204.55,-227.755"/>
<polygon fill="black" stroke="black" points="1205.57,-231.103 1214.19,-224.947 1203.61,-224.382 1205.57,-231.103"/>
</g>
<!-- chj_bin&#45;&gt;git_sign -->
<g id="edge11" class="edge"><title>chj_bin&#45;&gt;git_sign</title>
<path fill="none" stroke="black" d="M975.604,-271.29C943.635,-264.836 894.817,-252.344 857,-231 842.407,-222.764 757.498,-141.163 745,-130 736.19,-122.131 726.505,-113.546 717.906,-105.946"/>
<polygon fill="black" stroke="black" points="720.183,-103.287 710.37,-99.292 715.549,-108.535 720.183,-103.287"/>
</g>
<!-- chj_emacs_checkout -->
<g id="node7" class="node"><title>chj_emacs_checkout</title>
<ellipse fill="none" stroke="blue" cx="471" cy="-213" rx="81.4863" ry="18"/>
<text text-anchor="middle" x="471" y="-209.3" font-family="Times,serif" font-size="14.00">chj&#45;emacs&#45;checkout</text>
</g>
<!-- chj_emacs&#45;&gt;chj_emacs_checkout -->
<g id="edge13" class="edge"><title>chj_emacs&#45;&gt;chj_emacs_checkout</title>
<path fill="none" stroke="black" d="M524.831,-261.102C516.583,-253.885 506.664,-245.206 497.599,-237.274"/>
<polygon fill="black" stroke="black" points="499.748,-234.504 489.917,-230.553 495.138,-239.772 499.748,-234.504"/>
</g>
<!-- chj_emacs_checkout&#45;&gt;git_sign -->
<g id="edge14" class="edge"><title>chj_emacs_checkout&#45;&gt;git_sign</title>
<path fill="none" stroke="black" d="M471.178,-194.993C472.326,-176.371 477.104,-146.913 495,-130 516.536,-109.647 595.019,-96.202 646.469,-89.3602"/>
<polygon fill="black" stroke="black" points="647.222,-92.7922 656.691,-88.04 646.325,-85.8499 647.222,-92.7922"/>
</g>
<!-- chj_fastrandom -->
<g id="node8" class="node"><title>chj_fastrandom</title>
<ellipse fill="none" stroke="green" cx="601" cy="-148" rx="64.189" ry="18"/>
<text text-anchor="middle" x="601" y="-144.3" font-family="Times,serif" font-size="14.00">chj&#45;fastrandom</text>
</g>
<!-- chj_fastrandom&#45;&gt;git_sign -->
<g id="edge15" class="edge"><title>chj_fastrandom&#45;&gt;git_sign</title>
<path fill="none" stroke="black" d="M624.215,-131.102C636.239,-122.869 651.041,-112.733 663.83,-103.975"/>
<polygon fill="black" stroke="black" points="666.03,-106.711 672.303,-98.1728 662.075,-100.935 666.03,-106.711"/>
</g>
<!-- chj_perllib_checkout -->
<g id="node10" class="node"><title>chj_perllib_checkout</title>
<ellipse fill="none" stroke="blue" cx="1209" cy="-148" rx="81.7856" ry="18"/>
<text text-anchor="middle" x="1209" y="-144.3" font-family="Times,serif" font-size="14.00">chj&#45;perllib&#45;checkout</text>
</g>
<!-- chj_perllib&#45;&gt;chj_perllib_checkout -->
<g id="edge16" class="edge"><title>chj_perllib&#45;&gt;chj_perllib_checkout</title>
<path fill="none" stroke="black" d="M1239.23,-195.447C1235.09,-189.09 1230.27,-181.676 1225.7,-174.662"/>
<polygon fill="black" stroke="black" points="1228.52,-172.573 1220.13,-166.101 1222.65,-176.391 1228.52,-172.573"/>
</g>
<!-- chj_perllib_checkout&#45;&gt;_bs -->
<g id="edge17" class="edge"><title>chj_perllib_checkout&#45;&gt;_bs</title>
<path fill="none" stroke="black" d="M1234.75,-130.776C1249.03,-121.779 1266.8,-110.588 1281.37,-101.408"/>
<polygon fill="black" stroke="black" points="1283.37,-104.282 1289.97,-95.99 1279.64,-98.3591 1283.37,-104.282"/>
</g>
<!-- chj_perllib_checkout&#45;&gt;git_sign -->
<g id="edge18" class="edge"><title>chj_perllib_checkout&#45;&gt;git_sign</title>
<path fill="none" stroke="black" d="M1150.37,-135.362C1139.63,-133.425 1128.49,-131.546 1118,-130 981.152,-109.842 818.293,-94.6534 739.836,-87.8832"/>
<polygon fill="black" stroke="black" points="740.051,-84.3888 729.788,-87.0225 739.453,-91.3633 740.051,-84.3888"/>
</g>
<!-- cj_git_patchtool&#45;&gt;chj_bin -->
<g id="edge20" class="edge"><title>cj_git_patchtool&#45;&gt;chj_bin</title>
<path fill="none" stroke="black" d="M778.598,-331.026C831.91,-318.988 916.596,-299.865 967.092,-288.463"/>
<polygon fill="black" stroke="black" points="968.037,-291.838 977.021,-286.221 966.495,-285.01 968.037,-291.838"/>
</g>
<!-- cj_git_patchtool&#45;&gt;debianpackages -->
<g id="edge19" class="edge"><title>cj_git_patchtool&#45;&gt;debianpackages</title>
<path fill="none" stroke="black" d="M745.239,-325.447C751.45,-318.701 758.758,-310.763 765.558,-303.377"/>
<polygon fill="black" stroke="black" points="768.463,-305.388 772.662,-295.661 763.314,-300.647 768.463,-305.388"/>
</g>
<!-- cj_git_patchtool&#45;&gt;git_sign -->
<g id="edge21" class="edge"><title>cj_git_patchtool&#45;&gt;git_sign</title>
<path fill="none" stroke="black" d="M711.03,-325.516C660.83,-281.89 528.312,-166.686 528,-166 521.373,-151.437 518.324,-142.743 528,-130 542.402,-111.034 603.366,-97.7944 646.994,-90.5396"/>
<polygon fill="black" stroke="black" points="647.802,-93.9546 657.119,-88.9103 646.69,-87.0435 647.802,-93.9546"/>
</g>
<!-- cplusplus -->
<g id="node12" class="node"><title>cplusplus</title>
<ellipse fill="none" stroke="blue" cx="728" cy="-213" rx="44.393" ry="18"/>
<text text-anchor="middle" x="728" y="-209.3" font-family="Times,serif" font-size="14.00">cplusplus</text>
</g>
<!-- cplusplus&#45;&gt;perhaps_aptupdate -->
<g id="edge22" class="edge"><title>cplusplus&#45;&gt;perhaps_aptupdate</title>
<path fill="none" stroke="black" d="M766.502,-204.021C816.824,-193.592 905.706,-175.173 966.662,-162.54"/>
<polygon fill="black" stroke="black" points="967.49,-165.943 976.572,-160.487 966.07,-159.089 967.49,-165.943"/>
</g>
<!-- debian_emacs -->
<g id="node13" class="node"><title>debian_emacs</title>
<ellipse fill="none" stroke="blue" cx="380" cy="-278" rx="59.5901" ry="18"/>
<text text-anchor="middle" x="380" y="-274.3" font-family="Times,serif" font-size="14.00">debian&#45;emacs</text>
</g>
<!-- debian_upgrade -->
<g id="node14" class="node"><title>debian_upgrade</title>
<ellipse fill="none" stroke="blue" cx="1485" cy="-278" rx="66.8882" ry="18"/>
<text text-anchor="middle" x="1485" y="-274.3" font-family="Times,serif" font-size="14.00">debian_upgrade</text>
</g>
<!-- debian_upgrade&#45;&gt;perhaps_aptupdate -->
<g id="edge23" class="edge"><title>debian_upgrade&#45;&gt;perhaps_aptupdate</title>
<path fill="none" stroke="black" d="M1457.42,-261.435C1423.05,-242.735 1361.99,-211.788 1306,-195 1225.02,-170.718 1201.27,-180.645 1118,-166 1111.45,-164.849 1104.64,-163.595 1097.84,-162.308"/>
<polygon fill="black" stroke="black" points="1098.39,-158.851 1087.91,-160.407 1097.07,-165.726 1098.39,-158.851"/>
</g>
<!-- urxvt -->
<g id="node41" class="node"><title>urxvt</title>
<ellipse fill="none" stroke="blue" cx="1155" cy="-213" rx="29.4969" ry="18"/>
<text text-anchor="middle" x="1155" y="-209.3" font-family="Times,serif" font-size="14.00">urxvt</text>
</g>
<!-- debianpackages&#45;&gt;urxvt -->
<g id="edge24" class="edge"><title>debianpackages&#45;&gt;urxvt</title>
<path fill="none" stroke="black" d="M845.609,-268.991C904.452,-260.554 998.36,-246.377 1079,-231 1091.76,-228.566 1105.65,-225.565 1118.02,-222.764"/>
<polygon fill="black" stroke="black" points="1119.04,-226.122 1128,-220.475 1117.47,-219.3 1119.04,-226.122"/>
</g>
<!-- dnsresolver -->
<g id="node16" class="node"><title>dnsresolver</title>
<ellipse fill="none" stroke="green" cx="1359" cy="-668" rx="51.1914" ry="18"/>
<text text-anchor="middle" x="1359" y="-664.3" font-family="Times,serif" font-size="14.00">dnsresolver</text>
</g>
<!-- dotconfig_xfce4_checkout -->
<g id="node17" class="node"><title>dotconfig_xfce4_checkout</title>
<ellipse fill="none" stroke="blue" cx="1410" cy="-148" rx="101.282" ry="18"/>
<text text-anchor="middle" x="1410" y="-144.3" font-family="Times,serif" font-size="14.00">dotconfig&#45;xfce4&#45;checkout</text>
</g>
<!-- dotconfig_xfce4_checkout&#45;&gt;_bs -->
<g id="edge25" class="edge"><title>dotconfig_xfce4_checkout&#45;&gt;_bs</title>
<path fill="none" stroke="black" d="M1383.73,-130.612C1369.3,-121.615 1351.42,-110.462 1336.77,-101.322"/>
<polygon fill="black" stroke="black" points="1338.46,-98.2508 1328.12,-95.9279 1334.75,-104.19 1338.46,-98.2508"/>
</g>
<!-- dotconfig_xfce4_checkout&#45;&gt;git_sign -->
<g id="edge26" class="edge"><title>dotconfig_xfce4_checkout&#45;&gt;git_sign</title>
<path fill="none" stroke="black" d="M1338.81,-135.171C1325.92,-133.265 1312.57,-131.446 1300,-130 1092.17,-106.102 842.813,-91.658 740.417,-86.3365"/>
<polygon fill="black" stroke="black" points="740.562,-82.8394 730.395,-85.8205 740.202,-89.8302 740.562,-82.8394"/>
</g>
<!-- emacs -->
<g id="node18" class="node"><title>emacs</title>
<ellipse fill="none" stroke="green" cx="393" cy="-343" rx="33.2948" ry="18"/>
<text text-anchor="middle" x="393" y="-339.3" font-family="Times,serif" font-size="14.00">emacs</text>
</g>
<!-- emacs&#45;&gt;chj_emacs -->
<g id="edge28" class="edge"><title>emacs&#45;&gt;chj_emacs</title>
<path fill="none" stroke="black" d="M418.445,-331.313C441.597,-321.589 476.152,-307.076 502.997,-295.801"/>
<polygon fill="black" stroke="black" points="504.638,-298.908 512.503,-291.809 501.927,-292.454 504.638,-298.908"/>
</g>
<!-- emacs&#45;&gt;debian_emacs -->
<g id="edge27" class="edge"><title>emacs&#45;&gt;debian_emacs</title>
<path fill="none" stroke="black" d="M389.448,-324.785C388.273,-319.09 386.934,-312.605 385.642,-306.343"/>
<polygon fill="black" stroke="black" points="388.997,-305.281 383.548,-296.194 382.141,-306.695 388.997,-305.281"/>
</g>
<!-- fastrandom&#45;&gt;_usr_local_bin_fastrandom -->
<g id="edge29" class="edge"><title>fastrandom&#45;&gt;_usr_local_bin_fastrandom</title>
<path fill="none" stroke="black" d="M235.44,-325.447C231,-319.09 225.821,-311.676 220.922,-304.662"/>
<polygon fill="black" stroke="black" points="223.539,-302.295 214.943,-296.101 217.8,-306.303 223.539,-302.295"/>
</g>
<!-- fperl -->
<g id="node20" class="node"><title>fperl</title>
<ellipse fill="none" stroke="green" cx="878" cy="-343" rx="27.0966" ry="18"/>
<text text-anchor="middle" x="878" y="-339.3" font-family="Times,serif" font-size="14.00">fperl</text>
</g>
<!-- fperl&#45;&gt;chj_bin -->
<g id="edge32" class="edge"><title>fperl&#45;&gt;chj_bin</title>
<path fill="none" stroke="black" d="M899.339,-331.738C919.82,-321.888 951.085,-306.852 974.998,-295.352"/>
<polygon fill="black" stroke="black" points="976.595,-298.468 984.09,-290.98 973.561,-292.159 976.595,-298.468"/>
</g>
<!-- fperl&#45;&gt;debianpackages -->
<g id="edge31" class="edge"><title>fperl&#45;&gt;debianpackages</title>
<path fill="none" stroke="black" d="M859.787,-329.251C848.242,-321.17 832.999,-310.499 819.53,-301.071"/>
<polygon fill="black" stroke="black" points="821.191,-297.961 810.991,-295.094 817.176,-303.696 821.191,-297.961"/>
</g>
<!-- fperl&#45;&gt;git_sign -->
<g id="edge30" class="edge"><title>fperl&#45;&gt;git_sign</title>
<path fill="none" stroke="black" d="M878.84,-324.732C878.851,-306.963 876.405,-279.235 863,-260 848.531,-239.239 833.651,-246.944 814,-231 797.145,-217.325 796.83,-209.85 781,-195 766.016,-180.943 758.685,-181.325 745,-166 729.653,-148.813 715.87,-126.603 706.356,-109.633"/>
<polygon fill="black" stroke="black" points="709.398,-107.901 701.527,-100.809 703.258,-111.262 709.398,-107.901"/>
</g>
<!-- full_desktop -->
<g id="node21" class="node"><title>full_desktop</title>
<ellipse fill="none" stroke="blue" cx="976" cy="-538" rx="53.0913" ry="18"/>
<text text-anchor="middle" x="976" y="-534.3" font-family="Times,serif" font-size="14.00">full&#45;desktop</text>
</g>
<!-- full_desktop&#45;&gt;slim_desktop -->
<g id="edge33" class="edge"><title>full_desktop&#45;&gt;slim_desktop</title>
<path fill="none" stroke="black" d="M974.907,-519.785C974.545,-514.09 974.134,-507.605 973.736,-501.343"/>
<polygon fill="black" stroke="black" points="977.218,-500.952 973.092,-491.194 970.232,-501.396 977.218,-500.952"/>
</g>
<!-- full_desktop_autoremove -->
<g id="node22" class="node"><title>full_desktop_autoremove</title>
<ellipse fill="none" stroke="green" cx="997" cy="-603" rx="99.3824" ry="18"/>
<text text-anchor="middle" x="997" y="-599.3" font-family="Times,serif" font-size="14.00">full&#45;desktop_autoremove</text>
</g>
<!-- full_desktop_autoremove&#45;&gt;full_desktop -->
<g id="edge34" class="edge"><title>full_desktop_autoremove&#45;&gt;full_desktop</title>
<path fill="none" stroke="black" d="M991.262,-584.785C989.317,-578.951 987.096,-572.288 984.962,-565.885"/>
<polygon fill="black" stroke="black" points="988.214,-564.574 981.731,-556.194 981.573,-566.788 988.214,-564.574"/>
</g>
<!-- full_vncserver -->
<g id="node23" class="node"><title>full_vncserver</title>
<ellipse fill="none" stroke="blue" cx="1206" cy="-603" rx="59.5901" ry="18"/>
<text text-anchor="middle" x="1206" y="-599.3" font-family="Times,serif" font-size="14.00">full&#45;vncserver</text>
</g>
<!-- full_vncserver&#45;&gt;_slim_vncserver -->
<g id="edge35" class="edge"><title>full_vncserver&#45;&gt;_slim_vncserver</title>
<path fill="none" stroke="black" d="M1155.42,-593.323C1139.31,-590.604 1121.42,-587.628 1105,-585 1020.22,-571.429 998.413,-571.709 914,-556 908.223,-554.925 902.219,-553.733 896.226,-552.492"/>
<polygon fill="black" stroke="black" points="896.7,-549.015 886.193,-550.372 895.253,-555.864 896.7,-549.015"/>
</g>
<!-- full_vncserver&#45;&gt;debianpackages -->
<g id="edge36" class="edge"><title>full_vncserver&#45;&gt;debianpackages</title>
<path fill="none" stroke="black" d="M1186.35,-585.76C1160.65,-564.403 1114.39,-525.534 1076,-491 1058.7,-475.441 1057.16,-468.189 1038,-455 958.415,-400.228 914.772,-424.545 842,-361 824.233,-345.486 809.896,-322.785 800.472,-305.2"/>
<polygon fill="black" stroke="black" points="803.442,-303.322 795.751,-296.035 797.219,-306.528 803.442,-303.322"/>
</g>
<!-- system -->
<g id="node40" class="node"><title>system</title>
<ellipse fill="none" stroke="blue" cx="1255" cy="-408" rx="35.9954" ry="18"/>
<text text-anchor="middle" x="1255" y="-404.3" font-family="Times,serif" font-size="14.00">system</text>
</g>
<!-- full_vncserver&#45;&gt;system -->
<g id="edge38" class="edge"><title>full_vncserver&#45;&gt;system</title>
<path fill="none" stroke="black" d="M1210.35,-584.873C1218.88,-551.252 1237.89,-476.389 1248.14,-436.029"/>
<polygon fill="black" stroke="black" points="1251.59,-436.643 1250.66,-426.089 1244.81,-434.92 1251.59,-436.643"/>
</g>
<!-- full_vncserver&#45;&gt;urxvt -->
<g id="edge37" class="edge"><title>full_vncserver&#45;&gt;urxvt</title>
<path fill="none" stroke="black" d="M1251.96,-591.455C1306.46,-575.907 1390,-541.126 1390,-474 1390,-474 1390,-474 1390,-342 1390,-330.669 1380.34,-331.42 1371,-325 1338.54,-302.682 1238.37,-253.801 1186.65,-229.029"/>
<polygon fill="black" stroke="black" points="1188.11,-225.85 1177.58,-224.696 1185.09,-232.166 1188.11,-225.85"/>
</g>
<!-- full_vncserver_clean -->
<g id="node24" class="node"><title>full_vncserver_clean</title>
<ellipse fill="none" stroke="green" cx="1206" cy="-668" rx="83.3857" ry="18"/>
<text text-anchor="middle" x="1206" y="-664.3" font-family="Times,serif" font-size="14.00">full&#45;vncserver_clean</text>
</g>
<!-- full_vncserver_clean&#45;&gt;full_vncserver -->
<g id="edge39" class="edge"><title>full_vncserver_clean&#45;&gt;full_vncserver</title>
<path fill="none" stroke="black" d="M1206,-649.785C1206,-644.09 1206,-637.605 1206,-631.343"/>
<polygon fill="black" stroke="black" points="1209.5,-631.194 1206,-621.194 1202.5,-631.194 1209.5,-631.194"/>
</g>
<!-- gambit -->
<g id="node25" class="node"><title>gambit</title>
<ellipse fill="none" stroke="blue" cx="573" cy="-343" rx="35.9954" ry="18"/>
<text text-anchor="middle" x="573" y="-339.3" font-family="Times,serif" font-size="14.00">gambit</text>
</g>
<!-- gambit&#45;&gt;chj_bin -->
<g id="edge43" class="edge"><title>gambit&#45;&gt;chj_bin</title>
<path fill="none" stroke="black" d="M605.22,-334.835C620.552,-331.571 639.172,-327.816 656,-325 714.336,-315.238 882.775,-294.359 964.062,-284.443"/>
<polygon fill="black" stroke="black" points="964.962,-287.86 974.466,-283.176 964.116,-280.911 964.962,-287.86"/>
</g>
<!-- gambit&#45;&gt;chj_emacs -->
<g id="edge44" class="edge"><title>gambit&#45;&gt;chj_emacs</title>
<path fill="none" stroke="black" d="M564.961,-325.117C562.069,-319.044 558.733,-312.039 555.549,-305.353"/>
<polygon fill="black" stroke="black" points="558.521,-303.453 551.062,-295.929 552.201,-306.463 558.521,-303.453"/>
</g>
<!-- gambit&#45;&gt;cplusplus -->
<g id="edge41" class="edge"><title>gambit&#45;&gt;cplusplus</title>
<path fill="none" stroke="black" d="M592.035,-327.504C603.678,-318.552 618.819,-306.759 632,-296 656.219,-276.232 683.249,-253.038 702.441,-236.372"/>
<polygon fill="black" stroke="black" points="704.91,-238.863 710.155,-229.658 700.314,-233.583 704.91,-238.863"/>
</g>
<!-- gambit&#45;&gt;debianpackages -->
<g id="edge42" class="edge"><title>gambit&#45;&gt;debianpackages</title>
<path fill="none" stroke="black" d="M601.467,-332.015C608.482,-329.639 615.992,-327.166 623,-325 659.02,-313.865 699.831,-302.477 731.853,-293.818"/>
<polygon fill="black" stroke="black" points="733.177,-297.086 741.923,-291.106 731.357,-290.327 733.177,-297.086"/>
</g>
<!-- gambit_checkout -->
<g id="node26" class="node"><title>gambit_checkout</title>
<ellipse fill="none" stroke="blue" cx="867" cy="-148" rx="70.3881" ry="18"/>
<text text-anchor="middle" x="867" y="-144.3" font-family="Times,serif" font-size="14.00">gambit&#45;checkout</text>
</g>
<!-- gambit&#45;&gt;gambit_checkout -->
<g id="edge40" class="edge"><title>gambit&#45;&gt;gambit_checkout</title>
<path fill="none" stroke="black" d="M582.425,-325.455C602.48,-290.8 649.613,-212.356 675,-195 708.494,-172.101 752.064,-160.544 789.23,-154.735"/>
<polygon fill="black" stroke="black" points="790.134,-158.141 799.53,-153.245 789.131,-151.213 790.134,-158.141"/>
</g>
<!-- gambit_checkout&#45;&gt;_bs -->
<g id="edge45" class="edge"><title>gambit_checkout&#45;&gt;_bs</title>
<path fill="none" stroke="black" d="M917.448,-135.469C926.907,-133.499 936.734,-131.581 946,-130 1064.64,-109.757 1206.48,-94.2827 1272.21,-87.6054"/>
<polygon fill="black" stroke="black" points="1272.87,-91.0574 1282.47,-86.5728 1272.17,-84.0926 1272.87,-91.0574"/>
</g>
<!-- gambit_checkout&#45;&gt;git_sign -->
<g id="edge46" class="edge"><title>gambit_checkout&#45;&gt;git_sign</title>
<path fill="none" stroke="black" d="M827.951,-132.862C799.27,-122.477 760.477,-108.431 731.844,-98.0641"/>
<polygon fill="black" stroke="black" points="732.767,-94.6761 722.173,-94.5625 730.384,-101.258 732.767,-94.6761"/>
</g>
<!-- key -->
<g id="node29" class="node"><title>key</title>
<ellipse fill="none" stroke="blue" cx="346" cy="-18" rx="27" ry="18"/>
<text text-anchor="middle" x="346" y="-14.3" font-family="Times,serif" font-size="14.00">key</text>
</g>
<!-- git_sign&#45;&gt;key -->
<g id="edge47" class="edge"><title>git_sign&#45;&gt;key</title>
<path fill="none" stroke="black" d="M658.46,-75.729C592.395,-63.7346 448.758,-37.6563 381.755,-25.4915"/>
<polygon fill="black" stroke="black" points="382.148,-22.0057 371.683,-23.6629 380.897,-28.8931 382.148,-22.0057"/>
</g>
<!-- graph_deps -->
<g id="node28" class="node"><title>graph_deps</title>
<ellipse fill="none" stroke="green" cx="916" cy="-213" rx="50.0912" ry="18"/>
<text text-anchor="middle" x="916" y="-209.3" font-family="Times,serif" font-size="14.00">graph&#45;deps</text>
</g>
<!-- graph_deps&#45;&gt;perhaps_aptupdate -->
<g id="edge48" class="edge"><title>graph_deps&#45;&gt;perhaps_aptupdate</title>
<path fill="none" stroke="black" d="M942.613,-197.547C957.851,-189.271 977.225,-178.748 994.038,-169.617"/>
<polygon fill="black" stroke="black" points="995.956,-172.559 1003.07,-164.71 992.615,-166.407 995.956,-172.559"/>
</g>
<!-- load_profile -->
<g id="node30" class="node"><title>load_profile</title>
<ellipse fill="none" stroke="green" cx="1139" cy="-473" rx="53.8905" ry="18"/>
<text text-anchor="middle" x="1139" y="-469.3" font-family="Times,serif" font-size="14.00">load_profile</text>
</g>
<!-- xfce4_load_profile -->
<g id="node44" class="node"><title>xfce4_load_profile</title>
<ellipse fill="none" stroke="blue" cx="1115" cy="-408" rx="77.1866" ry="18"/>
<text text-anchor="middle" x="1115" y="-404.3" font-family="Times,serif" font-size="14.00">xfce4_load_profile</text>
</g>
<!-- load_profile&#45;&gt;xfce4_load_profile -->
<g id="edge49" class="edge"><title>load_profile&#45;&gt;xfce4_load_profile</title>
<path fill="none" stroke="black" d="M1132.57,-455.117C1130.35,-449.281 1127.79,-442.585 1125.34,-436.137"/>
<polygon fill="black" stroke="black" points="1128.45,-434.468 1121.62,-426.369 1121.91,-436.96 1128.45,-434.468"/>
</g>
<!-- locales -->
<g id="node31" class="node"><title>locales</title>
<ellipse fill="none" stroke="blue" cx="1255" cy="-343" rx="35.194" ry="18"/>
<text text-anchor="middle" x="1255" y="-339.3" font-family="Times,serif" font-size="14.00">locales</text>
</g>
<!-- locales&#45;&gt;chj_bin -->
<g id="edge50" class="edge"><title>locales&#45;&gt;chj_bin</title>
<path fill="none" stroke="black" d="M1228.22,-330.946C1222.59,-328.82 1216.64,-326.722 1211,-325 1209.06,-324.409 1109.79,-301.862 1051.15,-288.559"/>
<polygon fill="black" stroke="black" points="1051.58,-285.069 1041.06,-286.269 1050.04,-291.895 1051.58,-285.069"/>
</g>
<!-- mercurial -->
<g id="node32" class="node"><title>mercurial</title>
<ellipse fill="none" stroke="green" cx="1082" cy="-343" rx="44.6926" ry="18"/>
<text text-anchor="middle" x="1082" y="-339.3" font-family="Times,serif" font-size="14.00">mercurial</text>
</g>
<!-- mercurial&#45;&gt;chj_bin -->
<g id="edge51" class="edge"><title>mercurial&#45;&gt;chj_bin</title>
<path fill="none" stroke="black" d="M1063.96,-326.427C1054.89,-318.607 1043.77,-309.009 1033.91,-300.498"/>
<polygon fill="black" stroke="black" points="1036.19,-297.844 1026.33,-293.96 1031.62,-303.143 1036.19,-297.844"/>
</g>
<!-- moduser -->
<g id="node33" class="node"><title>moduser</title>
<ellipse fill="none" stroke="green" cx="369" cy="-473" rx="41.6928" ry="18"/>
<text text-anchor="middle" x="369" y="-469.3" font-family="Times,serif" font-size="14.00">moduser</text>
</g>
<!-- moduser&#45;&gt;chj -->
<g id="edge52" class="edge"><title>moduser&#45;&gt;chj</title>
<path fill="none" stroke="black" d="M402.717,-462.432C444.402,-450.602 514.956,-430.58 556.843,-418.693"/>
<polygon fill="black" stroke="black" points="557.923,-422.025 566.587,-415.928 556.011,-415.291 557.923,-422.025"/>
</g>
<!-- moduser&#45;&gt;key -->
<g id="edge53" class="edge"><title>moduser&#45;&gt;key</title>
<path fill="none" stroke="black" d="M328.101,-469.48C232.027,-461.127 0,-425.761 0,-279 0,-279 0,-279 0,-147 0,-81.4532 221.18,-38.8959 309.86,-24.4672"/>
<polygon fill="black" stroke="black" points="310.672,-27.8819 319.994,-22.8474 309.567,-20.9697 310.672,-27.8819"/>
</g>
<!-- nosudo -->
<g id="node34" class="node"><title>nosudo</title>
<ellipse fill="none" stroke="green" cx="1465" cy="-668" rx="36.2938" ry="18"/>
<text text-anchor="middle" x="1465" y="-664.3" font-family="Times,serif" font-size="14.00">nosudo</text>
</g>
<!-- qemu -->
<g id="node36" class="node"><title>qemu</title>
<ellipse fill="none" stroke="green" cx="491" cy="-408" rx="30.5947" ry="18"/>
<text text-anchor="middle" x="491" y="-404.3" font-family="Times,serif" font-size="14.00">qemu</text>
</g>
<!-- qemu&#45;&gt;gambit -->
<g id="edge55" class="edge"><title>qemu&#45;&gt;gambit</title>
<path fill="none" stroke="black" d="M508.793,-393.33C519.662,-384.979 533.775,-374.136 546.001,-364.743"/>
<polygon fill="black" stroke="black" points="548.303,-367.388 554.101,-358.52 544.038,-361.837 548.303,-367.388"/>
</g>
<!-- qemu&#45;&gt;git_sign -->
<g id="edge54" class="edge"><title>qemu&#45;&gt;git_sign</title>
<path fill="none" stroke="black" d="M490.696,-389.793C489.266,-359.813 482.19,-297.615 449,-260 427.262,-235.364 399.111,-258.413 381,-231 372.18,-217.65 370.258,-206.858 381,-195 424.928,-146.51 624.848,-209.186 674,-166 689.325,-152.535 693.586,-129.371 694.293,-111.09"/>
<polygon fill="black" stroke="black" points="697.793,-111.022 694.355,-101.001 690.793,-110.979 697.793,-111.022"/>
</g>
<!-- slim_desktop&#45;&gt;chj -->
<g id="edge56" class="edge"><title>slim_desktop&#45;&gt;chj</title>
<path fill="none" stroke="black" d="M922.971,-463.893C845.166,-451.027 695.232,-426.235 626.724,-414.907"/>
<polygon fill="black" stroke="black" points="627.275,-411.451 616.838,-413.272 626.133,-418.357 627.275,-411.451"/>
</g>
<!-- slim_desktop&#45;&gt;xfce4_load_profile -->
<g id="edge57" class="edge"><title>slim_desktop&#45;&gt;xfce4_load_profile</title>
<path fill="none" stroke="black" d="M1003.74,-458.018C1023.59,-449.271 1049.44,-437.882 1071.23,-428.283"/>
<polygon fill="black" stroke="black" points="1072.86,-431.389 1080.6,-424.154 1070.04,-424.983 1072.86,-431.389"/>
</g>
<!-- slim_vncserver -->
<g id="node38" class="node"><title>slim_vncserver</title>
<ellipse fill="none" stroke="green" cx="816" cy="-603" rx="63.8893" ry="18"/>
<text text-anchor="middle" x="816" y="-599.3" font-family="Times,serif" font-size="14.00">slim&#45;vncserver</text>
</g>
<!-- slim_vncserver&#45;&gt;_slim_vncserver -->
<g id="edge58" class="edge"><title>slim_vncserver&#45;&gt;_slim_vncserver</title>
<path fill="none" stroke="black" d="M821.738,-584.785C823.683,-578.951 825.904,-572.288 828.038,-565.885"/>
<polygon fill="black" stroke="black" points="831.427,-566.788 831.269,-556.194 824.786,-564.574 831.427,-566.788"/>
</g>
<!-- swap -->
<g id="node39" class="node"><title>swap</title>
<ellipse fill="none" stroke="green" cx="1173" cy="-343" rx="28.6953" ry="18"/>
<text text-anchor="middle" x="1173" y="-339.3" font-family="Times,serif" font-size="14.00">swap</text>
</g>
<!-- swap&#45;&gt;chj_bin -->
<g id="edge59" class="edge"><title>swap&#45;&gt;chj_bin</title>
<path fill="none" stroke="black" d="M1150.83,-331.449C1145.97,-329.242 1140.84,-326.984 1136,-325 1106.69,-312.984 1072.96,-300.842 1047.63,-292.052"/>
<polygon fill="black" stroke="black" points="1048.61,-288.688 1038.01,-288.737 1046.32,-295.306 1048.61,-288.688"/>
</g>
<!-- system&#45;&gt;debian_upgrade -->
<g id="edge60" class="edge"><title>system&#45;&gt;debian_upgrade</title>
<path fill="none" stroke="black" d="M1284.5,-397.563C1308.49,-389.358 1342.87,-376.387 1371,-361 1402.29,-343.882 1435.05,-319.547 1457.38,-301.835"/>
<polygon fill="black" stroke="black" points="1459.79,-304.387 1465.4,-295.4 1455.41,-298.927 1459.79,-304.387"/>
</g>
<!-- system&#45;&gt;locales -->
<g id="edge61" class="edge"><title>system&#45;&gt;locales</title>
<path fill="none" stroke="black" d="M1255,-389.785C1255,-384.09 1255,-377.605 1255,-371.343"/>
<polygon fill="black" stroke="black" points="1258.5,-371.194 1255,-361.194 1251.5,-371.194 1258.5,-371.194"/>
</g>
<!-- urxvt&#45;&gt;perhaps_aptupdate -->
<g id="edge62" class="edge"><title>urxvt&#45;&gt;perhaps_aptupdate</title>
<path fill="none" stroke="black" d="M1133.29,-200.882C1116.31,-192.182 1092.23,-179.848 1071.8,-169.388"/>
<polygon fill="black" stroke="black" points="1073.21,-166.177 1062.72,-164.734 1070.02,-172.408 1073.21,-166.177"/>
</g>
<!-- vncclient -->
<g id="node42" class="node"><title>vncclient</title>
<ellipse fill="none" stroke="green" cx="1027" cy="-213" rx="42.7926" ry="18"/>
<text text-anchor="middle" x="1027" y="-209.3" font-family="Times,serif" font-size="14.00">vncclient</text>
</g>
<!-- vncclient&#45;&gt;perhaps_aptupdate -->
<g id="edge63" class="edge"><title>vncclient&#45;&gt;perhaps_aptupdate</title>
<path fill="none" stroke="black" d="M1028.37,-194.785C1028.82,-189.09 1029.33,-182.605 1029.83,-176.343"/>
<polygon fill="black" stroke="black" points="1033.33,-176.44 1030.64,-166.194 1026.36,-175.886 1033.33,-176.44"/>
</g>
<!-- xfce -->
<g id="node43" class="node"><title>xfce</title>
<ellipse fill="none" stroke="blue" cx="1335" cy="-343" rx="27" ry="18"/>
<text text-anchor="middle" x="1335" y="-339.3" font-family="Times,serif" font-size="14.00">xfce</text>
</g>
<!-- xfce&#45;&gt;chj_bin -->
<g id="edge65" class="edge"><title>xfce&#45;&gt;chj_bin</title>
<path fill="none" stroke="black" d="M1314.49,-330.991C1309.53,-328.705 1304.17,-326.529 1299,-325 1206.54,-297.648 1178.89,-313.119 1084,-296 1072.93,-294.004 1061.03,-291.481 1050.04,-288.994"/>
<polygon fill="black" stroke="black" points="1050.79,-285.574 1040.26,-286.737 1049.21,-292.395 1050.79,-285.574"/>
</g>
<!-- xfce&#45;&gt;dotconfig_xfce4_checkout -->
<g id="edge66" class="edge"><title>xfce&#45;&gt;dotconfig_xfce4_checkout</title>
<path fill="none" stroke="black" d="M1341.52,-325.21C1354.57,-291.646 1383.95,-216.03 1399.65,-175.63"/>
<polygon fill="black" stroke="black" points="1402.97,-176.754 1403.33,-166.165 1396.45,-174.218 1402.97,-176.754"/>
</g>
<!-- xfce&#45;&gt;perhaps_aptupdate -->
<g id="edge64" class="edge"><title>xfce&#45;&gt;perhaps_aptupdate</title>
<path fill="none" stroke="black" d="M1313.85,-331.677C1262.6,-306.593 1134.64,-243.571 1117,-231 1113.61,-228.584 1080.31,-196.225 1056.41,-172.892"/>
<polygon fill="black" stroke="black" points="1058.63,-170.168 1049.03,-165.682 1053.74,-175.174 1058.63,-170.168"/>
</g>
<!-- xfce4_load_profile&#45;&gt;chj_bin -->
<g id="edge67" class="edge"><title>xfce4_load_profile&#45;&gt;chj_bin</title>
<path fill="none" stroke="black" d="M1071.77,-392.91C1055.86,-385.704 1039.05,-375.351 1028,-361 1015.97,-345.369 1011.34,-323.424 1009.66,-306.169"/>
<polygon fill="black" stroke="black" points="1013.14,-305.858 1008.95,-296.13 1006.16,-306.352 1013.14,-305.858"/>
</g>
<!-- xfce4_load_profile&#45;&gt;xfce -->
<g id="edge68" class="edge"><title>xfce4_load_profile&#45;&gt;xfce</title>
<path fill="none" stroke="black" d="M1172.23,-395.729C1208.98,-387.75 1257.45,-375.842 1299,-361 1300.86,-360.337 1302.74,-359.612 1304.63,-358.845"/>
<polygon fill="black" stroke="black" points="1306.2,-361.979 1313.97,-354.774 1303.41,-355.562 1306.2,-361.979"/>
</g>
</g>
</svg>
